<svg width="64" height="64" viewBox="0 0 64 64" fill="none" xmlns="http://www.w3.org/2000/svg">
<g clip-path="url(#clip0_42_828)">
<path d="M30 0V64C29.0335 64.0029 28.0768 63.8056 27.1903 63.4205C26.3038 63.0355 25.5067 62.471 24.8491 61.7627C24.1915 61.0543 23.6877 60.2175 23.3694 59.3049C23.0512 58.3923 22.9254 57.4236 23 56.46C21.25 57.6332 19.144 58.1552 17.0487 57.9353C14.9534 57.7153 13.0017 56.7673 11.5335 55.2563C10.0654 53.7453 9.17383 51.7671 9.0142 49.6664C8.85457 47.5657 9.43698 45.4755 10.66 43.76C8.17838 43.2281 5.95708 41.8544 4.3726 39.8718C2.78812 37.8892 1.93795 35.4197 1.9662 32.8819C1.99445 30.3441 2.89938 27.8941 4.5276 25.9473C6.15583 24.0005 8.40716 22.6766 10.9 22.2C10.1939 20.6744 9.88385 18.9954 9.99847 17.3182C10.1131 15.641 10.6487 14.0198 11.5557 12.6044C12.4628 11.189 13.712 10.0251 15.1879 9.22033C16.6639 8.41554 18.3189 7.99584 20 8C22.21 8 22 8.46 22 8C22 5.87827 22.8428 3.84344 24.3431 2.34315C25.8434 0.842855 27.8782 0 30 0V0Z" fill="#102391"/>
<path d="M36 0C35.2965 0.00545837 34.6172 0.258013 34.081 0.713515C33.5448 1.16902 33.1857 1.79849 33.0666 2.49189C32.9475 3.18529 33.0758 3.89851 33.4292 4.50687C33.7826 5.11523 34.3386 5.58002 35 5.82V10C35 10.2652 35.1054 10.5196 35.2929 10.7071C35.4804 10.8946 35.7348 11 36 11C36.2652 11 36.5196 10.8946 36.7071 10.7071C36.8946 10.5196 37 10.2652 37 10V5.82C37.6614 5.58002 38.2174 5.11523 38.5708 4.50687C38.9242 3.89851 39.0525 3.18529 38.9334 2.49189C38.8143 1.79849 38.4552 1.16902 37.919 0.713515C37.3828 0.258013 36.7035 0.00545837 36 0V0ZM36 4C35.7348 4 35.4804 3.89464 35.2929 3.70711C35.1054 3.51957 35 3.26522 35 3C35 2.73478 35.1054 2.48043 35.2929 2.29289C35.4804 2.10536 35.7348 2 36 2C36.2652 2 36.5196 2.10536 36.7071 2.29289C36.8946 2.48043 37 2.73478 37 3C37 3.26522 36.8946 3.51957 36.7071 3.70711C36.5196 3.89464 36.2652 4 36 4ZM46 0C45.2965 0.00545837 44.6172 0.258013 44.081 0.713515C43.5448 1.16902 43.1857 1.79849 43.0666 2.49189C42.9475 3.18529 43.0758 3.89851 43.4292 4.50687C43.7826 5.11523 44.3386 5.58002 45 5.82V10C45 10.2652 45.1054 10.5196 45.2929 10.7071C45.4804 10.8946 45.7348 11 46 11C46.2652 11 46.5196 10.8946 46.7071 10.7071C46.8946 10.5196 47 10.2652 47 10V5.82C47.6614 5.58002 48.2174 5.11523 48.5708 4.50687C48.9242 3.89851 49.0525 3.18529 48.9334 2.49189C48.8143 1.79849 48.4552 1.16902 47.919 0.713515C47.3828 0.258013 46.7035 0.00545837 46 0V0ZM46 4C45.7348 4 45.4804 3.89464 45.2929 3.70711C45.1054 3.51957 45 3.26522 45 3C45 2.73478 45.1054 2.48043 45.2929 2.29289C45.4804 2.10536 45.7348 2 46 2C46.2652 2 46.5196 2.10536 46.7071 2.29289C46.8946 2.48043 47 2.73478 47 3C47 3.26522 46.8946 3.51957 46.7071 3.70711C46.5196 3.89464 46.2652 4 46 4ZM37 58.18V54C37 53.7348 36.8946 53.4804 36.7071 53.2929C36.5196 53.1054 36.2652 53 36 53C35.7348 53 35.4804 53.1054 35.2929 53.2929C35.1054 53.4804 35 53.7348 35 54V58.18C34.3328 58.4159 33.7705 58.8801 33.4124 59.4905C33.0543 60.1009 32.9235 60.8182 33.0432 61.5157C33.1629 62.2132 33.5253 62.846 34.0663 63.3021C34.6074 63.7582 35.2923 64.0084 36 64.0084C36.7077 64.0084 37.3926 63.7582 37.9337 63.3021C38.4747 62.846 38.8371 62.2132 38.9568 61.5157C39.0765 60.8182 38.9457 60.1009 38.5876 59.4905C38.2296 58.8801 37.6672 58.4159 37 58.18ZM36 62C35.7348 62 35.4804 61.8946 35.2929 61.7071C35.1054 61.5196 35 61.2652 35 61C35 60.7348 35.1054 60.4804 35.2929 60.2929C35.4804 60.1054 35.7348 60 36 60C36.2652 60 36.5196 60.1054 36.7071 60.2929C36.8946 60.4804 37 60.7348 37 61C37 61.2652 36.8946 61.5196 36.7071 61.7071C36.5196 61.8946 36.2652 62 36 62ZM47 58.18V54C47 53.7348 46.8946 53.4804 46.7071 53.2929C46.5196 53.1054 46.2652 53 46 53C45.7348 53 45.4804 53.1054 45.2929 53.2929C45.1054 53.4804 45 53.7348 45 54V58.18C44.3328 58.4159 43.7705 58.8801 43.4124 59.4905C43.0543 60.1009 42.9235 60.8182 43.0432 61.5157C43.1629 62.2132 43.5253 62.846 44.0663 63.3021C44.6074 63.7582 45.2923 64.0084 46 64.0084C46.7077 64.0084 47.3926 63.7582 47.9337 63.3021C48.4747 62.846 48.8371 62.2132 48.9568 61.5157C49.0765 60.8182 48.9457 60.1009 48.5876 59.4905C48.2296 58.8801 47.6672 58.4159 47 58.18ZM46 62C45.7348 62 45.4804 61.8946 45.2929 61.7071C45.1054 61.5196 45 61.2652 45 61C45 60.7348 45.1054 60.4804 45.2929 60.2929C45.4804 60.1054 45.7348 60 46 60C46.2652 60 46.5196 60.1054 46.7071 60.2929C46.8946 60.4804 47 60.7348 47 61C47 61.2652 46.8946 61.5196 46.7071 61.7071C46.5196 61.8946 46.2652 62 46 62ZM52 18H56.18C56.4159 18.6672 56.8801 19.2296 57.4905 19.5876C58.1009 19.9457 58.8182 20.0765 59.5157 19.9568C60.2132 19.8371 60.846 19.4747 61.3021 18.9337C61.7583 18.3926 62.0084 17.7077 62.0084 17C62.0084 16.2923 61.7583 15.6074 61.3021 15.0663C60.846 14.5253 60.2132 14.1629 59.5157 14.0432C58.8182 13.9235 58.1009 14.0543 57.4905 14.4124C56.8801 14.7704 56.4159 15.3328 56.18 16H52C51.7348 16 51.4804 16.1054 51.2929 16.2929C51.1054 16.4804 51 16.7348 51 17C51 17.2652 51.1054 17.5196 51.2929 17.7071C51.4804 17.8946 51.7348 18 52 18ZM59 16C59.2652 16 59.5196 16.1054 59.7071 16.2929C59.8946 16.4804 60 16.7348 60 17C60 17.2652 59.8946 17.5196 59.7071 17.7071C59.5196 17.8946 59.2652 18 59 18C58.7348 18 58.4804 17.8946 58.2929 17.7071C58.1054 17.5196 58 17.2652 58 17C58 16.7348 58.1054 16.4804 58.2929 16.2929C58.4804 16.1054 58.7348 16 59 16ZM56.18 26H52C51.7348 26 51.4804 26.1054 51.2929 26.2929C51.1054 26.4804 51 26.7348 51 27C51 27.2652 51.1054 27.5196 51.2929 27.7071C51.4804 27.8946 51.7348 28 52 28H56.18C56.4159 28.6672 56.8801 29.2296 57.4905 29.5876C58.1009 29.9457 58.8182 30.0765 59.5157 29.9568C60.2132 29.8371 60.846 29.4747 61.3021 28.9337C61.7583 28.3926 62.0084 27.7077 62.0084 27C62.0084 26.2923 61.7583 25.6074 61.3021 25.0663C60.846 24.5253 60.2132 24.1629 59.5157 24.0432C58.8182 23.9235 58.1009 24.0543 57.4905 24.4124C56.8801 24.7704 56.4159 25.3328 56.18 26ZM59 28C58.7348 28 58.4804 27.8946 58.2929 27.7071C58.1054 27.5196 58 27.2652 58 27C58 26.7348 58.1054 26.4804 58.2929 26.2929C58.4804 26.1054 58.7348 26 59 26C59.2652 26 59.5196 26.1054 59.7071 26.2929C59.8946 26.4804 60 26.7348 60 27C60 27.2652 59.8946 27.5196 59.7071 27.7071C59.5196 27.8946 59.2652 28 59 28ZM56.18 36H52C51.7348 36 51.4804 36.1054 51.2929 36.2929C51.1054 36.4804 51 36.7348 51 37C51 37.2652 51.1054 37.5196 51.2929 37.7071C51.4804 37.8946 51.7348 38 52 38H56.18C56.4159 38.6672 56.8801 39.2296 57.4905 39.5876C58.1009 39.9457 58.8182 40.0765 59.5157 39.9568C60.2132 39.8371 60.846 39.4747 61.3021 38.9337C61.7583 38.3926 62.0084 37.7077 62.0084 37C62.0084 36.2923 61.7583 35.6074 61.3021 35.0663C60.846 34.5253 60.2132 34.1629 59.5157 34.0432C58.8182 33.9235 58.1009 34.0543 57.4905 34.4124C56.8801 34.7704 56.4159 35.3328 56.18 36ZM59 38C58.7348 38 58.4804 37.8946 58.2929 37.7071C58.1054 37.5196 58 37.2652 58 37C58 36.7348 58.1054 36.4804 58.2929 36.2929C58.4804 36.1054 58.7348 36 59 36C59.2652 36 59.5196 36.1054 59.7071 36.2929C59.8946 36.4804 60 36.7348 60 37C60 37.2652 59.8946 37.5196 59.7071 37.7071C59.5196 37.8946 59.2652 38 59 38ZM56.18 46H52C51.7348 46 51.4804 46.1054 51.2929 46.2929C51.1054 46.4804 51 46.7348 51 47C51 47.2652 51.1054 47.5196 51.2929 47.7071C51.4804 47.8946 51.7348 48 52 48H56.18C56.4159 48.6672 56.8801 49.2296 57.4905 49.5876C58.1009 49.9457 58.8182 50.0765 59.5157 49.9568C60.2132 49.8371 60.846 49.4747 61.3021 48.9337C61.7583 48.3926 62.0084 47.7077 62.0084 47C62.0084 46.2923 61.7583 45.6074 61.3021 45.0663C60.846 44.5253 60.2132 44.1629 59.5157 44.0432C58.8182 43.9235 58.1009 44.0543 57.4905 44.4124C56.8801 44.7704 56.4159 45.3328 56.18 46ZM59 48C58.7348 48 58.4804 47.8946 58.2929 47.7071C58.1054 47.5196 58 47.2652 58 47C58 46.7348 58.1054 46.4804 58.2929 46.2929C58.4804 46.1054 58.7348 46 59 46C59.2652 46 59.5196 46.1054 59.7071 46.2929C59.8946 46.4804 60 46.7348 60 47C60 47.2652 59.8946 47.5196 59.7071 47.7071C59.5196 47.8946 59.2652 48 59 48Z" fill="#D9D9D9"/>
<path d="M30 10H48C49.0609 10 50.0783 10.4214 50.8284 11.1716C51.5786 11.9217 52 12.9391 52 14V50C52 51.0609 51.5786 52.0783 50.8284 52.8284C50.0783 53.5786 49.0609 54 48 54H30V10Z" fill="#4F008B"/>
<path d="M30 17H45C45.2652 17 45.5196 17.1054 45.7071 17.2929C45.8946 17.4804 46 17.7348 46 18V46C46 46.2652 45.8946 46.5196 45.7071 46.7071C45.5196 46.8946 45.2652 47 45 47H30V17Z" fill="#F3F3F3"/>
<path d="M24.82 15C24.5841 14.3328 24.1199 13.7705 23.5095 13.4124C22.8991 13.0543 22.1818 12.9235 21.4843 13.0432C20.7868 13.1629 20.154 13.5253 19.6979 14.0663C19.2418 14.6074 18.9916 15.2923 18.9916 16C18.9916 16.7077 19.2418 17.3926 19.6979 17.9337C20.154 18.4747 20.7868 18.8371 21.4843 18.9568C22.1818 19.0765 22.8991 18.9457 23.5095 18.5876C24.1199 18.2296 24.5841 17.6672 24.82 17H30V15H24.82ZM22 17C21.7348 17 21.4804 16.8947 21.2929 16.7071C21.1054 16.5196 21 16.2652 21 16C21 15.7348 21.1054 15.4804 21.2929 15.2929C21.4804 15.1054 21.7348 15 22 15C22.2652 15 22.5196 15.1054 22.7071 15.2929C22.8946 15.4804 23 15.7348 23 16C23 16.2652 22.8946 16.5196 22.7071 16.7071C22.5196 16.8947 22.2652 17 22 17ZM26 26C25.2044 26 24.4413 26.3161 23.8787 26.8787C23.3161 27.4413 23 28.2044 23 29V32C23 32.2652 22.8946 32.5196 22.7071 32.7071C22.5196 32.8946 22.2652 33 22 33H17.82C17.5841 32.3328 17.1199 31.7705 16.5095 31.4124C15.8991 31.0543 15.1818 30.9235 14.4843 31.0432C13.7868 31.1629 13.154 31.5253 12.6979 32.0663C12.2418 32.6074 11.9916 33.2923 11.9916 34C11.9916 34.7077 12.2418 35.3926 12.6979 35.9337C13.154 36.4747 13.7868 36.8371 14.4843 36.9568C15.1818 37.0765 15.8991 36.9457 16.5095 36.5876C17.1199 36.2296 17.5841 35.6672 17.82 35H22C22.7957 35 23.5587 34.6839 24.1213 34.1213C24.6839 33.5587 25 32.7957 25 32V29C25 28.7348 25.1054 28.4804 25.2929 28.2929C25.4804 28.1054 25.7348 28 26 28H30V26H26ZM15 35C14.7348 35 14.4804 34.8946 14.2929 34.7071C14.1054 34.5196 14 34.2652 14 34C14 33.7348 14.1054 33.4804 14.2929 33.2929C14.4804 33.1054 14.7348 33 15 33C15.2652 33 15.5196 33.1054 15.7071 33.2929C15.8946 33.4804 16 33.7348 16 34C16 34.2652 15.8946 34.5196 15.7071 34.7071C15.5196 34.8946 15.2652 35 15 35ZM25 50C24.7348 50 24.4804 49.8947 24.2929 49.7071C24.1054 49.5196 24 49.2652 24 49V46.82C24.6672 46.5841 25.2296 46.1199 25.5876 45.5095C25.9457 44.8991 26.0765 44.1818 25.9568 43.4843C25.8371 42.7868 25.4747 42.154 24.9337 41.6979C24.3926 41.2418 23.7077 40.9916 23 40.9916C22.2923 40.9916 21.6074 41.2418 21.0663 41.6979C20.5253 42.154 20.1629 42.7868 20.0432 43.4843C19.9235 44.1818 20.0543 44.8991 20.4124 45.5095C20.7704 46.1199 21.3328 46.5841 22 46.82V49C22 49.7957 22.3161 50.5587 22.8787 51.1213C23.4413 51.6839 24.2044 52 25 52H30V50H25ZM23 45C22.7348 45 22.4804 44.8946 22.2929 44.7071C22.1054 44.5196 22 44.2652 22 44C22 43.7348 22.1054 43.4804 22.2929 43.2929C22.4804 43.1054 22.7348 43 23 43C23.2652 43 23.5196 43.1054 23.7071 43.2929C23.8946 43.4804 24 43.7348 24 44C24 44.2652 23.8946 44.5196 23.7071 44.7071C23.5196 44.8946 23.2652 45 23 45Z" fill="#00AAA8"/>
</g>
<defs>
<clipPath id="clip0_42_828">
<rect width="64" height="64" fill="white"/>
</clipPath>
</defs>
</svg>
