<svg width="83" height="83" viewBox="0 0 83 83" fill="none" xmlns="http://www.w3.org/2000/svg">
<path d="M41.7902 34.4241C41.7224 34.4898 41.6317 34.5264 41.5373 34.5262L41.2487 5.70625H41.252C41.2524 5.29709 41.3334 4.89201 41.4904 4.51416C41.6473 4.1363 41.8772 3.79306 42.1668 3.50404C42.4565 3.21502 42.8002 2.98587 43.1784 2.82968C43.5565 2.6735 43.9618 2.59333 44.3709 2.59375H61.9857C62.6033 2.59375 63.1956 2.83896 63.6324 3.27548C64.0692 3.71199 64.3148 4.3041 64.3153 4.92164V30.0389C64.3148 30.6564 64.0692 31.2485 63.6324 31.685C63.1956 32.1216 62.6033 32.3668 61.9857 32.3668H44.0516C43.9577 32.3669 43.8676 32.4035 43.8003 32.4689L41.7902 34.4241Z" fill="#E5E5E5"/>
<path d="M41.2487 5.70625L41.5373 34.5261C41.4439 34.5262 41.3542 34.4895 41.2876 34.4239L39.2775 32.4689C39.2102 32.4035 39.1201 32.3669 39.0262 32.3668H20.8619C20.2443 32.3668 19.652 32.1216 19.2152 31.685C18.7784 31.2485 18.5328 30.6564 18.5323 30.0389V4.9218C18.5327 4.30423 18.7783 3.71209 19.2152 3.27553C19.652 2.83898 20.2443 2.59375 20.8619 2.59375H38.1314C38.9575 2.59323 39.7499 2.92084 40.3345 3.50452C40.9191 4.08819 41.248 4.88016 41.2487 5.70625Z" fill="#E2E4ED"/>
<path d="M28.3967 62.8759L28.6998 63.1482C27.7622 64.5618 27.2636 66.2212 27.2668 67.9175V76.5642H6.56543V68.9953C6.56484 67.0226 7.33475 65.1277 8.71107 63.7144C10.0874 62.3012 11.9613 61.4813 13.9333 61.4297C14.5219 62.2269 15.2848 62.879 16.1638 63.3363C17.0429 63.7937 18.0148 64.0441 19.0054 64.0685C19.996 64.0929 20.9791 63.8906 21.8796 63.4771C22.7801 63.0636 23.5742 62.4498 24.2013 61.6826C24.2642 61.5955 24.3354 61.5146 24.4137 61.441C25.8514 61.5277 27.234 62.0258 28.3967 62.8759ZM25.7543 48.7886V52.2058C25.7544 53.0857 25.5812 53.957 25.2445 54.7699C24.9079 55.5829 24.4143 56.3215 23.7922 56.9437C23.17 57.5658 22.4314 58.0594 21.6184 58.396C20.8055 58.7327 19.9342 58.9059 19.0543 58.9058H19.0187C18.1388 58.9059 17.2675 58.7327 16.4546 58.396C15.6416 58.0594 14.903 57.5658 14.2808 56.9437C13.6587 56.3215 13.1651 55.5829 12.8285 54.7699C12.4918 53.957 12.3186 53.0857 12.3187 52.2058V48.7886C12.3188 47.9088 12.4921 47.0377 12.8289 46.2249C13.1656 45.4122 13.6592 44.6737 14.2813 44.0517C14.9035 43.4297 15.6421 42.9363 16.4549 42.5998C17.2677 42.2632 18.1389 42.0901 19.0187 42.0902H19.0543C19.9341 42.0901 20.8053 42.2632 21.6181 42.5998C22.431 42.9363 23.1695 43.4297 23.7917 44.0517C24.4139 44.6737 24.9074 45.4122 25.2442 46.2249C25.5809 47.0377 25.7543 47.9088 25.7543 48.7886Z" fill="#006AFF"/>
<path d="M76.4346 68.9955V76.5642H55.7624V67.9173C55.7659 66.204 55.2579 64.5287 54.3034 63.1059C55.5953 62.0588 57.1978 61.4693 58.8603 61.4297C59.4489 62.2269 60.2118 62.879 61.0908 63.3363C61.9699 63.7937 62.9418 64.0441 63.9324 64.0685C64.923 64.0929 65.9061 63.8906 66.8066 63.4771C67.7071 63.0636 68.5012 62.4498 69.1283 61.6826C69.1912 61.5955 69.2623 61.5146 69.3407 61.441C71.2624 61.561 73.0662 62.4092 74.3843 63.8129C75.7023 65.2165 76.4356 67.07 76.4346 68.9955ZM70.6813 48.7886V52.2058C70.6814 53.0857 70.5082 53.957 70.1715 54.7699C69.8349 55.5829 69.3413 56.3215 68.7192 56.9437C68.097 57.5658 67.3584 58.0594 66.5454 58.396C65.7325 58.7327 64.8612 58.9059 63.9813 58.9058H63.9457C63.0658 58.9059 62.1945 58.7327 61.3816 58.396C60.5686 58.0594 59.83 57.5658 59.2078 56.9437C58.5857 56.3215 58.0921 55.5829 57.7555 54.7699C57.4188 53.957 57.2456 53.0857 57.2457 52.2058V48.7886C57.2458 47.9088 57.4191 47.0377 57.7559 46.2249C58.0926 45.4122 58.5861 44.6737 59.2083 44.0517C59.8305 43.4297 60.5691 42.9363 61.3819 42.5998C62.1947 42.2632 63.0659 42.0901 63.9457 42.0902H63.9813C64.8611 42.0901 65.7323 42.2632 66.5451 42.5998C67.3579 42.9363 68.0965 43.4297 68.7187 44.0517C69.3409 44.6737 69.8344 45.4122 70.1711 46.2249C70.5079 47.0377 70.6813 47.9088 70.6813 48.7886Z" fill="#FF0091"/>
<path d="M41.5357 37.1783H41.4951C37.2675 37.1783 33.8403 40.6055 33.8403 44.8331V48.7351C33.8403 52.9628 37.2675 56.3899 41.4951 56.3899H41.5357C45.7633 56.3899 49.1905 52.9628 49.1905 48.7351V44.8331C49.1905 40.6055 45.7633 37.1783 41.5357 37.1783Z" fill="#00CCBD"/>
<path d="M54.3034 63.1061C55.2579 64.5289 55.7659 66.2042 55.7624 67.9175V80.4063H27.2668V67.9173C27.2661 65.6634 28.1458 63.4984 29.7184 61.8837C31.2909 60.2691 33.432 59.3325 35.6851 59.2737C36.3575 60.1844 37.2291 60.9295 38.2333 61.4519C39.2376 61.9744 40.3479 62.2605 41.4796 62.2883C42.6113 62.3162 43.7344 62.085 44.7631 61.6126C45.7919 61.1401 46.699 60.4388 47.4154 59.5622C47.4882 59.4634 47.5695 59.3712 47.6585 59.2866C48.9854 59.3688 50.2754 59.7563 51.4279 60.4188C52.5805 61.0813 53.5645 62.0009 54.3034 63.1061Z" fill="#00CCBD"/>
<path d="M39.0262 32.3668C39.1201 32.3669 39.2102 32.4036 39.2775 32.4691L41.2876 34.4239C41.3541 34.4896 41.4438 34.5264 41.5373 34.5262L41.5162 32.3668H39.0262Z" fill="#C0FFFD"/>
<path d="M23.3956 30.0389V4.9218C23.396 4.30422 23.6416 3.71205 24.0784 3.27548C24.5152 2.83892 25.1076 2.59371 25.7251 2.59375H20.8619C20.2443 2.59371 19.652 2.8389 19.2152 3.27543C18.7783 3.71195 18.5327 4.30408 18.5323 4.92164V30.0389C18.5327 30.6564 18.7783 31.2486 19.2152 31.6851C19.652 32.1216 20.2443 32.3668 20.8619 32.3668H25.7251C25.1076 32.3668 24.5153 32.1216 24.0785 31.6851C23.6416 31.2486 23.396 30.6564 23.3956 30.0389Z" fill="#B0B5CA"/>
<path d="M38.7036 48.7365V44.8329C38.7039 43.2246 39.2106 41.6573 40.152 40.3532C41.0933 39.0492 42.4214 38.0747 43.9478 37.568C43.1701 37.3099 42.3559 37.1785 41.5365 37.179H41.4959C40.4907 37.1789 39.4953 37.3769 38.5666 37.7615C37.6378 38.1462 36.794 38.71 36.0831 39.4208C35.3723 40.1317 34.8085 40.9755 34.4238 41.9042C34.0391 42.833 33.8411 43.8284 33.8411 44.8336V48.7372C33.8411 49.7424 34.0391 50.7377 34.4239 51.6663C34.8086 52.5949 35.3724 53.4387 36.0833 54.1494C36.7941 54.8601 37.638 55.4238 38.5667 55.8083C39.4954 56.1928 40.4908 56.3906 41.4959 56.3904H41.5365C42.3559 56.3907 43.1701 56.2594 43.9478 56.0013C42.4213 55.4949 41.093 54.5205 40.1516 53.2165C39.2103 51.9124 38.7036 50.3449 38.7036 48.7365ZM35.6851 59.2737C33.432 59.3326 31.291 60.2692 29.7184 61.8839C28.1459 63.4985 27.2661 65.6636 27.2668 67.9175V80.4062H32.1301V67.9173C32.1268 66.221 32.6254 64.5616 33.5631 63.1481C34.3417 61.9738 35.3943 61.0065 36.6301 60.3296C36.2825 60.0082 35.9661 59.6547 35.6851 59.2737Z" fill="#00CCBD"/>
<path d="M20.8623 33.3396H38.778L40.6084 35.1213C40.8565 35.3653 41.1906 35.5021 41.5386 35.5021C41.8866 35.5021 42.2207 35.3653 42.4688 35.1213L44.3006 33.3393H61.9867C62.8617 33.3381 63.7006 32.99 64.3194 32.3713C64.9381 31.7527 65.2863 30.9139 65.2876 30.0389V4.92197C65.2865 4.04667 64.9382 3.20755 64.3192 2.58873C63.7001 1.9699 62.8609 1.62191 61.9856 1.62109H44.3703C43.7765 1.62086 43.1898 1.75006 42.6511 1.99971C42.1123 2.24936 41.6345 2.61345 41.2508 3.06662C40.8672 2.61345 40.3893 2.24936 39.8506 1.99971C39.3118 1.75006 38.7251 1.62086 38.1314 1.62109H20.8623C19.9871 1.62195 19.1478 1.96996 18.5288 2.58878C17.9098 3.20759 17.5615 4.04668 17.5603 4.92197V30.0389C17.5615 30.9141 17.9099 31.7532 18.5289 32.372C19.1479 32.9907 19.9871 33.3387 20.8623 33.3396ZM42.2253 5.70625C42.2266 5.13824 42.4532 4.59395 42.8553 4.19279C43.2575 3.79163 43.8023 3.56636 44.3703 3.56641H61.9856C62.3451 3.56666 62.6899 3.70953 62.9442 3.96366C63.1986 4.21778 63.3417 4.56242 63.3423 4.92197V30.0389C63.3417 30.3984 63.1986 30.743 62.9442 30.9972C62.6899 31.2513 62.3451 31.3942 61.9856 31.3944H44.0516C43.7041 31.3936 43.3702 31.5292 43.1217 31.7721L42.4895 32.3882L42.2217 5.70625H42.2253ZM19.5056 4.92197C19.5062 4.56242 19.6494 4.21778 19.9037 3.96366C20.158 3.70953 20.5028 3.56666 20.8623 3.56641H38.1314C38.4134 3.56666 38.6926 3.62247 38.953 3.73064C39.2134 3.83881 39.45 3.99723 39.6492 4.19685C39.8484 4.39646 40.0063 4.63336 40.1139 4.89402C40.2215 5.15467 40.2767 5.43398 40.2764 5.71598L40.5436 32.3428L39.9572 31.7723C39.7087 31.5292 39.3747 31.3934 39.027 31.3943H20.8623C20.5028 31.394 20.158 31.2511 19.9037 30.997C19.6494 30.7429 19.5062 30.3982 19.5056 30.0387V4.92197Z" fill="#284268"/>
<path d="M29.156 8.64496H36.4279C36.6859 8.64496 36.9333 8.54248 37.1157 8.36007C37.2981 8.17767 37.4006 7.93027 37.4006 7.6723C37.4006 7.41434 37.2981 7.16694 37.1157 6.98453C36.9333 6.80212 36.6859 6.69965 36.4279 6.69965H29.156C28.898 6.69965 28.6506 6.80212 28.4682 6.98453C28.2858 7.16694 28.1834 7.41434 28.1834 7.6723C28.1834 7.93027 28.2858 8.17767 28.4682 8.36007C28.6506 8.54248 28.898 8.64496 29.156 8.64496ZM22.8574 8.64496H25.665C25.9229 8.64496 26.1703 8.54248 26.3528 8.36007C26.5352 8.17767 26.6376 7.93027 26.6376 7.6723C26.6376 7.41434 26.5352 7.16694 26.3528 6.98453C26.1703 6.80212 25.9229 6.69965 25.665 6.69965H22.8574C22.5994 6.69965 22.352 6.80212 22.1696 6.98453C21.9872 7.16694 21.8848 7.41434 21.8848 7.6723C21.8848 7.93027 21.9872 8.17767 22.1696 8.36007C22.352 8.54248 22.5994 8.64496 22.8574 8.64496ZM36.4279 13.0245H34.7491C34.4911 13.0245 34.2437 13.127 34.0613 13.3094C33.8789 13.4918 33.7765 13.7392 33.7765 13.9972C33.7765 14.2551 33.8789 14.5025 34.0613 14.6849C34.2437 14.8673 34.4911 14.9698 34.7491 14.9698H36.4279C36.6859 14.9698 36.9333 14.8673 37.1157 14.6849C37.2981 14.5025 37.4006 14.2551 37.4006 13.9972C37.4006 13.7392 37.2981 13.4918 37.1157 13.3094C36.9333 13.127 36.6859 13.0245 36.4279 13.0245ZM22.8574 14.9698H31.2641C31.522 14.9698 31.7694 14.8673 31.9519 14.6849C32.1343 14.5025 32.2367 14.2551 32.2367 13.9972C32.2367 13.7392 32.1343 13.4918 31.9519 13.3094C31.7694 13.127 31.522 13.0245 31.2641 13.0245H22.8574C22.5994 13.0245 22.352 13.127 22.1696 13.3094C21.9872 13.4918 21.8848 13.7392 21.8848 13.9972C21.8848 14.2551 21.9872 14.5025 22.1696 14.6849C22.352 14.8673 22.5994 14.9698 22.8574 14.9698ZM36.4279 19.3495H26.3551C26.0971 19.3495 25.8497 19.452 25.6673 19.6344C25.4849 19.8168 25.3824 20.0642 25.3824 20.3222C25.3824 20.5801 25.4849 20.8275 25.6673 21.01C25.8497 21.1924 26.0971 21.2948 26.3551 21.2948H36.4279C36.6859 21.2948 36.9333 21.1924 37.1157 21.01C37.2981 20.8275 37.4006 20.5801 37.4006 20.3222C37.4006 20.0642 37.2981 19.8168 37.1157 19.6344C36.9333 19.452 36.6859 19.3495 36.4279 19.3495ZM22.8362 21.2948H22.8574C23.1154 21.2948 23.3628 21.1924 23.5452 21.01C23.7276 20.8275 23.8301 20.5801 23.8301 20.3222C23.8301 20.0642 23.7276 19.8168 23.5452 19.6344C23.3628 19.452 23.1154 19.3495 22.8574 19.3495H22.8368C22.5789 19.3495 22.3315 19.452 22.149 19.6344C21.9666 19.8168 21.8642 20.0642 21.8642 20.3222C21.8642 20.5801 21.9666 20.8275 22.149 21.01C22.3315 21.1924 22.5789 21.2948 22.8368 21.2948H22.8362ZM36.4279 25.6745H35.4668C35.2088 25.6745 34.9614 25.777 34.779 25.9594C34.5966 26.1418 34.4941 26.3892 34.4941 26.6472C34.4941 26.9052 34.5966 27.1526 34.779 27.335C34.9614 27.5174 35.2088 27.6199 35.4668 27.6199H36.4279C36.6859 27.6199 36.9333 27.5174 37.1157 27.335C37.2981 27.1526 37.4006 26.9052 37.4006 26.6472C37.4006 26.3892 37.2981 26.1418 37.1157 25.9594C36.9333 25.777 36.6859 25.6745 36.4279 25.6745ZM31.9307 25.6745H22.8574C22.5994 25.6745 22.352 25.777 22.1696 25.9594C21.9872 26.1418 21.8848 26.3892 21.8848 26.6472C21.8848 26.9052 21.9872 27.1526 22.1696 27.335C22.352 27.5174 22.5994 27.6199 22.8574 27.6199H31.9307C32.1886 27.6199 32.436 27.5174 32.6184 27.335C32.8009 27.1526 32.9033 26.9052 32.9033 26.6472C32.9033 26.3892 32.8009 26.1418 32.6184 25.9594C32.436 25.777 32.1886 25.6745 31.9307 25.6745ZM58.231 8.64496H59.7224C59.9803 8.64496 60.2277 8.54248 60.4101 8.36007C60.5926 8.17767 60.695 7.93027 60.695 7.6723C60.695 7.41434 60.5926 7.16694 60.4101 6.98453C60.2277 6.80212 59.9803 6.69965 59.7224 6.69965H58.231C57.973 6.69965 57.7256 6.80212 57.5432 6.98453C57.3608 7.16694 57.2583 7.41434 57.2583 7.6723C57.2583 7.93027 57.3608 8.17767 57.5432 8.36007C57.7256 8.54248 57.973 8.64496 58.231 8.64496ZM46.1509 8.64496H54.6308C54.8888 8.64496 55.1362 8.54248 55.3186 8.36007C55.501 8.17767 55.6035 7.93027 55.6035 7.6723C55.6035 7.41434 55.501 7.16694 55.3186 6.98453C55.1362 6.80212 54.8888 6.69965 54.6308 6.69965H46.1509C45.8929 6.69965 45.6455 6.80212 45.4631 6.98453C45.2807 7.16694 45.1783 7.41434 45.1783 7.6723C45.1783 7.93027 45.2807 8.17767 45.4631 8.36007C45.6455 8.54248 45.8929 8.64496 46.1509 8.64496ZM59.7222 13.0245H51.7789C51.5209 13.0245 51.2735 13.127 51.0911 13.3094C50.9087 13.4918 50.8062 13.7392 50.8062 13.9972C50.8062 14.2551 50.9087 14.5025 51.0911 14.6849C51.2735 14.8673 51.5209 14.9698 51.7789 14.9698H59.7222C59.9802 14.9698 60.2276 14.8673 60.41 14.6849C60.5924 14.5025 60.6949 14.2551 60.6949 13.9972C60.6949 13.7392 60.5924 13.4918 60.41 13.3094C60.2276 13.127 59.9802 13.0245 59.7222 13.0245ZM46.1509 14.9698H48.2373C48.4952 14.9698 48.7426 14.8673 48.925 14.6849C49.1074 14.5025 49.2099 14.2551 49.2099 13.9972C49.2099 13.7392 49.1074 13.4918 48.925 13.3094C48.7426 13.127 48.4952 13.0245 48.2373 13.0245H46.1509C45.8929 13.0245 45.6455 13.127 45.4631 13.3094C45.2807 13.4918 45.1783 13.7392 45.1783 13.9972C45.1783 14.2551 45.2807 14.5025 45.4631 14.6849C45.6455 14.8673 45.8929 14.9698 46.1509 14.9698ZM59.7222 19.3495H57.1208C56.8629 19.3495 56.6155 19.452 56.4331 19.6344C56.2507 19.8168 56.1482 20.0642 56.1482 20.3222C56.1482 20.5801 56.2507 20.8275 56.4331 21.01C56.6155 21.1924 56.8629 21.2948 57.1208 21.2948H59.7222C59.9802 21.2948 60.2276 21.1924 60.41 21.01C60.5924 20.8275 60.6949 20.5801 60.6949 20.3222C60.6949 20.0642 60.5924 19.8168 60.41 19.6344C60.2276 19.452 59.9802 19.3495 59.7222 19.3495ZM46.1509 21.2948H53.6376C53.8956 21.2948 54.143 21.1924 54.3254 21.01C54.5078 20.8275 54.6103 20.5801 54.6103 20.3222C54.6103 20.0642 54.5078 19.8168 54.3254 19.6344C54.143 19.452 53.8956 19.3495 53.6376 19.3495H46.1509C45.8929 19.3495 45.6455 19.452 45.4631 19.6344C45.2807 19.8168 45.1783 20.0642 45.1783 20.3222C45.1783 20.5801 45.2807 20.8275 45.4631 21.01C45.6455 21.1924 45.8929 21.2948 46.1509 21.2948ZM59.7222 25.6745H51.0429C50.7849 25.6745 50.5375 25.777 50.3551 25.9594C50.1727 26.1418 50.0702 26.3892 50.0702 26.6472C50.0702 26.9052 50.1727 27.1526 50.3551 27.335C50.5375 27.5174 50.7849 27.6199 51.0429 27.6199H59.7222C59.9802 27.6199 60.2276 27.5174 60.41 27.335C60.5924 27.1526 60.6949 26.9052 60.6949 26.6472C60.6949 26.3892 60.5924 26.1418 60.41 25.9594C60.2276 25.777 59.9802 25.6745 59.7222 25.6745ZM46.1509 27.6199H47.5689C47.8268 27.6199 48.0742 27.5174 48.2566 27.335C48.4391 27.1526 48.5415 26.9052 48.5415 26.6472C48.5415 26.3892 48.4391 26.1418 48.2566 25.9594C48.0742 25.777 47.8268 25.6745 47.5689 25.6745H46.1509C45.8929 25.6745 45.6455 25.777 45.4631 25.9594C45.2807 26.1418 45.1783 26.3892 45.1783 26.6472C45.1783 26.9052 45.2807 27.1526 45.4631 27.335C45.6455 27.5174 45.8929 27.6199 46.1509 27.6199ZM41.4945 36.206C39.2074 36.2086 37.0147 37.1182 35.3975 38.7354C33.7803 40.3526 32.8706 42.5452 32.868 44.8323V48.7367C32.8706 51.0238 33.7803 53.2165 35.3975 54.8337C37.0147 56.4509 39.2074 57.3606 41.4945 57.3632H41.5361C43.8232 57.3606 46.0159 56.4509 47.6331 54.8337C49.2503 53.2165 50.16 51.0238 50.1626 48.7367V44.8323C50.16 42.5453 49.2502 40.3526 47.633 38.7355C46.0158 37.1183 43.8232 36.2086 41.5361 36.206H41.4945ZM48.2173 44.8323V48.7367C48.2153 50.5081 47.5107 52.2063 46.2582 53.4588C45.0057 54.7113 43.3075 55.4159 41.5361 55.4179H41.4945C39.7231 55.4159 38.0249 54.7113 36.7724 53.4588C35.5199 52.2063 34.8153 50.5081 34.8133 48.7367V44.8323C34.8153 43.061 35.5199 41.3628 36.7724 40.1103C38.0249 38.8578 39.7232 38.1533 41.4945 38.1513H41.5361C43.3075 38.1533 45.0057 38.8578 46.2582 40.1103C47.5107 41.3628 48.2153 43.061 48.2173 44.8323ZM63.9452 41.1168C61.9111 41.1191 59.961 41.9281 58.5228 43.3665C57.0845 44.8048 56.2755 46.7549 56.2732 48.7889V52.2065C56.2755 54.2405 57.0845 56.1906 58.5228 57.6289C59.9611 59.0671 61.9111 59.8762 63.9452 59.8785H63.9816C66.0157 59.8762 67.9657 59.0671 69.404 57.6289C70.8423 56.1906 71.6513 54.2405 71.6536 52.2065V48.7889C71.6513 46.7549 70.8423 44.8048 69.404 43.3665C67.9657 41.9282 66.0157 41.1191 63.9816 41.1168H63.9452ZM69.7083 48.7889V52.2065C69.7066 53.7248 69.1027 55.1804 68.0291 56.254C66.9555 57.3276 65.4999 57.9315 63.9816 57.9332H63.9452C62.4269 57.9315 60.9713 57.3276 59.8977 56.254C58.8241 55.1804 58.2202 53.7248 58.2185 52.2065V48.7889C58.2202 47.2706 58.8241 45.815 59.8977 44.7414C60.9713 43.6678 62.4269 43.0638 63.9452 43.0621H63.9816C65.4999 43.0638 66.9555 43.6678 68.0291 44.7414C69.1027 45.815 69.7066 47.2706 69.7083 48.7889Z" fill="#284268"/>
<path d="M69.399 60.47C68.8897 60.4389 68.6274 60.7576 68.3748 61.0656C67.8417 61.7184 67.1665 62.2408 66.4006 62.5927C65.6348 62.9446 64.7986 63.1169 63.956 63.0962C63.1134 63.0756 62.2867 62.8626 61.539 62.4736C60.7913 62.0846 60.1425 61.5298 59.642 60.8516C59.5492 60.7257 59.4274 60.624 59.2869 60.5553C59.1464 60.4865 58.9914 60.4527 58.835 60.4567C57.2999 60.4908 55.8033 60.9435 54.5067 61.7659C53.6713 60.7571 52.6377 59.9304 51.4701 59.337C50.3024 58.7435 49.0254 58.396 47.718 58.3158C47.2053 58.2843 46.9535 58.5905 46.6627 58.9456C46.0403 59.7077 45.2519 60.3176 44.3578 60.7285C43.4637 61.1394 42.4874 61.3405 41.5037 61.3164C40.52 61.2923 39.5548 61.0436 38.6818 60.5894C37.8089 60.1352 37.0513 59.4875 36.467 58.6957C36.3747 58.5693 36.2529 58.4673 36.1123 58.3985C35.9717 58.3297 35.8165 58.2962 35.66 58.3008C33.1557 58.3593 30.7745 59.3993 29.0297 61.1968C28.8488 61.3834 28.6754 61.5771 28.51 61.7776C27.297 61.0069 25.908 60.557 24.4735 60.47C23.9624 60.4389 23.7017 60.7576 23.4494 61.0656C22.9163 61.7184 22.2411 62.2408 21.4752 62.5927C20.7093 62.9446 19.8732 63.1169 19.0306 63.0962C18.188 63.0756 17.3612 62.8626 16.6135 62.4736C15.8658 62.0846 15.217 61.5298 14.7165 60.8516C14.6238 60.7255 14.502 60.6237 14.3615 60.555C14.221 60.4862 14.0659 60.4525 13.9095 60.4567C11.6836 60.5146 9.56841 61.4398 8.01488 63.0349C6.46135 64.63 5.59238 66.7689 5.59326 68.9955V76.5642C5.59326 76.8222 5.69574 77.0696 5.87815 77.252C6.06056 77.4344 6.30795 77.5369 6.56592 77.5369H26.295V80.4062C26.295 80.6642 26.3974 80.9116 26.5798 81.094C26.7622 81.2764 27.0096 81.3789 27.2676 81.3789H55.7629C56.0208 81.3789 56.2682 81.2764 56.4506 81.094C56.633 80.9116 56.7355 80.6642 56.7355 80.4062V77.5369H76.4346C76.6925 77.5369 76.9399 77.4344 77.1223 77.252C77.3047 77.0696 77.4072 76.8222 77.4072 76.5642V68.9955C77.4063 66.8227 76.5777 64.7318 75.0901 63.1481C73.6025 61.5644 71.5675 60.6068 69.399 60.47ZM7.53809 75.5916V68.9955C7.54717 67.3607 8.15917 65.7868 9.25682 64.5753C10.3545 63.3638 11.8606 62.5999 13.4865 62.4301C14.1864 63.2473 15.0545 63.9039 16.0315 64.3548C17.0084 64.8058 18.0712 65.0405 19.1472 65.043C20.2232 65.0455 21.2871 64.8157 22.2661 64.3693C23.2451 63.9229 24.1162 63.2704 24.8199 62.4564C25.7441 62.5793 26.6313 62.8984 27.4221 63.3924C26.6796 64.7848 26.2924 66.3391 26.295 67.9172V75.5916H7.53809ZM54.7902 79.4336H28.2403V67.9175C28.2395 65.9997 28.957 64.1511 30.2514 62.736C31.5458 61.321 33.3232 60.442 35.2335 60.2723C36.0202 61.2069 37.0012 61.9588 38.1082 62.4755C39.2153 62.9921 40.4216 63.2612 41.6433 63.2638C42.8649 63.2665 44.0725 63.0027 45.1817 62.4909C46.291 61.9791 47.2753 61.2315 48.0661 60.3003C49.9224 60.5331 51.6298 61.4355 52.8679 62.8381C54.106 64.2406 54.7895 66.0468 54.7902 67.9177V79.4336ZM75.4619 75.5916H56.7355V67.9175C56.7364 66.3349 56.345 64.7767 55.5964 63.3823C56.4487 62.8509 57.4129 62.5248 58.4129 62.4298C59.1127 63.2471 59.9808 63.9038 60.9578 64.3549C61.9347 64.8059 62.9976 65.0407 64.0736 65.0433C65.1497 65.0459 66.2136 64.8161 67.1927 64.3697C68.1718 63.9232 69.043 63.2707 69.7467 62.4567C71.3291 62.671 72.7802 63.4516 73.831 64.6539C74.8819 65.8562 75.4613 67.3987 75.4619 68.9955V75.5916Z" fill="#284268"/>
<path d="M19.0183 59.8785H19.0548C21.0888 59.8762 23.0389 59.0671 24.4772 57.6289C25.9155 56.1906 26.7245 54.2405 26.7268 52.2065V48.7889C26.7245 46.7549 25.9155 44.8048 24.4772 43.3665C23.039 41.9281 21.0889 41.1191 19.0548 41.1168H19.0183C16.9843 41.1191 15.0343 41.9282 13.596 43.3665C12.1577 44.8048 11.3487 46.7549 11.3464 48.7889V52.2065C11.3487 54.2405 12.1577 56.1906 13.596 57.6289C15.0343 59.0671 16.9843 59.8762 19.0183 59.8785ZM13.2917 48.7889C13.2934 47.2706 13.8973 45.815 14.9709 44.7414C16.0444 43.6678 17.5001 43.0638 19.0183 43.0621H19.0548C20.5731 43.0638 22.0287 43.6678 23.1023 44.7414C24.1759 45.815 24.7798 47.2706 24.7815 48.7889V52.2065C24.7798 53.7248 24.1759 55.1804 23.1023 56.254C22.0287 57.3276 20.5731 57.9315 19.0548 57.9332H19.0183C17.5001 57.9315 16.0445 57.3276 14.9709 56.254C13.8973 55.1804 13.2934 53.7248 13.2917 52.2065V48.7889Z" fill="#284268"/>
</svg>
