<svg width="66" height="66" viewBox="0 0 66 66" fill="none" xmlns="http://www.w3.org/2000/svg">
<path d="M40.1 9.19998C38 8.49998 35.7 8.09998 33.4 8.09998C21.7 8.09998 12.2 17.6 12.2 29.3C12.2 40.9 21.5 50.3 33 50.5C33.1 50.5 33.3 50.5 33.4 50.5C33.9 50.5 34.4 50.5 34.9 50.4C45.5 49.7 54 41 54.5 30.3C54.5 30 54.5 29.7 54.5 29.4C54.5 20 48.5 12 40.1 9.19998Z" fill="#D5D9DC"/>
<path d="M38 48.8C38 48.6 38.3 48.4 38.2 48.2C38 48.2 37.8 48.4 37.6 48.5C37.1 48.4 36.5 48.6 36.1 48.8C35.9 48.9 35.6 49 35.5 49.2C35.4 49.3 35.4 49.4 35.3 49.6C35.2 49.9 35 50.2 34.9 50.4C36 50.4 37 50.2 38 50C37.8 49.8 38.1 49.4 38.1 49.1C38.1 49 38 48.9 38 48.8ZM40.1 49.1C40.1 49 40 49 40 48.9C39.8 48.7 39.5 48.8 39.2 48.7C39.2 48.6 39.2 48.5 39.2 48.4C39.1 48.3 38.8 48.5 38.9 48.6C38.7 48.6 38.5 48.8 38.3 49L38.2 49.1C38.1 49.3 38.4 49.5 38.4 49.7V49.8C39.2 49.6 40.1 49.3 40.9 49C40.6 49.2 40.3 49.3 40.1 49.1Z" fill="#55C5CA"/>
<path d="M45.6 15.3C45.3 15.5 44.9 15.4 44.7 15.2C44.8 15.2 45 15.2 45.1 15.1C45.1 14.9 44.9 14.8 44.7 14.8C44.5 14.8 44.3 14.8 44.2 14.6C44.1 14.5 44.1 14.3 44 14.2C43.9 14.1 43.8 14.1 43.7 14.1C43.3 14.1 42.9 13.8 42.6 13.5C42.5 13.4 42.5 13.3 42.4 13.3C42.3 13.2 42.2 13.2 42.1 13.2C41.7 13.1 41.3 12.9 40.9 12.6C40.7 12.5 40.5 12.4 40.3 12.4C40.1 12.4 39.9 12.4 39.7 12.3L39.6 12.2C39.5 12.2 39.5 12.2 39.4 12.3C39 12.5 38.6 12.3 38.2 12.4C38.1 12.4 38.1 12.4 38.1 12.5C38.1 12.5 38.1 12.6 38 12.6H37.9C37.7 12.6 37.6 12.7 37.4 12.8C37.1 13 36.9 13.1 36.6 13.3C36.6 13.1 36.7 12.9 36.8 12.8C36.4 12.7 36 12.7 35.6 12.8C35.3 12.8 35 12.9 34.7 12.9C34.6 12.9 34.5 12.9 34.4 13C34.3 13 34.2 13.1 34.1 13.2C34 13.2 33.9 13.2 33.8 13.3C33.7 13.3 33.6 13.4 33.6 13.5C33.6 13.6 33.6 13.7 33.7 13.7C33.7 13.8 33.7 13.9 33.6 13.9C33.5 13.9 33.4 13.8 33.4 13.7C33.3 13.5 33 13.5 32.8 13.5C32.4 13.5 31.9 13.6 31.5 13.6C31.4 13.6 31.3 13.6 31.2 13.6C30.9 13.6 30.7 13.7 30.4 13.7C30.1 13.7 29.8 13.8 29.5 13.9C29.6 14.2 29.7 14.5 30 14.8C30.1 14.9 30.2 15.1 30.1 15.2C30 15.3 29.9 15.2 29.9 15.2C29.8 15.2 29.8 15.1 29.7 15C29.6 15 29.5 14.9 29.5 14.9C29.3 14.8 29.2 14.4 28.9 14.6C28.9 14.5 28.9 14.4 28.9 14.3C28.5 14.4 28 14.5 27.6 14.6C27.5 14.6 27.3 14.7 27.2 14.8C27.1 15 27.3 15.2 27.5 15.3C27.7 15.3 27.9 15.3 28.1 15.2C28.2 15.3 28.1 15.4 28 15.4C28 15.6 28.3 15.7 28.2 15.9C28.1 16 27.9 15.9 27.8 15.9C27.7 15.9 27.6 16 27.6 16.2C27.6 16.3 27.7 16.4 27.7 16.5C27.4 16.3 27.1 16.2 26.8 15.9C26.7 15.8 26.6 15.7 26.5 15.6C26.4 15.5 26.2 15.5 26.1 15.6C26.1 15.5 26.1 15.4 26.1 15.3C25.7 15.3 25.2 15.2 24.8 15.2C24.7 15.2 24.5 15.2 24.5 15.1C24.5 15 24.5 14.9 24.4 14.8C24.3 14.7 24.2 14.7 24.2 14.7C24 14.6 24.1 14.3 24.2 14.1C24.3 14 24.4 13.9 24.3 13.9C24.3 13.8 24.2 13.8 24.1 13.8C23.1 13.6 22.1 13.9 21.3 14.6C21.3 14.5 21.1 14.4 20.9 14.4C20.7 14.4 20.6 14.4 20.4 14.5C20.2 14.6 20.1 14.7 20.1 14.9C20.1 15 20.1 15.1 20.1 15.2C20 15.4 19.7 15.4 19.5 15.4C19.2 15.4 18.9 15.5 18.7 15.6C18 15.9 17.2 16.4 17 17.2C17 17.3 17 17.4 16.9 17.4C16.9 17.4 16.8 17.5 16.7 17.5C16.2 17.6 15.8 17.8 15.3 17.9C15.3 18 15.2 18 15.2 18.1C15.4 18.1 15.5 18.1 15.7 18.1C16.3 18.1 17.1 18.1 17.5 17.6C17.6 17.5 17.7 17.3 17.8 17.3C17.8 17.3 17.9 17.3 17.9 17.4C18 17.5 18.1 17.6 18.2 17.6C18.3 17.6 18.5 17.5 18.6 17.5C18.9 17.8 19.2 18.3 19 18.7C18.9 18.9 18.7 19 18.5 19.1C18.8 19.6 18.5 20.3 18.3 20.9C18.2 21.2 17.9 21.5 17.9 21.8C17.9 21.9 17.9 22 17.9 22.1C17.9 22.4 17.5 22.6 17.4 22.8C17.3 23.1 17.4 23.4 17.5 23.7C17.6 24 17.8 24.3 17.7 24.6C17.7 24.6 17.7 24.7 17.6 24.7H17.5C17.4 24.7 17.2 24.7 17.2 24.8C17.2 24.8 17.2 24.9 17.2 25C17.2 25.1 17 25.2 17 25.4C16.9 25.5 16.9 25.7 16.8 25.8C16.7 25.9 16.6 25.9 16.6 25.9C16.5 26 16.5 26 16.4 26.1C16.2 26.5 16 26.8 15.8 27.2C15.7 27.3 15.7 27.5 15.6 27.6C15.4 28 15.4 28.4 15.1 28.7C14.9 29 14.7 29.3 14.5 29.6C14.4 29.7 14.3 29.8 14.3 29.9C14.2 30.1 14.2 30.2 14.2 30.4C14.2 31 14.1 31.5 14.3 32.1C14.4 32.5 14.7 32.8 14.9 33.2C15.1 33.6 15.2 34 15.2 34.4C15.2 34.9 15.1 35.5 15.3 35.9C15.4 36 15.5 36.2 15.5 36.3C15.5 36.5 15.5 36.7 15.3 36.7H15.2C15.1 36.8 15.1 37 15.2 37.1C15.3 37.2 15.5 37.3 15.6 37.4C15.8 37.6 15.7 38 15.7 38.3C15.7 38.6 16 38.9 16.2 39.2C16.4 39.5 16.5 39.8 16.6 40.1C16.9 39.8 16.8 39.2 16.5 39C16.4 39 16.4 38.9 16.3 38.8C16.3 38.7 16.3 38.6 16.3 38.6C16.4 38.2 16.4 37.7 16.2 37.4C16.2 37.3 16.1 37.3 16.1 37.2C16 37 16.1 36.8 16 36.6C16 36.1 15.5 35.7 15.5 35.2C15.5 34.8 15.7 34.5 16 34.2C16 34.6 16.3 34.8 16.4 35.2C16.4 35.3 16.5 35.5 16.5 35.6C16.7 36.8 17 38 17.6 39C17.8 39.4 18.1 39.7 18.2 40.1C18.3 40.7 18.4 41.2 18.2 41.8C18.2 41.9 18.1 42 18.1 42.1C18.1 42.2 18.2 42.3 18.3 42.4C18.7 42.9 19.1 43.3 19.6 43.6C20.1 44 20.6 44.3 21 44.7C21.4 45 21.9 45.3 22.4 45.4C22.6 45.5 22.7 45.5 22.9 45.5C23.1 45.5 23.3 45.3 23.6 45.3C23.8 45.3 24 45.4 24.2 45.5C24.6 45.7 24.9 46 25.2 46.3C25.3 46.4 25.3 46.5 25.4 46.5C25.5 46.7 25.7 46.8 25.9 46.8C26.5 47.1 27.3 47.4 27.9 47.1C27.8 47.8 28.6 48.2 28.8 48.9C28.8 49.1 28.8 49.3 29 49.4C29.1 49.5 29.4 49.5 29.4 49.3C29.6 49.5 29.8 49.6 30 49.8C30.1 49.8 30.1 49.9 30.1 49.9C30.1 50 30.1 50.1 30.2 50.1C31 50.2 31.7 50.3 32.5 50.3C32.6 50.3 32.6 50.3 32.7 50.3C32.8 50.2 32.8 50.2 32.9 50.2C33 50.2 33.1 50.2 33.2 50.3C33.5 50.3 33.8 50.3 34.1 50.3C34 50.2 33.9 50.1 33.8 50C33.4 49.7 32.8 49.7 32.3 49.8C32.2 49.8 32 49.9 31.8 49.9C31.5 49.9 31.1 49.7 31 49.4C30.9 49.3 30.9 49.1 30.8 49C30.7 48.9 30.6 48.9 30.5 48.9C30.2 48.7 30.2 48.4 30.2 48.1C30.2 47.7 30.2 47.4 30.3 47.1C30.3 47 30.4 46.8 30.4 46.7C30.4 46.2 30 45.8 29.5 45.7C28.8 45.5 28 45.5 27.3 45.5C27.4 45.1 27.5 44.7 27.6 44.3C27.7 44.1 27.7 43.9 27.8 43.7C27.9 43.5 28 43.2 28.1 43C28.3 42.8 28.6 42.5 28.5 42.3C28.4 42 28.1 42 27.8 42C27.4 42 26.9 42 26.5 42.2C26.2 42.4 26 42.7 25.9 43C25.8 43.2 25.8 43.4 25.7 43.5C25.6 43.6 25.4 43.7 25.2 43.6C25 43.4 24.8 43.4 24.6 43.4C24.4 43.5 24.2 43.6 24 43.5C23.8 43.5 23.7 43.4 23.6 43.2C23.1 42.7 22.7 42 22.6 41.2C22.6 41.1 22.6 41.1 22.6 41C22.6 40.9 22.7 40.8 22.7 40.8C22.8 40.5 22.6 40.1 22.6 39.7C22.6 39.3 23 38.9 23.1 38.5C23.1 38.3 23.1 38.2 23.1 38C23.1 37.9 23.2 37.8 23.3 37.7C23.5 37.5 23.8 37.3 24.2 37.2C24.3 37.2 24.4 37.2 24.5 37.1C24.6 37 24.6 36.9 24.7 36.8C24.9 36.6 25.2 36.7 25.4 36.7C25.5 36.7 25.6 36.6 25.7 36.6C26.2 36.5 26.5 37.2 27 37.2C27.3 37.2 27.5 37.1 27.7 36.9L27.8 36.8C27.8 36.7 27.7 36.7 27.7 36.6L27.8 36.5C28.4 36.3 29 36.4 29.5 36.6C29.7 36.7 30 36.8 30.2 36.8C30.3 36.8 30.4 36.7 30.6 36.7C30.8 36.7 31 36.8 31.1 37C31.2 37.2 31.2 37.4 31.2 37.6C31.2 38 31.3 38.5 31.5 38.9C31.6 39.2 31.7 39.5 32 39.6C32.3 39.7 32.6 39.6 32.7 39.3C32.7 39.1 32.5 38.9 32.5 38.7C32.5 38.6 32.6 38.4 32.6 38.3C32.7 37.9 32.4 37.5 32.2 37C32 36.5 32.1 35.9 32.4 35.5C32.7 35.2 33 35 33.4 34.7C34.1 34.3 34.9 33.8 35.5 33.3C35.3 32.8 35.4 32.3 35.6 31.8C35.6 31.7 35.7 31.6 35.7 31.5C35.7 31.3 35.7 31.2 35.8 31.1C35.9 31 36 31 36.1 30.9C36.2 30.8 36.2 30.6 36.2 30.5C36.3 30.2 36.6 30.1 36.9 30.1C37.2 30.1 37.5 30.1 37.8 30C37.9 30 37.9 29.9 37.9 29.9C37.9 29.8 37.9 29.7 37.8 29.6C37.7 29.5 37.6 29.5 37.6 29.4C37.5 29.2 37.6 28.9 37.8 28.8C38 28.7 38.3 28.7 38.5 28.5C38.6 28.4 38.8 28.3 38.9 28.2C39.2 27.9 39.6 27.7 39.9 27.6C40 27.5 40.1 27.5 40.3 27.5C40.2 27.7 40 27.7 39.8 27.9C39.6 28 39.4 28.2 39.5 28.4C39.5 28.6 39.9 28.7 40.1 28.7C40.3 28.6 40.5 28.4 40.7 28.2C40.8 28 41 27.9 41.2 27.8C41.4 27.7 41.6 27.7 41.8 27.6C42 27.5 42.2 27.3 42.1 27.1C41.7 27.3 41.3 27.4 40.8 27.4C40.4 27.1 40 26.8 39.7 26.4C39.8 26.3 39.9 26.1 40.1 26.1C40.2 25.9 40 25.8 39.9 25.7C39.7 25.7 39.6 25.7 39.4 25.8C39 25.9 38.6 26 38.2 26.2C38.1 26.1 38.2 25.9 38.4 25.9C38.5 25.9 38.7 25.9 38.8 25.8C38.9 25.7 38.9 25.6 38.9 25.6C39 25.3 39.3 25.2 39.5 25.1C39.8 25 40.1 25.1 40.3 25.1C41.1 25.1 41.9 24.8 42.6 24.4C42.5 25 42.4 25.6 42.3 26.1C42.3 26.2 42.3 26.4 42.4 26.5C42.5 26.6 42.8 26.5 42.9 26.5C43.2 26.4 43.5 26.3 43.9 26.4C43.8 26.5 43.9 26.7 44.1 26.7C44.3 26.7 44.4 26.6 44.6 26.6C44.8 26.6 45.1 26.6 45.2 26.5C45.3 26.3 45.1 26.1 44.9 26C44.7 25.9 44.4 25.8 44.4 25.6C44.4 25.5 44.4 25.4 44.4 25.4C44.4 25.3 44.2 25.3 44.1 25.3C44 25.3 43.9 25.4 43.7 25.4C43.4 25.4 43.2 25.1 43.2 24.9C43.2 24.6 43.4 24.4 43.3 24.2C43.2 24.1 43.2 24.1 43.1 24.1C43 24 43 23.7 42.9 23.6C42.7 23.4 42.4 23.6 42.2 23.4C42.1 23.3 42.1 23.2 42 23.1C42.2 23 42.1 23 42 23C41.6 23 41.3 22.8 41.1 22.5C40.8 22.5 40.6 22.3 40.5 22C40.5 21.9 40.5 21.8 40.4 21.7C40.4 21.6 40.3 21.6 40.3 21.5C40 21.2 39.7 20.9 39.4 20.6C39.3 20.5 39.2 20.4 39.1 20.5C39 20.5 39 20.6 39 20.7C39 21 38.8 21.3 38.5 21.3C38.3 21.3 38.1 21.2 37.9 21.1C38 20.7 37.6 20.3 37.2 20.1C36.7 19.8 36.1 19.7 35.5 19.7C35.4 19.7 35.3 19.7 35.2 19.8C35.1 19.9 35.1 20.1 35.2 20.2C35.2 20.5 35.2 20.7 35 21C34.9 21.1 34.8 21.2 34.8 21.4C34.8 21.5 34.9 21.7 35 21.7C35.1 21.9 35.3 22.1 35.3 22.3C35.3 22.5 35.3 22.8 35.1 22.9C34.8 23.1 34.4 23.1 34.3 23.4C34.3 23.5 34.3 23.6 34.4 23.7C34.5 23.9 34.6 24.2 34.5 24.4C34.5 24.6 34.3 24.9 34.1 24.9C33.7 25 33.4 24.6 33.3 24.2C33.2 23.8 33.3 23.4 33.2 23C32.1 23 31.2 21.8 30 21.9C30.2 21.6 30.1 21.2 29.9 21C29.8 21 29.7 21 29.7 21C29.7 20.5 30.1 20 30.6 19.7C30.8 19.6 30.9 19.6 31.1 19.5C31.3 19.4 31.4 19.3 31.6 19.2C32.1 18.9 32.5 18.6 33 18.4C33.2 18.6 32.9 19 33.1 19.2C33.4 19.5 33.9 18.8 34.2 19C34.3 19.1 34.4 19.2 34.5 19.2C34.7 19.3 34.9 18.9 34.8 18.7C34.7 18.5 34.4 18.5 34.2 18.4C34.1 18.2 34.2 18 34.4 17.8C34.6 17.6 34.8 17.5 34.8 17.3C34.8 17.2 34.8 17.1 34.8 17C34.8 16.7 35.2 16.4 35.5 16.5C35.8 16.6 36.1 16.8 36.3 17.1C36.4 17.3 36.6 17.5 36.5 17.6C36.2 18 36 18.1 36 18.2C36 18.3 36.1 18.4 36 18.5C36 18.6 35.8 18.6 35.7 18.6C35.6 18.6 35.5 18.8 35.6 18.8C36 18.6 36.5 19.2 36.9 19.1C36.9 19.3 37.1 19.5 37.3 19.6C37.7 19.7 38.1 19.8 38.5 19.9C38.3 19.7 38 19.5 37.8 19.3C38.1 19.3 38.4 19.3 38.7 19.5C38.8 19.6 38.9 19.6 39 19.6C39.2 19.5 39.1 19.3 39 19.1C38.7 18.7 38.3 18.4 37.8 18.2C38.1 18 38.6 18.2 38.9 18.5C38.8 18.2 39.1 17.9 39.4 17.8C38.5 17.6 37.7 17.2 37 16.6C37 16.3 36.8 16.2 36.5 16.1C36 15.9 35.5 15.7 35 15.4C34.9 15.1 35.1 14.8 35.3 14.7C35.5 14.5 35.8 14.5 36.1 14.4C36.4 14.3 36.7 14.3 36.9 14.5C37 14.6 37 14.7 37.1 14.7C37.3 14.8 37.5 14.7 37.8 14.7C38 14.7 38.3 14.8 38.5 15C39.1 15.3 39.6 15.7 40.2 16C40.2 16.1 40.3 16.2 40.4 16.2C40.5 16.2 40.6 16.2 40.7 16.2C41 16.2 41.3 16.6 41.2 16.9C41.2 17.1 41.1 17.2 41.1 17.4C41.1 17.5 41.2 17.7 41.3 17.8C42.3 19 43.7 19.9 45.3 20.3C45.4 20.3 45.4 20.3 45.5 20.3C45.6 20.2 45.4 20 45.3 19.9C45.2 19.8 45.3 19.7 45.3 19.5C45.3 19.3 45.2 19 45 18.9C44.9 18.7 44.7 18.5 44.6 18.3C44.5 18.1 44.6 17.8 44.9 17.7C45 17.7 45.1 17.7 45.2 17.7C45.4 17.6 45.4 17.4 45.3 17.2C45.3 17 45.2 16.9 45.2 16.7C45.2 16.5 45.5 16.4 45.6 16.5C45.7 15.9 45.7 15.6 45.6 15.3Z" fill="#2089B8"/>
<path d="M54.5 29.3C54.5 29.6 54.5 29.9 54.5 30.2V30.1C54.4 29.8 54.4 29.6 54.3 29.3L54.4 29.4C54.4 29 54.2 28.7 54 28.3C53.7 28.4 53.7 28.8 53.5 29.1C53.3 29.3 52.9 29.4 52.8 29.7C52.8 29.8 52.7 29.8 52.7 29.9C52.6 30 52.4 29.9 52.3 29.8C52.2 29.7 52.2 29.5 52.2 29.4C52.2 29.2 52.1 29.1 51.9 29.1C51.8 29.1 51.6 29.2 51.5 29.1C51.4 29.1 51.4 29 51.4 28.9C51.3 28.6 51.2 28.2 51 28C50.8 27.7 50.5 27.5 50.4 27.2C50.4 27 50.4 26.9 50.4 26.7C50.4 26 50.2 25.4 49.8 24.8C49.7 24.7 49.6 24.6 49.6 24.5C49.6 24.4 49.6 24.3 49.6 24.2C49.6 23.6 49.6 23 49.7 22.4C49.8 22.1 49.9 21.8 49.8 21.5C49.8 21.1 49.6 20.7 49.5 20.3C49.4 19.9 49.3 19.4 49 19.2C48.9 19.1 48.7 19 48.6 18.9C48.6 18.8 48.6 18.7 48.5 18.7C48.4 18.5 48.2 18.4 48 18.4C47.7 17.9 47.6 17.4 47.3 16.9C47.5 17 47.7 16.8 47.8 16.6C47.8 16.4 47.7 16.2 47.6 16C47.5 15.9 47.4 15.8 47.3 15.8C47.2 15.8 47.1 15.8 47 15.8C46.9 15.8 46.8 15.6 46.7 15.5C46.4 15 46.1 14.5 45.8 14.1C46 14.5 46.1 14.9 46.1 15.3C45.8 15 45.5 14.6 45.2 14.3C45.1 14.6 45.2 14.9 45.4 15.1C45.2 15.2 45 15.1 44.8 14.9C44.7 14.7 44.6 14.5 44.5 14.3C44.2 13.8 43.3 13.6 43.3 13C44 13.3 44.6 13.6 45.3 14C45.5 13.8 45.3 13.5 45.1 13.3C44.9 13.1 44.6 13 44.5 12.8C44.4 12.7 44.4 12.6 44.3 12.5C44.2 12.5 44.1 12.5 44 12.6C43.8 12.6 43.7 12.6 43.6 12.5C43.1 12.3 42.6 12.1 42.2 11.7C42 11.5 41.8 11.3 41.6 11.1C41.2 10.8 40.8 10.7 40.4 10.8C40.3 10.5 40.2 10.2 40.2 9.89997C40.2 9.79997 40.2 9.69998 40.2 9.59998C48.5 12 54.5 20 54.5 29.3Z" fill="#2089B8"/>
<path opacity="0.15" d="M33.3 8.09998V50.5C33.8 50.5 34.3 50.5 34.8 50.4C45.8 49.6 54.5 40.5 54.5 29.2C54.5 17.6 45 8.09998 33.3 8.09998Z" fill="#3C4D56"/>
<path d="M27.1 18.8H1.8C1.3 18.8 1 19.2 1 19.6V30.2C1 30.6 1.4 31 1.8 31H27C27.5 31 27.8 30.6 27.8 30.2V19.6C27.9 19.1 27.5 18.8 27.1 18.8Z" fill="#475D6B"/>
<path d="M1 30.2C1 30.6 1.4 31 1.8 31H14.4V24.9H1V30.2ZM27.1 18.8C27.6 18.8 27.9 19.2 27.9 19.6V24.9H14.5V18.8H27.1Z" fill="#3C4D56"/>
<path d="M27.1 5.70001H1.8C1.4 5.70001 1 6.10001 1 6.50001V17.1C1 17.6 1.4 17.9 1.8 17.9H27C27.5 17.9 27.8 17.5 27.8 17.1V6.50001C27.9 6.10001 27.5 5.70001 27.1 5.70001Z" fill="#475D6B"/>
<path d="M1.8 5.70001C1.4 5.70001 1 6.10001 1 6.50001V11.8H14.5V5.70001H1.8ZM27.9 17.1C27.9 17.6 27.5 17.9 27.1 17.9H14.5V11.8H28V17.1H27.9Z" fill="#3C4D56"/>
<path d="M25.8 58.8L27.6 59.9001C28 60.2001 28.5 60.3 29 60.3H61.5C62 60.3 62.5 60.2001 62.9 59.9001L64.7 58.8H25.8Z" fill="#D5D9DC"/>
<path d="M45.4 58.8V60.3H61.5C62 60.3 62.5 60.2001 62.9 59.9001L64.7 58.8H45.4Z" fill="#B6BBBF"/>
<path d="M61.6 32.4H29.2C28.7 32.4 28.3 32.8 28.3 33.3V56.7H62.5V33.4C62.5 32.8 62.1 32.4 61.6 32.4Z" fill="#475D6B"/>
<path d="M61.6 32.4H45.2V56.7H62.5V33.4C62.5 32.8 62.1 32.4 61.6 32.4Z" fill="#3C4D56"/>
<path d="M59.6 35.2H31.2V54H59.6V35.2Z" fill="#FF17A8"/>
<path d="M45.3 35.2H31.2V54H45.3V35.2Z" fill="#FF0091"/>
<path d="M64.3 56.7H26.2C25.8 56.7 25.5 57 25.5 57.4V58.2C25.5 58.6 25.8 58.9 26.2 58.9H64.3C64.7 58.9 65 58.6 65 58.2V57.4C65 57 64.7 56.7 64.3 56.7Z" fill="#E7E7E9"/>
<path d="M26.2 56.7C25.8 56.7 25.5 57 25.5 57.4V58.2C25.5 58.6 25.8 58.9 26.2 58.9H45.3V56.7H26.2Z" fill="#B6BBBF"/>
<path d="M21.8 14.2C23.2912 14.2 24.5 12.9912 24.5 11.5C24.5 10.0088 23.2912 8.79999 21.8 8.79999C20.3088 8.79999 19.1 10.0088 19.1 11.5C19.1 12.9912 20.3088 14.2 21.8 14.2Z" fill="#E7E7E9"/>
<path d="M21.8 13.2C22.7389 13.2 23.5 12.4389 23.5 11.5C23.5 10.5611 22.7389 9.79999 21.8 9.79999C20.8611 9.79999 20.1 10.5611 20.1 11.5C20.1 12.4389 20.8611 13.2 21.8 13.2Z" fill="#FF17A8"/>
<path d="M20.1 11.5C20.1 10.5 20.9 9.79999 21.8 9.79999V8.79999C20.3 8.79999 19.1 9.99999 19.1 11.5C19.1 13 20.3 14.2 21.8 14.2V13.2C20.9 13.2 20.1 12.5 20.1 11.5Z" fill="#D5D9DC"/>
<path d="M21.8 13.2C22.8 13.2 23.5 12.4 23.5 11.5C23.5 10.5 22.7 9.79999 21.8 9.79999V13.2Z" fill="#FF0091"/>
<path d="M21.8 27.6C23.2912 27.6 24.5 26.3912 24.5 24.9C24.5 23.4088 23.2912 22.2 21.8 22.2C20.3088 22.2 19.1 23.4088 19.1 24.9C19.1 26.3912 20.3088 27.6 21.8 27.6Z" fill="#E7E7E9"/>
<path d="M21.8 26.6C22.7389 26.6 23.5 25.8389 23.5 24.9C23.5 23.9611 22.7389 23.2 21.8 23.2C20.8611 23.2 20.1 23.9611 20.1 24.9C20.1 25.8389 20.8611 26.6 21.8 26.6Z" fill="#2089B8"/>
<path d="M20.1 24.9C20.1 23.9 20.9 23.2 21.8 23.2V22.2C20.3 22.2 19.1 23.4 19.1 24.9C19.1 26.4 20.3 27.6 21.8 27.6V26.6C20.9 26.6 20.1 25.8 20.1 24.9Z" fill="#D5D9DC"/>
<path d="M21.8 26.6C22.8 26.6 23.5 25.8 23.5 24.9C23.5 23.9 22.7 23.2 21.8 23.2V26.6Z" fill="#1776AD"/>
<path d="M4.6 8.20001H2.8V10H4.6V8.20001Z" fill="#D5D9DC"/>
<path d="M7.3 8.20001H5.5V10H7.3V8.20001Z" fill="#D5D9DC"/>
<path d="M9.90001 8.20001H8.10001V10H9.90001V8.20001Z" fill="#D5D9DC"/>
<path d="M12.5 8.20001H10.7V10H12.5V8.20001Z" fill="#D5D9DC"/>
<path d="M15.1 8.20001H13.3V10H15.1V8.20001Z" fill="#D5D9DC"/>
<path d="M4.6 10.9H2.8V12.7H4.6V10.9Z" fill="#D5D9DC"/>
<path d="M7.3 10.9H5.5V12.7H7.3V10.9Z" fill="#D5D9DC"/>
<path d="M9.90001 10.9H8.10001V12.7H9.90001V10.9Z" fill="#D5D9DC"/>
<path d="M12.5 10.9H10.7V12.7H12.5V10.9Z" fill="#D5D9DC"/>
<path d="M15.1 10.9H13.3V12.7H15.1V10.9Z" fill="#D5D9DC"/>
<path d="M4.6 13.6H2.8V15.4H4.6V13.6Z" fill="#D5D9DC"/>
<path d="M7.3 13.6H5.5V15.4H7.3V13.6Z" fill="#D5D9DC"/>
<path d="M9.90001 13.6H8.10001V15.4H9.90001V13.6Z" fill="#D5D9DC"/>
<path d="M12.5 13.6H10.7V15.4H12.5V13.6Z" fill="#D5D9DC"/>
<path d="M15.1 13.6H13.3V15.4H15.1V13.6Z" fill="#D5D9DC"/>
<path d="M4.6 21.3H2.8V23.1H4.6V21.3Z" fill="#D5D9DC"/>
<path d="M7.3 21.3H5.5V23.1H7.3V21.3Z" fill="#D5D9DC"/>
<path d="M9.90001 21.3H8.10001V23.1H9.90001V21.3Z" fill="#D5D9DC"/>
<path d="M12.5 21.3H10.7V23.1H12.5V21.3Z" fill="#D5D9DC"/>
<path d="M15.1 21.3H13.3V23.1H15.1V21.3Z" fill="#D5D9DC"/>
<path d="M4.6 24H2.8V25.8H4.6V24Z" fill="#D5D9DC"/>
<path d="M7.3 24H5.5V25.8H7.3V24Z" fill="#D5D9DC"/>
<path d="M9.90001 24H8.10001V25.8H9.90001V24Z" fill="#D5D9DC"/>
<path d="M12.5 24H10.7V25.8H12.5V24Z" fill="#D5D9DC"/>
<path d="M15.1 24H13.3V25.8H15.1V24Z" fill="#D5D9DC"/>
<path d="M4.6 26.6H2.8V28.4H4.6V26.6Z" fill="#D5D9DC"/>
<path d="M7.3 26.6H5.5V28.4H7.3V26.6Z" fill="#D5D9DC"/>
<path d="M9.90001 26.6H8.10001V28.4H9.90001V26.6Z" fill="#D5D9DC"/>
<path d="M12.5 26.6H10.7V28.4H12.5V26.6Z" fill="#D5D9DC"/>
<path d="M15.1 26.6H13.3V28.4H15.1V26.6Z" fill="#D5D9DC"/>
</svg>
