<svg width="578" height="556" viewBox="0 0 578 556" fill="none" xmlns="http://www.w3.org/2000/svg">
<path d="M570.576 331.367C443.216 471.083 534.811 579.551 231.62 551.1C89.6762 537.764 19.3739 401.704 3.09539 277.383C-17.0883 123.252 60.1374 13.8346 272.74 13.8346C368.644 13.8346 455.169 -22.6578 515.578 26.4716C599.782 94.9809 633.234 262.638 570.576 331.367Z" fill="url(#paint0_linear_32_126)"/>
<path d="M104.378 108.597H431.762V521.461H104.378V108.597Z" fill="url(#paint1_radial_32_126)"/>
<path d="M416.616 336.901L377.373 365.742L377.944 366.98L417.186 338.14C417.749 337.72 418.097 336.981 418.105 336.152C418.113 335.323 417.788 334.574 417.226 334.134L412.434 330.388C412.327 330.306 412.239 330.19 412.179 330.051C412.119 329.913 412.09 329.757 412.093 329.599C412.101 329.279 412.235 328.989 412.457 328.84L427.175 318.4C427.595 318.53 428.054 318.62 428.554 318.62C430.288 318.62 431.69 317.721 431.69 316.602C431.69 315.493 430.288 314.584 428.554 314.584C426.819 314.584 425.417 315.483 425.417 316.602C425.417 316.992 425.599 317.351 425.892 317.661L411.895 327.581C411.317 327.991 410.968 328.73 410.952 329.569C410.936 330.398 411.261 331.167 411.831 331.607L416.624 335.353C416.846 335.523 416.965 335.802 416.965 336.132C416.965 336.452 416.838 336.732 416.616 336.901Z" fill="url(#paint2_linear_32_126)"/>
<path d="M432.696 336.322C434.423 336.322 435.833 335.423 435.833 334.304C435.833 333.195 434.431 332.286 432.696 332.286C430.962 332.286 429.56 333.185 429.56 334.304C429.56 334.704 429.75 335.083 430.066 335.403L381.904 370.736L382.475 371.975L431.35 336.122C431.762 336.242 432.213 336.322 432.696 336.322Z" fill="url(#paint3_linear_32_126)"/>
<path d="M432.443 276.893L346.06 339.788L346.63 341.027L433.726 277.612C434.138 277.742 434.59 277.812 435.073 277.812C436.8 277.812 438.21 276.913 438.21 275.794C438.21 274.686 436.808 273.776 435.073 273.776C433.338 273.776 431.936 274.676 431.936 275.794C431.936 276.214 432.126 276.584 432.443 276.893Z" fill="url(#paint4_linear_32_126)"/>
<path d="M360.485 299.969L325.773 325.923L326.352 327.151L361.063 301.198C361.493 300.88 361.848 300.424 362.093 299.876C362.338 299.329 362.463 298.71 362.457 298.081C362.456 297.453 362.324 296.836 362.074 296.292C361.823 295.748 361.464 295.297 361.032 294.985L356.358 291.588C356.099 291.404 355.884 291.137 355.734 290.814C355.584 290.492 355.504 290.124 355.502 289.75C355.496 289.377 355.567 289.008 355.709 288.68C355.851 288.352 356.058 288.077 356.31 287.882L366.751 279.66C367.139 279.77 367.567 279.83 368.018 279.83C369.753 279.83 371.155 278.931 371.155 277.812C371.155 276.703 369.753 275.794 368.018 275.794C366.291 275.794 364.881 276.693 364.881 277.812C364.881 278.242 365.103 278.641 365.46 278.971L355.708 286.653C355.289 286.98 354.944 287.44 354.709 287.986C354.475 288.533 354.357 289.148 354.37 289.77C354.385 291.049 354.924 292.187 355.796 292.827L360.469 296.223C361 296.613 361.325 297.312 361.325 298.081C361.325 298.871 361.008 299.57 360.485 299.969Z" fill="url(#paint5_linear_32_126)"/>
<path d="M402.429 385.551L458.782 344.523C459.611 343.921 460.559 343.631 461.515 343.686C462.47 343.74 463.394 344.139 464.176 344.833L469.333 349.428C470.323 350.317 471.501 350.813 472.715 350.854C473.93 350.895 475.127 350.479 476.153 349.658L484.067 343.365C484.407 343.445 484.772 343.495 485.16 343.495C486.895 343.495 488.297 342.595 488.297 341.477C488.297 340.358 486.895 339.459 485.16 339.459C483.433 339.459 482.023 340.358 482.023 341.477C482.023 341.956 482.292 342.386 482.72 342.735L475.543 348.449C474.706 349.117 473.73 349.456 472.74 349.422C471.75 349.388 470.79 348.984 469.982 348.26L464.826 343.664C463.865 342.813 462.732 342.325 461.559 342.256C460.387 342.187 459.223 342.54 458.203 343.275L401.851 384.302L402.429 385.551Z" fill="url(#paint6_linear_32_126)"/>
<path d="M184.052 337.011C183.944 336.934 183.854 336.822 183.792 336.687C183.729 336.552 183.696 336.398 183.695 336.242C183.695 335.922 183.814 335.633 184.036 335.463L188.828 331.717C189.102 331.504 189.327 331.205 189.482 330.848C189.636 330.492 189.713 330.092 189.707 329.686C189.7 329.28 189.61 328.884 189.445 328.536C189.28 328.187 189.045 327.9 188.765 327.701L174.768 317.781C175.069 317.471 175.243 317.112 175.243 316.722C175.243 315.613 173.841 314.704 172.106 314.704C170.379 314.704 168.969 315.603 168.969 316.722C168.969 317.841 170.372 318.74 172.106 318.74C172.605 318.74 173.065 318.66 173.485 318.53L188.203 328.96C188.432 329.119 188.559 329.399 188.567 329.729C188.575 330.048 188.448 330.338 188.226 330.508L183.434 334.254C183.162 334.466 182.937 334.763 182.783 335.116C182.629 335.47 182.55 335.868 182.554 336.271C182.558 336.675 182.645 337.07 182.806 337.418C182.967 337.767 183.197 338.057 183.474 338.26L222.716 367.1L223.286 365.861L184.052 337.011Z" fill="url(#paint7_linear_32_126)"/>
<path d="M171.108 334.414C171.108 333.295 169.706 332.396 167.971 332.396C166.237 332.396 164.834 333.295 164.834 334.414C164.834 335.523 166.237 336.432 167.971 336.432C168.455 336.432 168.906 336.352 169.31 336.232L218.185 372.085L218.755 370.846L170.601 335.523C170.918 335.193 171.108 334.823 171.108 334.414Z" fill="url(#paint8_linear_32_126)"/>
<path d="M115.5 343.604C115.888 343.604 116.252 343.554 116.593 343.475L124.507 349.768C125.534 350.589 126.732 351.005 127.948 350.964C129.164 350.923 130.343 350.427 131.335 349.538L136.492 344.943C137.274 344.249 138.197 343.85 139.153 343.795C140.109 343.741 141.057 344.031 141.886 344.633L198.239 385.661L198.809 384.422L142.456 343.395C141.438 342.656 140.274 342.3 139.101 342.367C137.928 342.434 136.795 342.922 135.834 343.774L130.677 348.37C129.869 349.092 128.909 349.495 127.919 349.527C126.928 349.559 125.953 349.219 125.116 348.549L117.94 342.835C118.367 342.486 118.637 342.056 118.637 341.577C118.637 340.468 117.235 339.559 115.5 339.559C113.765 339.559 112.363 340.458 112.363 341.577C112.371 342.705 113.773 343.604 115.5 343.604Z" fill="url(#paint9_linear_32_126)"/>
<path d="M165.595 277.932C166.078 277.932 166.538 277.852 166.942 277.732L254.037 341.147L254.608 339.908L168.225 277.013C168.542 276.703 168.724 276.324 168.724 275.924C168.724 274.815 167.322 273.906 165.587 273.906C163.852 273.906 162.45 274.805 162.45 275.924C162.458 277.033 163.86 277.932 165.595 277.932Z" fill="url(#paint10_linear_32_126)"/>
<path d="M239.343 298.211C239.343 297.432 239.668 296.743 240.199 296.353L244.872 292.957C245.744 292.317 246.282 291.178 246.298 289.9C246.314 288.621 245.815 287.462 244.951 286.783L235.2 279.101C235.565 278.771 235.778 278.372 235.778 277.942C235.778 276.823 234.376 275.924 232.642 275.924C230.907 275.924 229.505 276.823 229.505 277.942C229.505 279.051 230.907 279.96 232.642 279.96C233.093 279.96 233.521 279.9 233.909 279.79L244.349 288.012C244.6 288.209 244.807 288.485 244.948 288.813C245.09 289.141 245.161 289.509 245.157 289.882C245.152 290.255 245.071 290.62 244.921 290.942C244.771 291.263 244.558 291.531 244.302 291.718L239.628 295.114C239.196 295.427 238.836 295.878 238.586 296.422C238.336 296.965 238.203 297.583 238.202 298.211C238.194 299.5 238.717 300.669 239.604 301.328L274.316 327.291L274.894 326.053L240.183 300.089C239.652 299.69 239.343 298.98 239.343 298.211Z" fill="url(#paint11_linear_32_126)"/>
<path d="M184.052 468.286L223.294 439.456L222.724 438.217L183.481 467.057C183.204 467.258 182.973 467.547 182.811 467.896C182.65 468.245 182.564 468.641 182.563 469.045C182.555 469.874 182.879 470.623 183.442 471.063L188.234 474.809C188.456 474.979 188.575 475.269 188.575 475.588C188.574 475.746 188.54 475.9 188.476 476.036C188.412 476.171 188.32 476.282 188.21 476.357L173.493 486.787C173.073 486.657 172.613 486.567 172.114 486.567C170.387 486.567 168.977 487.466 168.977 488.585C168.977 489.694 170.379 490.603 172.114 490.603C173.849 490.603 175.251 489.704 175.251 488.585C175.251 488.195 175.069 487.836 174.776 487.526L188.773 477.606C189.351 477.197 189.7 476.457 189.716 475.618C189.731 474.779 189.399 474.02 188.836 473.58L184.044 469.834C183.937 469.754 183.849 469.64 183.79 469.503C183.73 469.366 183.7 469.211 183.703 469.055C183.695 468.725 183.83 468.446 184.052 468.286Z" fill="url(#paint12_linear_32_126)"/>
<path d="M167.971 468.855C166.237 468.855 164.834 469.754 164.834 470.873C164.834 471.982 166.237 472.891 167.971 472.891C169.706 472.891 171.108 471.992 171.108 470.873C171.108 470.464 170.918 470.094 170.601 469.774L218.755 434.441L218.185 433.202L169.318 469.055C168.906 468.935 168.455 468.855 167.971 468.855Z" fill="url(#paint13_linear_32_126)"/>
<path d="M168.225 528.284L254.608 465.389L254.037 464.15L166.942 527.565C166.53 527.435 166.078 527.365 165.587 527.365C163.852 527.365 162.45 528.264 162.45 529.383C162.45 530.492 163.852 531.401 165.587 531.401C167.322 531.401 168.724 530.502 168.724 529.383C168.724 528.973 168.542 528.594 168.225 528.284Z" fill="url(#paint14_linear_32_126)"/>
<path d="M240.183 505.208L274.894 479.244L274.316 478.016L239.604 503.969C239.175 504.289 238.82 504.745 238.574 505.291C238.328 505.838 238.2 506.457 238.202 507.086C238.21 508.374 238.741 509.533 239.628 510.183L244.302 513.579C244.825 513.959 245.149 514.648 245.157 515.417C245.165 516.186 244.864 516.886 244.349 517.285L233.909 525.497C233.521 525.387 233.093 525.327 232.642 525.327C230.907 525.327 229.505 526.226 229.505 527.345C229.505 528.454 230.907 529.363 232.642 529.363C234.368 529.363 235.778 528.464 235.778 527.345C235.778 526.905 235.557 526.506 235.2 526.176L244.951 518.494C245.371 518.167 245.717 517.708 245.953 517.161C246.189 516.614 246.308 516 246.298 515.377C246.282 514.108 245.744 512.96 244.872 512.32L240.199 508.924C239.94 508.736 239.725 508.467 239.575 508.142C239.425 507.817 239.345 507.448 239.343 507.071C239.342 506.695 239.418 506.325 239.566 505.998C239.713 505.671 239.926 505.399 240.183 505.208Z" fill="url(#paint15_linear_32_126)"/>
<path d="M198.239 419.626L141.886 460.654C141.057 461.256 140.109 461.546 139.153 461.492C138.197 461.437 137.274 461.039 136.492 460.344L131.335 455.749C129.299 453.931 126.622 453.851 124.507 455.519L116.585 461.812C116.225 461.727 115.859 461.683 115.492 461.683C113.757 461.683 112.355 462.582 112.355 463.701C112.355 464.819 113.757 465.718 115.492 465.718C117.227 465.718 118.629 464.819 118.629 463.701C118.629 463.221 118.36 462.791 117.932 462.452L125.109 456.738C125.946 456.07 126.922 455.731 127.912 455.765C128.902 455.799 129.862 456.203 130.669 456.927L135.826 461.523C136.787 462.375 137.92 462.863 139.094 462.93C140.267 462.998 141.431 462.641 142.449 461.902L198.801 420.875L198.239 419.626Z" fill="url(#paint16_linear_32_126)"/>
<path d="M435.825 470.763C435.825 469.654 434.423 468.745 432.688 468.745C432.205 468.745 431.754 468.825 431.35 468.945L382.475 433.092L381.904 434.331L430.066 469.664C429.75 469.984 429.56 470.354 429.56 470.763C429.56 471.882 430.962 472.781 432.696 472.781C434.423 472.781 435.825 471.872 435.825 470.763Z" fill="url(#paint17_linear_32_126)"/>
<path d="M425.425 488.465C425.425 489.574 426.827 490.483 428.561 490.483C430.296 490.483 431.698 489.584 431.698 488.465C431.698 487.356 430.296 486.447 428.561 486.447C428.062 486.447 427.603 486.527 427.183 486.657L412.465 476.228C412.356 476.151 412.266 476.039 412.202 475.904C412.138 475.769 412.103 475.616 412.101 475.458C412.096 475.302 412.125 475.146 412.185 475.009C412.245 474.872 412.334 474.758 412.441 474.679L417.234 470.933C417.796 470.504 418.121 469.744 418.113 468.915C418.105 468.086 417.757 467.347 417.194 466.927L377.952 438.087L377.381 439.326L416.624 468.166C416.846 468.326 416.972 468.605 416.98 468.935C416.98 469.255 416.862 469.545 416.64 469.714L411.847 473.46C411.285 473.9 410.96 474.659 410.968 475.498C410.984 476.338 411.332 477.077 411.911 477.486L425.908 487.406C425.607 487.716 425.425 488.075 425.425 488.465Z" fill="url(#paint18_linear_32_126)"/>
<path d="M485.16 461.573C484.772 461.573 484.407 461.623 484.067 461.703L476.153 455.409C475.127 454.588 473.93 454.172 472.715 454.213C471.5 454.254 470.323 454.75 469.333 455.639L464.176 460.234C463.394 460.929 462.47 461.327 461.515 461.382C460.559 461.436 459.611 461.146 458.782 460.544L402.429 419.516L401.858 420.755L458.211 461.782C459.229 462.521 460.393 462.877 461.566 462.81C462.739 462.743 463.873 462.255 464.833 461.403L469.99 456.808C470.798 456.086 471.758 455.683 472.748 455.649C473.738 455.615 474.713 455.952 475.551 456.618L482.728 462.332C482.3 462.682 482.031 463.111 482.031 463.591C482.031 464.699 483.433 465.609 485.168 465.609C486.902 465.609 488.305 464.709 488.305 463.591C488.297 462.472 486.895 461.573 485.16 461.573Z" fill="url(#paint19_linear_32_126)"/>
<path d="M368.018 525.227C367.567 525.227 367.139 525.287 366.751 525.397L356.31 517.175C356.059 516.978 355.853 516.702 355.712 516.374C355.57 516.047 355.498 515.678 355.503 515.305C355.508 514.932 355.589 514.567 355.739 514.245C355.889 513.924 356.102 513.656 356.358 513.469L361.032 510.063C361.465 509.752 361.826 509.301 362.076 508.757C362.327 508.213 362.458 507.595 362.457 506.966C362.465 505.677 361.943 504.508 361.055 503.849L326.344 477.886L325.766 479.125L360.477 505.078C361.008 505.477 361.325 506.177 361.317 506.956C361.317 507.735 360.992 508.424 360.461 508.814L355.788 512.21C354.916 512.85 354.378 513.989 354.362 515.267C354.346 516.546 354.845 517.705 355.7 518.384L365.452 526.066C365.087 526.396 364.873 526.795 364.873 527.225C364.873 528.334 366.276 529.243 368.01 529.243C369.745 529.243 371.147 528.344 371.147 527.225C371.147 526.126 369.745 525.227 368.018 525.227Z" fill="url(#paint20_linear_32_126)"/>
<path d="M435.073 527.245C434.59 527.245 434.13 527.325 433.718 527.445L346.623 464.03L346.052 465.269L432.435 528.164C432.118 528.484 431.936 528.853 431.936 529.253C431.936 530.362 433.338 531.271 435.073 531.271C436.8 531.271 438.21 530.372 438.21 529.253C438.21 528.134 436.808 527.245 435.073 527.245Z" fill="url(#paint21_linear_32_126)"/>
<path d="M475.179 159.155C475.179 159.155 412.053 110.215 280.526 109.466C236.689 109.216 157.919 123.971 110.913 152.741C56.1608 186.267 53.7844 229.292 53.7844 229.292L53.7765 235.016C56.7391 246.415 65.1199 273.627 80.6617 288.142C100.655 306.822 112.506 314.355 112.506 314.355L119.16 309.619L468.351 162.092L475.179 159.155Z" fill="url(#paint22_linear_32_126)"/>
<path d="M56.7232 443.042C56.7232 443.042 80.9231 351.976 253.911 334.464C373.357 322.366 468.359 375.242 468.359 375.242V162.092C468.359 162.092 413.17 117.208 281.643 116.456C237.806 116.209 159.036 130.964 112.03 159.734C57.2777 193.269 57.1193 238.403 57.1193 238.403L56.7232 443.042Z" fill="url(#paint23_linear_32_126)"/>
<g opacity="0.3">
<path opacity="0.56" d="M234.899 157.327V168.145L147.13 192.161L146.94 181.042L234.899 157.327ZM234.899 173.989V184.808L147.13 208.813L146.94 197.715L234.899 173.989ZM234.899 190.642V201.461L147.13 225.476L146.94 214.368L234.899 190.642ZM234.899 207.305V218.124L147.13 242.129L146.94 231.021L234.899 207.305ZM234.899 223.968V234.787L195.554 245.965L195.363 234.857L234.899 223.968ZM234.899 240.621V251.439L147.13 275.445L146.94 264.346L234.899 240.621ZM234.899 257.283V268.102L147.13 292.108L146.94 280.999L234.899 257.283ZM234.899 273.936V284.755L147.13 308.77L146.94 297.662L234.899 273.936ZM234.899 290.599V301.418L147.13 325.423L146.94 314.325L234.899 290.599Z" fill="white"/>
</g>
<g opacity="0.7">
<path d="M396.733 307.691L429.258 284.006L461.784 307.691L428.807 331.037L396.733 307.691Z" fill="#2B73B5"/>
<path d="M396.733 293.596L429.258 269.92L461.784 293.596L428.807 316.952L396.733 293.596Z" fill="#56ABDD"/>
<path d="M396.733 275.914L429.258 252.239L461.784 275.914L428.807 299.27L396.733 275.914Z" fill="#951AAC"/>
<path d="M396.733 260.65L429.258 236.974L461.784 260.65L428.807 284.006L396.733 260.65Z" fill="#741AAC"/>
<path d="M396.733 245.396L429.258 221.71L461.784 245.396L428.807 268.742L396.733 245.396Z" fill="#A91AAC"/>
<path d="M396.733 230.981L429.258 207.295L461.784 230.981L428.807 254.326L396.733 230.981Z" fill="#00DDD2"/>
<path d="M396.733 216.565L429.258 192.89L461.784 216.565L428.807 239.921L396.733 216.565Z" fill="#00CCBD"/>
<path d="M396.733 202.16L429.258 178.475L461.784 202.16L428.807 225.506L396.733 202.16Z" fill="#00DDD2"/>
</g>
<g opacity="0.6">
<path opacity="0.56" d="M337.41 132.992V139.655L391.45 151.922L391.569 145.079L337.41 132.992ZM337.41 143.251V149.904L391.45 162.182L391.569 155.339L337.41 143.251ZM337.41 153.501V160.164L391.45 172.431L391.569 165.588L337.41 153.501ZM337.41 163.76V170.423L391.45 182.69L391.569 175.847L337.41 163.76ZM337.41 174.019V180.672L361.642 186.437L361.752 179.594L337.41 174.019ZM337.41 184.269V190.932L391.45 203.209L391.569 196.366L337.41 184.269ZM337.41 194.528V201.191L391.45 213.459L391.569 206.616L337.41 194.528ZM337.41 204.788V211.441L391.45 223.718L391.569 216.875L337.41 204.788ZM337.41 215.037V221.7L391.45 233.977L391.569 227.135L337.41 215.037Z" fill="white"/>
</g>
<g opacity="0.6">
<path opacity="0.56" d="M337.41 230.501V237.164L391.45 249.442L391.569 242.599L337.41 230.501ZM337.41 240.76V247.424L391.45 259.691L391.569 252.848L337.41 240.76ZM337.41 251.02V257.673L391.45 269.95L391.569 263.107L337.41 251.02ZM337.41 261.269V267.932L391.45 280.21L391.569 273.367L337.41 261.269ZM337.41 271.529V278.192L361.642 283.946L361.752 277.103L337.41 271.529ZM337.41 281.788V288.441L391.45 300.719L391.569 293.876L337.41 281.788ZM337.41 292.038V298.701L391.45 310.978L391.569 304.135L337.41 292.038ZM337.41 302.297V308.96L391.45 321.227L391.569 314.385L337.41 302.297ZM337.41 312.556V319.21L391.45 331.487L391.569 324.644L337.41 312.556Z" fill="white"/>
</g>
<path d="M90.31 271.459C100.237 271.459 108.284 254.418 108.284 233.398C108.284 212.378 100.237 195.337 90.31 195.337C80.3834 195.337 72.3363 212.378 72.3363 233.398C72.3363 254.418 80.3834 271.459 90.31 271.459Z" fill="#701AAC"/>
<path d="M93.027 358.989C102.954 358.989 111.001 341.948 111.001 320.928C111.001 299.907 102.954 282.867 93.027 282.867C83.1004 282.867 75.0533 299.907 75.0533 320.928C75.0533 341.948 83.1004 358.989 93.027 358.989Z" fill="url(#paint24_linear_32_126)"/>
<path d="M264.834 270.889L264.224 306.952L276.336 306.153L276.954 270.12L264.834 270.889Z" fill="#00DDD2"/>
<path d="M253.554 253.667L264.834 270.889L264.224 306.952L252.437 288.501L253.554 253.667Z" fill="#00CCBD"/>
<path d="M253.554 253.667L265.46 252.778L276.954 270.12L264.834 270.889L253.554 253.667Z" fill="#00FFEC"/>
<path d="M290.214 237.983L289.066 305.154L301.177 304.365L302.326 237.214L290.214 237.983Z" fill="#951AAC"/>
<path d="M278.926 220.761L290.214 237.983L289.066 305.154L277.279 286.713L278.926 220.761Z" fill="#741AAC"/>
<path d="M278.926 220.761L290.84 219.872L302.326 237.214L290.214 237.983L278.926 220.761Z" fill="#A91AAC"/>
<path d="M315.587 193.539L313.685 305.234L325.805 304.445L327.706 192.77L315.587 193.539Z" fill="#56ABDD"/>
<path d="M304.306 176.317L315.586 193.539L313.685 305.234L301.898 286.783L304.306 176.317Z" fill="#2B73B5"/>
<path d="M304.306 176.317L316.212 175.428L327.706 192.77L315.587 193.539L304.306 176.317Z" fill="#009BDD"/>
<path d="M112.118 522.04L112.506 314.355C112.506 314.355 97.4313 308.351 76.0039 283.337C54.5765 258.322 54.1805 226.795 54.1805 226.795L52.5962 436.439C52.5962 436.439 53.3408 459.645 70.451 490.473C80.2894 508.195 97.0827 519.133 106.05 524.008L112.118 522.04Z" fill="url(#paint25_linear_32_126)"/>
<g opacity="0.8">
<path opacity="0.56" d="M57.959 293.306V299.959L98.0888 337.131L98.1759 330.348L57.959 293.306ZM57.959 303.556V310.219L98.0888 347.39L98.1759 340.597L57.959 303.556ZM57.959 313.815V320.478L98.0888 357.65L98.1759 350.857L57.959 313.815ZM57.959 324.075V330.728L98.0888 367.899L98.1759 361.116L57.959 324.075ZM57.959 334.324V340.987L75.9485 357.91L76.0356 351.117L57.959 334.324ZM57.959 344.583V351.247L98.0888 388.418L98.1759 381.625L57.959 344.583ZM57.959 354.843V361.496L98.0888 398.668L98.1759 391.885L57.959 354.843ZM57.959 365.092V371.755L98.0888 408.927L98.1759 402.134L57.959 365.092ZM57.959 375.352V382.015L98.0888 419.186L98.1759 412.393L57.959 375.352ZM57.959 405.6V412.264L98.0888 449.435L98.1759 442.642L57.959 405.6ZM57.959 415.86V422.513L98.0888 459.685L98.1759 452.902L57.959 415.86ZM57.959 426.109V432.772L98.0888 469.944L98.1759 463.151L57.959 426.109ZM57.959 436.369V443.032L98.0888 480.203L98.1759 473.41L57.959 436.369Z" fill="white"/>
</g>
<path d="M54.1805 226.795L53.9745 254.197C61.8088 275.834 78.5625 306.942 112.49 321.217L112.506 314.355C112.506 314.355 97.4313 308.351 76.0039 283.337C54.5845 258.322 54.1805 226.795 54.1805 226.795Z" fill="url(#paint26_linear_32_126)"/>
<path d="M112.506 314.355L106.493 318.83V523.739L112.529 522.22L112.506 314.355Z" fill="url(#paint27_linear_32_126)"/>
<path d="M468.351 162.092V375.242L475.179 370.716V159.155L468.351 162.092Z" fill="url(#paint28_linear_32_126)"/>
<path d="M533.06 156.497C535.558 156.497 537.584 153.944 537.584 150.793C537.584 147.643 535.558 145.089 533.06 145.089C530.562 145.089 528.537 147.643 528.537 150.793C528.537 153.944 530.562 156.497 533.06 156.497Z" fill="#B3EFFF"/>
<path d="M126.994 115.44C129.492 115.44 131.517 112.886 131.517 109.736C131.517 106.585 129.492 104.032 126.994 104.032C124.496 104.032 122.471 106.585 122.471 109.736C122.471 112.886 124.496 115.44 126.994 115.44Z" fill="#B3EFFF"/>
<path d="M439.168 79.1872C449.981 92.8831 467.535 92.943 478.403 79.3171C489.263 65.6911 489.311 43.544 478.506 29.8481C467.701 16.1522 450.139 16.0923 439.279 29.7182C428.403 43.3442 428.363 65.4913 439.168 79.1872Z" fill="url(#paint29_linear_32_126)"/>
<path d="M196.631 65.2516C202.126 65.2516 206.58 59.6341 206.58 52.7045C206.58 45.775 202.126 40.1575 196.631 40.1575C191.136 40.1575 186.682 45.775 186.682 52.7045C186.682 59.6341 191.136 65.2516 196.631 65.2516Z" fill="url(#paint30_linear_32_126)"/>
<path opacity="0.6" d="M36.9039 188.604C41.025 188.604 44.3659 184.391 44.3659 179.194C44.3659 173.997 41.025 169.784 36.9039 169.784C32.7828 169.784 29.442 173.997 29.442 179.194C29.442 184.391 32.7828 188.604 36.9039 188.604Z" fill="url(#paint31_linear_32_126)"/>
<path d="M325.956 65.2516C328.454 65.2516 330.479 62.6977 330.479 59.5474C330.479 56.3971 328.454 53.8433 325.956 53.8433C323.458 53.8433 321.433 56.3971 321.433 59.5474C321.433 62.6977 323.458 65.2516 325.956 65.2516Z" fill="#125CAE"/>
<path d="M259.036 56.3607L259.986 58.7982L262.117 59.1878L260.572 61.0759L260.937 63.7531L259.036 62.4944L257.135 63.7531L257.491 61.0759L255.954 59.1878L258.085 58.7982L259.036 56.3607Z" fill="white"/>
<path opacity="0.4" d="M66.7517 118.307L67.7023 120.744L69.8332 121.134L68.2885 123.032L68.6529 125.699L66.7517 124.441L64.8427 125.699L65.2071 123.032L63.6703 121.134L65.8012 120.744L66.7517 118.307Z" fill="white"/>
<path d="M32.8323 263.737L33.7829 266.174L35.9137 266.564L34.377 268.462L34.7334 271.129L32.8323 269.87L30.9312 271.129L31.2956 268.462L29.7509 266.564L31.8817 266.174L32.8323 263.737ZM574.965 214.568L575.915 217.005L578.046 217.395L576.509 219.293L576.866 221.96L574.965 220.701L573.064 221.96L573.428 219.293L571.883 217.395L574.014 217.005L574.965 214.568ZM545.085 84.4817L546.036 86.9192L548.167 87.3088L546.63 89.2069L546.994 91.8741L545.085 90.6154L543.184 91.8741L543.548 89.2069L542.004 87.3088L544.135 86.9192L545.085 84.4817Z" fill="white"/>
<path d="M498.08 349.219V359.618L512.512 370.337V359.618L498.08 349.219Z" fill="#56ABDD"/>
<path d="M498.08 349.219L512.512 338.5L527.08 349.109L512.512 359.618L498.08 349.219Z" fill="#009BDD"/>
<path d="M527.08 349.109V359.618L512.512 370.337V359.618L527.08 349.109Z" fill="#2B73B5"/>
<path d="M476.296 365.142V375.531L490.721 386.25V375.531L476.296 365.142Z" fill="#56ABDD"/>
<path d="M476.296 365.142L490.721 354.423L505.296 365.032L490.721 375.531L476.296 365.142Z" fill="#009BDD"/>
<path d="M505.296 365.032V375.531L490.721 386.25V375.531L505.296 365.032Z" fill="#2B73B5"/>
<path d="M519.911 365.142V375.531L534.336 386.25V375.531L519.911 365.142Z" fill="#56ABDD"/>
<path d="M519.911 365.142L534.336 354.423L548.911 365.032L534.336 375.531L519.911 365.142Z" fill="#009BDD"/>
<path d="M548.911 365.032V375.531L534.336 386.25V375.531L548.911 365.032Z" fill="#2B73B5"/>
<path d="M498.119 381.056V391.455L512.544 402.174V391.455L498.119 381.056Z" fill="#56ABDD"/>
<path d="M498.119 381.056L512.544 370.337L527.119 380.946L512.544 391.455L498.119 381.056Z" fill="#009BDD"/>
<path d="M527.119 380.946V391.455L512.544 402.174V391.455L527.119 380.946Z" fill="#2B73B5"/>
<path opacity="0.73" d="M477.088 362.235L476.351 54.193C476.351 54.193 498.19 58.8781 504.836 62.7441C517.614 70.1865 550.282 109.786 550.282 109.786L549.521 362.235L513.304 388.608L477.088 362.235Z" fill="url(#paint32_linear_32_126)"/>
<path d="M131.042 502.61V513.01L145.467 523.729V513.01L131.042 502.61Z" fill="#56ABDD"/>
<path d="M131.042 502.61L145.467 491.891L160.042 502.511L145.467 513.01L131.042 502.61Z" fill="#009BDD"/>
<path d="M160.042 502.51V513.01L145.467 523.729V513.01L160.042 502.51Z" fill="#2B73B5"/>
<path d="M109.25 518.534V528.923L123.675 539.652V528.923L109.25 518.534Z" fill="#56ABDD"/>
<path d="M109.25 518.534L123.675 507.815L138.25 518.424L123.675 528.923L109.25 518.534Z" fill="#009BDD"/>
<path d="M138.25 518.424V528.923L123.675 539.652V528.923L138.25 518.424Z" fill="#2B73B5"/>
<path d="M152.865 518.534V528.923L167.29 539.652V528.923L152.865 518.534Z" fill="#56ABDD"/>
<path d="M152.865 518.534L167.29 507.815L181.865 518.424L167.29 528.923L152.865 518.534Z" fill="#009BDD"/>
<path d="M181.865 518.424V528.923L167.29 539.652V528.923L181.865 518.424Z" fill="#2B73B5"/>
<path d="M131.073 534.448V544.847L145.498 555.566V544.847L131.073 534.448Z" fill="#56ABDD"/>
<path d="M131.073 534.448L145.498 523.729L160.074 534.338L145.498 544.847L131.073 534.448Z" fill="#009BDD"/>
<path d="M160.074 534.338V544.847L145.498 555.566V544.847L160.074 534.338Z" fill="#2B73B5"/>
<path opacity="0.73" d="M109.25 518.624L108.513 48.329C108.513 48.329 129.861 40.9666 136.999 38.9187C166.791 30.3675 182.444 26.0919 182.444 26.0919L181.683 518.634L145.467 545.007L109.25 518.624Z" fill="url(#paint33_linear_32_126)"/>
<g opacity="0.5">
<path d="M146.679 459.175C144.207 458.975 142.338 456.268 142.496 453.141C142.647 450.015 144.77 447.617 147.241 447.817C149.689 448.017 151.558 450.734 151.408 453.851C151.249 456.987 149.134 459.375 146.679 459.175Z" fill="url(#paint34_radial_32_126)"/>
<path d="M147.249 493.53C145.015 493.35 143.328 490.902 143.463 488.065C143.605 485.228 145.522 483.061 147.756 483.24C149.982 483.42 151.669 485.868 151.534 488.705C151.392 491.552 149.475 493.71 147.249 493.53Z" fill="url(#paint35_radial_32_126)"/>
<path d="M137.759 481.602C136.365 481.492 135.296 479.964 135.383 478.186C135.47 476.397 136.674 475.049 138.076 475.159C139.47 475.269 140.539 476.797 140.444 478.585C140.357 480.363 139.153 481.712 137.759 481.602Z" fill="url(#paint36_radial_32_126)"/>
<path d="M133.418 434.96C131.192 434.78 129.489 432.333 129.632 429.496C129.774 426.659 131.691 424.491 133.925 424.671C136.151 424.851 137.838 427.298 137.704 430.135C137.561 432.982 135.644 435.14 133.418 434.96Z" fill="url(#paint37_radial_32_126)"/>
<path d="M132.404 455.489C131.01 455.379 129.949 453.851 130.036 452.073C130.123 450.294 131.327 448.936 132.721 449.046C134.115 449.156 135.185 450.694 135.098 452.472C135.002 454.25 133.798 455.599 132.404 455.489Z" fill="url(#paint38_radial_32_126)"/>
<path d="M115.928 431.434C114.534 431.324 113.464 429.795 113.551 428.007C113.571 427.586 113.656 427.174 113.802 426.794C113.947 426.414 114.151 426.074 114.402 425.794C114.652 425.514 114.943 425.299 115.26 425.161C115.576 425.023 115.911 424.965 116.245 424.99C117.639 425.1 118.708 426.629 118.613 428.417C118.526 430.195 117.322 431.544 115.928 431.434Z" fill="url(#paint39_radial_32_126)"/>
<path d="M124.459 407.069C123.065 406.959 122.003 405.431 122.091 403.642C122.178 401.864 123.382 400.506 124.776 400.626C126.17 400.735 127.239 402.274 127.144 404.052C127.127 404.473 127.043 404.886 126.898 405.265C126.753 405.645 126.55 405.986 126.3 406.266C126.05 406.546 125.759 406.762 125.443 406.9C125.127 407.037 124.793 407.095 124.459 407.069Z" fill="url(#paint40_radial_32_126)"/>
<path d="M149.293 416.269C147.067 416.09 145.372 413.642 145.506 410.805C145.649 407.968 147.574 405.81 149.8 405.98C152.026 406.16 153.713 408.607 153.578 411.444C153.436 414.292 151.519 416.449 149.293 416.269Z" fill="url(#paint41_radial_32_126)"/>
<path d="M156.279 428.407C154.885 428.297 153.824 426.769 153.911 424.98C153.998 423.202 155.202 421.844 156.596 421.954C157.99 422.063 159.06 423.602 158.973 425.38C158.885 427.168 157.673 428.517 156.279 428.407Z" fill="url(#paint42_radial_32_126)"/>
<path d="M139.803 404.352C138.409 404.242 137.339 402.703 137.426 400.925C137.514 399.137 138.726 397.789 140.12 397.898C141.514 398.008 142.575 399.537 142.488 401.325C142.401 403.113 141.197 404.462 139.803 404.352Z" fill="url(#paint43_radial_32_126)"/>
<path d="M154.798 494.119C148.065 493.58 142.956 486.197 143.383 477.616C143.803 469.045 149.602 462.522 156.327 463.061C163.052 463.601 168.161 470.993 167.742 479.564C167.322 488.135 161.531 494.649 154.798 494.119Z" fill="url(#paint44_radial_32_126)"/>
<path d="M168.375 499.943C161.65 499.404 156.533 492.011 156.961 483.44C157.38 474.869 163.179 468.346 169.904 468.885C176.629 469.425 181.747 476.807 181.319 485.388C180.899 493.959 175.101 500.483 168.375 499.943Z" fill="url(#paint45_radial_32_126)"/>
<path d="M166.656 479.185C159.931 478.645 154.822 471.253 155.242 462.682C155.661 454.11 161.46 447.587 168.185 448.127C174.91 448.666 180.02 456.048 179.6 464.63C179.172 473.201 173.382 479.714 166.656 479.185Z" fill="url(#paint46_radial_32_126)"/>
<path d="M138.662 454.42C134.416 454.08 131.184 449.415 131.454 444.001C131.723 438.596 135.383 434.471 139.629 434.82C143.874 435.16 147.106 439.835 146.837 445.23C146.568 450.644 142.916 454.76 138.662 454.42Z" fill="url(#paint47_radial_32_126)"/>
<path d="M164.266 394.183C157.54 393.644 152.423 386.251 152.851 377.68C153.271 369.109 159.069 362.586 165.795 363.125C172.52 363.665 177.629 371.057 177.209 379.628C176.789 388.199 170.991 394.723 164.266 394.183Z" fill="url(#paint48_radial_32_126)"/>
<path d="M134.369 480.443C127.644 479.904 122.526 472.511 122.954 463.94C123.374 455.369 129.172 448.846 135.898 449.385C142.623 449.925 147.732 457.317 147.312 465.888C146.885 474.459 141.094 480.973 134.369 480.443Z" fill="url(#paint49_radial_32_126)"/>
<path d="M145.372 399.167C141.649 398.867 138.821 394.782 139.05 390.036C139.288 385.301 142.496 381.695 146.219 381.985C149.934 382.284 152.77 386.37 152.533 391.115C152.303 395.86 149.095 399.467 145.372 399.167Z" fill="url(#paint50_radial_32_126)"/>
<path d="M136.317 409.566C134.915 409.456 133.862 407.918 133.949 406.14C134.036 404.352 135.24 403.003 136.634 403.113C138.028 403.223 139.09 404.751 139.003 406.539C138.916 408.328 137.712 409.676 136.317 409.566Z" fill="url(#paint51_radial_32_126)"/>
<path d="M125.964 456.818C124.57 456.708 123.509 455.179 123.596 453.401C123.683 451.613 124.887 450.264 126.281 450.384C127.675 450.494 128.745 452.023 128.657 453.811C128.637 454.231 128.552 454.643 128.405 455.021C128.259 455.4 128.055 455.739 127.805 456.018C127.555 456.297 127.263 456.511 126.948 456.649C126.632 456.786 126.298 456.843 125.964 456.818Z" fill="url(#paint52_radial_32_126)"/>
</g>
<path d="M139.549 355.512C137.078 355.312 135.208 352.605 135.367 349.478C135.517 346.352 137.64 343.954 140.112 344.154C142.559 344.354 144.429 347.071 144.278 350.188C144.12 353.314 142.005 355.702 139.549 355.512Z" fill="url(#paint53_radial_32_126)"/>
<path d="M140.12 389.867C137.886 389.687 136.199 387.239 136.333 384.402C136.476 381.565 138.393 379.398 140.627 379.577C142.853 379.757 144.54 382.205 144.405 385.042C144.263 387.879 142.346 390.037 140.12 389.867Z" fill="url(#paint54_radial_32_126)"/>
<path d="M130.63 377.939C129.236 377.829 128.166 376.301 128.253 374.523C128.341 372.734 129.545 371.386 130.947 371.496C132.341 371.606 133.41 373.134 133.315 374.922C133.228 376.7 132.024 378.049 130.63 377.939Z" fill="url(#paint55_radial_32_126)"/>
<path d="M126.289 331.287C124.063 331.107 122.36 328.66 122.502 325.823C122.645 322.986 124.562 320.818 126.796 320.998C129.022 321.178 130.709 323.625 130.574 326.462C130.432 329.309 128.515 331.467 126.289 331.287Z" fill="url(#paint56_radial_32_126)"/>
<path d="M125.275 351.816C123.881 351.706 122.819 350.178 122.906 348.389C122.994 346.611 124.198 345.253 125.592 345.373C126.986 345.482 128.055 347.021 127.968 348.799C127.873 350.577 126.669 351.926 125.275 351.816Z" fill="url(#paint57_radial_32_126)"/>
<path d="M108.799 327.761C107.404 327.651 106.335 326.122 106.422 324.334C106.441 323.913 106.526 323.501 106.672 323.121C106.818 322.741 107.022 322.401 107.272 322.121C107.522 321.841 107.814 321.625 108.13 321.488C108.447 321.35 108.781 321.292 109.115 321.317C110.51 321.427 111.579 322.956 111.484 324.744C111.397 326.522 110.193 327.871 108.799 327.761Z" fill="url(#paint58_radial_32_126)"/>
<path d="M117.33 303.396C115.936 303.286 114.874 301.758 114.961 299.969C115.048 298.191 116.253 296.833 117.647 296.943C119.041 297.052 120.11 298.591 120.015 300.369C119.998 300.791 119.915 301.204 119.771 301.585C119.626 301.966 119.423 302.308 119.173 302.589C118.924 302.871 118.632 303.087 118.316 303.225C117.999 303.364 117.664 303.422 117.33 303.396Z" fill="url(#paint59_radial_32_126)"/>
<path d="M142.163 312.606C139.938 312.427 138.242 309.979 138.377 307.142C138.52 304.305 140.444 302.147 142.67 302.317C144.896 302.497 146.584 304.944 146.449 307.781C146.306 310.628 144.389 312.786 142.163 312.606Z" fill="url(#paint60_radial_32_126)"/>
<path d="M149.15 324.734C147.756 324.624 146.694 323.096 146.782 321.307C146.869 319.529 148.073 318.171 149.467 318.281C150.861 318.39 151.93 319.929 151.843 321.707C151.756 323.495 150.544 324.844 149.15 324.734Z" fill="url(#paint61_radial_32_126)"/>
<path d="M132.674 300.679C131.279 300.569 130.21 299.03 130.297 297.262C130.384 295.474 131.596 294.125 132.99 294.235C134.385 294.345 135.446 295.874 135.359 297.662C135.272 299.44 134.068 300.789 132.674 300.679Z" fill="url(#paint62_radial_32_126)"/>
<path d="M148.461 390.446C141.728 389.907 136.618 382.524 137.046 373.943C137.466 365.372 143.264 358.849 149.99 359.388C156.715 359.928 161.824 367.32 161.404 375.891C160.985 384.462 155.194 390.986 148.461 390.446Z" fill="url(#paint63_radial_32_126)"/>
<path d="M162.038 396.28C155.313 395.741 150.196 388.348 150.623 379.777C151.043 371.206 156.842 364.683 163.567 365.222C170.292 365.762 175.41 373.154 174.982 381.725C174.562 390.296 168.763 396.81 162.038 396.28Z" fill="url(#paint64_radial_32_126)"/>
<path d="M160.319 375.512C153.594 374.972 148.485 367.58 148.905 359.009C149.324 350.437 155.123 343.914 161.848 344.454C168.573 344.993 173.683 352.375 173.263 360.957C172.835 369.528 167.045 376.051 160.319 375.512Z" fill="url(#paint65_radial_32_126)"/>
<path d="M131.367 350.747C127.121 350.407 123.889 345.742 124.158 340.328C124.427 334.923 128.087 330.798 132.333 331.147C136.579 331.487 139.811 336.162 139.541 341.557C139.272 346.971 135.62 351.087 131.367 350.747Z" fill="url(#paint66_radial_32_126)"/>
<path d="M121.49 331.248C114.765 330.709 109.648 323.316 110.075 314.745C110.495 306.174 116.294 299.651 123.019 300.19C129.744 300.73 134.854 308.122 134.434 316.693C134.014 325.264 128.215 331.788 121.49 331.248ZM126.243 384.194C119.518 383.654 114.401 376.262 114.828 367.691C115.248 359.119 121.047 352.596 127.772 353.136C134.497 353.675 139.606 361.067 139.187 369.639C138.759 378.21 132.968 384.733 126.243 384.194Z" fill="url(#paint67_radial_32_126)"/>
<path d="M138.076 295.504C134.353 295.204 131.525 291.119 131.755 286.373C131.992 281.638 135.201 278.032 138.924 278.322C142.639 278.621 145.475 282.707 145.237 287.452C145.007 292.187 141.799 295.804 138.076 295.504Z" fill="url(#paint68_radial_32_126)"/>
<path d="M129.022 305.893C127.62 305.783 126.566 304.245 126.653 302.467C126.74 300.679 127.945 299.33 129.339 299.44C130.733 299.55 131.794 301.078 131.707 302.866C131.62 304.655 130.416 306.013 129.022 305.893Z" fill="url(#paint69_radial_32_126)"/>
<path d="M119.627 353.155C118.233 353.045 117.171 351.516 117.259 349.738C117.346 347.95 118.55 346.601 119.944 346.721C121.338 346.831 122.407 348.36 122.32 350.148C122.278 350.996 121.971 351.789 121.466 352.353C120.961 352.916 120.3 353.205 119.627 353.155Z" fill="url(#paint70_radial_32_126)"/>
<path d="M132.444 461.533L162.244 412.214L133.711 366.371L157.642 305.863" stroke="white" stroke-width="2.127"/>
<path d="M129.473 443.202L122.724 454.69L127.176 467.796L133.957 456.258L129.473 443.202Z" fill="#00DDD2"/>
<path d="M145.284 457.887L133.957 456.258L127.176 467.796L138.543 469.574L145.284 457.887Z" fill="#00CCBD"/>
<path d="M140.745 444.71L129.473 443.202L133.957 456.258L145.284 457.887L140.745 444.71Z" fill="#00FFEC"/>
<path d="M151.13 414.621L158.379 425.62L169.532 423.262L162.244 412.214L151.13 414.621Z" fill="#00DDD2"/>
<path d="M166.197 398.738L162.244 412.214L169.532 423.262L173.596 409.756L166.197 398.738Z" fill="#00CCBD"/>
<path d="M154.964 401.165L151.13 414.621L162.244 412.214L166.197 398.738L154.964 401.165Z" fill="#00FFEC"/>
<path d="M138.076 353.254L126.828 355.063L122.407 368.189L133.711 366.371L138.076 353.254Z" fill="#FF277F"/>
<path d="M140.611 377.809L133.711 366.371L122.407 368.189L129.259 379.757L140.611 377.809Z" fill="#741AAC"/>
<path d="M145.015 364.563L138.076 353.254L133.711 366.371L140.611 377.809L145.015 364.563Z" fill="#C71AAC"/>
<path d="M162.007 292.747L150.758 294.555L146.338 307.681L157.642 305.863L162.007 292.747Z" fill="#009BDD"/>
<path d="M164.541 317.312L157.642 305.863L146.338 307.681L153.19 319.26L164.541 317.312Z" fill="#2B73B5"/>
<path d="M168.946 304.055L162.006 292.747L157.642 305.863L164.541 317.312L168.946 304.055Z" fill="#56ABDD"/>
<path opacity="0.2" d="M216.125 247.094C216.125 254.796 211.175 261.04 205.067 261.04C198.96 261.04 194.009 254.796 194.009 247.094C194.009 239.392 198.96 233.148 205.067 233.148C211.175 233.148 216.125 239.392 216.125 247.094Z" fill="white"/>
<path opacity="0.3" d="M212.735 247.094C212.735 252.428 209.305 256.764 205.067 256.764C200.837 256.764 197.399 252.438 197.399 247.094C197.399 241.759 200.829 237.424 205.067 237.424C209.297 237.424 212.735 241.759 212.735 247.094Z" fill="white"/>
<path d="M347.343 347.161C347.343 347.161 373.722 371.875 380.756 375.362C387.79 378.848 390.301 378.209 399.094 381.066C407.887 383.913 426.478 387.399 436.776 391.835C447.074 396.27 455.114 401.974 455.114 401.974C455.114 401.974 450.844 392.784 451.597 388.988C452.349 385.191 452.349 382.964 452.349 382.964C452.349 382.964 447.573 382.334 441.046 376.94C434.51 371.556 422.454 358.879 407.887 355.083C393.319 351.276 387.537 352.545 387.537 352.545L358.148 315.793L347.343 347.161Z" fill="url(#paint71_linear_32_126)"/>
<path d="M452.349 382.954L458.045 380.107C458.045 380.107 462.402 376.73 466.584 380.956C470.775 385.182 473.785 394.262 475.464 396.37C477.135 398.478 481.991 399.746 484.677 407.568C487.354 415.38 486.015 423.202 484.344 427.418C482.673 431.644 480.328 432.273 479.322 431.853C478.316 431.434 468.604 416.01 465.752 413.053C462.909 410.096 455.114 401.964 455.114 401.964C455.114 401.964 450.512 393.833 451.597 388.978C452.69 384.123 452.349 382.954 452.349 382.954Z" fill="#A91AAC"/>
<path d="M475.464 396.37C473.793 394.262 470.775 385.172 466.584 380.956C462.394 376.73 458.045 380.107 458.045 380.107L457.158 380.556C456.223 382.105 455.059 384.702 455.367 387.709C455.867 392.564 459.217 397.429 463.075 402.074C466.925 406.719 471.781 412.843 473.46 416.649C474.521 419.057 476.589 425.77 478.427 430.864C478.862 431.434 479.179 431.793 479.322 431.853C480.328 432.273 482.673 431.644 484.344 427.418C486.015 423.192 487.362 415.38 484.677 407.568C481.999 399.746 477.143 398.478 475.464 396.37Z" fill="black"/>
<path d="M348.183 350.327L360.239 373.773C360.239 373.773 375.813 407.149 375.647 410.735C375.48 414.321 369.618 424.041 364.256 420.665C358.893 417.288 355.209 410.316 351.526 405.461C347.842 400.606 323.056 371.036 323.056 371.036L348.183 350.327Z" fill="url(#paint72_linear_32_126)"/>
<path d="M382.182 335.543C382.182 335.543 378.997 329.579 378.372 328.15C377.746 326.722 374.981 319.12 378.997 315.004C383.013 310.888 388.416 311.997 392.186 312.626C395.957 313.256 397.462 315.324 398.595 314.524C399.728 313.735 401.613 309.769 405.13 309.14C408.647 308.511 417.06 310.249 421.709 315.004C426.359 319.759 420.957 325.613 414.295 327.361C407.641 329.099 401.605 334.803 398.967 337.181C396.329 339.559 393.731 341.457 393.731 341.457C393.731 341.457 392.685 335.753 389.794 334.644C386.911 333.535 382.182 335.543 382.182 335.543Z" fill="#A91AAC"/>
<path d="M421.702 315.004C417.052 310.249 408.639 308.511 405.122 309.14C401.605 309.769 399.72 313.735 398.587 314.524C397.454 315.314 395.949 313.256 392.178 312.626C388.408 311.997 383.006 310.888 378.989 315.004C374.973 319.12 377.73 326.722 378.364 328.15C378.427 328.29 378.514 328.48 378.617 328.7C380.653 329.229 384.526 330.068 387.529 329.739C391.798 329.259 394.309 326.572 399.339 326.892C403.973 327.181 418.771 326.792 423.389 319.519C423.603 318.001 423.119 316.452 421.702 315.004Z" fill="black"/>
<path d="M234.97 218.124C234.97 218.124 235.414 224.058 236.341 226.645C237.276 229.232 240.238 233.518 241.965 236.425C243.692 239.332 243.621 241.74 246.251 240.351C248.88 238.962 254.592 233.718 254.592 233.718L234.97 218.124Z" fill="url(#paint73_linear_32_126)"/>
<path d="M275.14 244.846C275.14 244.846 271.488 266.894 269.223 276.454C266.949 286.014 263.187 295.194 260.588 295.424C257.998 295.644 251.922 295.154 244.064 286.783C236.206 278.412 227.002 271.729 224.918 271.139C222.835 270.55 218.217 270.61 216.102 266.804C213.987 262.998 210.295 257.363 210.691 255.705C211.087 254.047 216.141 250.59 217.638 250.96C219.136 251.33 225.433 254.906 227.303 258.412C229.172 261.919 230.598 265.265 235.351 268.662C240.104 272.058 244.738 272.608 249.791 274.715L254.845 276.823C254.845 276.823 258.275 251.689 260.62 247.164C262.965 242.639 265.642 238.043 270.775 239.182C275.892 240.331 275.14 244.846 275.14 244.846Z" fill="url(#paint74_linear_32_126)"/>
<path d="M295.094 320.548C295.094 320.548 296.852 331.956 302.128 344.623C307.404 357.3 310.168 365.851 311.927 369.967C313.685 374.083 316.45 373.454 321.726 371.865C327.001 370.277 327.754 368.379 331.524 366.8C335.295 365.212 344.84 361.096 347.351 353.175C349.862 345.253 349.363 341.137 352.128 338.28C354.892 335.433 357.15 329.729 358.156 322.436C359.162 315.154 360.168 308.181 359.661 303.426C359.162 298.671 355.645 294.875 355.645 294.875C355.645 294.875 350.868 296.463 343.082 291.069C335.295 285.684 330.518 286.004 324.744 284.735C318.969 283.466 313.186 283.466 313.186 283.466" fill="url(#paint75_linear_32_126)"/>
<path d="M258.584 245.566C258.584 245.566 255.74 262.248 256.913 267.952C258.085 273.657 260.263 285.275 264.787 286.963C269.31 288.651 273.999 287.173 273.999 287.173C273.999 287.173 283.877 300.059 288.068 308.081C292.258 316.103 295.102 320.538 295.102 320.538C295.102 320.538 300.631 322.436 306.152 311.458C311.681 300.479 315.032 283.786 312.014 280.619C308.996 277.453 307.998 277.453 306.318 275.335C304.647 273.227 279.354 248.093 279.354 248.093L258.584 245.566Z" fill="url(#paint76_linear_32_126)"/>
<path d="M267.615 254.057C267.615 254.057 286.626 260.39 294.832 264.086C303.031 267.783 310.826 273.537 310.873 277.153C310.921 280.759 310.137 289.161 302.382 299.57C294.627 309.979 288.274 322.366 287.64 325.223C287.006 328.08 286.792 334.484 283.354 337.201C279.916 339.908 274.649 341.577 273.223 340.937C271.805 340.298 269.223 336.222 269.635 334.164C270.038 332.106 273.524 323.585 276.692 321.198C279.861 318.81 282.855 317.022 286.087 310.628C289.319 304.235 290.064 297.842 292.195 290.949L294.325 284.056C294.325 284.056 272.605 277.852 268.803 274.346C264.993 270.839 261.143 266.854 262.426 259.811C263.717 252.748 267.615 254.057 267.615 254.057Z" fill="url(#paint77_linear_32_126)"/>
<path d="M363.257 420.026C363.257 420.026 356.556 407.988 357.063 395.311C357.562 382.634 358.734 375.032 361.919 369.118C365.103 363.204 373.143 353.914 377.492 346.102C381.849 338.29 382.182 335.543 382.182 335.543C382.182 335.543 387.877 333.215 390.887 335.543C393.905 337.87 393.731 341.457 393.731 341.457C393.731 341.457 381.841 376.73 379.33 387.289C376.819 397.848 376.478 408.198 375.647 411.574C374.815 414.951 370.624 424.671 363.257 420.026Z" fill="url(#paint78_linear_32_126)"/>
<path d="M227.604 271.968C227.604 271.968 224.918 271.129 222.581 270.7C220.245 270.27 218.391 269.431 216.72 268.592C215.048 267.743 214.042 273.237 212.703 273.657C211.365 274.076 211.697 270.07 212.03 268.592C212.363 267.113 215.048 263.307 216.72 260.35C218.391 257.393 215.88 254.436 215.88 254.436C215.88 254.436 206.834 249.372 206.002 247.254C205.162 245.146 207.507 245.356 213.036 247.883C218.565 250.421 222.415 252.948 222.415 252.948C222.415 252.948 225.829 255.196 227.303 258.402" fill="white"/>
<path d="M235.208 174.898C235.208 174.898 245.134 163.021 260.351 171.322C273.096 178.275 273.239 188.215 281.152 195.148C286.602 199.923 302.841 210.911 319.476 206.586C336.111 202.27 352.556 209.173 364.786 228.683C377.009 248.193 380.795 259.341 380.795 259.341C380.795 259.341 360.738 256.304 347.24 270.19C333.734 284.066 303.784 283.726 287.085 275.724C270.387 267.723 259.646 252.788 256.548 246.235C253.451 239.682 251.241 233.808 245.878 231.001C240.523 228.193 226.209 213.838 226.613 200.702C227.009 187.585 229.085 181.432 235.208 174.898Z" fill="url(#paint79_linear_32_126)"/>
<path opacity="0.3" d="M319.476 206.595C302.841 210.911 286.602 199.922 281.152 195.157C273.231 188.224 273.088 178.285 260.351 171.332C245.237 163.09 235.351 174.738 235.216 174.898C250.449 167.905 257.404 174.309 264.921 186.147C277.58 206.106 290.23 225.296 308.782 223.788C322.803 222.649 339.081 218.084 350.385 227.784C361.689 237.474 365.761 245.465 365.761 245.465C365.761 245.465 349.482 234.627 331.849 235.775C314.216 236.914 297.486 234.067 285.723 224.936C273.968 215.816 266.276 200.981 266.276 200.981C266.276 200.981 271.369 241.519 313.305 242.608C357.166 243.747 353.094 247.743 364.097 260.59C373.135 258.192 380.803 259.351 380.803 259.351C380.803 259.351 377.017 248.202 364.794 228.693C352.556 209.183 336.111 202.27 319.476 206.595Z" fill="url(#paint80_linear_32_126)"/>
<g opacity="0.5">
<path d="M515.023 310.329C512.552 310.129 510.683 307.422 510.841 304.295C510.991 301.168 513.114 298.771 515.586 298.97C518.034 299.17 519.903 301.887 519.753 305.004C519.594 308.141 517.479 310.529 515.023 310.329Z" fill="url(#paint81_radial_32_126)"/>
<path d="M515.594 344.683C513.36 344.503 511.673 342.056 511.807 339.219C511.95 336.382 513.867 334.214 516.101 334.394C518.327 334.574 520.014 337.021 519.879 339.858C519.737 342.705 517.82 344.863 515.594 344.683Z" fill="url(#paint82_radial_32_126)"/>
<path d="M506.104 332.756C504.71 332.646 503.64 331.117 503.728 329.339C503.815 327.551 505.019 326.202 506.421 326.312C507.815 326.422 508.884 327.951 508.789 329.739C508.702 331.517 507.498 332.866 506.104 332.756Z" fill="url(#paint83_radial_32_126)"/>
<path d="M501.763 286.114C499.537 285.934 497.834 283.486 497.977 280.649C498.119 277.812 500.036 275.645 502.27 275.824C504.496 276.004 506.183 278.452 506.049 281.289C505.906 284.136 503.989 286.294 501.763 286.114Z" fill="url(#paint84_radial_32_126)"/>
<path d="M500.749 306.643C499.355 306.533 498.293 305.004 498.381 303.226C498.468 301.448 499.672 300.089 501.066 300.199C502.46 300.309 503.53 301.848 503.442 303.626C503.347 305.404 502.143 306.752 500.749 306.643Z" fill="url(#paint85_radial_32_126)"/>
<path d="M484.273 282.587C482.878 282.477 481.809 280.949 481.896 279.161C481.915 278.74 482 278.327 482.146 277.947C482.292 277.568 482.496 277.228 482.746 276.948C482.997 276.667 483.288 276.452 483.604 276.314C483.921 276.176 484.255 276.118 484.589 276.144C485.984 276.254 487.053 277.782 486.958 279.57C486.871 281.349 485.667 282.697 484.273 282.587Z" fill="url(#paint86_radial_32_126)"/>
<path d="M492.804 258.222C491.41 258.113 490.348 256.584 490.435 254.796C490.523 253.018 491.727 251.659 493.121 251.779C494.515 251.889 495.584 253.427 495.489 255.206C495.471 255.627 495.388 256.039 495.243 256.419C495.098 256.799 494.895 257.139 494.645 257.42C494.395 257.7 494.104 257.915 493.788 258.053C493.472 258.191 493.138 258.249 492.804 258.222Z" fill="url(#paint87_radial_32_126)"/>
<path d="M517.638 267.423C515.412 267.243 513.716 264.796 513.851 261.959C513.994 259.122 515.919 256.964 518.145 257.134C520.37 257.313 522.058 259.761 521.923 262.598C521.78 265.445 519.863 267.603 517.638 267.423Z" fill="url(#paint88_radial_32_126)"/>
<path d="M524.624 279.56C523.23 279.451 522.169 277.922 522.256 276.134C522.343 274.356 523.547 272.997 524.941 273.107C526.335 273.217 527.405 274.755 527.318 276.534C527.23 278.322 526.018 279.67 524.624 279.56Z" fill="url(#paint89_radial_32_126)"/>
<path d="M508.148 255.505C506.754 255.395 505.684 253.857 505.771 252.079C505.858 250.291 507.07 248.942 508.465 249.052C509.859 249.162 510.92 250.69 510.833 252.478C510.746 254.267 509.542 255.615 508.148 255.505Z" fill="url(#paint90_radial_32_126)"/>
<path d="M523.143 345.273C516.41 344.733 511.3 337.351 511.728 328.77C512.148 320.199 517.946 313.675 524.672 314.215C531.397 314.754 536.506 322.147 536.086 330.718C535.667 339.289 529.876 345.802 523.143 345.273Z" fill="url(#paint91_radial_32_126)"/>
<path d="M536.72 351.097C529.995 350.557 524.878 343.165 525.305 334.594C525.725 326.023 531.524 319.499 538.249 320.039C544.974 320.578 550.091 327.961 549.664 336.542C549.244 345.113 543.445 351.636 536.72 351.097Z" fill="url(#paint92_radial_32_126)"/>
<path d="M535.001 330.338C528.276 329.799 523.167 322.406 523.586 313.835C524.006 305.264 529.805 298.741 536.53 299.28C543.255 299.82 548.365 307.202 547.945 315.783C547.517 324.354 541.726 330.868 535.001 330.338Z" fill="url(#paint93_radial_32_126)"/>
<path d="M507.007 305.574C502.761 305.234 499.529 300.569 499.799 295.154C500.068 289.75 503.728 285.624 507.973 285.974C512.219 286.314 515.451 290.989 515.182 296.383C514.913 301.798 511.261 305.913 507.007 305.574Z" fill="url(#paint94_radial_32_126)"/>
<path d="M532.61 245.337C525.885 244.797 520.768 237.405 521.196 228.834C521.616 220.263 527.414 213.739 534.139 214.279C540.865 214.818 545.974 222.211 545.554 230.782C545.134 239.353 539.336 245.876 532.61 245.337Z" fill="url(#paint95_radial_32_126)"/>
<path d="M502.714 331.597C495.988 331.057 490.871 323.665 491.299 315.094C491.719 306.523 497.517 299.999 504.242 300.539C510.968 301.078 516.077 308.471 515.657 317.042C515.229 325.613 509.439 332.126 502.714 331.597Z" fill="url(#paint96_radial_32_126)"/>
<path d="M513.716 250.321C509.993 250.021 507.165 245.935 507.395 241.19C507.633 236.455 510.841 232.849 514.564 233.138C518.279 233.438 521.115 237.524 520.877 242.269C520.648 247.014 517.439 250.62 513.716 250.321Z" fill="url(#paint97_radial_32_126)"/>
<path d="M504.662 260.72C503.26 260.61 502.207 259.072 502.294 257.293C502.381 255.505 503.585 254.157 504.979 254.267C506.373 254.376 507.435 255.905 507.348 257.693C507.26 259.481 506.056 260.83 504.662 260.72Z" fill="url(#paint98_radial_32_126)"/>
<path d="M494.309 307.971C492.915 307.861 491.853 306.333 491.941 304.555C492.028 302.767 493.232 301.418 494.626 301.538C496.02 301.648 497.089 303.176 497.002 304.964C496.982 305.385 496.896 305.796 496.75 306.175C496.604 306.554 496.4 306.892 496.15 307.171C495.9 307.451 495.608 307.665 495.292 307.802C494.977 307.939 494.642 307.997 494.309 307.971Z" fill="url(#paint99_radial_32_126)"/>
</g>
<path d="M508.686 200.672C506.215 200.472 504.345 197.765 504.504 194.638C504.654 191.511 506.777 189.114 509.249 189.314C511.697 189.513 513.566 192.231 513.415 195.347C513.257 198.474 511.142 200.862 508.686 200.672Z" fill="url(#paint100_radial_32_126)"/>
<path d="M509.257 235.026C507.023 234.847 505.336 232.399 505.47 229.562C505.613 226.725 507.53 224.557 509.764 224.737C511.99 224.917 513.677 227.364 513.542 230.201C513.4 233.038 511.483 235.196 509.257 235.026Z" fill="url(#paint101_radial_32_126)"/>
<path d="M499.767 223.099C498.373 222.989 497.303 221.46 497.39 219.682C497.477 217.894 498.682 216.545 500.084 216.655C501.478 216.765 502.547 218.294 502.452 220.082C502.365 221.86 501.161 223.209 499.767 223.099Z" fill="url(#paint102_radial_32_126)"/>
<path d="M495.426 176.447C493.2 176.267 491.497 173.82 491.639 170.982C491.782 168.145 493.699 165.978 495.933 166.157C498.159 166.337 499.846 168.785 499.711 171.622C499.569 174.469 497.652 176.627 495.426 176.447Z" fill="url(#paint103_radial_32_126)"/>
<path d="M494.412 196.976C493.018 196.866 491.956 195.337 492.043 193.549C492.131 191.771 493.335 190.412 494.729 190.532C496.123 190.642 497.192 192.181 497.105 193.959C497.01 195.737 495.806 197.086 494.412 196.976Z" fill="url(#paint104_radial_32_126)"/>
<path d="M477.935 172.92C476.541 172.811 475.472 171.282 475.559 169.494C475.578 169.073 475.663 168.66 475.809 168.281C475.955 167.901 476.159 167.561 476.409 167.281C476.659 167 476.951 166.785 477.267 166.647C477.583 166.509 477.918 166.452 478.252 166.477C479.646 166.587 480.716 168.115 480.621 169.904C480.534 171.682 479.33 173.03 477.935 172.92Z" fill="url(#paint105_radial_32_126)"/>
<path d="M486.467 148.556C485.073 148.446 484.011 146.917 484.098 145.129C484.185 143.351 485.389 141.992 486.784 142.102C488.178 142.212 489.247 143.751 489.152 145.529C489.135 145.951 489.052 146.364 488.908 146.745C488.763 147.126 488.56 147.467 488.31 147.749C488.061 148.03 487.769 148.247 487.453 148.385C487.136 148.524 486.801 148.582 486.467 148.556Z" fill="url(#paint106_radial_32_126)"/>
<path d="M511.3 157.766C509.074 157.586 507.379 155.139 507.514 152.302C507.657 149.465 509.581 147.307 511.807 147.477C514.033 147.657 515.721 150.104 515.586 152.941C515.443 155.788 513.526 157.946 511.3 157.766Z" fill="url(#paint107_radial_32_126)"/>
<path d="M518.287 169.894C516.893 169.784 515.831 168.255 515.919 166.467C516.006 164.689 517.21 163.33 518.604 163.44C519.998 163.55 521.067 165.089 520.98 166.867C520.893 168.655 519.681 170.003 518.287 169.894Z" fill="url(#paint108_radial_32_126)"/>
<path d="M501.811 145.838C500.416 145.729 499.347 144.19 499.434 142.422C499.521 140.634 500.733 139.285 502.127 139.395C503.522 139.505 504.583 141.033 504.496 142.822C504.409 144.6 503.205 145.948 501.811 145.838Z" fill="url(#paint109_radial_32_126)"/>
<path d="M517.598 235.606C510.865 235.066 505.755 227.684 506.183 219.103C506.603 210.532 512.401 204.008 519.127 204.548C525.852 205.087 530.961 212.48 530.541 221.051C530.122 229.622 524.331 236.145 517.598 235.606Z" fill="url(#paint110_radial_32_126)"/>
<path d="M531.175 241.44C524.45 240.9 519.333 233.508 519.76 224.937C520.18 216.366 525.979 209.842 532.704 210.382C539.429 210.921 544.546 218.314 544.119 226.885C543.699 235.456 537.9 241.969 531.175 241.44Z" fill="url(#paint111_radial_32_126)"/>
<path d="M529.456 220.671C522.731 220.132 517.622 212.739 518.041 204.168C518.461 195.597 524.26 189.074 530.985 189.613C537.71 190.153 542.82 197.535 542.4 206.116C541.972 214.687 536.181 221.211 529.456 220.671Z" fill="url(#paint112_radial_32_126)"/>
<path d="M500.504 195.907C496.258 195.567 493.026 190.902 493.295 185.488C493.564 180.083 497.224 175.957 501.47 176.307C505.716 176.647 508.948 181.322 508.678 186.716C508.409 192.131 504.757 196.246 500.504 195.907Z" fill="url(#paint113_radial_32_126)"/>
<path d="M490.627 176.408C483.902 175.868 478.785 168.476 479.212 159.905C479.632 151.334 485.431 144.81 492.156 145.35C498.881 145.889 503.991 153.282 503.571 161.853C503.151 170.424 497.352 176.947 490.627 176.408ZM495.38 229.353C488.655 228.814 483.537 221.421 483.965 212.85C484.385 204.279 490.184 197.756 496.909 198.295C503.634 198.835 508.743 206.227 508.324 214.798C507.896 223.369 502.105 229.893 495.38 229.353Z" fill="url(#paint114_radial_32_126)"/>
<path d="M507.213 140.664C503.49 140.364 500.662 136.278 500.892 131.533C501.129 126.798 504.337 123.192 508.061 123.481C511.776 123.781 514.612 127.867 514.374 132.612C514.144 137.347 510.936 140.963 507.213 140.664Z" fill="url(#paint115_radial_32_126)"/>
<path d="M498.159 151.053C496.757 150.943 495.703 149.405 495.79 147.627C495.877 145.838 497.081 144.49 498.476 144.6C499.87 144.71 500.931 146.238 500.844 148.026C500.757 149.814 499.553 151.173 498.159 151.053Z" fill="url(#paint116_radial_32_126)"/>
<path d="M488.764 198.314C487.37 198.204 486.308 196.676 486.396 194.898C486.483 193.11 487.687 191.761 489.081 191.881C490.475 191.991 491.544 193.519 491.457 195.307C491.415 196.156 491.108 196.949 490.603 197.512C490.098 198.076 489.437 198.364 488.764 198.314Z" fill="url(#paint117_radial_32_126)"/>
<path d="M497.905 308.141L527.706 258.822L499.173 212.979L523.103 152.472" stroke="white" stroke-width="2.127"/>
<path d="M494.935 289.81L488.178 301.298L492.638 314.405L499.418 302.856L494.935 289.81Z" fill="#00DDD2"/>
<path d="M510.738 304.495L499.418 302.856L492.638 314.405L504.005 316.173L510.738 304.495Z" fill="#00CCBD"/>
<path d="M506.207 291.318L494.935 289.81L499.418 302.856L510.738 304.495L506.207 291.318Z" fill="#00FFEC"/>
<path d="M516.592 261.229L523.84 272.228L534.993 269.87L527.706 258.822L516.592 261.229Z" fill="#00DDD2"/>
<path d="M531.658 245.346L527.706 258.822L534.993 269.87L539.057 256.364L531.658 245.346Z" fill="#00CCBD"/>
<path d="M520.426 247.773L516.592 261.229L527.706 258.822L531.658 245.346L520.426 247.773Z" fill="#00FFEC"/>
<path d="M503.537 199.863L492.289 201.671L487.869 214.797L499.173 212.979L503.537 199.863Z" fill="#D9007F"/>
<path d="M506.072 224.417L499.173 212.979L487.869 214.797L494.721 226.365L506.072 224.417Z" fill="#AC006B"/>
<path d="M510.477 211.171L503.537 199.863L499.173 212.979L506.072 224.417L510.477 211.171Z" fill="#FF00A6"/>
<path d="M527.468 139.355L516.22 141.163L511.799 154.29L523.103 152.472L527.468 139.355Z" fill="#009BDD"/>
<path d="M530.003 163.91L523.103 152.472L511.799 154.29L518.651 165.868L530.003 163.91Z" fill="#2B73B5"/>
<path d="M534.407 150.663L527.468 139.355L523.103 152.472L530.003 163.91L534.407 150.663Z" fill="#56ABDD"/>
<defs>
<linearGradient id="paint0_linear_32_126" x1="169.34" y1="133.061" x2="421.774" y2="420.255" gradientUnits="userSpaceOnUse">
<stop stop-color="#270036"/>
<stop offset="0.5936" stop-color="#4F008B"/>
<stop offset="1" stop-color="#4C24B1"/>
</linearGradient>
<radialGradient id="paint1_radial_32_126" cx="0" cy="0" r="1" gradientUnits="userSpaceOnUse" gradientTransform="translate(268.07 315.025) scale(163.692 206.432)">
<stop stop-color="#3E82BF"/>
<stop offset="1" stop-color="#3E82BF" stop-opacity="0"/>
</radialGradient>
<linearGradient id="paint2_linear_32_126" x1="392.627" y1="325.717" x2="416.503" y2="354.193" gradientUnits="userSpaceOnUse">
<stop stop-color="#270036"/>
<stop offset="0.5936" stop-color="#4F008B"/>
<stop offset="1" stop-color="#4C24B1"/>
</linearGradient>
<linearGradient id="paint3_linear_32_126" x1="397.049" y1="345.488" x2="416.632" y2="363.307" gradientUnits="userSpaceOnUse">
<stop stop-color="#270036"/>
<stop offset="0.5936" stop-color="#4F008B"/>
<stop offset="1" stop-color="#4C24B1"/>
</linearGradient>
<linearGradient id="paint4_linear_32_126" x1="346.059" y1="307.413" x2="437" y2="307.413" gradientUnits="userSpaceOnUse">
<stop stop-color="#B208AB"/>
<stop offset="1" stop-color="#4E0D98"/>
</linearGradient>
<linearGradient id="paint5_linear_32_126" x1="338.518" y1="281.149" x2="363.178" y2="315.654" gradientUnits="userSpaceOnUse">
<stop stop-color="#270036"/>
<stop offset="0.5936" stop-color="#4F008B"/>
<stop offset="1" stop-color="#4C24B1"/>
</linearGradient>
<linearGradient id="paint6_linear_32_126" x1="426.127" y1="358.456" x2="457.153" y2="378.909" gradientUnits="userSpaceOnUse">
<stop stop-color="#270036"/>
<stop offset="0.5936" stop-color="#4F008B"/>
<stop offset="1" stop-color="#4C24B1"/>
</linearGradient>
<linearGradient id="paint7_linear_32_126" x1="169.157" y1="340.901" x2="222.959" y2="340.901" gradientUnits="userSpaceOnUse">
<stop stop-color="#3F499C"/>
<stop offset="1" stop-color="#C619BB"/>
</linearGradient>
<linearGradient id="paint8_linear_32_126" x1="165.02" y1="352.239" x2="218.431" y2="352.239" gradientUnits="userSpaceOnUse">
<stop stop-color="#3F499C"/>
<stop offset="1" stop-color="#C619BB"/>
</linearGradient>
<linearGradient id="paint9_linear_32_126" x1="112.661" y1="362.608" x2="198.289" y2="362.608" gradientUnits="userSpaceOnUse">
<stop stop-color="#3F499C"/>
<stop offset="1" stop-color="#C619BB"/>
</linearGradient>
<linearGradient id="paint10_linear_32_126" x1="162.768" y1="307.524" x2="254.053" y2="307.524" gradientUnits="userSpaceOnUse">
<stop stop-color="#3F499C"/>
<stop offset="1" stop-color="#C619BB"/>
</linearGradient>
<linearGradient id="paint11_linear_32_126" x1="229.661" y1="301.606" x2="274.621" y2="301.606" gradientUnits="userSpaceOnUse">
<stop stop-color="#3F499C"/>
<stop offset="1" stop-color="#C619BB"/>
</linearGradient>
<linearGradient id="paint12_linear_32_126" x1="168.988" y1="464.415" x2="222.97" y2="464.415" gradientUnits="userSpaceOnUse">
<stop stop-color="#4D1AA6"/>
<stop offset="1" stop-color="#E42D97"/>
</linearGradient>
<linearGradient id="paint13_linear_32_126" x1="164.845" y1="453.05" x2="218.433" y2="453.05" gradientUnits="userSpaceOnUse">
<stop stop-color="#4D1AA6"/>
<stop offset="1" stop-color="#E42D97"/>
</linearGradient>
<linearGradient id="paint14_linear_32_126" x1="162.469" y1="497.782" x2="254.056" y2="497.782" gradientUnits="userSpaceOnUse">
<stop stop-color="#4D1AA6"/>
<stop offset="1" stop-color="#E42D97"/>
</linearGradient>
<linearGradient id="paint15_linear_32_126" x1="229.514" y1="503.694" x2="274.623" y2="503.694" gradientUnits="userSpaceOnUse">
<stop stop-color="#4D1AA6"/>
<stop offset="1" stop-color="#E42D97"/>
</linearGradient>
<linearGradient id="paint16_linear_32_126" x1="112.372" y1="442.677" x2="198.284" y2="442.677" gradientUnits="userSpaceOnUse">
<stop stop-color="#4D1AA6"/>
<stop offset="1" stop-color="#E42D97"/>
</linearGradient>
<linearGradient id="paint17_linear_32_126" x1="382.668" y1="452.939" x2="435.501" y2="452.939" gradientUnits="userSpaceOnUse">
<stop stop-color="#B32AFF"/>
<stop offset="1" stop-color="#4C24B1"/>
</linearGradient>
<linearGradient id="paint18_linear_32_126" x1="378.151" y1="464.288" x2="431.371" y2="464.288" gradientUnits="userSpaceOnUse">
<stop stop-color="#B32AFF"/>
<stop offset="1" stop-color="#4C24B1"/>
</linearGradient>
<linearGradient id="paint19_linear_32_126" x1="403.083" y1="442.565" x2="487.784" y2="442.565" gradientUnits="userSpaceOnUse">
<stop stop-color="#B32AFF"/>
<stop offset="1" stop-color="#4C24B1"/>
</linearGradient>
<linearGradient id="paint20_linear_32_126" x1="326.409" y1="503.567" x2="370.874" y2="503.567" gradientUnits="userSpaceOnUse">
<stop stop-color="#B32AFF"/>
<stop offset="1" stop-color="#4C24B1"/>
</linearGradient>
<linearGradient id="paint21_linear_32_126" x1="347.358" y1="497.654" x2="437.655" y2="497.654" gradientUnits="userSpaceOnUse">
<stop stop-color="#B32AFF"/>
<stop offset="1" stop-color="#4C24B1"/>
</linearGradient>
<linearGradient id="paint22_linear_32_126" x1="53.7765" y1="211.909" x2="475.183" y2="211.909" gradientUnits="userSpaceOnUse">
<stop stop-color="#A1BAFF"/>
<stop offset="0.4332" stop-color="white"/>
</linearGradient>
<linearGradient id="paint23_linear_32_126" x1="56.7232" y1="279.747" x2="468.354" y2="279.747" gradientUnits="userSpaceOnUse">
<stop stop-color="#3133AB"/>
<stop offset="0.1825" stop-color="#2E38B0"/>
<stop offset="0.4069" stop-color="#2647BD"/>
<stop offset="0.6533" stop-color="#1960D4"/>
<stop offset="0.9137" stop-color="#0783F3"/>
<stop offset="1" stop-color="#0090FF"/>
</linearGradient>
<linearGradient id="paint24_linear_32_126" x1="93.0248" y1="284.572" x2="93.0248" y2="376.097" gradientUnits="userSpaceOnUse">
<stop stop-color="#311341"/>
<stop offset="0.2299" stop-color="#3113C2"/>
<stop offset="0.3479" stop-color="#2F18C5"/>
<stop offset="0.4931" stop-color="#2927CC"/>
<stop offset="0.6524" stop-color="#1F40D8"/>
<stop offset="0.8219" stop-color="#1263E9"/>
<stop offset="0.9978" stop-color="#008FFF"/>
<stop offset="1" stop-color="#0090FF"/>
</linearGradient>
<linearGradient id="paint25_linear_32_126" x1="52.5962" y1="375.405" x2="112.507" y2="375.405" gradientUnits="userSpaceOnUse">
<stop stop-color="#7633FF"/>
<stop offset="0.1585" stop-color="#7137FF"/>
<stop offset="0.3535" stop-color="#6243FF"/>
<stop offset="0.5676" stop-color="#4957FF"/>
<stop offset="0.7937" stop-color="#2672FF"/>
<stop offset="1" stop-color="#0090FF"/>
</linearGradient>
<linearGradient id="paint26_linear_32_126" x1="53.9768" y1="274.009" x2="112.507" y2="274.009" gradientUnits="userSpaceOnUse">
<stop stop-color="#A1BAFF"/>
<stop offset="0.4332" stop-color="white"/>
</linearGradient>
<linearGradient id="paint27_linear_32_126" x1="109.512" y1="325.289" x2="109.512" y2="507.4" gradientUnits="userSpaceOnUse">
<stop stop-color="#A1BAFF"/>
<stop offset="0.4332" stop-color="white"/>
</linearGradient>
<linearGradient id="paint28_linear_32_126" x1="471.761" y1="159.589" x2="478.525" y2="381.023" gradientUnits="userSpaceOnUse">
<stop stop-color="#A1BAFF"/>
<stop offset="0.4332" stop-color="white"/>
</linearGradient>
<linearGradient id="paint29_linear_32_126" x1="464.066" y1="21.7096" x2="447.064" y2="88.746" gradientUnits="userSpaceOnUse">
<stop stop-color="#88CFDA"/>
<stop offset="0.00834" stop-color="#89CFD9"/>
<stop offset="0.4784" stop-color="#C8D9BB"/>
<stop offset="0.8218" stop-color="#F0DFA7"/>
<stop offset="1" stop-color="#FFE1A0"/>
</linearGradient>
<linearGradient id="paint30_linear_32_126" x1="186.685" y1="52.7068" x2="206.582" y2="52.7068" gradientUnits="userSpaceOnUse">
<stop stop-color="#7633FF"/>
<stop offset="0.1585" stop-color="#7137FF"/>
<stop offset="0.3535" stop-color="#6243FF"/>
<stop offset="0.5676" stop-color="#4957FF"/>
<stop offset="0.7937" stop-color="#2672FF"/>
<stop offset="1" stop-color="#0090FF"/>
</linearGradient>
<linearGradient id="paint31_linear_32_126" x1="29.4415" y1="179.19" x2="44.3636" y2="179.19" gradientUnits="userSpaceOnUse">
<stop stop-color="#7633FF"/>
<stop offset="0.1585" stop-color="#7137FF"/>
<stop offset="0.3535" stop-color="#6243FF"/>
<stop offset="0.5676" stop-color="#4957FF"/>
<stop offset="0.7937" stop-color="#2672FF"/>
<stop offset="1" stop-color="#0090FF"/>
</linearGradient>
<linearGradient id="paint32_linear_32_126" x1="513.319" y1="382.836" x2="513.319" y2="61.2993" gradientUnits="userSpaceOnUse">
<stop stop-color="#9311FF"/>
<stop offset="1" stop-color="#330050" stop-opacity="0"/>
</linearGradient>
<linearGradient id="paint33_linear_32_126" x1="145.481" y1="536.05" x2="145.481" y2="37.1189" gradientUnits="userSpaceOnUse">
<stop stop-color="#9311FF"/>
<stop offset="1" stop-color="#330050" stop-opacity="0"/>
</linearGradient>
<radialGradient id="paint34_radial_32_126" cx="0" cy="0" r="1" gradientUnits="userSpaceOnUse" gradientTransform="translate(66.6887 435.621) rotate(92.8505) scale(4.78435 3.88085)">
<stop stop-color="#FF0091"/>
<stop offset="0.14427" stop-color="#FF17A8"/>
<stop offset="0.23997" stop-color="#B200FF"/>
<stop offset="1" stop-color="#FF09A0" stop-opacity="0"/>
</radialGradient>
<radialGradient id="paint35_radial_32_126" cx="0" cy="0" r="1" gradientUnits="userSpaceOnUse" gradientTransform="translate(39.1027 434.164) rotate(92.8508) scale(4.33293 3.51638)">
<stop stop-color="#FF0091"/>
<stop offset="0.14427" stop-color="#FF17A8"/>
<stop offset="0.23997" stop-color="#B200FF"/>
<stop offset="1" stop-color="#FF09A0" stop-opacity="0"/>
</radialGradient>
<radialGradient id="paint36_radial_32_126" cx="0" cy="0" r="1" gradientUnits="userSpaceOnUse" gradientTransform="translate(47.8303 422.914) rotate(92.8502) scale(2.71787 2.19798)">
<stop stop-color="#FF0091"/>
<stop offset="0.14427" stop-color="#FF17A8"/>
<stop offset="0.23997" stop-color="#B200FF"/>
<stop offset="1" stop-color="#FF09A0" stop-opacity="0"/>
</radialGradient>
<radialGradient id="paint37_radial_32_126" cx="0" cy="0" r="1" gradientUnits="userSpaceOnUse" gradientTransform="translate(86.3142 420.537) rotate(92.8509) scale(4.33338 3.51605)">
<stop stop-color="#FF0091"/>
<stop offset="0.14427" stop-color="#FF17A8"/>
<stop offset="0.23997" stop-color="#B200FF"/>
<stop offset="1" stop-color="#FF09A0" stop-opacity="0"/>
</radialGradient>
<radialGradient id="paint38_radial_32_126" cx="0" cy="0" r="1" gradientUnits="userSpaceOnUse" gradientTransform="translate(69.1439 417.828) rotate(92.8458) scale(3.19675 2.58611)">
<stop stop-color="#D6D5D5"/>
<stop offset="0.043" stop-color="#B7B5B5"/>
<stop offset="0.1242" stop-color="#817E7E"/>
<stop offset="0.1997" stop-color="#575253"/>
<stop offset="0.2672" stop-color="#383334"/>
<stop offset="0.3241" stop-color="#262021"/>
<stop offset="0.3636" stop-color="#1F191A"/>
<stop offset="0.994"/>
</radialGradient>
<radialGradient id="paint39_radial_32_126" cx="0" cy="0" r="1" gradientUnits="userSpaceOnUse" gradientTransform="translate(88.8902 398.773) rotate(92.8505) scale(2.71789 2.19791)">
<stop stop-color="#FF0091"/>
<stop offset="0.14427" stop-color="#FF17A8"/>
<stop offset="0.23997" stop-color="#B200FF"/>
<stop offset="1" stop-color="#FF09A0" stop-opacity="0"/>
</radialGradient>
<radialGradient id="paint40_radial_32_126" cx="0" cy="0" r="1" gradientUnits="userSpaceOnUse" gradientTransform="translate(107.645 410.895) rotate(92.8508) scale(2.71364 2.20209)">
<stop stop-color="#FF0091"/>
<stop offset="0.14427" stop-color="#FF17A8"/>
<stop offset="0.23997" stop-color="#B200FF"/>
<stop offset="1" stop-color="#FF09A0" stop-opacity="0"/>
</radialGradient>
<radialGradient id="paint41_radial_32_126" cx="0" cy="0" r="1" gradientUnits="userSpaceOnUse" gradientTransform="translate(100.122 441.45) rotate(92.8509) scale(4.33293 3.51569)">
<stop stop-color="#FF0091"/>
<stop offset="0.14427" stop-color="#FF17A8"/>
<stop offset="0.23997" stop-color="#B200FF"/>
<stop offset="1" stop-color="#FF09A0" stop-opacity="0"/>
</radialGradient>
<radialGradient id="paint42_radial_32_126" cx="0" cy="0" r="1" gradientUnits="userSpaceOnUse" gradientTransform="translate(88.7877 449.211) rotate(92.8502) scale(2.71744 2.20515)">
<stop stop-color="#FF0091"/>
<stop offset="0.14427" stop-color="#FF17A8"/>
<stop offset="0.23997" stop-color="#B200FF"/>
<stop offset="1" stop-color="#FF09A0" stop-opacity="0"/>
</radialGradient>
<radialGradient id="paint43_radial_32_126" cx="0" cy="0" r="1" gradientUnits="userSpaceOnUse" gradientTransform="translate(108.848 430.161) rotate(92.8502) scale(2.71744 2.20517)">
<stop stop-color="#FF0091"/>
<stop offset="0.14427" stop-color="#FF17A8"/>
<stop offset="0.23997" stop-color="#B200FF"/>
<stop offset="1" stop-color="#FF09A0" stop-opacity="0"/>
</radialGradient>
<radialGradient id="paint44_radial_32_126" cx="0" cy="0" r="1" gradientUnits="userSpaceOnUse" gradientTransform="translate(18.3034 408.569) rotate(92.8505) scale(13.0774 10.6141)">
<stop stop-color="#FF0091"/>
<stop offset="0.14427" stop-color="#FF17A8"/>
<stop offset="0.23997" stop-color="#B200FF"/>
<stop offset="1" stop-color="#FF09A0" stop-opacity="0"/>
</radialGradient>
<radialGradient id="paint45_radial_32_126" cx="0" cy="0" r="1" gradientUnits="userSpaceOnUse" gradientTransform="translate(12.851 425.115) rotate(92.851) scale(13.0779 10.6145)">
<stop stop-color="#FF0091"/>
<stop offset="0.14427" stop-color="#FF17A8"/>
<stop offset="0.23997" stop-color="#B200FF"/>
<stop offset="1" stop-color="#FF09A0" stop-opacity="0"/>
</radialGradient>
<radialGradient id="paint46_radial_32_126" cx="0" cy="0" r="1" gradientUnits="userSpaceOnUse" gradientTransform="translate(29.388 424.246) rotate(92.8506) scale(11.8706 9.63528)">
<stop stop-color="#FF0091"/>
<stop offset="0.14427" stop-color="#FF17A8"/>
<stop offset="0.29107" stop-color="#B200FF"/>
<stop offset="1" stop-color="white" stop-opacity="0"/>
</radialGradient>
<radialGradient id="paint47_radial_32_126" cx="0" cy="0" r="1" gradientUnits="userSpaceOnUse" gradientTransform="translate(46.8511 390.33) rotate(92.851) scale(8.25911 6.69415)">
<stop stop-color="#FF0091"/>
<stop offset="0.14427" stop-color="#FF17A8"/>
<stop offset="0.23997" stop-color="#B200FF"/>
<stop offset="1" stop-color="#FF09A0" stop-opacity="0"/>
</radialGradient>
<radialGradient id="paint48_radial_32_126" cx="0" cy="0" r="1" gradientUnits="userSpaceOnUse" gradientTransform="translate(96.8083 426.481) rotate(92.8506) scale(13.0773 10.6148)">
<stop stop-color="#FF0091"/>
<stop offset="0.14427" stop-color="#FF17A8"/>
<stop offset="0.23997" stop-color="#B200FF"/>
<stop offset="1" stop-color="#FF09A0" stop-opacity="0"/>
</radialGradient>
<radialGradient id="paint49_radial_32_126" cx="0" cy="0" r="1" gradientUnits="userSpaceOnUse" gradientTransform="translate(30.3934 383.974) rotate(92.8505) scale(13.0774 10.6141)">
<stop stop-color="#FF0091"/>
<stop offset="0.14427" stop-color="#FF17A8"/>
<stop offset="0.23997" stop-color="#B200FF"/>
<stop offset="1" stop-color="#FF09A0" stop-opacity="0"/>
</radialGradient>
<radialGradient id="paint50_radial_32_126" cx="0" cy="0" r="1" gradientUnits="userSpaceOnUse" gradientTransform="translate(89.3473 401.943) rotate(92.8506) scale(7.23809 5.86912)">
<stop stop-color="#FF0091"/>
<stop offset="0.14427" stop-color="#FF17A8"/>
<stop offset="0.23997" stop-color="#B200FF"/>
<stop offset="1" stop-color="#FF09A0" stop-opacity="0"/>
</radialGradient>
<radialGradient id="paint51_radial_32_126" cx="0" cy="0" r="1" gradientUnits="userSpaceOnUse" gradientTransform="translate(78.0573 389.424) rotate(92.8507) scale(2.71318 2.20854)">
<stop stop-color="#FF0091"/>
<stop offset="0.14427" stop-color="#FF17A8"/>
<stop offset="0.23997" stop-color="#B200FF"/>
<stop offset="1" stop-color="#FF09A0" stop-opacity="0"/>
</radialGradient>
<radialGradient id="paint52_radial_32_126" cx="0" cy="0" r="1" gradientUnits="userSpaceOnUse" gradientTransform="translate(41.2925 373.688) rotate(92.8507) scale(2.71739 2.19229)">
<stop stop-color="#FF0091"/>
<stop offset="0.14427" stop-color="#FF17A8"/>
<stop offset="0.23997" stop-color="#B200FF"/>
<stop offset="1" stop-color="#FF09A0" stop-opacity="0"/>
</radialGradient>
<radialGradient id="paint53_radial_32_126" cx="0" cy="0" r="1" gradientUnits="userSpaceOnUse" gradientTransform="translate(60.1687 332.779) rotate(92.8502) scale(4.78438 3.88011)">
<stop stop-color="#FF0091"/>
<stop offset="0.14427" stop-color="#FF17A8"/>
<stop offset="0.23997" stop-color="#B200FF"/>
<stop offset="1" stop-color="#FF09A0" stop-opacity="0"/>
</radialGradient>
<radialGradient id="paint54_radial_32_126" cx="0" cy="0" r="1" gradientUnits="userSpaceOnUse" gradientTransform="translate(32.5828 331.32) rotate(92.8509) scale(4.33295 3.51567)">
<stop stop-color="#FF0091"/>
<stop offset="0.14427" stop-color="#FF17A8"/>
<stop offset="0.23997" stop-color="#B200FF"/>
<stop offset="1" stop-color="#FF09A0" stop-opacity="0"/>
</radialGradient>
<radialGradient id="paint55_radial_32_126" cx="0" cy="0" r="1" gradientUnits="userSpaceOnUse" gradientTransform="translate(41.3099 320.067) rotate(92.8502) scale(2.71787 2.19798)">
<stop stop-color="#FF0091"/>
<stop offset="0.14427" stop-color="#FF17A8"/>
<stop offset="0.23997" stop-color="#B200FF"/>
<stop offset="1" stop-color="#FF09A0" stop-opacity="0"/>
</radialGradient>
<radialGradient id="paint56_radial_32_126" cx="0" cy="0" r="1" gradientUnits="userSpaceOnUse" gradientTransform="translate(79.8016 317.691) rotate(92.8509) scale(4.33338 3.51605)">
<stop stop-color="#FF0091"/>
<stop offset="0.14427" stop-color="#FF17A8"/>
<stop offset="0.23997" stop-color="#B200FF"/>
<stop offset="1" stop-color="#FF09A0" stop-opacity="0"/>
</radialGradient>
<radialGradient id="paint57_radial_32_126" cx="0" cy="0" r="1" gradientUnits="userSpaceOnUse" gradientTransform="translate(62.3169 315) rotate(92.8505) scale(2.7174 2.19912)">
<stop stop-color="#FF0091"/>
<stop offset="0.14427" stop-color="#FF17A8"/>
<stop offset="0.23997" stop-color="#B200FF"/>
<stop offset="1" stop-color="#FF09A0" stop-opacity="0"/>
</radialGradient>
<radialGradient id="paint58_radial_32_126" cx="0" cy="0" r="1" gradientUnits="userSpaceOnUse" gradientTransform="translate(82.3776 295.927) rotate(92.8505) scale(2.71789 2.19791)">
<stop stop-color="#FF0091"/>
<stop offset="0.14427" stop-color="#FF17A8"/>
<stop offset="0.23997" stop-color="#B200FF"/>
<stop offset="1" stop-color="#FF09A0" stop-opacity="0"/>
</radialGradient>
<radialGradient id="paint59_radial_32_126" cx="0" cy="0" r="1" gradientUnits="userSpaceOnUse" gradientTransform="translate(101.136 308.032) rotate(92.8505) scale(2.71367 2.20808)">
<stop stop-color="#FF0091"/>
<stop offset="0.14427" stop-color="#FF17A8"/>
<stop offset="0.23997" stop-color="#B200FF"/>
<stop offset="1" stop-color="#FF09A0" stop-opacity="0"/>
</radialGradient>
<radialGradient id="paint60_radial_32_126" cx="0" cy="0" r="1" gradientUnits="userSpaceOnUse" gradientTransform="translate(93.6014 338.604) rotate(92.8509) scale(4.33293 3.51569)">
<stop stop-color="#FF0091"/>
<stop offset="0.14427" stop-color="#FF17A8"/>
<stop offset="0.23997" stop-color="#B200FF"/>
<stop offset="1" stop-color="#FF09A0" stop-opacity="0"/>
</radialGradient>
<radialGradient id="paint61_radial_32_126" cx="0" cy="0" r="1" gradientUnits="userSpaceOnUse" gradientTransform="translate(82.2751 346.365) rotate(92.8502) scale(2.71744 2.20515)">
<stop stop-color="#FF0091"/>
<stop offset="0.14427" stop-color="#FF17A8"/>
<stop offset="0.23997" stop-color="#B200FF"/>
<stop offset="1" stop-color="#FF09A0" stop-opacity="0"/>
</radialGradient>
<radialGradient id="paint62_radial_32_126" cx="0" cy="0" r="1" gradientUnits="userSpaceOnUse" gradientTransform="translate(102.328 327.364) rotate(92.8507) scale(2.71742 2.19839)">
<stop stop-color="#FF0091"/>
<stop offset="0.14427" stop-color="#FF17A8"/>
<stop offset="0.23997" stop-color="#B200FF"/>
<stop offset="1" stop-color="#FF09A0" stop-opacity="0"/>
</radialGradient>
<radialGradient id="paint63_radial_32_126" cx="0" cy="0" r="1" gradientUnits="userSpaceOnUse" gradientTransform="translate(25.9724 325.791) rotate(92.8506) scale(13.0773 10.6147)">
<stop stop-color="#FF0091"/>
<stop offset="0.14427" stop-color="#FF17A8"/>
<stop offset="0.23997" stop-color="#B200FF"/>
<stop offset="1" stop-color="#FF09A0" stop-opacity="0"/>
</radialGradient>
<radialGradient id="paint64_radial_32_126" cx="0" cy="0" r="1" gradientUnits="userSpaceOnUse" gradientTransform="translate(20.513 342.341) rotate(92.8509) scale(13.0778 10.6137)">
<stop stop-color="#FF0091"/>
<stop offset="0.14427" stop-color="#FF17A8"/>
<stop offset="0.23997" stop-color="#B200FF"/>
<stop offset="1" stop-color="#FF09A0" stop-opacity="0"/>
</radialGradient>
<radialGradient id="paint65_radial_32_126" cx="0" cy="0" r="1" gradientUnits="userSpaceOnUse" gradientTransform="translate(37.057 341.468) rotate(92.8507) scale(13.077 10.6152)">
<stop stop-color="#FF0091"/>
<stop offset="0.14427" stop-color="#FF17A8"/>
<stop offset="0.23997" stop-color="#B200FF"/>
<stop offset="1" stop-color="#FF09A0" stop-opacity="0"/>
</radialGradient>
<radialGradient id="paint66_radial_32_126" cx="0" cy="0" r="1" gradientUnits="userSpaceOnUse" gradientTransform="translate(54.5799 306.363) rotate(92.851) scale(8.25911 6.69415)">
<stop stop-color="#FF0091"/>
<stop offset="0.14427" stop-color="#FF17A8"/>
<stop offset="0.23997" stop-color="#B200FF"/>
<stop offset="1" stop-color="#FF09A0" stop-opacity="0"/>
</radialGradient>
<radialGradient id="paint67_radial_32_126" cx="0" cy="0" r="1" gradientUnits="userSpaceOnUse" gradientTransform="translate(50.4051 296.921) rotate(92.8506) scale(15.6239 28.6738)">
<stop stop-color="#FF0091"/>
<stop offset="0.14427" stop-color="#FF17A8"/>
<stop offset="0.23997" stop-color="#B200FF"/>
<stop offset="1" stop-color="#FF09A0" stop-opacity="0"/>
</radialGradient>
<radialGradient id="paint68_radial_32_126" cx="0" cy="0" r="1" gradientUnits="userSpaceOnUse" gradientTransform="translate(97.0681 317.974) rotate(92.8506) scale(7.23809 5.8691)">
<stop stop-color="#FF0091"/>
<stop offset="0.14427" stop-color="#FF17A8"/>
<stop offset="0.23997" stop-color="#B200FF"/>
<stop offset="1" stop-color="#FF09A0" stop-opacity="0"/>
</radialGradient>
<radialGradient id="paint69_radial_32_126" cx="0" cy="0" r="1" gradientUnits="userSpaceOnUse" gradientTransform="translate(85.7859 305.447) rotate(92.8506) scale(2.71323 2.20932)">
<stop stop-color="#FF0091"/>
<stop offset="0.14427" stop-color="#FF17A8"/>
<stop offset="0.23997" stop-color="#B200FF"/>
<stop offset="1" stop-color="#FF09A0" stop-opacity="0"/>
</radialGradient>
<radialGradient id="paint70_radial_32_126" cx="0" cy="0" r="1" gradientUnits="userSpaceOnUse" gradientTransform="translate(48.954 290.921) rotate(92.8507) scale(2.71739 2.19215)">
<stop stop-color="#FF0091"/>
<stop offset="0.14427" stop-color="#FF17A8"/>
<stop offset="0.23997" stop-color="#B200FF"/>
<stop offset="1" stop-color="#FF09A0" stop-opacity="0"/>
</radialGradient>
<linearGradient id="paint71_linear_32_126" x1="347.346" y1="358.879" x2="455.116" y2="358.879" gradientUnits="userSpaceOnUse">
<stop stop-color="white"/>
<stop offset="0.1225" stop-color="#FBFDFF"/>
<stop offset="0.2476" stop-color="#EFF5FF"/>
<stop offset="0.374" stop-color="#DAE9FF"/>
<stop offset="0.5013" stop-color="#BDD9FF"/>
<stop offset="0.6295" stop-color="#98C3FF"/>
<stop offset="0.7582" stop-color="#6BA9FF"/>
<stop offset="0.8849" stop-color="#378AFF"/>
<stop offset="1" stop-color="#006AFF"/>
</linearGradient>
<linearGradient id="paint72_linear_32_126" x1="323.061" y1="385.843" x2="375.65" y2="385.843" gradientUnits="userSpaceOnUse">
<stop stop-color="white"/>
<stop offset="0.1225" stop-color="#FBFDFF"/>
<stop offset="0.2476" stop-color="#EFF5FF"/>
<stop offset="0.374" stop-color="#DAE9FF"/>
<stop offset="0.5013" stop-color="#BDD9FF"/>
<stop offset="0.6295" stop-color="#98C3FF"/>
<stop offset="0.7582" stop-color="#6BA9FF"/>
<stop offset="0.8849" stop-color="#378AFF"/>
<stop offset="1" stop-color="#006AFF"/>
</linearGradient>
<linearGradient id="paint73_linear_32_126" x1="234.972" y1="229.443" x2="254.594" y2="229.443" gradientUnits="userSpaceOnUse">
<stop stop-color="white"/>
<stop offset="0.1225" stop-color="#FBFDFF"/>
<stop offset="0.2476" stop-color="#EFF5FF"/>
<stop offset="0.374" stop-color="#DAE9FF"/>
<stop offset="0.5013" stop-color="#BDD9FF"/>
<stop offset="0.6295" stop-color="#98C3FF"/>
<stop offset="0.7582" stop-color="#6BA9FF"/>
<stop offset="0.8849" stop-color="#378AFF"/>
<stop offset="1" stop-color="#006AFF"/>
</linearGradient>
<linearGradient id="paint74_linear_32_126" x1="210.656" y1="267.237" x2="275.177" y2="267.237" gradientUnits="userSpaceOnUse">
<stop stop-color="white"/>
<stop offset="0.2621" stop-color="#FDFEFF"/>
<stop offset="0.3996" stop-color="#F5F9FF"/>
<stop offset="0.5081" stop-color="#E7F1FF"/>
<stop offset="0.6016" stop-color="#D4E6FF"/>
<stop offset="0.6853" stop-color="#BBD8FF"/>
<stop offset="0.7621" stop-color="#9DC6FF"/>
<stop offset="0.8336" stop-color="#78B0FF"/>
<stop offset="0.901" stop-color="#4E98FF"/>
<stop offset="0.9627" stop-color="#207DFF"/>
<stop offset="1" stop-color="#006AFF"/>
</linearGradient>
<linearGradient id="paint75_linear_32_126" x1="295.093" y1="328.282" x2="359.788" y2="328.282" gradientUnits="userSpaceOnUse">
<stop stop-color="#311842"/>
<stop offset="0.4611" stop-color="#190C4B"/>
<stop offset="1" stop-color="#000054"/>
</linearGradient>
<linearGradient id="paint76_linear_32_126" x1="256.625" y1="283.12" x2="313.142" y2="283.12" gradientUnits="userSpaceOnUse">
<stop stop-color="#F000B5"/>
<stop offset="0.1804" stop-color="#EF04B8"/>
<stop offset="0.3646" stop-color="#EA10BF"/>
<stop offset="0.5507" stop-color="#E325CC"/>
<stop offset="0.738" stop-color="#D841DE"/>
<stop offset="0.9245" stop-color="#CB66F4"/>
<stop offset="1" stop-color="#C577FF"/>
</linearGradient>
<linearGradient id="paint77_linear_32_126" x1="284" y1="356.154" x2="293.651" y2="253.278" gradientUnits="userSpaceOnUse">
<stop stop-color="white"/>
<stop offset="0.2621" stop-color="#FDFEFF"/>
<stop offset="0.3996" stop-color="#F5F9FF"/>
<stop offset="0.5081" stop-color="#E7F1FF"/>
<stop offset="0.6016" stop-color="#D4E6FF"/>
<stop offset="0.6853" stop-color="#BBD8FF"/>
<stop offset="0.7621" stop-color="#9DC6FF"/>
<stop offset="0.8336" stop-color="#78B0FF"/>
<stop offset="0.901" stop-color="#4E98FF"/>
<stop offset="0.9627" stop-color="#207DFF"/>
<stop offset="1" stop-color="#006AFF"/>
</linearGradient>
<linearGradient id="paint78_linear_32_126" x1="357.032" y1="377.884" x2="393.738" y2="377.884" gradientUnits="userSpaceOnUse">
<stop stop-color="white"/>
<stop offset="0.1225" stop-color="#FBFDFF"/>
<stop offset="0.2476" stop-color="#EFF5FF"/>
<stop offset="0.374" stop-color="#DAE9FF"/>
<stop offset="0.5013" stop-color="#BDD9FF"/>
<stop offset="0.6295" stop-color="#98C3FF"/>
<stop offset="0.7582" stop-color="#6BA9FF"/>
<stop offset="0.8849" stop-color="#378AFF"/>
<stop offset="1" stop-color="#006AFF"/>
</linearGradient>
<linearGradient id="paint79_linear_32_126" x1="226.602" y1="224.835" x2="380.795" y2="224.835" gradientUnits="userSpaceOnUse">
<stop stop-color="#311842"/>
<stop offset="0.4611" stop-color="#190C4B"/>
<stop offset="1" stop-color="#000054"/>
</linearGradient>
<linearGradient id="paint80_linear_32_126" x1="235.212" y1="214.485" x2="380.796" y2="214.485" gradientUnits="userSpaceOnUse">
<stop stop-color="#311842"/>
<stop offset="0.4937" stop-color="#170BA7"/>
<stop offset="0.838" stop-color="#0603E6"/>
<stop offset="1" stop-color="#0000FF"/>
</linearGradient>
<radialGradient id="paint81_radial_32_126" cx="0" cy="0" r="1" gradientUnits="userSpaceOnUse" gradientTransform="translate(435.034 286.775) rotate(92.8505) scale(4.78435 3.88085)">
<stop stop-color="#FF0091"/>
<stop offset="0.14427" stop-color="#FF17A8"/>
<stop offset="0.23997" stop-color="#B200FF"/>
<stop offset="1" stop-color="#FF09A0" stop-opacity="0"/>
</radialGradient>
<radialGradient id="paint82_radial_32_126" cx="0" cy="0" r="1" gradientUnits="userSpaceOnUse" gradientTransform="translate(407.447 285.318) rotate(92.8508) scale(4.33293 3.51638)">
<stop stop-color="#FF0091"/>
<stop offset="0.14427" stop-color="#FF17A8"/>
<stop offset="0.23997" stop-color="#B200FF"/>
<stop offset="1" stop-color="#FF09A0" stop-opacity="0"/>
</radialGradient>
<radialGradient id="paint83_radial_32_126" cx="0" cy="0" r="1" gradientUnits="userSpaceOnUse" gradientTransform="translate(416.175 274.067) rotate(92.8502) scale(2.71787 2.19798)">
<stop stop-color="#FF0091"/>
<stop offset="0.14427" stop-color="#FF17A8"/>
<stop offset="0.23997" stop-color="#B200FF"/>
<stop offset="1" stop-color="#FF09A0" stop-opacity="0"/>
</radialGradient>
<radialGradient id="paint84_radial_32_126" cx="0" cy="0" r="1" gradientUnits="userSpaceOnUse" gradientTransform="translate(454.659 271.691) rotate(92.8509) scale(4.33338 3.51605)">
<stop stop-color="#FF0091"/>
<stop offset="0.14427" stop-color="#FF17A8"/>
<stop offset="0.23997" stop-color="#B200FF"/>
<stop offset="1" stop-color="#FF09A0" stop-opacity="0"/>
</radialGradient>
<radialGradient id="paint85_radial_32_126" cx="0" cy="0" r="1" gradientUnits="userSpaceOnUse" gradientTransform="translate(437.489 268.982) rotate(92.8458) scale(3.19675 2.58611)">
<stop stop-color="#D6D5D5"/>
<stop offset="0.043" stop-color="#B7B5B5"/>
<stop offset="0.1242" stop-color="#817E7E"/>
<stop offset="0.1997" stop-color="#575253"/>
<stop offset="0.2672" stop-color="#383334"/>
<stop offset="0.3241" stop-color="#262021"/>
<stop offset="0.3636" stop-color="#1F191A"/>
<stop offset="0.994"/>
</radialGradient>
<radialGradient id="paint86_radial_32_126" cx="0" cy="0" r="1" gradientUnits="userSpaceOnUse" gradientTransform="translate(457.235 249.927) rotate(92.8505) scale(2.71789 2.19791)">
<stop stop-color="#FF0091"/>
<stop offset="0.14427" stop-color="#FF17A8"/>
<stop offset="0.23997" stop-color="#B200FF"/>
<stop offset="1" stop-color="#FF09A0" stop-opacity="0"/>
</radialGradient>
<radialGradient id="paint87_radial_32_126" cx="0" cy="0" r="1" gradientUnits="userSpaceOnUse" gradientTransform="translate(475.99 262.049) rotate(92.8508) scale(2.71364 2.20209)">
<stop stop-color="#FF0091"/>
<stop offset="0.14427" stop-color="#FF17A8"/>
<stop offset="0.23997" stop-color="#B200FF"/>
<stop offset="1" stop-color="#FF09A0" stop-opacity="0"/>
</radialGradient>
<radialGradient id="paint88_radial_32_126" cx="0" cy="0" r="1" gradientUnits="userSpaceOnUse" gradientTransform="translate(468.467 292.604) rotate(92.8509) scale(4.33293 3.51569)">
<stop stop-color="#FF0091"/>
<stop offset="0.14427" stop-color="#FF17A8"/>
<stop offset="0.23997" stop-color="#B200FF"/>
<stop offset="1" stop-color="#FF09A0" stop-opacity="0"/>
</radialGradient>
<radialGradient id="paint89_radial_32_126" cx="0" cy="0" r="1" gradientUnits="userSpaceOnUse" gradientTransform="translate(457.133 300.364) rotate(92.8502) scale(2.71744 2.20515)">
<stop stop-color="#FF0091"/>
<stop offset="0.14427" stop-color="#FF17A8"/>
<stop offset="0.23997" stop-color="#B200FF"/>
<stop offset="1" stop-color="#FF09A0" stop-opacity="0"/>
</radialGradient>
<radialGradient id="paint90_radial_32_126" cx="0" cy="0" r="1" gradientUnits="userSpaceOnUse" gradientTransform="translate(477.192 281.315) rotate(92.8502) scale(2.71744 2.20517)">
<stop stop-color="#FF0091"/>
<stop offset="0.14427" stop-color="#FF17A8"/>
<stop offset="0.23997" stop-color="#B200FF"/>
<stop offset="1" stop-color="#FF09A0" stop-opacity="0"/>
</radialGradient>
<radialGradient id="paint91_radial_32_126" cx="0" cy="0" r="1" gradientUnits="userSpaceOnUse" gradientTransform="translate(386.648 259.722) rotate(92.8505) scale(13.0774 10.6141)">
<stop stop-color="#FF0091"/>
<stop offset="0.14427" stop-color="#FF17A8"/>
<stop offset="0.23997" stop-color="#B200FF"/>
<stop offset="1" stop-color="#FF09A0" stop-opacity="0"/>
</radialGradient>
<radialGradient id="paint92_radial_32_126" cx="0" cy="0" r="1" gradientUnits="userSpaceOnUse" gradientTransform="translate(381.196 276.268) rotate(92.851) scale(13.0779 10.6145)">
<stop stop-color="#FF0091"/>
<stop offset="0.14427" stop-color="#FF17A8"/>
<stop offset="0.23997" stop-color="#B200FF"/>
<stop offset="1" stop-color="#FF09A0" stop-opacity="0"/>
</radialGradient>
<radialGradient id="paint93_radial_32_126" cx="0" cy="0" r="1" gradientUnits="userSpaceOnUse" gradientTransform="translate(397.733 275.4) rotate(92.8506) scale(13.0768 10.6144)">
<stop stop-color="#FF0091"/>
<stop offset="0.14427" stop-color="#FF17A8"/>
<stop offset="0.23997" stop-color="#B200FF"/>
<stop offset="1" stop-color="#FF09A0" stop-opacity="0"/>
</radialGradient>
<radialGradient id="paint94_radial_32_126" cx="0" cy="0" r="1" gradientUnits="userSpaceOnUse" gradientTransform="translate(415.196 241.484) rotate(92.851) scale(8.25911 6.69415)">
<stop stop-color="#FF0091"/>
<stop offset="0.14427" stop-color="#FF17A8"/>
<stop offset="0.23997" stop-color="#B200FF"/>
<stop offset="1" stop-color="#FF09A0" stop-opacity="0"/>
</radialGradient>
<radialGradient id="paint95_radial_32_126" cx="0" cy="0" r="1" gradientUnits="userSpaceOnUse" gradientTransform="translate(465.153 277.635) rotate(92.8506) scale(13.0773 10.6148)">
<stop stop-color="#FF0091"/>
<stop offset="0.14427" stop-color="#FF17A8"/>
<stop offset="0.23997" stop-color="#B200FF"/>
<stop offset="1" stop-color="#FF09A0" stop-opacity="0"/>
</radialGradient>
<radialGradient id="paint96_radial_32_126" cx="0" cy="0" r="1" gradientUnits="userSpaceOnUse" gradientTransform="translate(398.738 235.127) rotate(92.8505) scale(13.0774 10.6141)">
<stop stop-color="#FF0091"/>
<stop offset="0.14427" stop-color="#FF17A8"/>
<stop offset="0.23997" stop-color="#B200FF"/>
<stop offset="1" stop-color="#FF09A0" stop-opacity="0"/>
</radialGradient>
<radialGradient id="paint97_radial_32_126" cx="0" cy="0" r="1" gradientUnits="userSpaceOnUse" gradientTransform="translate(457.692 253.097) rotate(92.8506) scale(7.23809 5.86912)">
<stop stop-color="#FF0091"/>
<stop offset="0.14427" stop-color="#FF17A8"/>
<stop offset="0.23997" stop-color="#B200FF"/>
<stop offset="1" stop-color="#FF09A0" stop-opacity="0"/>
</radialGradient>
<radialGradient id="paint98_radial_32_126" cx="0" cy="0" r="1" gradientUnits="userSpaceOnUse" gradientTransform="translate(446.402 240.577) rotate(92.8507) scale(2.71318 2.20854)">
<stop stop-color="#FF0091"/>
<stop offset="0.14427" stop-color="#FF17A8"/>
<stop offset="0.23997" stop-color="#B200FF"/>
<stop offset="1" stop-color="#FF09A0" stop-opacity="0"/>
</radialGradient>
<radialGradient id="paint99_radial_32_126" cx="0" cy="0" r="1" gradientUnits="userSpaceOnUse" gradientTransform="translate(409.637 224.842) rotate(92.8507) scale(2.71739 2.19229)">
<stop stop-color="#FF0091"/>
<stop offset="0.14427" stop-color="#FF17A8"/>
<stop offset="0.23997" stop-color="#B200FF"/>
<stop offset="1" stop-color="#FF09A0" stop-opacity="0"/>
</radialGradient>
<radialGradient id="paint100_radial_32_126" cx="0" cy="0" r="1" gradientUnits="userSpaceOnUse" gradientTransform="translate(429.306 177.938) rotate(92.8502) scale(4.78438 3.88011)">
<stop stop-color="#FF0091"/>
<stop offset="0.14427" stop-color="#FF17A8"/>
<stop offset="0.23997" stop-color="#B200FF"/>
<stop offset="1" stop-color="#FF09A0" stop-opacity="0"/>
</radialGradient>
<radialGradient id="paint101_radial_32_126" cx="0" cy="0" r="1" gradientUnits="userSpaceOnUse" gradientTransform="translate(401.72 176.479) rotate(92.8509) scale(4.33295 3.51567)">
<stop stop-color="#FF0091"/>
<stop offset="0.14427" stop-color="#FF17A8"/>
<stop offset="0.23997" stop-color="#B200FF"/>
<stop offset="1" stop-color="#FF09A0" stop-opacity="0"/>
</radialGradient>
<radialGradient id="paint102_radial_32_126" cx="0" cy="0" r="1" gradientUnits="userSpaceOnUse" gradientTransform="translate(410.447 165.227) rotate(92.8502) scale(2.71787 2.19798)">
<stop stop-color="#FF0091"/>
<stop offset="0.14427" stop-color="#FF17A8"/>
<stop offset="0.23997" stop-color="#B200FF"/>
<stop offset="1" stop-color="#FF09A0" stop-opacity="0"/>
</radialGradient>
<radialGradient id="paint103_radial_32_126" cx="0" cy="0" r="1" gradientUnits="userSpaceOnUse" gradientTransform="translate(448.939 162.851) rotate(92.8509) scale(4.33338 3.51605)">
<stop stop-color="#FF0091"/>
<stop offset="0.14427" stop-color="#FF17A8"/>
<stop offset="0.23997" stop-color="#B200FF"/>
<stop offset="1" stop-color="#FF09A0" stop-opacity="0"/>
</radialGradient>
<radialGradient id="paint104_radial_32_126" cx="0" cy="0" r="1" gradientUnits="userSpaceOnUse" gradientTransform="translate(431.454 160.16) rotate(92.8505) scale(2.7174 2.19912)">
<stop stop-color="#FF0091"/>
<stop offset="0.14427" stop-color="#FF17A8"/>
<stop offset="0.23997" stop-color="#B200FF"/>
<stop offset="1" stop-color="#FF09A0" stop-opacity="0"/>
</radialGradient>
<radialGradient id="paint105_radial_32_126" cx="0" cy="0" r="1" gradientUnits="userSpaceOnUse" gradientTransform="translate(451.515 141.087) rotate(92.8505) scale(2.71789 2.19791)">
<stop stop-color="#FF0091"/>
<stop offset="0.14427" stop-color="#FF17A8"/>
<stop offset="0.23997" stop-color="#B200FF"/>
<stop offset="1" stop-color="#FF09A0" stop-opacity="0"/>
</radialGradient>
<radialGradient id="paint106_radial_32_126" cx="0" cy="0" r="1" gradientUnits="userSpaceOnUse" gradientTransform="translate(470.273 153.192) rotate(92.8505) scale(2.71367 2.20808)">
<stop stop-color="#FF0091"/>
<stop offset="0.14427" stop-color="#FF17A8"/>
<stop offset="0.23997" stop-color="#B200FF"/>
<stop offset="1" stop-color="#FF09A0" stop-opacity="0"/>
</radialGradient>
<radialGradient id="paint107_radial_32_126" cx="0" cy="0" r="1" gradientUnits="userSpaceOnUse" gradientTransform="translate(462.738 183.763) rotate(92.8509) scale(4.33293 3.51569)">
<stop stop-color="#FF0091"/>
<stop offset="0.14427" stop-color="#FF17A8"/>
<stop offset="0.23997" stop-color="#B200FF"/>
<stop offset="1" stop-color="#FF09A0" stop-opacity="0"/>
</radialGradient>
<radialGradient id="paint108_radial_32_126" cx="0" cy="0" r="1" gradientUnits="userSpaceOnUse" gradientTransform="translate(451.412 191.524) rotate(92.8502) scale(2.71744 2.20515)">
<stop stop-color="#FF0091"/>
<stop offset="0.14427" stop-color="#FF17A8"/>
<stop offset="0.23997" stop-color="#B200FF"/>
<stop offset="1" stop-color="#FF09A0" stop-opacity="0"/>
</radialGradient>
<radialGradient id="paint109_radial_32_126" cx="0" cy="0" r="1" gradientUnits="userSpaceOnUse" gradientTransform="translate(471.465 172.524) rotate(92.8507) scale(2.71742 2.19839)">
<stop stop-color="#FF0091"/>
<stop offset="0.14427" stop-color="#FF17A8"/>
<stop offset="0.23997" stop-color="#B200FF"/>
<stop offset="1" stop-color="#FF09A0" stop-opacity="0"/>
</radialGradient>
<radialGradient id="paint110_radial_32_126" cx="0" cy="0" r="1" gradientUnits="userSpaceOnUse" gradientTransform="translate(395.109 170.951) rotate(92.8506) scale(13.0773 10.6147)">
<stop stop-color="#FF0091"/>
<stop offset="0.14427" stop-color="#FF17A8"/>
<stop offset="0.23997" stop-color="#B200FF"/>
<stop offset="1" stop-color="#FF09A0" stop-opacity="0"/>
</radialGradient>
<radialGradient id="paint111_radial_32_126" cx="0" cy="0" r="1" gradientUnits="userSpaceOnUse" gradientTransform="translate(389.65 187.501) rotate(92.8509) scale(13.0778 10.6137)">
<stop stop-color="#FF0091"/>
<stop offset="0.14427" stop-color="#FF17A8"/>
<stop offset="0.23997" stop-color="#B200FF"/>
<stop offset="1" stop-color="#FF09A0" stop-opacity="0"/>
</radialGradient>
<radialGradient id="paint112_radial_32_126" cx="0" cy="0" r="1" gradientUnits="userSpaceOnUse" gradientTransform="translate(406.194 186.628) rotate(92.8507) scale(13.077 10.6152)">
<stop stop-color="#FF0091"/>
<stop offset="0.14427" stop-color="#FF17A8"/>
<stop offset="0.23997" stop-color="#B200FF"/>
<stop offset="1" stop-color="#FF09A0" stop-opacity="0"/>
</radialGradient>
<radialGradient id="paint113_radial_32_126" cx="0" cy="0" r="1" gradientUnits="userSpaceOnUse" gradientTransform="translate(423.717 151.522) rotate(92.851) scale(8.25911 6.69415)">
<stop stop-color="#FF0091"/>
<stop offset="0.14427" stop-color="#FF17A8"/>
<stop offset="0.23997" stop-color="#B200FF"/>
<stop offset="1" stop-color="#FF09A0" stop-opacity="0"/>
</radialGradient>
<radialGradient id="paint114_radial_32_126" cx="0" cy="0" r="1" gradientUnits="userSpaceOnUse" gradientTransform="translate(419.542 142.081) rotate(92.8506) scale(15.6239 28.6738)">
<stop stop-color="#FF0091"/>
<stop offset="0.14427" stop-color="#FF17A8"/>
<stop offset="0.23997" stop-color="#B200FF"/>
<stop offset="1" stop-color="#FF09A0" stop-opacity="0"/>
</radialGradient>
<radialGradient id="paint115_radial_32_126" cx="0" cy="0" r="1" gradientUnits="userSpaceOnUse" gradientTransform="translate(466.205 163.134) rotate(92.8506) scale(7.23809 5.8691)">
<stop stop-color="#FF0091"/>
<stop offset="0.14427" stop-color="#FF17A8"/>
<stop offset="0.23997" stop-color="#B200FF"/>
<stop offset="1" stop-color="#FF09A0" stop-opacity="0"/>
</radialGradient>
<radialGradient id="paint116_radial_32_126" cx="0" cy="0" r="1" gradientUnits="userSpaceOnUse" gradientTransform="translate(454.923 150.606) rotate(92.8506) scale(2.71323 2.20932)">
<stop stop-color="#FF0091"/>
<stop offset="0.14427" stop-color="#FF17A8"/>
<stop offset="0.23997" stop-color="#B200FF"/>
<stop offset="1" stop-color="#FF09A0" stop-opacity="0"/>
</radialGradient>
<radialGradient id="paint117_radial_32_126" cx="0" cy="0" r="1" gradientUnits="userSpaceOnUse" gradientTransform="translate(418.091 136.081) rotate(92.8507) scale(2.71739 2.19215)">
<stop stop-color="#FF0091"/>
<stop offset="0.14427" stop-color="#FF17A8"/>
<stop offset="0.23997" stop-color="#B200FF"/>
<stop offset="1" stop-color="#FF09A0" stop-opacity="0"/>
</radialGradient>
</defs>
</svg>
