<svg width="283" height="288" viewBox="0 0 283 288" fill="none" xmlns="http://www.w3.org/2000/svg">
<path opacity="0.37" d="M24.5262 234.379C25.1418 235.902 25.8222 237.425 26.5674 238.883C37.6479 260.623 60.1329 274.328 84.1083 276.79C103.289 278.734 121.951 272.481 137.988 262.275C153.993 252.102 166.824 237.781 184.611 230.329C209.688 219.864 237.648 211.603 257.314 189.442C279.67 164.267 288.288 126.101 277.758 93.8964C267.52 62.4691 233.533 52.2958 207.128 38.4613C159.663 13.5463 93.9253 -3.00966 44.5165 26.2468C-14.6768 61.2704 -3.92028 140.778 14.8389 195.954C19.1156 208.525 19.6339 222.068 24.5262 234.379Z" fill="#CCE9FF"/>
<path d="M54.7222 85.4078L54.625 84.7922H54.0094C42.0217 84.7922 38.1338 80.9367 38.1014 80.9043L37.5831 80.3211L37.0647 80.9043C37.0323 80.9367 33.1768 84.7922 21.1567 84.7922H20.5411L20.4439 85.4078C20.4115 85.6021 17.8843 104.912 37.2591 114.826L37.5831 114.988L37.907 114.826C57.3466 104.912 54.7222 85.6021 54.7222 85.4078ZM51.8063 97.3631C49.4088 104.296 44.6137 109.675 37.5506 113.368C30.4876 109.675 25.6925 104.296 23.295 97.3631C21.5454 92.2764 21.6426 87.8377 21.7722 86.2501C31.7512 86.1205 36.1899 83.4638 37.5506 82.3622C38.9114 83.4314 43.3501 86.1205 53.3291 86.2501C53.4587 87.8701 53.5559 92.2764 51.8063 97.3631ZM73.7406 60.59L73.0602 58.808C72.4446 58.7432 71.8614 58.5812 71.2782 58.3868L69.8851 59.6828L65.8676 56.7993L66.6451 55.0497C66.2563 54.5637 65.9324 54.0453 65.6732 53.4945L63.7616 53.4297L62.9516 48.5375L64.7336 47.8571C64.7984 47.2415 64.9604 46.6583 65.1548 46.0751L63.8588 44.682L66.7423 40.6321L68.4919 41.4096C68.9779 41.0208 69.4963 40.6969 70.047 40.4377L70.1119 38.5261L75.0041 37.7161L75.6845 39.4981C76.3001 39.5629 76.8833 39.7249 77.4665 39.9193L78.8596 38.6233L82.8771 41.5068L82.0996 43.2564C82.4883 43.7424 82.8123 44.2608 83.0715 44.8116L84.9831 44.8764L85.7931 49.7686L84.0111 50.449C83.9139 51.0646 83.7843 51.6478 83.5899 52.231L84.8859 53.6241L82.0024 57.674L80.2528 56.8965C79.7668 57.2852 79.2484 57.6092 78.6976 57.8684L78.6328 59.78L73.7406 60.59ZM70.9542 56.8317L71.343 56.9937C72.0558 57.2852 72.8334 57.4472 73.611 57.512L74.0322 57.5444L74.6153 59.0672L77.3045 58.6136L77.3693 56.9937L77.7581 56.8317C78.4708 56.5077 79.1188 56.0865 79.7344 55.6005L80.0584 55.3413L81.5488 56.0217L83.1363 53.8185L82.0024 52.6198L82.1643 52.231C82.4559 51.5182 82.6179 50.7406 82.6827 49.963L82.7151 49.5418L84.2379 48.9586L83.7843 46.2695L82.1643 46.2047L82.0024 45.8159C81.6784 45.1031 81.2572 44.4552 80.7712 43.8396L80.512 43.5156L81.1924 42.0252L78.9892 40.4377L77.7905 41.5392L77.4017 41.3772C76.6889 41.0856 75.9113 40.9236 75.1337 40.8588L74.7125 40.8265L74.1293 39.3037L71.4402 39.7573L71.3754 41.3772L70.9866 41.5392C70.2738 41.8632 69.6259 42.2844 69.0103 42.7704L68.6863 43.0296L67.1959 42.3492L65.6084 44.5524L66.7423 45.7511L66.5803 46.1399C66.2887 46.8527 66.1267 47.6303 66.062 48.4079L66.0295 48.8291L64.5068 49.4122L64.9604 52.1014L66.5803 52.1662L66.7423 52.555C67.0663 53.2677 67.4875 53.9157 67.9735 54.5313L68.2327 54.8553L67.5523 56.3457L69.7555 57.9332L70.9542 56.8317ZM74.3237 54.5637C73.2222 54.5637 72.1206 54.2073 71.2134 53.5593C68.7835 51.8422 68.2327 48.4727 69.9499 46.0427C71.667 43.6128 75.0365 43.062 77.4665 44.7792C78.6328 45.6215 79.4104 46.8527 79.6696 48.2783C79.8964 49.7038 79.5724 51.1294 78.7624 52.2958C77.9201 53.4621 76.6889 54.2397 75.2633 54.4989C74.9069 54.5313 74.6153 54.5637 74.3237 54.5637ZM74.3237 45.1355C73.0602 45.1355 71.829 45.7187 71.0514 46.8203C70.4358 47.6951 70.1766 48.7643 70.371 49.8334C70.5654 50.9026 71.1162 51.8098 71.991 52.4254C72.8658 53.041 73.935 53.3001 75.0041 53.1057C76.0733 52.9114 76.9805 52.3606 77.5961 51.4858C78.2117 50.611 78.4708 49.5418 78.2764 48.4727C78.082 47.4035 77.5313 46.4963 76.6565 45.8807C75.9437 45.3947 75.1337 45.1355 74.3237 45.1355ZM229.062 113.401L227.54 109.416C225.92 109.221 224.3 108.865 222.777 108.314L219.667 111.23L211.243 105.236L212.992 101.348C211.988 100.085 211.113 98.6914 210.4 97.2011L206.156 97.0715L204.439 86.8657L208.424 85.343C208.618 83.723 208.975 82.103 209.526 80.5803L206.61 77.4699L212.604 69.0462L216.491 70.7957C217.755 69.7913 219.148 68.9166 220.639 68.2038L220.768 63.9595L230.974 62.2423L232.497 66.2274C234.117 66.4218 235.737 66.7782 237.259 67.329L240.37 64.4131L248.793 70.4069L247.044 74.2948C248.048 75.5584 248.923 76.9516 249.636 78.4419L253.88 78.5715L255.597 88.7773L251.612 90.3C251.418 91.92 251.061 93.54 250.511 95.0627L253.427 98.173L247.433 106.597L243.545 104.847C242.281 105.852 240.888 106.726 239.398 107.439L239.268 111.684L229.062 113.401ZM222.323 106.24L222.842 106.435C224.559 107.083 226.373 107.504 228.22 107.666L228.803 107.731L230.196 111.36L237.454 110.128L237.583 106.24L238.102 106.014C239.786 105.268 241.374 104.264 242.8 103.065L243.221 102.709L246.785 104.296L251.061 98.3026L248.405 95.4515L248.599 94.9331C249.247 93.216 249.668 91.4016 249.83 89.5549L249.863 88.9717L253.491 87.5785L252.26 80.3211L248.372 80.1915L248.145 79.6731C247.4 77.9883 246.396 76.4008 245.197 74.9752L244.841 74.554L246.428 70.9901L240.434 66.7134L237.583 69.3701L237.065 69.1758C235.348 68.5278 233.533 68.1066 231.687 67.9446L231.103 67.9122L229.71 64.2835L222.453 65.5146L222.323 69.4025L221.805 69.6293C220.12 70.3745 218.533 71.3789 217.107 72.5777L216.686 72.9341L213.122 71.3465L208.91 77.3404L211.567 80.1915L211.372 80.7099C210.724 82.427 210.303 84.2414 210.141 86.0881L210.109 86.6713L206.48 88.0645L207.711 95.3219L211.599 95.4515L211.826 95.9699C212.571 97.6547 213.576 99.2422 214.774 100.668L215.131 101.089L213.543 104.653L219.537 108.93L222.323 106.24ZM229.97 99.5662C227.604 99.5662 225.239 98.8534 223.166 97.3955C217.885 93.6371 216.653 86.2825 220.412 81.0015C224.17 75.7204 231.525 74.4892 236.806 78.2475C242.087 82.0058 243.318 89.3605 239.56 94.6415C237.259 97.849 233.631 99.5662 229.97 99.5662ZM230.002 77.8911C226.892 77.8911 223.814 79.3491 221.902 82.0706C220.347 84.2414 219.764 86.8657 220.185 89.4901C220.639 92.1144 222.064 94.3823 224.235 95.9375C228.706 99.1126 234.927 98.0758 238.102 93.6048C239.624 91.434 240.24 88.8097 239.819 86.1853C239.365 83.561 237.94 81.2931 235.769 79.7379C233.987 78.4743 231.978 77.8911 230.002 77.8911ZM71.3106 186.299C69.7555 181.925 67.9735 177 69.9499 171.946C72.6066 165.142 66.9691 161.643 62.012 158.5C57.7354 155.844 53.7179 153.316 55.0786 149.137C56.569 144.601 56.4718 141.102 54.787 138.802C53.3615 136.858 50.8343 135.821 47.4648 135.853C44.7757 135.886 42.3781 132.581 39.8186 129.114C36.8055 125.032 33.7275 120.82 29.8396 121.76C29.1593 121.922 28.6085 122.31 28.2845 122.926C26.9237 125.486 29.0621 131.577 31.3624 138.056C33.8247 145.055 36.6435 152.96 34.7967 156.33C32.788 160.023 36.4167 163.393 40.2722 166.989C44.3545 170.78 48.9876 175.089 47.7564 180.499C46.59 185.554 46.3308 187.433 47.0436 188.534C47.5944 189.409 48.7284 189.604 50.4455 189.928C51.6119 190.154 53.1023 190.414 54.9166 190.997C62.7248 193.427 64.9928 198.481 65.0252 198.546L65.1224 198.773L65.3492 198.74C69.1075 198.157 71.3106 197.088 72.3474 195.371C72.4122 195.273 72.4446 195.176 72.5094 195.079C73.611 192.779 72.5418 189.766 71.3106 186.299Z" fill="#4F008B"/>
<path d="M51.3529 176.644C52.6488 178.653 53.5884 180.402 53.4912 182.865C53.4264 185.165 53.07 187.433 52.8756 189.701C52.8432 190.187 52.8108 190.64 52.7784 191.094C52.1304 190.543 51.5149 189.992 50.8669 189.442C50.5753 189.409 50.2837 189.409 49.9597 189.409C50.8669 190.154 51.8064 190.964 52.7136 191.774C52.6164 193.362 52.584 194.95 52.584 196.537C52.584 197.477 52.5516 198.481 52.6164 199.421C51.7741 198.902 50.8993 198.384 50.0893 197.865C47.5622 196.31 45.197 194.852 43.3827 194.075C41.9895 193.492 40.4343 192.973 38.944 192.487C35.0561 191.224 31.071 189.928 29.7426 187.174C29.0622 185.748 29.127 184.031 29.937 181.957C31.9781 176.612 30.0666 175.704 26.8591 174.149C24.5263 173.015 21.3512 171.492 18.1761 167.637C16.7829 165.952 15.5517 164.494 14.4502 163.231C11.1779 159.375 9.3635 157.269 9.59029 156.038C9.65509 155.746 9.81708 155.487 10.1411 155.228C10.3031 155.098 10.4975 154.969 10.7567 154.839C11.9878 154.159 13.219 154.677 14.6122 155.26C16.4913 156.038 18.7917 157.042 21.9992 155.39C24.5263 154.094 27.3451 152.895 29.0298 153.867C30.1962 154.515 30.8766 156.2 31.1034 158.954C31.1682 159.829 31.4598 160.444 31.9457 160.801C32.6585 161.319 33.7601 161.254 35.0237 160.995C35.8984 162.194 37.0324 162.777 38.3932 163.263C40.3047 163.943 41.7303 164.559 43.1235 166.114C46.1042 169.484 48.9877 172.918 51.3529 176.644Z" fill="#2A94F4"/>
<path d="M41.0175 181.99C39.0735 180.694 37.3888 177.551 35.7688 174.506C33.5657 170.359 31.2653 166.082 28.1226 166.179C23.0683 166.309 18.5648 160.347 18.5 160.315L18.0789 160.639C18.2733 160.898 22.8091 166.859 28.1226 166.73C30.9413 166.665 33.1769 170.78 35.2828 174.797C36.9352 177.875 38.6523 181.083 40.6935 182.476C41.9247 183.286 44.1926 184.938 46.8817 187.044V186.364C44.5166 184.387 42.4107 182.897 41.0175 181.99Z" fill="white"/>
<path d="M211.761 222.132C211.761 222.132 214.677 214.875 209.364 204.572C204.018 194.269 199.709 195.857 212.571 187.919C225.434 179.981 212.636 155.034 223.587 151.859C234.538 148.683 244.031 108.282 252.357 113.433C260.684 118.585 249.571 138.38 255.532 144.342C261.462 150.303 262.272 157.852 249.992 163.976C237.713 170.099 258.708 193.492 242.054 200.619C225.401 207.747 230.196 235.708 211.761 222.132Z" fill="#4F008B"/>
<path d="M216.848 229.811C216.815 229.714 215.033 220.448 220.703 208.46C226.47 196.245 229.224 182.897 228.09 172.724C227.475 167.216 231.006 165.077 234.408 163.004C237.778 160.963 241.244 158.824 241.05 153.414C240.888 148.521 242.962 137.052 243.026 136.566L243.772 136.696C243.739 136.825 241.633 148.586 241.795 153.381C241.99 159.246 238.328 161.481 234.797 163.619C231.427 165.661 228.285 167.605 228.835 172.626C230.002 182.897 227.216 196.407 221.384 208.752C215.843 220.512 217.561 229.552 217.593 229.649L216.848 229.811Z" fill="white"/>
<path d="M261.073 169.613C265.706 167.41 270.63 168.415 268.071 173.048C265.511 177.681 261.688 178.037 262.401 181.698C263.114 185.359 264.993 189.344 258.967 191.677C252.94 193.978 250.122 193.589 246.461 200.36C242.767 207.132 241.504 212.153 235.186 210.534C228.868 208.881 234.117 200.555 237.389 197.055C237.389 197.055 241.828 193.297 241.763 186.526C241.698 179.754 238.912 175.218 247.659 175.672C256.407 176.061 257.93 171.104 261.073 169.613Z" fill="#0E538C"/>
<path d="M234.182 215.264C234.441 214.389 240.532 193.427 245.521 191.159C250.608 188.826 253.362 182.735 254.561 179.333C256.116 174.894 262.758 174.02 263.017 173.987L263.114 174.732C263.049 174.732 256.667 175.575 255.273 179.56C253.783 183.869 250.932 189.506 245.845 191.839C241.18 193.977 234.992 215.264 234.927 215.491L234.182 215.264ZM73.7083 198.384C63.7293 195.889 63.5997 190.511 63.4701 185.327C63.3729 181.083 63.2757 177.065 57.8651 174.603C50.7048 171.33 50.5428 165.272 50.3808 159.926C50.2512 155.941 50.154 152.183 47.1733 150.141C40.0131 145.249 33.9544 133.391 33.8896 133.261L34.4404 132.97C34.5052 133.099 40.4667 144.795 47.5297 149.623C50.7696 151.826 50.8992 155.746 50.9964 159.894C51.1584 165.304 51.3204 170.942 58.1243 174.02C63.8589 176.644 63.9885 181.05 64.0857 185.295C64.2153 190.478 64.3449 195.403 73.8703 197.768L73.7083 198.384Z" fill="white"/>
<path d="M60.2627 193.589H224.17V75.2668C224.17 73.5821 222.809 72.1889 221.092 72.1889H63.3406C61.6559 72.1889 60.2627 73.5497 60.2627 75.2668V193.589Z" fill="#F7F7F7"/>
<path d="M218.069 171.529L66.0523 171.529V78.1225L218.069 78.1225V171.529Z" fill="#0B4870" stroke="white" stroke-width="0.5" stroke-miterlimit="10"/>
<path d="M224.17 176.061H60.3273L42.3782 243.095H242.087L224.17 176.061Z" fill="#F2F2F2"/>
<path d="M66.5155 187.822H76.5917C77.0129 187.822 77.3369 188.146 77.2397 188.502L76.2677 192.876C76.2029 193.135 75.9437 193.33 75.6197 193.33H65.3816C64.9604 193.33 64.6364 193.006 64.7336 192.617L65.8676 188.243C65.9324 188.016 66.1916 187.822 66.5155 187.822ZM81.1924 187.822H88.8062L87.8018 193.362H80.026L81.1924 187.822ZM92.5969 187.822H100.211L99.4331 193.362H91.6573L92.5969 187.822ZM104.034 187.822H111.648L111.064 193.362H103.289L104.034 187.822ZM115.438 187.822H123.052L122.696 193.362H114.92L115.438 187.822ZM126.843 187.822H134.457L134.327 193.362H126.551L126.843 187.822ZM218.209 187.822H206.772L208.003 193.362H219.634L218.209 187.822ZM202.981 187.822H195.367L196.372 193.362H204.147L202.981 187.822ZM191.576 187.822H183.963L184.74 193.362H192.516L191.576 187.822ZM180.14 187.822H172.526L173.109 193.362H180.885L180.14 187.822ZM168.735 187.822H161.121L161.478 193.362H169.253L168.735 187.822ZM157.331 187.822H149.717L149.846 193.362H157.622L157.331 187.822ZM138.28 187.822H145.894L145.991 193.362H138.28V187.822ZM63.1784 197.477H79.054L78.1469 203.179H61.9473L63.1784 197.477ZM220.671 197.477H201.037L202.139 203.179H222.194L220.671 197.477ZM197.084 197.477H189.244L190.119 203.179H198.154L197.084 197.477ZM185.291 197.477H177.45L178.098 203.179H186.133L185.291 197.477ZM173.498 197.477H165.657L166.111 203.179H174.113L173.498 197.477ZM161.704 197.477H153.864L154.091 203.179H162.093L161.704 197.477ZM60.7809 207.618H77.0453L75.8465 213.287H59.2905L60.7809 207.618ZM81.0952 207.618H89.2274L88.2878 213.287H79.9936L81.0952 207.618ZM93.3097 207.618H154.253L154.479 213.287H92.4025L93.3097 207.618ZM158.335 207.618H166.467L166.921 213.287H158.626L158.335 207.618ZM170.517 207.618H178.649L179.33 213.287H171.035L170.517 207.618ZM182.731 207.618H190.864L191.738 213.287H183.477L182.731 207.618ZM194.914 207.618H203.046L204.147 213.287H195.886L194.914 207.618ZM207.096 207.618H223.36L224.85 213.287H208.294L207.096 207.618ZM149.943 197.477H142.135V203.179H150.073L149.943 197.477ZM138.15 197.477H130.277L130.05 203.179H138.085L138.15 197.477ZM126.357 197.477H118.484L118.03 203.179H126.065L126.357 197.477ZM114.564 197.477H106.691L106.01 203.179H114.045L114.564 197.477ZM102.77 197.477H94.8973L93.9901 203.179H102.025L102.77 197.477ZM90.9769 197.477H83.1039L82.0024 203.179H90.005L90.9769 197.477ZM66.8719 184.355L68.1679 179.43H71.8614L70.6626 184.355H66.8719ZM75.5549 179.43H82.9419L81.9376 184.355H74.3885L75.5549 179.43ZM86.6679 179.43H94.0549L93.2125 184.355H85.6959L86.6679 179.43ZM97.7484 179.43H105.135L104.487 184.355H96.9708L97.7484 179.43ZM108.829 179.43H116.216L115.762 184.355H108.246L108.829 179.43ZM119.909 179.43H127.296L127.037 184.355H119.521L119.909 179.43ZM130.99 179.43H138.377L138.312 184.355H130.796L130.99 179.43ZM142.07 179.43H149.458L149.587 184.355H142.07V179.43ZM153.151 179.43H160.538L160.862 184.355H153.345L153.151 179.43ZM164.232 179.43H171.651L172.137 184.355H164.62L164.232 179.43ZM175.344 179.43H182.731L183.444 184.355H175.928L175.344 179.43ZM186.425 179.43H193.812L194.719 184.355H187.203L186.425 179.43ZM197.506 179.43H204.893L205.994 184.355H198.478L197.506 179.43ZM208.586 179.43H215.973L217.269 184.355H209.752L208.586 179.43Z" fill="#0B4870" stroke="white" stroke-width="0.5" stroke-miterlimit="10"/>
<path d="M236.871 248.311H47.5944C44.7109 248.311 42.3782 245.978 42.3782 243.095H242.087C242.087 245.978 239.754 248.311 236.871 248.311ZM165.463 221.42C165.268 220.253 164.232 219.379 163.065 219.379H121.432C120.233 219.379 119.229 220.253 119.035 221.42L116.443 237.133C116.184 238.624 117.35 239.984 118.84 239.984H165.625C167.148 239.984 168.281 238.624 168.022 237.133L165.463 221.42Z" fill="#D3D3D3"/>
<path d="M76.3 86.0557H93.2448V87.8053H76.3V86.0557ZM98.0075 99.1126H110.222V100.862H98.0075V99.1126ZM112.134 99.1126H120.233V100.862H112.134V99.1126ZM76.4944 131.965H84.5942V133.715H76.4944V131.965ZM121.853 99.1126H141.455V100.862H121.853V99.1126ZM76.4944 125.388H89.0977V127.138H76.4944V125.388ZM94.0548 138.478H101.733V140.227H94.0548V138.478ZM76.4944 138.478H91.7221V140.227H76.4944V138.478ZM76.4944 145.022H84.8858V146.772H76.4944V145.022ZM96.5496 86.0557H108.57V87.8053H96.5496V86.0557ZM96.5496 105.657H108.57V107.407H96.5496V105.657ZM90.5233 112.169H95.6748V113.919H90.5233V112.169ZM85.4042 118.811H96.9383V120.561H85.4042V118.811ZM98.6879 118.811H114.628V120.561H98.6879V118.811ZM76.4944 112.234H88.5145V113.984H76.4944V112.234ZM76.4944 118.811H83.6223V120.561H76.4944V118.811ZM98.1047 112.234H104.844V113.984H98.1047V112.234ZM76.7212 151.535H83.4603V153.284H76.7212V151.535ZM76.462 99.1126H88.4821V100.862H76.462V99.1126ZM87.089 131.965H99.1091V133.715H87.089V131.965ZM87.251 145.022H99.2711V146.772H87.251V145.022ZM108.602 145.022H120.622V146.772H108.602V145.022ZM76.462 105.657H93.6012V107.407H76.462V105.657ZM156.78 86.0557H168.8V87.8053H156.78V86.0557ZM113.948 151.535H125.968V153.284H113.948V151.535ZM172.526 86.0557H180.561V87.8053H172.526V86.0557ZM199.773 92.6004H207.808V94.3499H199.773V92.6004ZM111.81 86.0557H127.134V87.8053H111.81V86.0557ZM171.489 92.6004H186.814V94.3499H171.489V92.6004ZM152.697 99.1126H168.022V100.862H152.697V99.1126ZM132.772 105.657H148.097V107.407H132.772V105.657ZM169.934 99.1126H180.82V100.862H169.934V99.1126ZM138.442 86.0557H153.767V87.8053H138.442V86.0557ZM120.979 105.657H129.953V107.407H120.979V105.657ZM113.948 132.063H122.922V133.812H113.948V132.063ZM129.953 86.0557H135.558V87.8053H129.953V86.0557ZM111.81 105.657H117.415V107.407H111.81V105.657ZM190.507 92.6004H196.112V94.3499H190.507V92.6004ZM76.3 92.6004H85.0802V94.3499H76.3V92.6004ZM99.7247 125.421H106.658V127.17H99.7247V125.421ZM87.251 92.6004H90.0697V94.3499H87.251V92.6004ZM145.375 92.6004H168.8V94.3499H145.375V92.6004ZM122.922 145.022H146.347V146.772H122.922V145.022ZM92.1433 92.6004H95.0268V94.3499H92.1433V92.6004ZM135.558 92.6004H143.204V94.3499H135.558V92.6004ZM143.237 99.1126H150.883V100.862H143.237V99.1126ZM103.839 151.535H111.486V153.284H103.839V151.535ZM117.253 92.6004H133.549V94.3499H117.253V92.6004ZM102.057 132.063H111.583V133.812H102.057V132.063ZM101.474 145.022H106.237V146.772H101.474V145.022ZM109.315 92.6004H114.92V94.3499H109.315V92.6004ZM90.4585 99.1126H96.0636V100.862H90.4585V99.1126ZM91.5601 125.421H97.1651V127.17H91.5601V125.421ZM97.4243 92.6004H107.209V94.3499H97.4243V92.6004Z" fill="#F7F7F7"/>
<path d="M179.459 105.722C179.459 105.722 182.31 110.55 183.509 111.327C185.129 112.396 184.125 113.465 183.347 113.498C182.57 113.498 178.617 113.789 177.742 112.785C176.867 111.781 176.446 108.832 175.636 108.055C174.826 107.277 173.984 104.199 176.025 103.454C177.807 102.774 179.459 105.722 179.459 105.722Z" fill="#4F008B"/>
<path d="M178.196 103.616C178.196 103.616 181.468 109.286 182.019 110.096C182.57 110.938 180.95 110.938 179.945 110.55C178.941 110.161 176.414 106.111 176.057 105.366C175.636 104.491 175.993 103.487 175.993 103.487L178.196 103.616Z" fill="#FFE3CA"/>
<path d="M174.891 106.629L175.669 112.429L176.057 112.461L175.928 108.282L174.891 106.629ZM151.175 105.722C151.175 105.722 154.026 110.55 155.225 111.327C156.845 112.396 155.84 113.465 155.063 113.498C154.285 113.498 150.332 113.789 149.458 112.785C148.583 111.781 148.162 108.832 147.352 108.055C146.542 107.277 145.667 104.102 147.74 103.454C149.555 102.871 151.175 105.722 151.175 105.722Z" fill="#4F008B"/>
<path d="M150.106 103.616C150.106 103.616 153.183 109.254 153.767 110.096C154.317 110.938 152.698 110.938 151.693 110.55C150.689 110.161 148.162 106.111 147.805 105.366C147.384 104.491 147.74 103.487 147.74 103.487L150.106 103.616Z" fill="#FFE3CA"/>
<path d="M146.639 106.629L147.384 112.429L147.805 112.461L147.676 108.282L146.639 106.629Z" fill="#4F008B"/>
<path d="M138.539 61.7563L164.329 73.5173C164.329 73.5173 167.212 74.4568 167.536 77.6644C168.541 87.6433 175.993 103.454 175.993 103.454C178.39 104.621 178.196 103.616 178.196 103.616C176.673 98.7562 174.859 78.7983 174.178 70.7957C174.049 69.111 173.951 67.9446 173.919 67.5558C173.919 67.2966 173.627 66.9726 173.141 66.5838C169.61 63.7003 155.03 57.7712 155.03 57.7712C144.177 57.4797 138.539 61.7563 138.539 61.7563Z" fill="#FFE3CA"/>
<path d="M133.679 66.8106C134.489 73.7765 144.436 72.9989 144.436 72.9989H156.488C156.488 72.9989 153.313 80.0619 152.082 85.991C150.786 92.3088 147.708 103.454 147.708 103.454C147.708 103.454 147.902 103.843 150.106 103.616C150.106 103.616 159.566 84.7598 163.195 79.9971C163.972 78.9927 166.208 73.4201 166.597 70.1154C166.726 69.0138 166.661 68.139 166.24 67.7826C165.819 67.4262 164.847 66.7782 163.584 65.9683C159.793 63.5707 153.248 59.9096 149.587 59.0996C144.695 57.998 136.951 55.9245 136.951 55.9245C136.951 55.9245 132.869 59.8448 133.679 66.8106Z" fill="#FFE3CA"/>
<path d="M141.876 13.0927C141.876 13.0927 140.062 9.65843 140.937 6.02972C141.811 2.36861 145.213 -1.2601 150.17 0.424656C155.127 2.10942 159.145 5.93252 156.164 10.4036C153.184 14.8423 158.853 16.8835 157.395 18.9894C155.937 21.0954 156.488 23.3309 157.104 23.8169C157.719 24.3029 159.696 26.0524 159.469 28.1584C159.242 30.2319 149.846 22.0997 149.846 22.0997C149.846 22.0997 144.76 11.7644 141.876 13.0927Z" fill="#0E538C"/>
<path d="M157.007 56.8965C157.007 56.8965 156.261 60.5252 136.984 55.9569C136.984 55.9569 143.431 53.8185 157.007 56.8965Z" fill="#EB4747"/>
<path d="M136.757 56.9613C136.465 57.5445 136.174 58.0952 135.85 58.6784C142.88 58.8728 149.943 59.0996 156.974 59.294C155.873 55.5681 156.229 50.5138 156.423 46.6907C156.65 41.9928 159.242 38.7529 158.983 34.0226C160.376 34.2494 160.603 34.2818 161.996 34.5086C159.858 28.4176 159.145 25.4044 152.503 23.0717C150.332 22.2941 148.939 22.1645 146.606 22.3589C138.928 23.0069 136.627 23.0717 132.837 30.0375C138.733 30.9771 137.761 33.0831 139.543 38.9797C140.418 41.8308 141.325 45.0384 140.872 48.0515C140.418 50.9998 136.757 54.2721 136.757 56.9613Z" fill="white"/>
<path d="M149.004 24.5296C145.861 23.9465 146.542 22.1969 146.542 22.1969C146.542 22.1969 146.671 21.2249 146.736 19.9614C146.736 19.6374 146.768 19.3134 146.768 18.957C146.768 18.4386 146.736 17.9202 146.671 17.4018C146.412 15.2959 152.373 16.5594 152.373 16.5594C152.373 16.5594 152.017 20.8361 152.859 22.0997C153.669 23.3957 152.147 25.1452 149.004 24.5296Z" fill="#FFE3CA"/>
<path d="M143.01 22.1969C143.01 22.1969 149.36 29.5191 151.693 31.2039C151.693 31.2039 154.382 28.774 152.73 22.3589C152.73 22.3589 149.684 20.8038 143.01 22.1969ZM143.204 4.57175C143.204 4.57175 139.9 10.922 143.172 16.9158C146.444 22.9097 152.859 14.2915 153.248 13.2871C153.669 12.2828 155.873 6.5481 151.499 4.83094C147.125 3.08139 144.144 2.85459 143.204 4.57175Z" fill="#FFE3CA"/>
<path d="M149.555 17.5638C149.555 17.5638 148.971 18.8274 146.736 19.9614C146.736 19.6374 146.768 19.3134 146.768 18.957C146.768 18.957 148.291 18.795 149.555 17.5638Z" fill="#FCD2B1"/>
<path d="M116.281 51.259C116.281 51.259 114.726 51.9394 113.98 51.6478C113.235 51.3238 112.101 51.259 111.745 51.259C111.259 51.259 109.736 50.7082 109.769 51.3238C109.801 51.907 112.231 52.3282 112.717 52.5226C113.203 52.717 111.227 53.7862 111.032 54.2721C110.838 54.7581 113.106 57.9333 114.369 57.0261C115.633 56.1189 116.313 54.3045 116.572 54.1749C116.832 54.0453 117.512 53.5594 117.512 53.5594L116.281 51.259Z" fill="#FFE3CA"/>
<path d="M111.291 53.9805C111.291 53.9805 107.63 57.0261 107.565 57.4472C107.501 57.8684 107.695 58.0628 108.051 57.7712C108.408 57.512 111.68 54.9201 111.68 54.9201C111.68 54.9201 108.019 59.2616 107.889 59.5856C107.825 59.78 108.181 60.1688 108.375 60.0392C108.57 59.9096 112.49 55.8273 112.49 55.8273C112.49 55.8273 109.056 59.8772 109.056 60.2012C109.023 60.4604 109.444 60.752 109.736 60.4604C110.028 60.1688 113.43 56.6049 113.43 56.6049C113.43 56.6049 111.129 59.7152 111.291 60.0068C111.388 60.1688 111.68 60.5252 112.231 59.7152C112.782 58.9052 114.337 57.0909 114.337 57.0909L111.291 53.9805Z" fill="#FFE3CA"/>
<path d="M155.225 72.9665H144.436C144.436 72.9665 134.489 73.7765 133.679 66.7782C132.869 59.8124 136.951 55.9245 136.951 55.9245C136.951 55.9245 142.2 57.3177 146.801 58.4192C149.101 57.9333 151.855 57.6093 155.095 57.7065C155.095 57.7065 174.535 64.1215 173.951 67.5234C173.951 67.5558 165.819 63.2143 155.225 72.9665Z" fill="#0E538C"/>
<path d="M148.194 60.914L168.8 60.59L158.4 65.8711L148.194 60.914Z" fill="#F2F2F2"/>
<path d="M154.609 58.2572C154.609 58.2572 149.976 60.0392 144.306 58.4192L144.047 56.3133L155.743 56.9613L154.609 58.2572Z" fill="white"/>
<path d="M158.4 65.8711L148.194 61.9184V60.914L159.21 64.8667L158.4 65.8711Z" fill="#D3D3D3"/>
<path d="M154.512 59.2616C154.447 60.0068 155.225 60.5576 155.937 60.266L157.136 59.7476C157.493 59.5856 157.719 59.2292 157.655 58.8404C157.169 55.7301 156.099 43.6128 157.655 41.5069C158.238 40.7293 158.594 40.0489 158.789 39.4657C159.825 42.1224 161.089 45.5568 161.607 47.4035L171.327 60.3632L174.599 61.2056C170.517 51.3886 167.245 46.2047 167.245 46.2047C166.597 44.4876 164.782 39.3037 163.162 34.703C162.126 31.7871 161.218 29.098 160.7 27.6724C160.441 26.9272 159.955 26.3116 159.275 25.9228C157.752 25.0157 155.257 23.5901 152.989 22.4885H152.957C152.892 22.4561 152.827 22.4237 152.73 22.3913C157.071 28.9036 155.387 47.4035 154.512 59.2616C154.512 59.2292 154.512 59.2292 154.512 59.2616ZM138.442 22.9097C137.049 23.1365 133.614 26.4736 131.8 29.8431C129.726 33.6987 127.588 38.0725 126.001 39.4981C123.085 42.1548 114.888 51.5182 114.499 51.2914C114.337 51.1942 116.734 54.0778 117.058 54.2074C117.22 54.2721 130.504 42.738 131.8 40.9885C132.999 39.3361 136.239 32.3379 137.211 32.4999C137.275 32.6619 138.474 35.2214 139.576 38.9473C139.608 39.0121 139.608 39.0769 139.641 39.1417C140.418 41.7337 140.353 44.5848 139.932 47.7599C139.608 50.1574 137.826 54.0778 136.757 55.9893C136.627 56.2161 136.66 56.6697 136.789 56.9937C136.887 57.1881 136.984 57.3501 137.146 57.4149L141.066 58.8728L141.973 59.1968C142.621 59.456 143.334 59.3264 143.852 58.9376C144.274 58.646 144.598 58.1601 144.662 57.5769C145.537 50.9026 146.639 44.0664 147.514 41.5069C151.369 30.2319 146.023 21.7433 146.023 21.7433C146.023 21.7433 139.673 22.4561 138.442 22.9097Z" fill="#4F008B"/>
<path d="M158.4 65.8711L164.523 49.1531L184.254 49.4771L178.422 64.8991L158.4 65.8711Z" fill="#4F008B"/>
<path d="M170.841 56.5401C170.225 57.7388 170.42 59.0672 171.262 59.456C172.105 59.8772 173.239 59.2292 173.854 58.0304C174.47 56.8317 174.275 55.5033 173.433 55.1145C172.591 54.6933 171.424 55.3413 170.841 56.5401Z" fill="#F2F0F0"/>
<path d="M158.853 24.9509C157.395 22.7477 156.359 20.9982 156.229 17.8554C156.132 15.7819 155.678 12.9632 154.253 11.57C155.743 7.68208 153.993 6.51571 153.281 5.25214C152.406 3.66458 145.926 -0.158525 143.366 3.85898C140.807 7.84408 141.714 12.0236 141.714 12.0236C141.973 9.82043 144.241 6.8397 144.241 6.8397C144.598 9.14005 149.36 12.8984 151.434 14.4211C151.401 14.4535 151.369 14.5183 151.369 14.5507C150.203 16.2355 151.661 17.9202 151.92 19.7022C152.179 21.4841 147.028 26.2792 152.762 28.6768C158.497 31.1067 160.311 27.1216 158.853 24.9509ZM54.5602 213.676C54.5602 213.676 54.4306 215.037 48.0804 215.037C41.7301 215.037 32.4963 213.385 32.4963 213.385L47.238 211.959C47.238 211.959 52.9078 211.667 54.5602 213.676Z" fill="#0E538C"/>
<path d="M38.3931 214.162C34.7968 214.162 33.2741 216.009 31.8485 216.592C30.4229 217.175 28.9974 218.05 28.9974 218.018C29.8073 216.43 30.9413 216.398 31.5245 215.879C32.1077 215.361 31.9457 215.62 30.6821 215.523C29.9693 215.458 28.6734 216.787 27.7662 217.532C26.9562 218.147 26.4702 218.212 26.4702 218.212C26.4702 218.212 27.4098 216.884 28.5762 215.815C30.0017 214.519 31.7837 213.449 32.2049 213.255C32.9825 212.931 35.38 212.866 37.0648 213.093C39.0087 213.352 40.9851 214.162 38.3931 214.162Z" fill="#0E538C"/>
<path d="M32.4316 213.32C32.4316 213.32 29.6777 214.033 29.1917 214.421C28.8677 214.681 27.4421 216.203 27.4421 216.203C27.4421 216.203 28.4789 216.041 29.0621 215.458C29.6777 214.843 32.4316 213.32 32.4316 213.32ZM49.344 210.89C49.344 210.89 56.2774 211.343 55.7914 215.62C55.5322 218.05 53.9447 218.892 51.8387 218.698C47.9508 218.374 43.5445 217.791 43.5445 217.791L41.5682 211.149L49.344 210.89Z" fill="#0E538C"/>
<path d="M50.802 211.473L57.6059 189.539C57.6059 189.539 58.6102 186.331 60.2626 186.914C62.6277 187.789 61.4614 190.414 61.267 191.969C60.8458 195.144 61.1374 196.537 58.9342 204.183C57.5735 208.914 56.4071 214.357 55.2407 217.467C54.4307 219.605 53.0376 216.527 50.9316 215.685C46.9789 214.097 50.802 211.473 50.802 211.473ZM51.3204 177.616C52.6488 181.439 56.7635 183.415 60.5542 182.022C64.3125 180.629 66.3212 176.385 64.9929 172.562C63.6645 168.739 59.5498 166.762 55.7591 168.155C52.0008 169.548 49.992 173.793 51.3204 177.616Z" fill="#0E538C"/>
<path d="M43.8686 177.972C45.9421 181.083 50.0892 181.86 53.1024 179.722L52.6812 176.061C55.6943 173.89 56.4395 169.613 54.3659 166.503L52.9404 164.397C50.8668 161.287 46.7197 160.509 43.7066 162.647L42.3458 163.619C39.3327 165.79 38.5875 170.067 40.6611 173.177L43.8686 177.972Z" fill="#0E538C"/>
<path d="M41.147 167.767C41.5034 168.285 41.8922 168.771 42.3458 169.257C45.3265 172.497 49.3116 173.728 51.8388 172.4C53.0051 173.987 54.3335 175.251 55.5323 176.223C56.9254 177.357 60.4893 177.81 60.4893 177.81C62.5629 180.078 54.7871 193.33 54.2363 193.265C53.1023 193.168 51.6444 185.845 52.7135 183.189C53.1995 181.99 53.9771 180.564 53.7503 179.916C52.9403 177.681 51.8064 178.07 51.8064 178.07C51.8064 178.07 50.316 179.819 49.1496 179.754C47.9508 179.657 45.8773 177.778 45.7801 177.746C45.4237 177.454 45.0997 177.098 44.8081 176.676L41.6978 172.011C40.8878 170.715 40.6934 169.16 41.147 167.767Z" fill="#FFE3CA"/>
<path d="M64.9281 223.59C64.9281 223.59 62.4009 226.636 61.6233 226.96C60.5866 227.413 57.4114 226.442 57.4114 226.442C57.4114 226.442 56.5691 212.477 55.5971 207.034C54.6251 201.591 53.1996 200.166 53.1348 198.449C53.0376 195.695 50.7372 194.593 51.126 192.455C51.5148 190.316 52.1952 182.67 52.422 183.675C54.3983 192.358 56.8283 185.133 57.379 183.999C57.6706 183.383 64.9281 223.59 64.9281 223.59Z" fill="#F2F0F0"/>
<path d="M53.4264 181.083C53.4264 181.083 50.3485 184.452 50.5753 185.781C50.7697 187.109 49.2469 191.256 50.7697 197.023C52.4868 203.6 53.394 208.071 53.718 212.38C54.042 216.689 52.584 220.642 53.1672 225.923C53.6208 230.07 54.5604 230.297 54.5604 230.297C54.5604 230.297 56.4071 230.751 57.7031 229.131C58.9991 227.543 57.0551 213.417 56.4071 209.918C55.7592 206.386 53.6856 198.157 53.1348 195.727C52.4544 192.746 52.584 189.701 52.6164 188.826C52.7784 185.748 53.1672 183.837 53.4912 182.67C53.5236 182.508 53.6856 180.694 53.4264 181.083ZM58.8047 185.035C60.4894 189.895 65.7381 192.39 70.5332 190.608C75.3283 188.826 77.8554 183.448 76.1707 178.588C74.4859 173.728 69.2372 171.233 64.4421 173.015C59.6471 174.765 57.1199 180.175 58.8047 185.035Z" fill="#0E538C"/>
<path d="M42.3135 268.56L44.0306 282.265L36.5788 285.797L32.4641 286.704L39.7863 281.034L37.3888 268.658L42.3135 268.56Z" fill="#FCBAA2"/>
<path d="M44.5167 284.339L42.8967 284.76L41.7951 283.756L35.8337 286.736L30.5526 288C30.5526 288 30.4878 287.579 30.6498 287.352C31.2978 286.477 35.0237 284.566 35.0237 284.566C35.0237 284.566 35.0885 285.829 35.6069 285.862C36.1253 285.894 40.6935 283.496 41.7627 282.849C43.5771 281.715 43.9335 280.969 44.0631 281.067C44.4519 281.261 44.5167 284.339 44.5167 284.339Z" fill="#0E538C"/>
<path d="M24.3317 249.51L18.4027 261.173L10.2381 260.785L6.15576 259.586L15.1951 258.063L20.1198 248.084L24.3317 249.51Z" fill="#FCBAA2"/>
<path d="M17.9167 263.247L16.2967 262.858L15.7783 261.433L8.4237 261.335L4.0498 260.299C4.0498 260.299 4.56819 259.715 4.89219 259.553C5.86416 259.132 9.33088 258.938 9.33088 258.938C9.33088 258.938 8.97449 259.942 9.42807 260.201C9.88166 260.493 14.9359 260.655 16.1671 260.558C18.3055 260.396 18.921 259.942 18.9858 260.072C19.2126 260.525 17.9167 263.247 17.9167 263.247Z" fill="#0E538C"/>
<path d="M67.5848 214.616L63.1785 216.592L63.2109 222.651L32.8528 217.694C32.8528 217.694 29.9693 216.754 28.1225 221.517C25.4982 228.256 18.824 249.218 18.824 249.218L23.0359 253.786L36.2871 230.103C36.2871 230.103 63.4377 243.289 72.3799 240.438C75.8142 239.336 78.4385 233.051 77.9525 226.701C77.5637 221.711 76.5918 217.143 76.5918 217.143L67.5848 214.616Z" fill="#4F008B"/>
<path d="M63.7292 240.308L41.9893 238.688L43.8685 273.42L37.4534 273.647L32.7231 232.954C32.7231 232.954 33.9867 226.895 38.1338 227.802C42.3133 228.742 52.3571 236.712 63.7292 240.308Z" fill="#4F008B"/>
<path d="M78.3736 249.024C78.3736 249.024 66.9691 236.226 64.0208 229.001C60.4892 220.35 60.7808 209.497 60.1328 205.9C58.9341 199.291 57.4761 186.461 57.2169 184.873C56.9253 183.286 57.9297 181.504 57.9297 181.504C57.9297 181.504 57.1845 176.709 59.3229 177.227C62.4008 177.972 65.4463 179.657 66.5155 180.175C68.5242 181.083 72.6389 205.252 72.8657 206.419C73.7081 210.631 76.786 214.454 78.9892 218.374C84.1731 227.673 85.5014 238.656 85.5014 238.656C85.5014 238.656 84.8534 246.691 78.3736 249.024Z" fill="#2A94F4"/>
<path d="M66.6128 215.555C66.6128 215.555 66.5156 217.111 59.2581 216.754C52.0007 216.365 41.3738 213.935 41.3738 213.935L58.189 213.158C58.189 213.158 64.6364 213.19 66.6128 215.555Z" fill="#FFE3CA"/>
<path d="M47.0759 214.778C43.6092 214.713 42.1189 216.495 40.7581 217.046C39.3973 217.597 38.0042 218.406 38.0042 218.406C38.7817 216.884 39.8833 216.851 40.4665 216.365C41.0173 215.879 40.8877 216.139 39.6565 216.009C38.9437 215.944 37.7126 217.208 36.8378 217.921C36.0602 218.536 35.5742 218.568 35.5742 218.568C35.5742 218.568 36.4814 217.273 37.6154 216.236C39.0085 215.005 40.6933 213.968 41.1145 213.806C41.8597 213.514 44.16 213.482 45.8124 213.741C47.6591 214 49.5707 214.843 47.0759 214.778Z" fill="#FFE3CA"/>
<path d="M41.2768 213.838C41.2768 213.838 38.62 214.486 38.1665 214.843C37.8425 215.102 36.4817 216.56 36.4817 216.56C36.4817 216.56 37.4537 216.398 38.0369 215.847C38.62 215.329 41.2768 213.838 41.2768 213.838Z" fill="#FFE3CA"/>
<path d="M60.8132 213.838L71.5698 208.168C71.5698 208.168 71.6022 215.037 71.667 217.661C71.7318 220.286 72.8333 223.979 70.7598 224.53C68.6862 225.081 67.6171 224.789 69.7554 226.053C71.8938 227.284 71.4078 228.58 70.5978 229.649C69.7878 230.718 73.3193 241.604 72.4769 242.22C69.1398 238.008 65.5435 232.792 63.9884 229.001C62.012 224.076 61.2344 218.439 60.8132 213.838Z" fill="#0E538C"/>
<path d="M64.2801 211.084L63.8589 189.182C63.8589 189.182 63.8913 182.346 64.0209 180.337C64.1505 178.264 67.682 180.694 67.682 180.694C67.682 180.694 72.6391 187.4 72.7363 203.568C72.8011 214.389 72.2179 220.026 67.2284 219.573C62.5953 219.152 57.3143 218.439 57.3143 218.439L55.0139 212.445L64.2801 211.084Z" fill="#2A94F4"/>
<path d="M63.1785 222.651L26.1462 218.018L26.2434 217.24L63.2757 221.873L63.1785 222.651Z" fill="#D3D3D3"/>
<path d="M46.9465 219.8C46.8817 220.415 46.3957 220.869 45.8773 220.804L26.8914 218.439C26.373 218.374 25.725 217.888 25.2714 216.268L17.9492 197.315C18.0464 196.537 18.662 196.148 19.1804 196.343L38.5875 199.388C39.1059 199.583 39.4623 200.036 39.6567 200.879L46.9465 219.8Z" fill="#D3D3D3"/>
<path d="M44.5491 220.318L44.7434 220.35L63.2758 222.683C62.563 222.975 61.429 223.072 60.1655 222.91L44.6462 220.966L44.4518 220.934L28.9326 218.99C27.6691 218.828 26.5999 218.439 25.9519 218.018L44.5491 220.318Z" fill="#D3D3D3"/>
<path d="M64.2801 211.084L63.8589 189.182C63.8589 189.182 64.1829 187.336 64.8309 185.683C64.9929 188.081 66.0945 205.35 66.2241 207.618C66.3861 210.08 68.3948 210.339 68.816 211.149C69.2696 211.927 68.8808 212.089 67.3905 211.797C65.9325 211.473 66.4509 211.732 66.7749 212.51C67.0989 213.32 66.2889 213.093 63.4378 212.056C61.3642 211.311 57.3791 212.056 55.3704 212.51L64.2801 211.084Z" fill="#0E538C"/>
<path d="M192.322 157.334C188.758 158.274 182.181 161.578 180.788 167.248C178.714 175.769 182.861 188.243 176.316 200.49C174.21 204.378 212.506 209.626 212.506 209.626L219.893 166.6C219.893 166.6 210.66 157.269 208.78 156.621C204.86 155.325 199.449 155.455 192.322 157.334Z" fill="#CCE9FF"/>
<path d="M219.926 166.633C221.254 170.067 224.624 190.511 220.866 195.338C220.444 195.889 222.809 196.764 222.388 199.291C222.323 199.712 221.611 201.753 221.611 201.753L218.565 202.563L211.923 194.885C211.923 194.885 214.612 190.705 218.144 174.862C219.181 170.196 219.634 165.855 219.926 166.633Z" fill="#2A94F4"/>
<path d="M194.784 191.062C194.784 191.062 197.991 199.518 205.735 201.786C207.063 202.174 207.906 203.665 207.258 204.151C206.415 204.766 205.314 204.896 203.37 204.896C199.32 204.896 193.812 203.6 190.021 199.777C184.384 194.139 182.602 191.548 183.185 188.729C183.703 185.845 194.784 191.062 194.784 191.062Z" fill="#FCD2B1"/>
<path d="M181.889 164.397C180.237 167.183 179.297 171.654 179.33 178.07C179.33 183.027 183.477 191.159 184.092 193.654C184.19 194.075 184.449 195.857 184.449 195.857L189.017 200.522L198.186 194.075L195.4 189.636L194.557 189.733C194.557 189.733 194.039 187.271 194.168 186.331C194.298 185.392 191.641 172.594 190.313 164.397C189.568 159.634 183.509 161.643 181.889 164.397Z" fill="#2A94F4"/>
<path d="M190.118 189.539L192.808 188.696L193.909 188.405C193.974 189.182 194.622 189.701 194.622 189.701L192.516 189.96L190.086 190.738L187.235 192.779L190.118 189.539Z" fill="#0E538C"/>
<path d="M205.152 201.753L209.817 200.425C209.817 200.425 211.146 202.272 210.887 202.725C210.627 203.179 210.887 205.9 210.887 205.9L208.619 207.909L206.772 207.261C206.772 207.261 206.642 206.419 207.258 206.354C207.906 206.257 206.837 205.803 206.513 205.609C206.189 205.382 203.5 203.956 205.152 201.753Z" fill="#FCD2B1"/>
<path d="M197.959 156.913C197.441 158.436 198.218 160.153 199.709 160.671L202.365 161.643C203.856 162.194 205.476 161.352 205.994 159.829L208.359 152.831C208.878 151.308 208.1 149.591 206.61 149.04L203.953 148.068C202.463 147.517 200.843 148.359 200.324 149.882L197.959 156.913Z" fill="#FF957E"/>
<path d="M209.558 163.069C209.299 164.073 208.262 164.689 207.29 164.397L199.287 162.097C198.316 161.805 197.732 160.768 197.992 159.732L201.264 147.452C201.523 146.448 202.56 145.832 203.532 146.124L211.534 148.392C212.506 148.683 213.09 149.72 212.83 150.757L209.558 163.069Z" fill="#FCD2B1"/>
<path d="M213.705 149.526C213.77 149.461 212.96 148.554 213.381 146.772C213.932 144.374 212.15 143.402 210.822 143.37C210.044 143.338 207.42 144.601 206.027 145.022C204.633 145.443 204.763 144.893 202.236 144.439C200.551 144.115 200.162 145.055 199.579 146.351C198.996 147.679 198.931 152.733 198.931 152.733C199.158 153.057 199.514 153.316 199.741 153.057C199.968 152.798 200.875 148.748 201.62 147.549C202.333 146.351 205.249 148.262 206.837 149.202C208.392 150.141 209.785 150.303 212.28 149.785C212.571 150.109 212.83 150.465 212.83 150.627C212.83 150.951 212.118 153.252 212.118 153.252C212.118 153.252 213.511 152.377 213.9 151.697C214.094 151.47 214.159 150.368 213.705 149.526Z" fill="#4F008B"/>
<path d="M200.519 157.172C200.422 157.496 200.098 157.723 199.774 157.626L198.056 157.14C197.732 157.042 197.538 156.686 197.635 156.362L198.51 153.09C198.607 152.766 198.931 152.539 199.255 152.636L200.972 153.122C201.296 153.219 201.491 153.576 201.394 153.9L200.519 157.172Z" fill="#FCD2B1"/>
<path d="M199.45 154.062C199.45 154.062 198.154 158.889 197.732 160.509C197.344 161.967 197.052 165.337 204.99 167.605C209.688 168.933 210.465 165.304 210.789 164.138C211.016 163.231 210.757 160.282 210.401 159.634C210.401 159.602 209.882 161.643 209.882 161.643C209.882 161.643 209.429 159.408 207.193 158.792C203.597 157.755 202.171 159.732 200.616 159.213C199.385 158.792 199.028 156.459 199.45 154.062Z" fill="#4F008B"/>
<path d="M204.86 161.481L207.322 162.194C207.646 162.291 208.003 162.097 208.068 161.74L208.165 161.384L204.504 160.347L204.406 160.703C204.342 161.06 204.536 161.384 204.86 161.481Z" fill="#FCD2B1"/>
<path d="M243.901 210.566C242.767 213.838 222.809 225.858 216.103 225.146L195.918 226.15C178.779 223.979 170.647 196.375 170.647 196.375C171.327 189.442 188.239 199.485 194.266 202.596C203.791 207.52 209.85 207.78 209.85 207.78C216.232 208.46 223.619 203.341 231.687 203.179C240.532 202.952 245.716 205.414 243.901 210.566Z" fill="#0B4870"/>
<path d="M200.033 207.261C200.033 207.229 200.033 207.229 200.033 207.261V206.354L234.732 205.706V206.613L234.635 206.775C234.214 207.553 233.404 207.682 232.497 207.715L202.301 208.298C201.393 208.33 200.584 208.201 200.13 207.456L200.033 207.261Z" fill="#D3D3D3"/>
<path d="M208.392 207.229C208.392 207.229 208.392 207.261 208.392 207.229L208.295 207.391C208.165 207.585 208.003 207.747 207.809 207.844L202.528 207.942C201.653 207.974 200.875 207.877 200.422 207.261L200.324 207.132L200.292 207.099V206.678L208.327 206.516L208.392 207.229ZM213.09 206.905L230.423 206.581V205.965L213.057 206.322L213.09 206.905ZM208.586 206.16L212.766 188.405C212.863 187.951 213.316 187.562 213.77 187.53L238.134 187.076C238.588 187.076 238.847 187.433 238.75 187.919L234.57 205.674L208.586 206.16Z" fill="#D3D3D3"/>
<path d="M192.873 230.718C195.27 231.139 197.117 228.256 197.117 228.256L203.338 223.202L202.009 219.767L189.892 225.405C189.892 225.405 190.443 230.297 192.873 230.718Z" fill="#FCD2B1"/>
<path d="M197.084 228.061C197.084 228.061 197.084 228.353 196.631 229.681C196.177 231.01 195.594 231.463 195.011 231.658C192.678 232.371 191.026 232.014 185.453 233.116C179.88 234.217 178.196 233.375 176.576 230.718C174.956 228.061 176.641 225.956 179.362 225.761C183.282 225.47 185.485 225.923 187.527 225.599C189.665 225.275 189.795 224.757 191.058 223.947C192.225 223.202 193.326 227.673 192.225 228.709C191.22 229.617 196.274 229.746 197.084 228.061Z" fill="#4F008B"/>
<path d="M195.918 230.621C193.618 231.334 191.933 230.977 186.36 232.079C180.788 233.181 179.103 232.338 177.483 229.681C176.738 228.45 176.705 227.349 177.127 226.506C175.895 227.381 175.474 228.904 176.576 230.718C178.196 233.375 179.88 234.217 185.453 233.116C191.026 232.014 192.711 232.371 195.011 231.658C195.465 231.528 195.918 231.204 196.307 230.459C196.177 230.524 196.048 230.589 195.918 230.621Z" fill="white"/>
<path d="M197.084 228.159V228.094C197.084 228.126 197.052 228.159 197.02 228.191C197.052 228.159 197.084 228.159 197.084 228.159Z" fill="#E9D6B8"/>
<path d="M185.064 230.135C184.902 230.2 184.74 229.843 184.675 229.357C184.578 228.353 184.351 227.381 184.027 226.377C183.865 225.891 183.865 225.47 184.06 225.405C184.254 225.34 184.578 225.696 184.708 226.182C185.032 227.154 185.226 228.159 185.323 229.131C185.388 229.617 185.226 230.07 185.064 230.135ZM186.781 229.811C186.587 229.843 186.425 229.519 186.36 229.066C186.263 228.126 186.036 227.187 185.712 226.279C185.55 225.826 185.55 225.437 185.777 225.405C185.971 225.372 186.295 225.729 186.457 226.182C186.749 227.089 186.976 228.029 187.073 228.936C187.105 229.39 186.976 229.779 186.781 229.811ZM188.596 229.746C188.401 229.779 188.207 229.422 188.142 228.936C187.98 227.964 187.753 227.025 187.397 226.053C187.235 225.567 187.235 225.178 187.429 225.178C187.656 225.178 187.98 225.534 188.142 226.02C188.498 226.96 188.725 227.932 188.855 228.871C188.92 229.325 188.79 229.714 188.596 229.746Z" fill="white"/>
<path d="M193.294 222.456C193.294 222.456 235.963 204.28 238.393 204.248C246.623 204.183 244.744 212.801 240.564 216.884C235.639 221.679 198.186 230.459 198.186 230.459L193.294 222.456Z" fill="#0E538C"/>
<path d="M210.206 225.632L198.542 214.162L203.532 209.076L216.232 222.942L210.206 225.632Z" fill="#FCD2B1"/>
<path d="M212.604 216.625C212.604 216.625 182.958 188.47 180.982 187.627C174.211 184.776 170.031 192.52 170.258 195.209C170.582 198.675 200.681 226.863 200.681 226.863L212.604 216.625Z" fill="#0E538C"/>
<path d="M230.164 226.506C230.844 227.154 230.974 229.131 230.974 229.131C230.974 229.131 221.092 233.019 217.625 233.083C216.718 233.116 215.098 232.727 213.543 232.273C213.284 232.209 212.668 231.496 212.409 231.431C211.923 231.301 211.826 231.755 211.437 231.625C210.4 231.269 209.623 230.977 209.59 230.913C207.484 226.312 208.197 224.044 208.197 224.044C208.197 224.044 212.733 225.405 211.956 224.336C210.303 222.068 215.066 219.767 216.103 220.966C220.379 225.794 228.155 224.595 230.164 226.506Z" fill="#4F008B"/>
<path d="M230.715 227.478C227.669 228.742 221.287 231.301 220.023 231.399C214.807 231.787 211.178 229.876 208.748 228.742C208.975 229.39 209.234 230.135 209.59 230.913C209.623 230.977 210.368 231.269 211.437 231.625C211.858 231.755 211.956 231.269 212.409 231.431C212.668 231.496 213.252 232.209 213.543 232.273C215.098 232.727 216.718 233.083 217.625 233.083C221.092 233.019 230.974 229.131 230.974 229.131C230.974 229.131 230.974 228.223 230.715 227.478ZM223.749 224.498C223.846 224.692 223.457 224.886 222.907 225.016C221.773 225.243 220.671 225.599 219.569 226.053C219.019 226.28 218.533 226.344 218.468 226.15C218.403 225.956 218.759 225.599 219.31 225.372C220.379 224.919 221.513 224.595 222.615 224.368C223.133 224.206 223.652 224.303 223.749 224.498ZM221.513 223.688C221.611 223.882 221.222 224.141 220.671 224.303C219.569 224.627 218.5 225.081 217.431 225.632C216.913 225.891 216.427 225.988 216.362 225.794C216.297 225.599 216.653 225.178 217.172 224.919C218.209 224.4 219.278 223.947 220.379 223.655C220.93 223.428 221.449 223.493 221.513 223.688ZM219.375 222.975C219.44 223.169 219.083 223.461 218.565 223.655C217.496 224.076 216.459 224.595 215.455 225.21C214.969 225.534 214.515 225.632 214.45 225.405C214.386 225.21 214.71 224.757 215.228 224.433C216.232 223.817 217.269 223.299 218.306 222.91C218.824 222.748 219.31 222.78 219.375 222.975Z" fill="white"/>
</svg>
