<svg width="310" height="310" viewBox="0 0 310 310" fill="none" xmlns="http://www.w3.org/2000/svg">
<path d="M259.972 278.797C269.895 273.422 279.855 267.672 287.515 259.385C295.176 251.098 300.325 239.794 298.744 228.62C297.29 218.345 290.47 209.485 288.66 199.267C285.553 181.731 297.559 165.268 300.361 147.682C302.467 134.457 299.064 120.441 291.127 109.655C283.891 99.8226 273.24 92.7687 266.709 82.4548C257.908 68.5565 257.453 50.0977 246.704 37.6435C238.919 28.6225 227.096 24.3832 215.796 20.6021C195.77 13.9012 175.332 7.43801 154.228 6.6719C133.125 5.9058 110.953 11.5004 95.7147 26.1212C90.9786 30.6656 86.9417 36.1015 84.8994 42.3397C80.0706 57.09 86.9839 72.7407 91.3181 87.6436C92.166 90.5591 92.9215 93.6355 92.2811 96.6032C91.6502 99.5267 89.7363 101.996 87.719 104.204C78.3199 114.492 65.8106 121.284 53.7395 128.246C41.6685 135.209 29.4705 142.822 21.3345 154.135C13.1981 165.448 10.0051 181.401 17.0766 193.408C19.8201 198.067 24.0051 202.078 25.1165 207.368C27.0813 216.721 18.9297 224.717 14.1359 232.984C6.17663 246.71 7.64569 265.295 17.6627 277.601C27.6797 289.907 45.5802 295.116 60.6362 290.108L259.972 278.797Z" fill="#262626"/>
<path d="M42.0268 277.038C43.5283 250.011 23.5083 213.554 2.98745 211.762C-4.52001 227.488 8.43168 269.095 27.5466 276.709C46.6619 284.323 42.0268 277.038 42.0268 277.038Z" fill="#2A94F4"/>
<path d="M30.1748 270.742C30.0772 268.712 29.6868 266.566 29.2166 264.453C28.7402 262.333 28.1652 260.217 27.5435 258.111C26.2975 253.9 24.8554 249.728 23.2974 245.6C21.7353 241.472 20.0521 237.385 18.2096 233.37C17.2834 231.365 16.3166 229.378 15.2687 227.433C14.7362 226.467 14.198 225.501 13.6018 224.572C13.0097 223.642 12.3911 222.718 11.6086 221.932C12.4373 222.672 13.1147 223.564 13.7637 224.462C14.4179 225.36 15.0149 226.297 15.6071 227.237C16.7742 229.127 17.8617 231.064 18.91 233.022C20.9965 236.943 22.9282 240.945 24.7435 245.004C26.5552 249.064 28.2551 253.178 29.7726 257.38C30.5304 259.482 31.2443 261.605 31.868 263.774C32.4834 265.949 33.0368 268.147 33.2957 270.534L30.1748 270.742Z" fill="#4F008B"/>
<path d="M51.8179 271.568C51.8179 271.568 51.4301 272.638 49.7564 272.972C49.4185 273.041 49.0276 273.079 48.5769 273.069C46.725 273.041 43.8566 272.25 39.4552 269.66C28.6973 263.322 28.4941 237.537 34.4533 228.803C46.5938 231.778 55.2213 255.498 51.8179 271.568Z" fill="#0E538C"/>
<path d="M49.7564 272.972C49.4186 273.041 49.0276 273.079 48.577 273.069C48.5707 272.997 48.5615 272.929 48.5552 272.857C48.1611 269.253 47.5698 265.659 46.8504 262.093C46.134 258.523 45.2832 254.979 44.2697 251.482C43.7599 249.733 43.2062 247.994 42.5678 246.289C42.4019 245.867 42.2455 245.438 42.0673 245.019L41.8046 244.387L41.523 243.768C41.1321 242.948 40.7254 242.126 40.178 241.394C40.7503 242.107 41.1883 242.914 41.6106 243.724L41.9171 244.337L42.2019 244.96C42.3959 245.376 42.5678 245.798 42.7493 246.217C43.4499 247.906 44.0693 249.63 44.6417 251.363C45.7835 254.838 46.7658 258.364 47.6165 261.924C48.4673 265.483 49.1869 269.075 49.7188 272.71L49.7564 272.972Z" fill="#0E538C"/>
<path d="M101.186 271.753C101.186 271.753 100.845 272.691 99.3786 272.984C99.0824 273.045 98.7397 273.078 98.345 273.069C96.7218 273.045 94.2077 272.351 90.3502 270.081C80.9213 264.526 80.743 241.925 85.966 234.271C96.6067 236.878 104.168 257.669 101.186 271.753Z" fill="#51AEF4"/>
<path opacity="0.5" d="M99.3786 272.984C99.0824 273.045 98.7397 273.078 98.345 273.069C98.3395 273.006 98.3312 272.946 98.3258 272.883C97.9805 269.724 97.4621 266.574 96.8314 263.448C96.2037 260.32 95.4577 257.214 94.5696 254.148C94.1227 252.616 93.6373 251.091 93.0782 249.597C92.9329 249.227 92.7957 248.851 92.6396 248.484L92.4093 247.93L92.1625 247.387C91.8198 246.669 91.4633 245.948 90.9836 245.306C91.4854 245.931 91.8692 246.639 92.2394 247.349L92.5081 247.886L92.7575 248.432C92.9275 248.796 93.0784 249.167 93.2375 249.534C93.8517 251.014 94.3945 252.525 94.8962 254.044C95.8969 257.09 96.758 260.18 97.5037 263.3C98.2494 266.42 98.88 269.568 99.3462 272.754L99.3786 272.984Z" fill="#51AEF4"/>
<path d="M267.398 277.038C265.896 250.011 285.916 213.554 306.437 211.762C313.945 227.488 300.993 269.095 281.878 276.709C262.763 284.323 267.398 277.038 267.398 277.038Z" fill="#0E538C"/>
<path d="M279.25 270.742C279.348 268.712 279.738 266.566 280.208 264.453C280.685 262.333 281.26 260.217 281.881 258.111C283.127 253.9 284.569 249.728 286.127 245.6C287.689 241.472 289.373 237.385 291.215 233.37C292.141 231.365 293.108 229.378 294.156 227.433C294.689 226.467 295.227 225.501 295.823 224.572C296.415 223.642 297.034 222.718 297.816 221.932C296.987 222.672 296.31 223.564 295.661 224.462C295.007 225.36 294.41 226.297 293.818 227.237C292.651 229.127 291.563 231.064 290.515 233.022C288.428 236.943 286.497 240.945 284.681 245.004C282.87 249.064 281.17 253.178 279.652 257.38C278.894 259.482 278.181 261.605 277.557 263.774C276.941 265.949 276.388 268.147 276.129 270.534L279.25 270.742ZM227.578 278.047C228.597 259.695 215.003 234.939 201.069 233.723C195.971 244.401 204.766 272.653 217.745 277.823C230.725 282.993 227.578 278.047 227.578 278.047Z" fill="#0E538C"/>
<path d="M219.53 273.771C219.464 272.393 219.199 270.935 218.88 269.501C218.556 268.061 218.166 266.624 217.744 265.195C216.897 262.335 215.918 259.502 214.86 256.699C213.8 253.896 212.657 251.121 211.405 248.395C210.777 247.033 210.12 245.684 209.409 244.364C209.047 243.707 208.681 243.052 208.277 242.421C207.875 241.789 207.455 241.162 206.923 240.628C207.486 241.13 207.946 241.736 208.387 242.346C208.831 242.956 209.236 243.592 209.638 244.23C210.431 245.514 211.169 246.829 211.881 248.158C213.298 250.821 214.61 253.539 215.842 256.295C217.072 259.052 218.227 261.845 219.257 264.698C219.771 266.126 220.256 267.567 220.68 269.04C221.098 270.517 221.474 272.01 221.649 273.631L219.53 273.771Z" fill="#0E538C"/>
<path d="M221.759 271.985C222.217 263.151 229.998 252.008 236.728 252.145C238.616 257.517 232.951 270.581 226.475 272.385C219.998 274.189 221.759 271.985 221.759 271.985Z" fill="#51AEF4"/>
<path d="M225.829 270.354C225.932 269.698 226.134 269.014 226.361 268.344C226.59 267.672 226.851 267.005 227.127 266.343C227.679 265.018 228.293 263.713 228.944 262.427C229.597 261.141 230.287 259.872 231.026 258.632C231.397 258.013 231.781 257.401 232.189 256.806C232.396 256.51 232.605 256.215 232.831 255.935C233.056 255.653 233.289 255.375 233.571 255.147C233.276 255.358 233.024 255.624 232.782 255.893C232.538 256.162 232.311 256.445 232.086 256.73C231.643 257.305 231.217 257.893 230.81 258.494C229.997 259.697 229.225 260.927 228.495 262.182C227.765 263.438 227.068 264.715 226.428 266.027C226.108 266.683 225.802 267.348 225.523 268.031C225.247 268.716 224.99 269.411 224.823 270.178L225.829 270.354Z" fill="#4F008B"/>
<path d="M94.2812 271.985C94.7399 263.151 102.521 252.008 109.251 252.145C111.139 257.517 105.474 270.581 98.9972 272.385C92.5203 274.189 94.2812 271.985 94.2812 271.985Z" fill="#0E538C"/>
<path d="M98.3524 270.354C98.4551 269.698 98.6572 269.014 98.884 268.344C99.113 267.672 99.3739 267.005 99.6495 266.343C100.202 265.018 100.816 263.713 101.467 262.427C102.119 261.141 102.809 259.872 103.549 258.632C103.92 258.013 104.304 257.401 104.712 256.806C104.919 256.51 105.128 256.215 105.354 255.935C105.579 255.653 105.812 255.375 106.094 255.147C105.799 255.358 105.547 255.624 105.305 255.893C105.061 256.162 104.834 256.445 104.609 256.73C104.166 257.305 103.74 257.893 103.333 258.494C102.52 259.697 101.748 260.927 101.018 262.182C100.288 263.438 99.5912 264.715 98.9509 266.027C98.6311 266.683 98.3248 267.348 98.0461 268.031C97.77 268.716 97.5131 269.411 97.3455 270.178L98.3524 270.354Z" fill="#0E538C"/>
<path d="M257.607 271.568C257.607 271.568 257.995 272.638 259.668 272.972C260.006 273.041 260.397 273.079 260.848 273.069C262.7 273.041 265.568 272.25 269.97 269.66C280.727 263.322 280.931 237.537 274.971 228.803C262.831 231.778 254.203 255.498 257.607 271.568Z" fill="#2A94F4"/>
<path d="M259.668 272.972C260.006 273.041 260.397 273.079 260.848 273.069C260.854 272.997 260.863 272.929 260.87 272.857C261.264 269.253 261.855 265.659 262.574 262.093C263.291 258.523 264.142 254.979 265.155 251.482C265.665 249.733 266.219 247.994 266.857 246.289C267.023 245.867 267.179 245.438 267.358 245.019L267.62 244.387L267.902 243.768C268.293 242.948 268.7 242.126 269.247 241.394C268.675 242.107 268.237 242.914 267.814 243.724L267.508 244.337L267.223 244.96C267.029 245.376 266.857 245.798 266.676 246.217C265.975 247.906 265.356 249.63 264.783 251.363C263.641 254.838 262.659 258.364 261.808 261.924C260.958 265.483 260.238 269.075 259.706 272.71L259.668 272.972Z" fill="#2A94F4"/>
<path d="M306.132 303.397H3.8684C1.74088 303.397 0 301.656 0 299.528V272.543C0 270.415 1.74088 268.674 3.8684 268.674H306.131C308.259 268.674 310 270.415 310 272.543V299.528C310 301.656 308.259 303.397 306.132 303.397Z" fill="#262626"/>
<path d="M161.409 287.758C214.402 287.758 257.362 285.937 257.362 283.69C257.362 281.444 214.402 279.623 161.409 279.623C108.416 279.623 65.4563 281.444 65.4563 283.69C65.4563 285.937 108.416 287.758 161.409 287.758Z" fill="#262626"/>
<path d="M128.341 80.8753L166.577 56.0586L170.654 44.2815L170.402 57.4186L138.05 85.5718L128.341 80.8753Z" fill="#DF9481"/>
<path d="M113.788 89.6058L137.997 74.6029L142.894 92.5597L115.551 110.516L113.788 89.6058Z" fill="#4F008B"/>
<path opacity="0.2" d="M113.788 89.6058L137.997 74.6029L142.894 92.5597L115.551 110.516L113.788 89.6058Z" fill="#4F008B"/>
<path d="M64.4901 201.586L54.3241 221.884L52.8861 201.898L57.683 199.666L52.4265 198.874L52.4443 196.023L64.4422 195.757L64.4901 201.586Z" fill="#4F008B"/>
<path d="M103.211 138.312C103.211 138.312 114.84 182.378 111.474 188.192C108.108 194.006 63.8474 203.576 63.8474 203.576L63.7363 194.924C63.7363 194.924 94.67 180.591 98.3424 181.509C90.9982 174.777 83.7302 140.454 83.7302 140.454L103.211 138.312Z" fill="#093C59"/>
<path d="M57.2901 237.498L66.0023 258.461L49.9394 246.482L51.3875 241.394L47.3509 244.853L45.2056 242.975L52.8488 233.723L57.2901 237.498Z" fill="#4F008B"/>
<path d="M101.019 138.707C101.019 138.707 75.2019 199.955 59.751 241.394C50.2638 241.394 51.4326 232.172 51.4326 232.172C51.4326 232.172 70.1615 145.289 80.8264 132.479C97.2297 133.595 101.019 138.707 101.019 138.707Z" fill="#0B4870"/>
<path d="M83.7298 110.516L52.5168 139.379L35.6692 142.413L52.3848 143.518L85.5987 121.139L83.7298 110.516Z" fill="#DF9481"/>
<path d="M111.839 82.4028C118.951 82.4028 124.718 76.3142 124.718 68.8036C124.718 61.2929 118.951 55.2043 111.839 55.2043C104.726 55.2043 98.96 61.2929 98.96 68.8036C98.96 76.3142 104.726 82.4028 111.839 82.4028Z" fill="#0B4870"/>
<path d="M124.004 59.7097C124.004 59.7097 127.457 81.2575 123.451 85.5714C111.298 84.7428 108.26 80.1493 105.222 73.7963C102.183 67.4436 109.088 54.4618 124.004 59.7097Z" fill="#DF9481"/>
<path d="M127.045 59.6913C126.426 64.4131 108.117 76.4618 104.102 74.3589C103.529 65.757 108.328 50.1086 127.045 59.6913Z" fill="#0B4870"/>
<path d="M107.076 74.8239C105.546 73.2627 104.07 73.0813 103.825 75.0826C103.604 76.8926 105.977 79.5514 107.697 79.1318C109.418 78.7124 107.076 74.8239 107.076 74.8239Z" fill="#DF9481"/>
<path d="M107.709 57.3813C103.551 51.6592 96.2599 48.3744 89.2192 49.0512C86.8336 49.2805 84.4214 49.9686 82.5648 51.4844C80.7086 53.0003 79.5062 55.4527 79.9281 57.8119C80.6222 61.6926 85.2891 64.393 84.8482 68.3108C84.6547 70.0279 83.44 71.4961 81.981 72.422C80.522 73.348 78.8276 73.8173 77.1611 74.2743C73.417 75.301 69.556 76.3852 66.5324 78.8201C63.5087 81.255 61.5264 85.4271 62.8184 89.0883C63.658 91.4678 65.7889 93.6235 65.2743 96.0937C64.7438 98.6397 61.7216 99.8077 60.4176 102.058C59.14 104.262 59.8074 107.223 61.5026 109.125C63.1979 111.026 65.7103 112.012 68.215 112.476C72.253 113.226 77.1344 112.373 79.1342 108.785C80.5269 106.287 80.1127 103.153 79.1032 100.476C78.0937 97.7993 76.5422 95.3414 75.6705 92.6168C74.799 89.8923 74.7204 86.6694 76.4782 84.4127C78.323 82.0444 81.5671 81.4106 84.4974 80.7587C87.4278 80.1069 90.6745 78.984 91.8938 76.2408C92.996 73.7616 92.1151 70.5431 93.8247 68.4365C95.3624 66.5412 98.1765 66.5203 100.494 65.7565C103.685 64.7051 106.231 61.8915 106.959 58.6121L107.709 57.3813Z" fill="#0B4870"/>
<path d="M115.551 81.8289L114.952 89.0777L119.867 100.915L108.328 89.4021L107.709 78.2969L115.551 81.8289Z" fill="#DF9481"/>
<path d="M122.083 114.577L113.786 123.033L106.068 143.518L83.8564 135.642L76.3412 132.974L83.7289 126.514C83.7289 126.514 76.0906 118.554 74.6006 112.727C88.5236 100.931 99.212 91.4595 108.327 89.4028H110.757L119.868 100.913L122.083 114.577Z" fill="#4F008B"/>
<path opacity="0.5" d="M98.3422 113.628L83.8566 135.642L76.3411 132.975L83.7291 126.514L98.3422 113.628Z" fill="#4F008B"/>
<path d="M259.056 201.602L275.275 223.024L269.252 189.495L256.75 191.824L259.056 201.602Z" fill="#4F008B"/>
<path d="M219.869 146.704C215.085 160.942 209.344 181.138 216.691 192.612C224.038 204.086 260.421 202.285 260.421 202.285L258.984 191.697C258.984 191.697 233.777 186.554 234.872 183.276C235.967 179.998 242.288 156.343 241.331 153.161C240.375 149.979 239.067 140.395 239.067 140.395L219.869 146.704Z" fill="#0B4870"/>
<path d="M264.563 243.345L245.693 262.473L278.009 251.696L273.908 239.658L264.563 243.345Z" fill="#4F008B"/>
<path d="M221.675 144.014C221.93 149.087 262.791 244.068 262.791 244.068L274.774 241.194C274.774 241.194 253.077 153.97 250.854 142.546C248.631 131.121 221.675 144.014 221.675 144.014Z" fill="#0B4870"/>
<path d="M266.618 114.332L270.019 118.583L278.219 147.176L280.438 159.228L274.558 157.524L273.367 149.765L271.84 152.826L270.163 153.136L272.24 146.555L262.814 123.131L256.859 119.143L266.618 114.332ZM214.953 78.8858L175.518 56.0227L170.654 44.2815L170.402 57.4186L205.492 84.0642L214.953 78.8858Z" fill="#E98862"/>
<path d="M228.737 86.4051L210.043 72.8529L200.171 83.5066L222.583 102.919L228.737 86.4051Z" fill="#4F008B"/>
<path d="M228.737 86.4051C227.988 87.0727 220.779 92.5614 217.459 98.8249C214.139 105.089 217.693 149.301 217.693 149.301L256.307 147.357L248.599 114.696L256.294 123.006L269.676 111.762C269.676 111.762 255.439 92.3347 252.419 90.3136C246.757 86.5245 228.737 86.4051 228.737 86.4051ZM229.715 55.645C232.801 55.8741 247.987 58.3024 235.422 76.6811C232.783 81.5223 229.715 55.645 229.715 55.645Z" fill="#4F008B"/>
<path d="M216.516 59.9588C216.516 59.9588 214.59 79.2873 218.808 83.3943C221.832 83.0346 226.519 82.9373 228.525 82.189C234.544 79.9444 233.639 75.7663 235.986 72.9174C240.463 67.4821 231.148 53.9678 216.516 59.9588Z" fill="#E98862"/>
<path d="M227.774 79.1956L228.406 86.6826L227.108 90.9609C226.524 92.5973 228.614 93.8497 229.781 92.562L236.155 86.7412L235.672 72.933L227.774 79.1956Z" fill="#E98862"/>
<path d="M223.326 65.3076C221.865 65.2289 220.429 65.5679 218.993 65.8475C217.556 66.1271 215.958 66.21 214.741 65.3986C213.072 64.2857 212.754 61.9705 211.516 60.3918C210.634 59.268 209.33 58.5728 208.237 57.6543C208.076 57.5191 207.915 57.3721 207.834 57.1784C207.651 56.7404 207.937 56.2547 208.239 55.8882C209.313 54.5847 210.779 53.585 212.419 53.1788C214.058 52.7727 215.865 52.9868 217.306 53.8677C218.619 54.6708 219.649 56.0067 221.142 56.3833C223.395 56.9516 225.511 55.12 227.797 54.6995C228.595 54.5535 229.414 54.582 230.2 54.7831C230.698 54.9108 231.184 55.1117 231.584 55.4355C232.68 56.3245 232.927 57.9525 233.981 58.8917C235.078 59.8699 236.8 59.8811 237.889 60.8697C238.648 61.5591 238.962 62.5997 239.232 63.5888C239.571 64.8259 239.869 66.239 239.176 67.318C238.874 67.7884 238.1 71.972 237.623 72.2633C234.878 73.9393 232.015 70.612 229.398 69.3163C228.451 68.8476 227.692 68.0867 227.1 67.2115C226.609 66.4847 225.523 65.4261 223.326 65.3076Z" fill="#0B4870"/>
<path d="M232.676 67.1333L232.748 74.1304L234.143 74.0604L236.41 66.9453L232.676 67.1333Z" fill="#0B4870"/>
<path d="M234.592 68.0092C237.331 65.9267 238.206 66.6664 237.974 69.7865C237.743 72.9069 234.143 74.0602 234.143 74.0602L234.592 68.0092Z" fill="#E98862"/>
<path d="M222.519 120.069C224.715 119.958 226.302 116.038 226.064 111.313C225.826 106.587 223.853 102.846 221.657 102.957C219.461 103.067 217.874 106.988 218.112 111.713C218.35 116.439 220.323 120.18 222.519 120.069Z" fill="#4F008B"/>
<path d="M165.863 47.0334L159.504 40.3695M174.517 47.0334L180.876 40.3695M177.279 36.8349L177.697 36.3972M174.517 39.7291L176.55 37.599M168.088 39.7291L166.055 37.599" stroke="#4F008B" stroke-width="2" stroke-miterlimit="10" stroke-linecap="round"/>
<path d="M160.676 30.7517C154.501 30.7517 149.499 35.7568 149.499 41.9318C149.499 35.7568 144.494 30.7517 138.319 30.7517C144.494 30.7517 149.499 25.7467 149.499 19.5717C149.499 25.7467 154.501 30.7517 160.676 30.7517ZM185.488 76.397C182.395 76.397 179.89 78.9037 179.89 81.9965C179.89 78.9037 177.383 76.397 174.29 76.397C177.383 76.397 179.89 73.8903 179.89 70.7974C179.89 73.89 182.395 76.397 185.488 76.397Z" fill="#D7892F"/>
</svg>
