<svg width="390" height="390" viewBox="0 0 390 390" fill="none" xmlns="http://www.w3.org/2000/svg">
<path d="M75.3999 122.775C100.503 90.6002 137.849 73.0924 178.425 72.5659C198.422 72.3027 220.057 76.9892 237.711 86.4174C257.111 96.7817 273.136 114.952 277.036 136.597C279.727 151.502 280.728 163.897 289.1 177.057C295.88 187.71 310.511 196.446 313.215 209.144C316.433 224.263 294.502 240.204 283.822 246.366C231.299 298.899 209.573 300.232 170.872 294.775C149.948 291.824 126.639 256.704 110.747 241.914C103.405 235.089 97.8022 226.076 95.5467 216.258C93.2912 206.44 96.6387 194.483 90.5937 185.614C86.7554 179.982 79.7452 177.593 74.3697 173.407C55.8739 159 62.0749 139.834 75.3999 122.775Z" fill="#CCE9FF"/>
<path d="M237.91 50.8398H316.709C317.055 50.8398 317.386 50.9772 317.631 51.2216C317.875 51.466 318.012 51.7975 318.012 52.1431V107.572C318.012 107.917 317.875 108.249 317.631 108.493C317.386 108.738 317.055 108.875 316.709 108.875H237.91C237.564 108.875 237.233 108.738 236.988 108.493C236.744 108.249 236.606 107.917 236.606 107.572V52.1431C236.606 51.7975 236.744 51.466 236.988 51.2216C237.233 50.9772 237.564 50.8398 237.91 50.8398Z" fill="#F7F7F7"/>
<path d="M295.604 80.7073H309.728C310.005 80.7073 310.229 80.9312 310.229 81.2078V84.24C310.229 84.3058 310.216 84.3708 310.191 84.4316C310.166 84.4923 310.129 84.5475 310.082 84.5939C310.036 84.6404 309.981 84.6773 309.92 84.7024C309.859 84.7276 309.794 84.7405 309.728 84.7405H295.604C295.538 84.7405 295.473 84.7276 295.412 84.7024C295.352 84.6773 295.296 84.6404 295.25 84.5939C295.203 84.5475 295.167 84.4923 295.141 84.4316C295.116 84.3708 295.103 84.3058 295.103 84.24V81.2078C295.103 80.9312 295.327 80.7073 295.604 80.7073Z" fill="#0B4870"/>
<path d="M295.604 88.2571H309.728C310.005 88.2571 310.229 88.481 310.229 88.7576V91.7898C310.229 91.9226 310.176 92.0499 310.082 92.1437C309.988 92.2376 309.861 92.2903 309.728 92.2903H295.604C295.471 92.2903 295.344 92.2376 295.25 92.1437C295.156 92.0499 295.103 91.9226 295.103 91.7898V88.7576C295.103 88.481 295.327 88.2571 295.604 88.2571Z" fill="#0B4870"/>
<path d="M295.604 97.3862H309.728C310.005 97.3862 310.229 97.549 310.229 97.7499V99.9524C310.229 100.153 310.005 100.316 309.728 100.316H295.604C295.327 100.316 295.103 100.153 295.103 99.9524V97.7499C295.103 97.549 295.327 97.3862 295.604 97.3862ZM287.791 71.7112C283.674 60.0037 270.846 53.8505 259.138 57.9673C247.431 62.084 241.278 74.9121 245.394 86.6196C245.589 87.1688 245.802 87.7116 246.032 88.2472C250.997 99.6206 264.243 104.815 275.616 99.8494C286.436 95.1252 291.755 82.8327 287.791 71.7112ZM272.308 95.1404C263.958 98.1337 254.718 94.1362 251.183 86.0014C251.036 85.6602 250.897 85.3092 250.767 84.9517C247.632 76.1907 252.194 66.5476 260.955 63.4133C269.716 60.279 279.359 64.8407 282.494 73.6017C285.628 82.3627 281.066 92.0058 272.305 95.1401L272.304 95.1404H272.308Z" fill="#4F008B"/>
<path d="M250.552 74.2592L245.183 72.5822C248.049 63.4406 256.385 57.1132 265.961 56.8132L266.13 62.4357C258.95 62.6597 252.699 67.4043 250.552 74.2592Z" fill="#0B4870"/>
<path d="M251.186 86.0015L246.025 88.2473C245.826 87.7859 245.641 87.3188 245.469 86.8465C243.819 82.2508 243.716 77.2418 245.177 72.5823L250.546 74.2593C249.45 77.7518 249.527 81.5067 250.763 84.9518C250.9 85.3093 251.04 85.6603 251.186 86.0015Z" fill="#0B4870"/>
<path d="M274.134 92.6056C274.134 92.6056 273.045 90.7011 274.784 85.5953C276.455 80.6586 282.233 81.1071 284.069 84.2693C285.906 87.4316 285.285 89.3978 282.581 92.9663C279.877 96.5348 275.255 94.2501 274.134 92.6056ZM287.557 181.08C287.557 181.08 287.843 183.177 287.882 183.492C287.921 183.807 291.063 183.307 291.063 183.307L291.317 180.811C291.317 180.811 287.95 180.785 287.557 181.08Z" fill="#FCD2B1"/>
<path d="M287.843 183.225C287.843 183.225 286.848 184.489 285.893 185.039C284.937 185.588 283.416 185.806 282.844 186.378C282.435 186.787 281.346 188.558 285.35 188.523C289.354 188.487 291.284 188.773 291.713 188.097C292.142 187.421 291.093 183.082 291.093 183.082C291.093 183.082 290.101 183.358 287.843 183.225ZM286.497 128.232C286.497 128.232 288.122 133.24 287.898 137.559C287.674 141.879 288.73 146.604 289.159 151.115C289.637 156.146 291.587 168.051 291.658 170.742C291.73 173.433 291.356 182.026 291.356 182.026L287.456 182.117C287.456 182.117 284.177 161.317 283.325 159.178C282.474 157.04 278.262 141.911 278.125 140.215C277.989 138.518 286.497 128.232 286.497 128.232Z" fill="#0B4870"/>
<path d="M270.302 127.725C270.302 127.725 267.933 140.975 267.647 143.617C267.361 146.26 267.176 156.409 267.036 158.064C266.896 159.718 266.09 179.679 265.336 182.133H269.691C269.691 182.133 274.163 167.619 274.163 160.751C274.163 153.884 277.124 145.824 279.038 141.29C280.953 136.757 285.324 136.653 286.513 128.248C286.497 128.232 271.895 125.044 270.302 127.725Z" fill="#0B4870"/>
<path d="M275.714 93.9543C275.714 93.9543 276.204 95.3843 275.714 96.4048C275.223 97.4253 281.989 96.8111 281.989 96.8111C281.989 96.8111 281.684 94.7018 282.568 92.9663C283.452 91.2308 275.714 93.9543 275.714 93.9543Z" fill="#FCD2B1"/>
<path d="M286.812 129.324C286.812 129.324 284.378 131.823 270.085 128.934L270.302 127.709L286.552 128.32L286.812 129.324Z" fill="#0B4870"/>
<path d="M274.69 96.7362C274.69 96.7362 272.191 96.9897 271.476 97.1262C270.761 97.2627 265.951 96.2649 264.976 96.1512C264.001 96.0374 259.776 93.1677 259.649 92.8264C259.522 92.4852 257.091 86.3524 256.955 85.0264C256.818 83.7004 254.595 84.3764 254.787 85.2994C255.141 87.0089 255.6 91.1494 255.853 92.3617C256.123 93.6617 256.848 96.6029 257.257 96.9669C257.667 97.3309 261.453 100.217 265.158 101.432C267.432 102.191 269.613 103.206 271.658 104.458H289.926C289.926 104.458 297.034 94.3019 297.187 92.7582C297.339 91.2144 292.224 81.0582 291.203 79.7777C290.183 78.4972 288.707 80.1969 288.707 80.1969C288.707 80.1969 291.766 89.1669 292.172 90.4409C292.578 91.7149 288.6 97.3472 287.518 97.3634C286.436 97.3797 283.634 97.0222 282.393 96.9734C281.517 96.9042 280.657 96.7026 279.841 96.3754L274.69 96.7362Z" fill="#FCD2B1"/>
<path d="M266.825 103.519C266.825 103.519 269.061 105.008 269.266 107.556C269.538 110.241 270.016 112.902 270.696 115.515C271.102 116.893 270.338 126.89 270.234 127.605C270.13 128.32 284.375 130.016 286.559 128.32C286.559 128.32 287.173 118.986 287.427 116.331C287.68 113.675 288.906 107.25 289.315 106.386C289.725 105.521 294.671 98.5856 294.876 97.6593C294.876 97.6593 292.315 93.5806 290.479 93.5286C290.479 93.5286 287.554 96.9476 286.611 97.1036C285.669 97.2596 279.825 96.2001 279.825 96.1741C279.825 96.1481 279.175 97.0418 275.805 96.0213C275.805 96.0213 271.778 96.4763 271.122 96.5576C270.329 96.6616 264.813 95.8686 264.813 95.8686C264.813 95.8686 262.6 99.6028 262.987 101.491L266.825 103.519Z" fill="#0B4870"/>
<path d="M257.075 85.8357C257.075 85.8357 256.578 83.473 257.179 82.7937C257.52 82.407 258.342 81.3832 258.417 81.2337C258.492 81.0842 259.392 80.5837 259.392 80.3302C259.392 80.0767 258.528 79.7875 257.767 80.483C257.007 81.1785 256.545 81.328 256.246 81.2532C255.947 81.1785 255.512 78.6792 255.476 78.0585C255.44 77.4377 255.196 75.803 254.826 75.9167C254.455 76.0305 254.459 76.7422 254.459 76.7422C254.459 76.7422 254.007 75.5007 253.705 75.7477C253.402 75.9947 253.441 76.5927 253.441 76.5927C253.441 76.5927 252.879 75.8972 252.73 76.4042C252.636 76.7225 252.636 77.061 252.73 77.3792C252.73 77.3792 252.145 77.0542 252.109 77.8472C252.073 78.6402 252.278 80.9477 252.691 81.7765C253.103 82.6052 254.641 84.7665 254.836 85.6115C255.031 86.4565 257.075 85.8357 257.075 85.8357ZM289.195 81.6855C289.195 81.6855 287.495 78.8287 286.92 78.572C286.344 78.3152 285.526 78.1722 284.811 77.662C284.095 77.1517 283.153 76.726 283.205 76.557C283.257 76.388 284.095 76.4562 284.999 76.8462C285.902 77.2362 286.299 77.0477 286.38 76.8462C286.461 76.6447 285.899 75.1985 285.626 74.8605C285.353 74.5225 283.416 72.5855 283.741 72.28C284.066 71.9745 285.321 73.0632 285.525 73.2842C285.525 73.2842 284.521 71.175 284.914 71.0742C285.308 70.9735 286.036 71.7242 286.036 71.7242C286.036 71.7242 285.951 69.9237 287.888 72.8487C287.888 72.8487 287.482 71.8737 288.077 72.1987C288.671 72.5237 289.25 74.3405 289.438 75.2602C289.627 76.18 290.472 79.105 291.197 79.8102C291.921 80.5155 289.195 81.6855 289.195 81.6855Z" fill="#FCD2B1"/>
<path d="M282.568 92.9662C282.568 92.9662 281.674 93.0474 279.77 92.3909C277.865 91.7344 277.722 88.4032 277.309 88.7964C276.471 89.6024 275.684 89.0467 275.359 88.5689C275.359 88.5689 276.289 87.3437 275.857 86.7554C275.539 86.3545 275.157 86.0095 274.726 85.7349C273.543 84.7989 273.829 77.5092 282.162 82.2217C289.065 86.1249 282.568 92.9662 282.568 92.9662Z" fill="#0B4870"/>
<path d="M275.714 96.4048L275.928 95.4688C275.928 95.4688 279.828 95.3908 281.941 95.6995L282.165 96.8143C282.165 96.8143 279.448 98.046 275.714 96.4048ZM276.673 87.9808C277.027 87.3925 278.333 87.0058 278.489 88.66C278.606 89.96 276.153 91.3575 276.13 90.1583C276.077 89.3934 276.267 88.6314 276.673 87.9808Z" fill="#FCD2B1"/>
<path d="M86.8823 91.8286C86.8823 91.8286 86.0698 103.204 88.2961 104.585C89.6903 105.44 95.2511 108.319 95.0853 108.859C94.9196 109.398 91.9458 113.665 91.9458 113.665C91.9458 113.665 81.2663 106.636 80.9251 104.419C80.6001 102.255 81.4516 87.7402 82.9206 87.0707C84.0191 86.5702 84.5976 86.9829 85.9853 88.0131C87.9256 89.4561 86.8823 91.8286 86.8823 91.8286ZM85.6408 174.73L85.2671 177.378C85.2183 177.723 81.5751 177.174 81.5751 177.174L81.2793 174.431C81.2793 174.431 85.1858 174.401 85.6408 174.73Z" fill="#0B4870"/>
<path d="M85.3061 177.086C85.3061 177.086 86.4631 178.474 87.5811 179.082C88.6991 179.689 90.4573 179.926 91.1203 180.554C91.5981 181.005 92.8591 182.952 88.2116 182.913C83.5641 182.874 81.3216 183.189 80.8243 182.442C80.3271 181.694 81.5458 176.917 81.5458 176.917C81.5458 176.917 82.6476 177.326 85.3061 177.086Z" fill="#0E538C"/>
<path d="M103.922 174.73C103.922 174.73 103.597 177.034 103.545 177.379C103.493 177.723 99.8529 177.174 99.8529 177.174L99.5571 174.431C99.5571 174.431 103.464 174.402 103.922 174.73Z" fill="#0B4870"/>
<path d="M103.587 177.086C103.587 177.086 104.744 178.474 105.862 179.081C106.98 179.689 111.101 180.183 111.761 180.81C112.239 181.262 113.035 183.085 106.496 182.913C101.845 182.793 99.606 183.189 99.1055 182.442C98.605 181.694 99.827 176.917 99.827 176.917C99.827 176.917 100.864 177.352 103.587 177.086ZM86.9505 115.502C86.9505 115.502 83.5185 120.955 83.7752 125.885C84.032 130.816 83.4697 136.077 82.953 141.229C82.381 146.968 80.8145 158.912 80.73 161.983C80.6455 165.054 80.8405 176.608 80.8405 176.608L86.7945 176.563C86.7945 176.563 88.907 153.221 89.9307 150.797C90.9545 148.372 95.1567 130.838 95.329 128.901C95.5012 126.964 86.9505 115.502 86.9505 115.502Z" fill="#0E538C"/>
<path d="M105.017 116.243C105.017 116.243 106.373 129.642 106.714 132.658C107.055 135.674 106.824 148.746 106.993 150.631C107.162 152.516 105.853 172.458 105.531 176.257L98.9854 176.215C98.9854 176.215 98.5336 160.082 98.5336 152.246C98.5336 144.41 96.5251 135.284 94.2209 130.114C91.9166 124.943 86.6419 124.819 85.2249 115.225C85.2249 115.225 103.1 113.201 105.017 116.243Z" fill="#0E538C"/>
<path d="M90.5776 69.5306C90.5776 69.5306 94.6661 66.7973 97.5391 69.7256C100.412 72.6538 101.819 79.5308 99.7588 80.9023C97.6983 82.2738 94.1981 82.6378 92.5373 80.7723C90.8766 78.9068 89.1053 76.0696 88.6698 73.9961C88.2343 71.9226 89.5408 70.4048 90.5776 69.5306Z" fill="#FCD2B1"/>
<path d="M98.3677 81.3671C98.3677 81.3671 98.3157 84.2401 98.6309 84.8543C98.9462 85.4686 92.6639 85.4751 92.6639 85.4751C92.3288 83.3917 91.8345 81.3371 91.1852 79.3293C90.2199 76.5181 98.3677 81.3671 98.3677 81.3671Z" fill="#FCD2B1"/>
<path d="M91.3444 79.3001C91.3444 79.3001 91.9294 79.8981 93.5902 79.2221C95.2509 78.5461 96.8109 75.7576 97.4707 75.3221C98.1304 74.8866 98.0394 74.4771 98.0394 74.4771L98.6439 75.0296L99.4207 74.8963C99.4207 74.8963 98.2409 73.0113 99.0957 71.9258C99.9504 70.8403 96.4372 65.5428 91.3672 68.7798C91.3672 68.7798 87.3957 70.9508 88.1172 73.3298C88.8387 75.7088 90.1094 78.3251 91.3444 79.3001Z" fill="#4F008B"/>
<path d="M99.0048 84.7794C99.0048 84.7794 98.9853 83.6094 98.4556 83.4794C97.9258 83.3494 92.6056 82.8554 91.9556 83.1122V84.4999C91.9556 84.4999 93.2003 85.2637 99.0048 84.7794Z" fill="#CCE9FF"/>
<path d="M97.7177 73.6255C97.5259 73.242 96.2227 72.3255 96.1219 73.6613C96.0212 74.997 97.4024 76.427 97.9192 76.154C98.4359 75.881 98.2052 74.594 97.7177 73.6255Z" fill="#FCD2B1"/>
<path d="M89.3945 70.2324C89.3945 70.2324 83.5445 71.8022 91.1073 79.0627L89.3945 70.2324Z" fill="#4F008B"/>
<path d="M141.645 101.325L135.684 101.273C136.198 100.971 137.03 100.435 136.848 100.188C136.584 99.8399 134.898 100.607 134.212 100.678C133.581 100.74 132.529 100.659 131.729 100.951L129.844 101.754L131.57 103.35C131.57 103.35 134.687 103.798 135.6 103.86C137.085 103.967 141.622 102.199 141.697 101.93C141.833 101.449 141.645 101.325 141.645 101.325Z" fill="#FCD2B1"/>
<path d="M106.785 86.4012C102.993 85.7512 99.0048 84.7762 99.0048 84.7762L91.9458 84.5C91.9458 84.5 85.4685 85.9267 82.9173 87.0805C82.6735 87.191 82.6735 92.859 82.0105 94.3475L84.123 98.8097C84.123 98.8097 85.345 107.65 85.5985 111.579C85.7155 113.386 83.0798 128.502 83.0798 128.502C85.5874 129.159 88.1435 129.616 90.7237 129.867C95.5402 130.396 107.575 129.672 107.653 129.106C107.731 128.541 105.323 107.919 105.215 106.85C105.05 105.225 105.687 97.6397 105.687 97.6397C106.597 98.8585 111.842 103.431 114.406 104.884C116.226 105.917 120.698 105.287 122.015 105.154C124.865 104.861 132.74 104.299 132.893 104.019C133.013 103.85 132.438 100.981 132.109 100.87C131.781 100.76 121.657 100.272 119.109 100.402C118.072 100.457 114.699 96.6907 114.699 96.6907C114.699 96.6907 108.875 87.3405 106.785 86.4012ZM127.075 76.7195H145.733V93.0897L142.883 90.2427H127.075V76.7195Z" fill="#0B4870"/>
<path d="M127.858 57.8694H109.2V74.2396L112.047 71.3926H127.858V57.8694Z" fill="#CCE9FF"/>
<path d="M59.1499 242.057C62.0164 247.423 68.3637 248.414 72.3254 253.188C73.9504 255.138 75.2504 257.413 77.4149 258.807C80.7559 260.982 85.3189 260.582 89.1344 259.272C91.8092 258.352 94.5424 256.997 97.3471 257.501C99.8789 257.94 101.842 259.776 104.172 260.813C110.672 263.712 118.17 260.202 124.017 257.563C126.844 256.285 129.639 254.79 131.693 252.509C131.817 252.372 133.406 250.078 133.409 250.078L108.3 247.367C91.9067 245.593 75.4779 244.036 59.1499 242.047V242.057Z" fill="#4F008B"/>
<path d="M59.1499 242.057C59.4359 242.089 62.2472 239.353 62.9524 238.969C64.8695 237.908 67.0638 237.455 69.2444 237.669C71.6624 237.861 74.3599 238.219 76.2807 236.834C77.9057 235.667 78.4419 233.604 79.8069 232.183C81.7277 230.188 84.9061 229.804 87.7759 229.908C93.1514 230.116 98.2019 231.667 102.862 234.133C107.208 236.434 110.435 235.872 115.326 235.784C121.118 235.68 124.101 239.034 127.865 242.476C129.581 244.039 131.225 245.307 132.35 247.39C132.431 247.546 133.403 250.068 133.406 250.068L59.1499 242.057Z" fill="#4F008B"/>
<path d="M133.764 250.11C133.748 250.205 133.697 250.291 133.62 250.348C133.543 250.406 133.446 250.431 133.351 250.419L59.0949 242.405C59.0005 242.396 58.9133 242.351 58.8524 242.278C58.7914 242.206 58.7618 242.112 58.7699 242.018C58.7843 241.923 58.8358 241.837 58.9132 241.78C58.9905 241.723 59.0874 241.698 59.1826 241.712L133.439 249.724C133.533 249.732 133.62 249.777 133.681 249.85C133.742 249.922 133.772 250.016 133.764 250.11Z" fill="#F5FAFA"/>
<path d="M114.641 248.047C114.636 248.076 114.628 248.106 114.618 248.134C114.577 248.222 114.505 248.292 114.415 248.329C114.325 248.366 114.224 248.367 114.134 248.333C113.415 248.066 96.4796 241.725 93.1613 233.243C93.1419 233.199 93.1323 233.152 93.1332 233.104C93.1341 233.056 93.1455 233.009 93.1666 232.967C93.1877 232.924 93.218 232.886 93.2552 232.856C93.2925 232.827 93.3359 232.805 93.3823 232.794C93.4735 232.762 93.5737 232.765 93.6624 232.804C93.7512 232.842 93.8219 232.913 93.8601 233.002C97.0678 241.196 114.234 247.627 114.407 247.683C114.56 247.735 114.657 247.886 114.641 248.047ZM92.3683 245.645C92.3578 245.718 92.3249 245.786 92.2743 245.839C92.2237 245.893 92.1578 245.929 92.0856 245.944C91.9653 245.97 79.9988 248.807 79.1928 255.44C79.1784 255.535 79.1273 255.62 79.0507 255.677C78.9741 255.734 78.878 255.759 78.7833 255.746C78.689 255.738 78.6018 255.692 78.5408 255.62C78.4799 255.547 78.4502 255.453 78.4583 255.359C79.3228 248.245 91.3998 245.382 91.9133 245.265C92.0072 245.24 92.1068 245.254 92.1911 245.302C92.2754 245.349 92.3378 245.428 92.3651 245.521C92.3741 245.562 92.3752 245.604 92.3683 245.645Z" fill="#F5FAFA"/>
<path d="M50.5115 194.188C55.5945 191.844 63.076 188.916 68.4905 190.648C71.0905 191.477 73.6515 192.849 76.4725 193.079C79.7225 193.343 82.1307 191.62 85.2475 191.454C97.838 190.762 97.6267 205.488 107.871 206.671C110.38 206.96 112.986 206.323 115.502 206.577C118.729 206.902 121.501 208.676 123.454 210.883C127.029 214.923 129.304 220.162 130.627 225.15C131.524 228.527 133.409 231.325 133.273 234.972C133.273 235.157 132.801 238.05 132.811 238.056L50.5115 194.188Z" fill="#0B4870"/>
<path d="M50.5146 194.191C52.0941 195.058 51.6684 200.58 51.9512 202.072C52.6337 205.666 54.0962 209.453 56.5012 212.41C58.1002 214.389 60.5052 215.985 63.3262 216.196C64.3759 216.278 65.4907 216.174 66.4332 216.551C67.8307 217.11 68.4352 218.566 68.5262 219.927C68.8512 224.9 69.5012 228.988 75.5624 230.86C80.1124 232.271 87.1779 233.191 91.9944 232.996C93.7071 232.927 95.5142 232.716 97.0449 233.321C98.4327 233.873 99.3524 235.007 100.386 235.976C106.415 241.624 118.872 244.12 127.159 240.711C127.442 240.594 132.915 238.092 132.824 238.043L50.5146 194.191Z" fill="#0B4870"/>
<path d="M133.208 238.267C133.243 238.221 133.267 238.168 133.28 238.111C133.292 238.054 133.291 237.995 133.278 237.939C133.264 237.882 133.239 237.829 133.202 237.784C133.166 237.738 133.12 237.701 133.068 237.676L50.7812 193.817C50.6679 193.759 50.5381 193.743 50.4141 193.771C50.2901 193.799 50.1797 193.869 50.102 193.97C50.0667 194.016 50.0422 194.069 50.0301 194.126C50.018 194.183 50.0187 194.242 50.032 194.299C50.0454 194.355 50.0711 194.408 50.1074 194.453C50.1436 194.499 50.1895 194.536 50.2417 194.561L132.528 238.436C132.644 238.492 132.775 238.506 132.899 238.475C133.023 238.444 133.132 238.371 133.208 238.267Z" fill="#F5FAFA"/>
<path d="M112.018 226.973C112.059 226.917 112.085 226.852 112.093 226.783C112.101 226.714 112.091 226.644 112.064 226.58C112.037 226.516 111.993 226.46 111.938 226.418C111.882 226.376 111.817 226.349 111.748 226.34C110.773 226.099 87.9417 220.542 76.9242 226.59C76.8707 226.614 76.823 226.65 76.7844 226.694C76.7458 226.738 76.717 226.791 76.7001 226.847C76.6832 226.903 76.6785 226.962 76.6863 227.021C76.6941 227.079 76.7143 227.135 76.7454 227.185C76.8228 227.284 76.9339 227.352 77.0578 227.375C77.1817 227.399 77.3099 227.376 77.4182 227.311C88.0554 221.461 111.218 227.11 111.436 227.168C111.541 227.197 111.653 227.194 111.756 227.159C111.86 227.124 111.951 227.06 112.018 226.973ZM87.3372 213.817C87.3945 213.749 87.4259 213.662 87.4259 213.572C87.4259 213.482 87.3945 213.396 87.3372 213.327C87.2267 213.216 77.6749 202.078 82.8749 195C82.9102 194.954 82.9347 194.9 82.9468 194.843C82.9589 194.787 82.9582 194.728 82.9449 194.671C82.9315 194.615 82.9058 194.562 82.8695 194.516C82.8333 194.471 82.7874 194.434 82.7352 194.408C82.6214 194.351 82.491 194.334 82.3665 194.362C82.2419 194.39 82.131 194.46 82.0527 194.561C76.5017 202.173 86.1249 213.411 86.5409 213.886C86.6291 213.976 86.7467 214.032 86.8724 214.043C86.9981 214.054 87.1238 214.021 87.2267 213.947C87.2706 213.911 87.3079 213.867 87.3372 213.817ZM121.589 231.211C121.646 231.142 121.677 231.056 121.677 230.966C121.677 230.877 121.646 230.79 121.589 230.721C121.491 230.61 111.956 219.476 117.13 212.378C117.166 212.332 117.191 212.279 117.203 212.222C117.216 212.165 117.215 212.106 117.202 212.05C117.188 211.993 117.162 211.941 117.126 211.896C117.089 211.85 117.043 211.814 116.99 211.789C116.877 211.732 116.747 211.716 116.623 211.744C116.499 211.771 116.389 211.842 116.311 211.942C110.76 219.554 120.383 230.792 120.796 231.267C120.884 231.356 121.002 231.412 121.127 231.423C121.253 231.434 121.379 231.401 121.482 231.328C121.523 231.295 121.559 231.256 121.589 231.211Z" fill="#F5FAFA"/>
<path d="M320.492 193.632L320.551 193.58C317.652 193.277 315.763 191.613 312.448 192.575C310.037 193.277 307.817 194.587 305.419 195.325C301.236 196.625 298.064 194.207 293.803 195.201C287.661 196.625 281.635 199.875 278.005 205.182C275.168 209.345 273.809 214.695 269.88 217.808C267.335 219.83 264.085 220.577 261.209 222.033C250.581 227.454 249.704 240.945 247.734 251.387C246.711 256.815 249.034 254.485 251.683 252.213L273.881 233.311C289.422 220.09 305.003 206.911 320.492 193.632Z" fill="#0B4870"/>
<path d="M320.492 193.632C320.843 196.177 319.459 197.945 319.127 200.304C318.851 202.254 319.384 204.363 319.143 206.385C318.616 210.841 316.779 215.04 313.865 218.452C311.964 220.646 309.572 222.563 308.568 225.297C307.807 227.364 307.95 229.639 307.424 231.774C306.54 235.388 303.784 238.329 300.625 240.224C294.72 243.77 287.664 244.67 281.687 248.056C278.645 249.779 276.113 252.32 273.182 254.231C267.296 258.086 254.683 258.694 248.722 254.751C249.32 255.148 261.81 243.594 262.697 242.84L291.947 217.935C301.454 209.843 311.025 201.763 320.492 193.632Z" fill="#0B4870"/>
<path d="M248.355 255.066C248.279 254.968 248.244 254.843 248.257 254.719C248.27 254.595 248.331 254.481 248.427 254.4L320.203 193.271C320.249 193.23 320.302 193.199 320.36 193.18C320.418 193.161 320.479 193.153 320.54 193.158C320.601 193.164 320.66 193.181 320.714 193.21C320.768 193.239 320.815 193.278 320.853 193.326C320.926 193.423 320.959 193.544 320.946 193.665C320.934 193.785 320.876 193.896 320.785 193.976L249.005 255.125C248.961 255.164 248.909 255.194 248.852 255.213C248.796 255.232 248.737 255.239 248.678 255.235C248.618 255.231 248.561 255.216 248.507 255.189C248.454 255.163 248.407 255.126 248.368 255.081L248.355 255.066Z" fill="#F5FAFA"/>
<path d="M266.841 239.323C266.797 239.266 266.767 239.2 266.752 239.13C266.736 239.06 266.737 238.987 266.754 238.917C266.77 238.847 266.802 238.781 266.847 238.725C266.892 238.669 266.949 238.624 267.014 238.592C267.885 238.173 288.49 228.4 299.325 233.168C299.433 233.223 299.516 233.317 299.557 233.431C299.597 233.545 299.593 233.67 299.544 233.781C299.496 233.892 299.407 233.98 299.295 234.028C299.184 234.075 299.058 234.078 298.945 234.036C288.48 229.43 267.595 239.343 267.387 239.444C267.296 239.487 267.193 239.499 267.094 239.477C266.995 239.456 266.906 239.401 266.841 239.323ZM288.373 221C288.313 220.925 288.277 220.834 288.27 220.738C288.263 220.642 288.285 220.546 288.334 220.464C288.412 220.327 296.104 206.664 290.576 199.8C290.499 199.702 290.464 199.577 290.476 199.453C290.489 199.329 290.549 199.215 290.644 199.134C290.689 199.095 290.741 199.065 290.797 199.045C290.853 199.026 290.912 199.018 290.972 199.022C291.031 199.026 291.089 199.041 291.142 199.067C291.195 199.094 291.243 199.13 291.282 199.175L291.294 199.189C297.226 206.554 289.461 220.34 289.127 220.925C289.069 221.032 288.971 221.111 288.854 221.146C288.737 221.18 288.612 221.167 288.505 221.109L288.496 221.104C288.448 221.079 288.406 221.043 288.373 221Z" fill="#F5FAFA"/>
<path d="M339.17 228.703C334.243 225.368 326.901 221.033 320.989 222.144C318.162 222.677 315.266 223.811 312.293 223.649C308.864 223.457 306.625 221.205 303.417 220.558C290.417 217.932 288.324 234.208 277.462 234.007C274.804 233.958 272.188 232.869 269.526 232.778C266.113 232.658 262.948 234.208 260.566 236.353C256.211 240.282 253.019 245.729 250.861 251.037C249.399 254.631 247 257.429 246.568 261.485C246.548 261.69 246.568 264.95 246.568 264.953L339.17 228.703Z" fill="#4F008B"/>
<path d="M339.17 228.706C337.386 229.427 336.966 235.586 336.44 237.188C335.166 241.056 333.05 245.018 330.096 247.913C328.12 249.863 325.364 251.267 322.403 251.089C321.298 251.024 320.154 250.741 319.111 251.02C317.57 251.43 316.712 252.948 316.404 254.439C315.279 259.873 313.979 264.293 307.365 265.463C302.386 266.344 294.895 266.318 289.906 265.395C288.132 265.07 286.283 264.566 284.593 265.012C283.062 265.418 281.924 266.533 280.693 267.449C273.543 272.792 260.156 273.705 252.054 268.723C251.777 268.551 246.464 264.986 246.568 264.943L339.17 228.706Z" fill="#4F008B"/>
<path d="M246.106 265.138C246.076 265.082 246.059 265.02 246.055 264.956C246.051 264.892 246.061 264.828 246.084 264.768C246.106 264.709 246.142 264.655 246.187 264.61C246.232 264.565 246.287 264.53 246.347 264.508L338.946 228.254C339.073 228.207 339.214 228.208 339.34 228.258C339.467 228.308 339.571 228.402 339.632 228.524C339.662 228.58 339.679 228.642 339.683 228.706C339.688 228.769 339.678 228.833 339.656 228.893C339.633 228.952 339.598 229.006 339.553 229.052C339.508 229.097 339.454 229.132 339.394 229.154L246.792 265.408C246.664 265.453 246.525 265.451 246.399 265.401C246.273 265.352 246.169 265.258 246.106 265.138Z" fill="#F5FAFA"/>
<path d="M269.955 255.801C269.935 255.763 269.921 255.723 269.912 255.681C269.899 255.618 269.9 255.553 269.914 255.491C269.928 255.429 269.955 255.37 269.993 255.319C270.032 255.268 270.081 255.225 270.137 255.195C270.193 255.164 270.255 255.146 270.319 255.141C271.365 255.021 296.033 252.258 306.566 260.556C306.619 260.593 306.663 260.641 306.697 260.696C306.731 260.751 306.753 260.812 306.761 260.877C306.77 260.941 306.766 261.006 306.748 261.068C306.731 261.13 306.701 261.188 306.66 261.238C306.569 261.336 306.443 261.395 306.31 261.402C306.176 261.41 306.044 261.367 305.942 261.28C295.769 253.269 270.764 256.08 270.517 256.103C270.404 256.116 270.289 256.094 270.189 256.04C270.088 255.986 270.007 255.902 269.955 255.801ZM297.729 244.926C297.683 244.84 297.667 244.74 297.683 244.643C297.7 244.546 297.748 244.457 297.82 244.39C297.94 244.28 309.618 233.402 305.331 224.806C305.301 224.749 305.284 224.687 305.28 224.623C305.276 224.56 305.285 224.496 305.308 224.436C305.331 224.376 305.366 224.322 305.412 224.277C305.457 224.232 305.512 224.197 305.571 224.175C305.699 224.13 305.839 224.133 305.965 224.182C306.091 224.232 306.195 224.325 306.257 224.445C310.853 233.662 299.068 244.644 298.561 245.105C298.458 245.192 298.327 245.236 298.193 245.23C298.058 245.224 297.931 245.168 297.836 245.073C297.792 245.031 297.756 244.981 297.729 244.926ZM259.317 259.067C259.271 258.98 259.255 258.881 259.272 258.784C259.288 258.687 259.336 258.598 259.408 258.531C259.529 258.42 271.206 247.543 266.919 238.946C266.889 238.89 266.872 238.828 266.868 238.764C266.864 238.7 266.874 238.636 266.897 238.577C266.919 238.517 266.955 238.463 267 238.418C267.045 238.373 267.1 238.338 267.16 238.316C267.287 238.271 267.427 238.273 267.553 238.323C267.679 238.372 267.783 238.466 267.845 238.586C272.441 247.803 260.656 258.784 260.149 259.246C260.047 259.332 259.915 259.377 259.781 259.371C259.647 259.365 259.519 259.309 259.425 259.213C259.381 259.172 259.344 259.122 259.317 259.067Z" fill="#F5FAFA"/>
<path d="M103.675 121.55H278.2V240.5H103.675V121.55Z" fill="#F7F7F7"/>
<path d="M108.283 133.51L108.287 134.355L272.204 134.332L272.197 133.487L108.283 133.51ZM108.348 148.684L272.317 148.655L272.311 147.81L108.345 147.839L108.348 148.684ZM108.413 163.02L272.431 162.988L272.425 162.143L108.41 162.175L108.413 163.02ZM108.475 177.366L272.545 177.33L272.538 176.482L108.472 176.517L108.475 177.366ZM108.54 191.718L272.659 191.679L272.649 190.83L108.537 190.873L108.54 191.718ZM108.602 206.083L272.769 206.037L272.763 205.189L108.599 205.234L108.602 206.083ZM108.667 220.454L272.883 220.402L272.876 219.554L108.664 219.606L108.667 220.454Z" fill="#D3D3D3"/>
<path fill-rule="evenodd" clip-rule="evenodd" d="M108.644 215.546L132.652 194.655C135.194 192.439 139.337 192.439 141.905 194.655L147.875 199.807C150.443 202.02 154.586 202.02 157.128 199.807C159.673 197.593 163.813 197.59 166.381 199.807L175.156 207.363C177.726 209.576 181.867 209.576 184.412 207.363L210.62 184.525C213.158 182.312 217.298 182.312 219.866 184.525L232.333 195.25C234.904 197.463 239.044 197.46 241.582 195.25L246.113 191.301C248.648 189.088 252.788 189.085 255.359 191.301L272.776 206.29L273.003 235.235H108.732L108.644 215.546Z" fill="#4F008B"/>
<path d="M217.041 168.11H191.623C188.391 168.112 185.761 165.508 185.731 162.276C185.715 159.072 188.299 156.462 191.503 156.445H216.963C220.195 156.443 222.825 159.044 222.859 162.276C222.879 165.478 220.299 168.09 217.097 168.11H217.041ZM266.5 154.031H241.091C237.863 154.029 235.236 151.429 235.202 148.2C235.183 145.001 237.76 142.393 240.958 142.373H266.415C269.647 142.369 272.278 144.969 272.314 148.2C272.339 151.395 269.77 154.005 266.575 154.031H266.5ZM171.119 182.468H145.691C142.457 182.475 139.824 179.869 139.799 176.634C139.777 173.425 142.361 170.806 145.57 170.784H171.051C174.291 170.781 176.925 173.395 176.946 176.634C176.959 179.844 174.367 182.455 171.158 182.468H171.119Z" fill="#4F008B"/>
<path d="M192.563 338.975C243.18 338.975 284.213 336.138 284.213 332.638C284.213 329.137 243.18 326.3 192.563 326.3C141.946 326.3 100.913 329.137 100.913 332.638C100.913 336.138 141.946 338.975 192.563 338.975Z" fill="#F7F7F7"/>
<path d="M149.5 284.489C150.449 286.491 151.742 288.746 153.621 289.308C154.921 289.695 158.58 287.235 159.312 286.247C160.043 285.259 157.774 237.604 156.136 234.702C153.936 230.802 136.591 236.184 137.189 242.937C137.953 251.569 140.41 260.751 143.328 269.308C145.094 274.482 147.155 279.55 149.5 284.489Z" fill="#0B4870"/>
<path d="M118.446 328.724C120.37 329.003 122.331 328.846 124.186 328.266C124.283 326.03 124.383 323.794 124.485 321.558C124.52 321.28 124.483 320.998 124.378 320.739C124.261 320.576 124.109 320.441 123.934 320.345C123.758 320.248 123.564 320.192 123.364 320.18C121.839 319.907 119.49 319.823 119.243 321.763C118.95 324.08 118.713 326.404 118.446 328.724ZM159.432 328.724C161.319 329.011 163.246 328.854 165.061 328.266C164.649 326.03 164.236 323.794 163.82 321.558C163.788 321.266 163.688 320.985 163.527 320.739C163.229 320.416 162.821 320.217 162.383 320.18C160.797 319.907 158.428 319.823 158.626 321.763C158.86 324.08 159.166 326.404 159.432 328.724Z" fill="#0E538C"/>
<path d="M158.798 279.003C156.322 275.041 150.348 272.327 147.846 279.198C144.02 289.673 156.153 309.267 157.95 321.919H164.45C164.635 320.694 160.173 281.2 158.798 279.003Z" fill="#0B4870"/>
<path fill-rule="evenodd" clip-rule="evenodd" d="M127.361 246.305C128.944 247.553 131.033 247.741 132.996 247.741C149.146 247.741 158.489 242.489 156.257 235.066C153.962 227.445 139.509 228.677 131.96 231.13C130.335 231.66 127.962 232.174 126.851 233.691C125.239 235.901 123.516 243.279 127.361 246.305Z" fill="#0A3C5F"/>
<path d="M164.45 216.833C165.682 217.864 167.317 218.829 168.805 218.228C169.231 218.03 169.608 217.74 169.908 217.378C170.208 217.017 170.424 216.593 170.541 216.138C170.769 215.226 170.82 214.278 170.69 213.346C169.995 206.001 160.989 188.776 155.444 183.232C153.459 180.372 147.696 193.957 147.989 196.011C148.281 198.065 158.73 212.062 164.45 216.833ZM121.735 284.271C122.077 286.273 124.66 288.746 126.37 289.308C127.553 289.695 131.957 287.235 132.99 286.247C134.024 285.259 145.584 245.278 144.827 242.372C143.809 238.472 140.52 235.96 136.936 235.381C131.736 234.536 126.097 236.356 124.014 242.934C118.983 258.827 125.219 270.699 121.735 284.271Z" fill="#0B4870"/>
<path d="M192.725 227.5C193.482 228.313 194.298 229.32 194.054 230.402C193.846 231.316 192.904 231.914 191.971 232.027C191.688 232.057 188.695 230.822 185.455 229.314L188.705 224.114C190.114 225.157 191.457 226.288 192.725 227.5Z" fill="#CCE9FF"/>
<path d="M188.702 224.097L185.51 230.425C178.071 226.964 166.641 219.863 164.895 216.746C163.631 214.49 164.71 212.456 166.67 211.221C168.795 209.879 181.782 218.725 188.702 224.097ZM135.041 279.003C133.91 275.051 128.161 271.928 124.02 279.198C117.358 290.898 118.914 308.399 118.547 321.919H125.047C125.639 320.694 135.671 281.2 135.041 279.003Z" fill="#0B4870"/>
<path d="M158.005 185.958C159.65 188.389 159.055 191.86 158.655 194.675C157.781 200.694 158.035 243.207 158.116 244.156C158.197 245.105 157.791 246.161 156.816 246.59C156.225 246.802 155.596 246.888 154.97 246.841C146.491 246.785 133.062 246.73 124.579 246.675C124.02 246.721 123.458 246.616 122.954 246.369C121.934 245.719 122.288 244.354 122.652 243.298C125.099 236.233 126.308 217.623 124.088 210.509C121.875 203.45 119.178 194.707 120.4 187.314C123.393 183.661 129.5 175.178 141.645 175.178C150.15 175.175 156.53 183.774 158.005 185.958Z" fill="#0E538C"/>
<path d="M125.008 182.894C126.165 182.546 134.319 183.066 132.158 188.864C129.457 196.063 124.056 201.922 119.551 208.153C118.167 210.067 116.759 212.004 114.936 213.502C113.113 215 110.789 216.04 108.436 215.849C107.201 215.745 105.384 215.166 104.78 213.957C104.292 212.982 104.897 211.383 105.105 210.415C105.888 206.976 118.576 184.811 125.008 182.894Z" fill="#0E538C"/>
<path fill-rule="evenodd" clip-rule="evenodd" d="M114.25 204.354C114.237 204.4 114.231 204.448 114.231 204.496L114.25 204.354Z" fill="#CC346F"/>
<path d="M131.625 230.75C131.739 231.946 129.35 233.025 128.183 233.295C127.858 233.373 126.103 231.634 123.659 229.941L127.4 226.138C129.129 228.312 131.602 230.513 131.625 230.75ZM148.557 217.175C147.017 209.017 145.444 200.886 143.604 193.502C141.866 186.521 137.676 181.6 132.398 177.014C136.757 173.612 144.362 173.29 148.096 177.736C152.708 183.222 151.242 193.173 151.037 199.751C150.871 204.971 149.36 217.181 148.557 217.175Z" fill="#CCE9FF"/>
<path d="M143.371 181.555C142.76 180.677 141.95 179.748 142.136 178.695C142.203 178.35 142.375 178.034 142.628 177.789C142.881 177.544 143.202 177.383 143.549 177.327C146.123 176.963 144.944 179.761 144.576 180.996C147.05 184.704 150.023 192.485 151.008 201.77C150.742 207.311 149.328 218.481 148.558 218.475C147.508 212.917 146.442 207.376 145.288 202.072C145.067 195.943 144.508 183.196 143.371 181.555Z" fill="#0B4870"/>
<path d="M104.65 212.202C104.975 211.097 106.093 210.447 107.172 210.054C108.982 209.404 111.26 208.946 113.184 209.333C114.51 209.602 114.92 210.808 115.677 211.78C117.575 214.211 124.992 223.031 128.706 227.676L124.641 232.785C118.638 228.621 107.741 218.082 105.908 215.696C105.137 214.676 104.325 213.441 104.65 212.202Z" fill="#0E538C"/>
<path fill-rule="evenodd" clip-rule="evenodd" d="M143 153.364C142.061 152.425 135.593 149.961 133.51 154.632C132.785 156.257 132.515 159.029 132.896 160.768C133.399 163.075 137.368 171.639 138.635 170.622C139.267 170.107 139.774 169.458 140.121 168.721C140.467 167.984 140.644 167.178 140.637 166.364C140.611 164.528 139.646 162.685 140.169 160.924C140.494 159.861 141.29 159.029 142.07 158.242C142.701 157.609 143.757 156.91 143.92 156.01C143.976 155.528 143.922 155.04 143.763 154.582C143.604 154.123 143.343 153.707 143 153.364Z" fill="#0B4870"/>
<path fill-rule="evenodd" clip-rule="evenodd" d="M148.98 156.325C148.869 155.548 148.622 154.749 148.041 154.222C147.111 153.377 145.629 153.51 144.495 154.05C143.884 154.339 143.257 154.84 143.253 155.516C143.253 156.084 143.686 156.546 144.111 156.923C145.086 157.791 146.497 159.074 147.79 159.419C149.386 159.858 149.107 157.251 148.98 156.325Z" fill="#0B4870"/>
<path d="M145.054 166.673C144.222 163.004 141.446 162.146 139.834 163.026C138.801 169.89 137.745 172.942 135.054 176.676C138.401 178.821 144.111 178.422 145.346 176.676C145.398 176.15 145.483 168.568 145.054 166.673Z" fill="#E5AB83"/>
<path d="M138.262 158.015C139.818 154.29 144.921 153.387 147.794 156.588C150.426 159.513 150.738 167.251 149.76 169.166C148.054 172.51 141.928 171.038 140.621 169.286C138.707 166.725 136.955 161.151 138.262 158.015Z" fill="#EFB68F"/>
<path fill-rule="evenodd" clip-rule="evenodd" d="M148.525 157.326C148.636 158.191 148.587 159.071 148.782 159.926C148.977 160.781 149.494 161.623 150.322 161.876C149.9 161.207 149.9 160.349 150.056 159.572C150.212 158.795 150.508 158.051 150.628 157.268C151.082 154.363 149.095 151.64 146.19 151.186C145.529 151.083 144.855 151.106 144.203 151.252C143.733 151.337 143.285 151.517 142.887 151.779C142.488 152.041 142.146 152.382 141.882 152.779C141.398 153.598 141.45 154.765 142.162 155.402C142.472 155.638 142.833 155.8 143.217 155.874C143.6 155.948 143.995 155.932 144.372 155.828C144.996 155.685 145.184 155.259 145.698 154.976C147.3 154.089 148.363 156.029 148.525 157.326Z" fill="#0B4870"/>
<path d="M135.678 164.895C135.858 165.816 136.388 166.632 137.156 167.17C139.34 168.672 140.172 165.545 139.314 163.985C138.294 162.126 135.2 162.422 135.678 164.895Z" fill="#EFB68F"/>
<path fill-rule="evenodd" clip-rule="evenodd" d="M143.556 155.288C143.556 155.994 141.661 157.141 141.144 157.622C140.628 158.103 140.043 158.542 139.721 159.169C139.305 159.978 139.396 160.956 139.636 161.837C139.877 162.718 140.221 163.573 140.286 164.479C140.351 165.386 140.082 166.397 139.311 166.884C139.636 166.046 139.285 165.077 138.746 164.349C138.206 163.621 137.495 163.033 136.981 162.289C136.494 161.566 136.205 160.729 136.142 159.86C136.078 158.992 136.243 158.121 136.62 157.336C137.173 156.228 138.681 154.43 139.835 153.995C140.803 153.637 143.592 153.693 143.556 155.288ZM177.45 332.01C177.535 331.081 176.651 330.311 175.744 330.096C174.837 329.882 173.885 330.044 172.952 330.031C171.617 329.999 170.314 329.613 169.178 328.911C168.041 328.21 167.112 327.219 166.485 326.04C166.356 325.695 166.13 325.395 165.835 325.176C165.412 324.938 164.86 325.117 164.483 325.426C164.106 325.735 163.833 326.157 163.508 326.502C162.875 327.119 162.023 327.461 161.138 327.451C160.407 327.451 159.591 326.882 158.889 327.249C158.269 327.574 158.103 328.432 157.947 329.043C157.677 330.096 157.43 331.156 157.173 332.212C157.109 332.448 157.065 332.69 157.043 332.933H162.113C162.351 332.608 162.542 331.633 162.643 331.234C162.659 331.643 162.822 332.618 163.082 332.933H177.021C177.262 332.682 177.413 332.357 177.45 332.01ZM126.526 332.01C126.565 331.081 126.175 330.311 125.775 330.096C125.375 329.882 124.755 328.322 123.929 326.04C123.552 324.997 121.446 324.704 120.393 326.502C120.052 327.083 119.743 327.477 119.353 327.451C119.028 327.451 118.671 326.882 118.378 327.249C118.086 327.616 118.03 328.432 117.962 329.043C117.845 330.096 117.735 331.156 117.637 332.212C117.611 332.446 117.585 332.693 117.579 332.933H126.354C126.463 332.638 126.521 332.326 126.526 332.01Z" fill="#0B4870"/>
<path d="M147.017 180.203L145.392 179.02C145.012 178.74 144.583 178.451 144.115 178.5C143.647 178.548 143.302 178.922 142.99 179.27L141.394 181.067C141.172 181.376 140.855 181.604 140.491 181.717C140.013 181.811 139.555 181.499 139.171 181.2C137.456 179.861 135.835 178.404 134.322 176.839C134.243 176.792 134.177 176.726 134.129 176.647C134.081 176.568 134.053 176.479 134.047 176.386C134.041 176.294 134.058 176.202 134.096 176.118C134.133 176.034 134.191 175.96 134.264 175.903L136.272 173.459C137.761 174.187 139.288 174.899 140.926 175.133C142.206 175.343 143.519 175.145 144.68 174.567C144.869 174.466 145.226 174.115 145.444 174.242C145.662 174.369 145.704 175.042 145.769 175.263L146.354 177.58L147.017 180.203Z" fill="#CCE9FF"/>
<path d="M147.938 223L148.624 222.988L149.059 246.26L148.373 246.273L147.938 223ZM146.487 218.455C142.626 211.065 137.422 204.459 131.141 198.975L130.816 198.689L134.833 195.8L131.3 194.626L131.258 194.441C129.958 189.059 129.561 184.366 131.839 178.948L132.473 179.215C130.292 184.395 130.65 188.923 131.878 194.093L136.344 195.572L131.937 198.744C138.137 204.228 143.28 210.801 147.114 218.137L146.487 218.455ZM151.057 218.628L150.449 218.303C153.788 211.874 155.831 204.852 156.461 197.636L152.886 196.251L154.541 196.186C155.389 196.154 156.055 195.364 156.276 194.6C156.53 193.723 156.383 192.764 156.185 191.861C155.256 187.597 153.202 183.661 150.238 180.46L150.741 179.995C153.786 183.28 155.897 187.319 156.855 191.695C157.072 192.689 157.232 193.752 156.936 194.776C156.725 195.513 156.248 196.145 155.597 196.55L157.18 197.164L157.157 197.421C156.554 204.825 154.48 212.035 151.057 218.628Z" fill="#0B4870"/>
<path d="M133.335 234.162C133.546 235.245 133.513 236.437 132.876 237.347C132.578 237.733 132.204 238.054 131.778 238.292C131.352 238.529 130.882 238.678 130.397 238.729C129.426 238.822 128.446 238.754 127.498 238.527C126.822 238.394 126.11 238.202 125.629 237.721C125.148 237.24 125.037 236.311 125.583 235.888C126.233 235.388 127.286 235.862 127.923 235.352C128.56 234.842 128.274 233.837 128.307 233.018C128.356 231.78 129.643 230.292 130.982 230.506C132.46 230.75 133.094 232.931 133.335 234.162Z" fill="#EFB68F"/>
<path d="M195.65 234.595C202.342 232.934 198.734 226.921 194.509 226.944C193.112 226.944 191.63 227.139 190.541 228.013C186.895 230.932 192.556 235.264 195.65 234.595Z" fill="#FFE3CA"/>
<path d="M142.812 226.479C142.394 226.479 141.994 226.314 141.699 226.019C141.404 225.724 141.239 225.324 141.239 224.907C141.239 224.489 141.404 224.089 141.699 223.794C141.994 223.499 142.394 223.333 142.812 223.333C143.229 223.333 143.629 223.499 143.924 223.794C144.219 224.089 144.385 224.489 144.385 224.907C144.385 225.324 144.219 225.724 143.924 226.019C143.629 226.314 143.229 226.479 142.812 226.479ZM142.812 224.022C142.636 224.022 142.464 224.073 142.318 224.17C142.172 224.267 142.058 224.405 141.99 224.567C141.922 224.729 141.904 224.907 141.937 225.08C141.971 225.252 142.055 225.41 142.179 225.535C142.302 225.659 142.46 225.744 142.632 225.779C142.804 225.814 142.982 225.797 143.145 225.731C143.307 225.664 143.446 225.551 143.544 225.405C143.642 225.26 143.695 225.088 143.696 224.913V224.907C143.696 224.79 143.673 224.675 143.628 224.568C143.584 224.461 143.519 224.364 143.437 224.281C143.355 224.199 143.257 224.134 143.15 224.09C143.043 224.045 142.928 224.022 142.812 224.022ZM143.254 235.105C142.836 235.105 142.436 234.939 142.141 234.644C141.846 234.349 141.681 233.949 141.681 233.532C141.681 233.115 141.846 232.715 142.141 232.42C142.436 232.125 142.836 231.959 143.254 231.959C143.671 231.959 144.071 232.125 144.366 232.42C144.661 232.715 144.827 233.115 144.827 233.532C144.827 233.949 144.661 234.349 144.366 234.644C144.071 234.939 143.671 235.105 143.254 235.105ZM143.254 232.648C143.078 232.647 142.906 232.699 142.76 232.796C142.614 232.893 142.5 233.031 142.432 233.193C142.364 233.355 142.346 233.533 142.379 233.705C142.413 233.877 142.497 234.036 142.621 234.16C142.744 234.285 142.902 234.37 143.074 234.405C143.246 234.44 143.424 234.423 143.587 234.356C143.749 234.29 143.888 234.176 143.986 234.031C144.084 233.885 144.137 233.714 144.138 233.539V233.532C144.137 233.298 144.043 233.073 143.878 232.908C143.712 232.742 143.488 232.649 143.254 232.648ZM148.2 229.248C147.937 235.245 147.875 241.189 145.451 246.675C146.796 246.724 148.454 247.435 149.591 246.548C150.849 245.573 149.981 243.129 149.815 241.826C149.295 237.845 147.999 233.249 148.2 229.248Z" fill="#0B4870"/>
<path d="M221.796 328.546C219.881 328.83 217.925 328.672 216.08 328.084L216.84 321.315C216.85 321.025 216.93 320.741 217.074 320.489C217.214 320.327 217.384 320.193 217.575 320.097C217.767 320 217.975 319.942 218.189 319.927C219.768 319.651 222.151 319.563 222.089 321.523C222.03 323.863 221.894 326.206 221.796 328.546Z" fill="#0E538C"/>
<path fill-rule="evenodd" clip-rule="evenodd" d="M246.24 245.576C245.972 243.614 244.995 241.817 243.493 240.526C242.193 234.448 227.357 230.064 225.037 233.701C223.353 236.333 218.462 275.486 217.978 284.056C216.964 295.633 216.011 320.707 216.226 321.685H222.781C223.477 311.691 230.256 297.401 230.935 286.585C235.844 276.239 240.333 265.699 244.394 254.992C245.541 251.972 246.675 248.784 246.24 245.576Z" fill="#0B4870"/>
<path fill-rule="evenodd" clip-rule="evenodd" d="M259.818 245.404C258.222 246.662 256.113 246.854 254.134 246.854C237.845 246.854 228.417 241.556 230.669 234.072C232.983 226.385 247.569 227.627 255.177 230.103C256.818 230.636 259.21 231.153 260.332 232.703C261.95 234.91 263.695 242.349 259.818 245.404Z" fill="#0A3C5F"/>
<path d="M232.788 196.199C230.838 203.443 227.913 210.688 222.573 215.972C221.422 217.11 219.859 218.221 218.315 217.743C217.87 217.581 217.467 217.321 217.134 216.984C216.8 216.647 216.546 216.24 216.388 215.793C216.082 214.896 215.951 213.948 216.001 213.002C216.073 205.559 219.703 198.672 223.255 192.133C224.718 189.439 226.912 184.593 230.139 183.618C233.499 182.604 234.039 187.886 233.932 189.972C233.767 192.082 233.383 194.169 232.788 196.199Z" fill="#0B4870"/>
<path fill-rule="evenodd" clip-rule="evenodd" d="M280.475 199.053C280.503 199.093 280.526 199.137 280.543 199.183L280.475 199.053Z" fill="#CC346F"/>
<path d="M244.039 169.02C246.457 165.321 250.76 164.453 252.814 165.341C252.037 172.266 252.554 175.347 255.213 179.124C249.658 181.288 241.517 180.885 240.305 179.124C240.409 178.568 242.775 170.95 244.039 169.02Z" fill="#FFE3CA"/>
<path fill-rule="evenodd" clip-rule="evenodd" d="M241.01 159.019C240.302 159.556 239.587 160.215 239.437 161.093C239.324 161.766 239.567 162.438 239.808 163.079L240.734 165.555C241.423 164.671 241.729 163.556 242.093 162.494C242.457 161.431 242.938 160.345 243.844 159.682C244.407 159.273 245.167 158.967 245.326 158.291C245.551 157.316 244.52 156.868 243.786 157.264C242.817 157.778 241.89 158.365 241.01 159.019Z" fill="#FFB750"/>
<path d="M251.839 160.53C249.984 156.903 244.784 156.393 242.141 159.841C239.723 162.997 240.013 170.794 241.147 172.643C243.126 175.874 249.171 173.917 250.348 172.052C252.07 169.325 253.399 163.582 251.839 160.53Z" fill="#FFE3CA"/>
<path fill-rule="evenodd" clip-rule="evenodd" d="M242.001 168.025C242.827 167.456 244.085 167.375 244.761 168.113C245.121 168.506 245.255 169.049 245.433 169.556C245.612 170.063 245.879 170.586 246.369 170.8C247.049 171.096 247.809 170.667 248.427 170.258L250.529 168.857C250.854 168.633 251.326 168.408 251.644 168.662C251.963 168.915 251.875 169.335 251.764 169.686C251.3 171.097 250.467 172.358 249.351 173.338C248.235 174.318 246.876 174.982 245.417 175.259C244.299 175.458 243.084 175.402 242.109 174.817C240.896 174.096 240.298 172.705 240.103 171.356C239.928 170.141 241.033 168.675 242.001 168.025Z" fill="#FFB750"/>
<path fill-rule="evenodd" clip-rule="evenodd" d="M250.308 161.268C250.035 161.801 249.795 169.582 250.019 169.54C250.819 169.39 252.197 167.482 253.571 167.853C254.01 167.97 254.546 168.389 254.767 167.502C256.067 161.886 256.22 162.221 255.323 161.493C253.347 159.9 250.796 160.319 250.308 161.268Z" fill="#FFB750"/>
<path d="M254.976 167.248C254.868 168.185 254.402 169.043 253.676 169.643C251.599 171.324 250.517 168.236 251.258 166.608C252.132 164.671 255.262 164.723 254.976 167.248Z" fill="#FFE3CA"/>
<path fill-rule="evenodd" clip-rule="evenodd" d="M243.292 160.602C243.314 161.122 243.48 161.726 243.968 161.902C244.455 162.077 250.185 159.191 250.497 159.224C250.809 159.256 249.983 161.262 250.269 161.561C250.555 161.86 250.919 161.762 251.283 161.704C252.83 161.447 254.371 161.856 255.882 162.272C256.085 161.73 256.121 161.139 255.986 160.576C255.83 160.135 255.604 159.723 255.317 159.354C254.104 157.677 252.392 156.244 250.373 155.85C249.154 155.644 247.907 155.663 246.694 155.906C242.021 156.747 243.256 159.809 243.292 160.602Z" fill="#FFB750"/>
<path fill-rule="evenodd" clip-rule="evenodd" d="M203.622 331.861C203.538 330.925 204.428 330.145 205.342 329.911C206.255 329.677 207.217 329.859 208.156 329.849C209.503 329.817 210.817 329.426 211.964 328.719C213.111 328.011 214.049 327.012 214.682 325.822C214.81 325.475 215.036 325.173 215.332 324.951C215.559 324.855 215.808 324.828 216.05 324.872C216.292 324.917 216.516 325.031 216.694 325.202C217.074 325.527 217.344 325.939 217.692 326.287C218.007 326.597 218.38 326.84 218.79 327.005C219.2 327.169 219.639 327.249 220.08 327.243C220.815 327.243 221.64 326.671 222.355 327.041C222.979 327.366 223.148 328.234 223.308 328.851C223.577 329.914 223.828 330.983 224.088 332.049C224.151 332.287 224.194 332.529 224.218 332.774H219.102C218.865 332.449 218.67 331.474 218.566 331.061C218.566 331.474 218.387 332.456 218.124 332.774H204.061C203.818 332.527 203.663 332.205 203.622 331.861Z" fill="#0B4870"/>
<path d="M257.654 329.765C255.74 330.111 253.773 330.019 251.901 329.495L252.064 322.715C252.046 322.43 252.101 322.145 252.223 321.887C252.35 321.719 252.509 321.579 252.692 321.476C252.875 321.373 253.077 321.308 253.286 321.285C254.842 320.96 257.215 320.791 257.332 322.748C257.475 325.081 257.546 327.425 257.654 329.765Z" fill="#0E538C"/>
<path fill-rule="evenodd" clip-rule="evenodd" d="M263.656 240.081C263.601 233.226 257.663 230.932 252.262 231.221C251.121 231.285 249.996 231.522 248.927 231.926C247.026 231.276 244.855 231.806 243.217 232.97C241.579 234.133 240.383 235.937 239.571 237.815C237.322 243.015 237.621 248.956 238.368 254.579C238.992 259.194 239.905 263.764 241.101 268.265C242.054 271.84 243.051 276.39 244.351 280.072C243.669 282.747 250.972 321.89 251.501 323.102L258.053 322.881C258.606 309.423 261.303 292.006 255.733 280.381C257.457 275.828 258.91 271.177 260.081 266.451C262.152 257.988 263.728 248.843 263.656 240.081ZM249.477 333.352C249.408 332.42 249.772 331.63 250.169 331.402C250.565 331.175 251.144 329.579 251.895 327.252C252.239 326.189 254.355 325.822 255.47 327.597C255.834 328.175 256.165 328.546 256.552 328.52C256.877 328.497 257.218 327.922 257.543 328.282C257.868 328.643 257.93 329.465 258.021 330.08C258.177 331.136 258.32 332.202 258.469 333.261C258.502 333.499 258.538 333.742 258.551 333.986L249.698 334.282C249.571 333.987 249.496 333.673 249.477 333.352Z" fill="#0B4870"/>
<path d="M255.157 231.683C254.485 232.486 256.756 233.025 257.559 233.698L251.121 234.042C250.739 234.023 250.363 234.138 250.058 234.367C249.909 234.534 249.816 234.742 249.791 234.964C249.766 235.186 249.81 235.41 249.918 235.606C250.143 235.991 250.462 236.313 250.845 236.542C252.926 237.95 255.459 238.53 257.946 238.167C258.911 238.059 259.829 237.697 260.608 237.117C260.991 236.822 261.295 236.436 261.492 235.994C261.688 235.552 261.771 235.067 261.732 234.585C261.534 233.11 260.432 233.084 259.308 232.798C258.599 232.59 255.385 231.4 255.157 231.683Z" fill="#F7B690"/>
<path d="M269.867 189.534C267.488 186.752 263.312 181.308 255.82 178.328C251.361 180.603 245.589 180.102 241.67 176.677C234.104 178.302 228.42 184.425 226.915 186.196C224.923 188.539 225.446 192.046 225.784 194.87C226.509 200.928 223.184 243.386 223.034 244.329C222.885 245.271 224.409 246.35 225.482 246.828C226.154 247.071 226.866 247.187 227.581 247.172C237.286 247.566 252.648 248.219 262.356 248.612C263.006 248.638 263.689 248.654 264.228 248.391C265.424 247.809 265.083 246.412 264.716 245.339C262.239 238.154 270.923 196.983 269.867 189.534Z" fill="#0E538C"/>
<path d="M253.861 177.255C250.51 179.897 245.524 178.591 241.836 176.93C240.591 177.375 239.443 178.054 238.452 178.929C232.667 184.155 233.967 194.174 233.902 200.756C233.86 205.982 235.111 218.263 236.077 218.306C238.3 210.242 240.558 202.208 243.106 194.935C245.518 188.055 250.767 183.371 257.312 179.081C256.246 178.326 255.085 177.712 253.861 177.255Z" fill="white"/>
<path d="M243.565 183.16C244.299 182.315 245.268 181.431 245.105 180.369C245.022 180 244.83 179.664 244.552 179.407C244.275 179.15 243.926 178.983 243.552 178.929C240.627 178.428 241.846 181.288 242.21 182.54C239.21 186.115 235.449 193.729 233.896 202.953C233.945 208.504 235.05 219.736 235.93 219.768C237.386 214.273 238.856 208.793 240.425 203.554C240.958 197.444 242.187 184.743 243.565 183.16Z" fill="#4F008B"/>
<path d="M238.875 181.607L241.072 180.521C241.588 180.209 242.185 180.056 242.788 180.083C243.351 180.199 243.861 180.493 244.244 180.921L246.279 182.813C246.593 183.153 246.998 183.399 247.445 183.521C248.095 183.645 248.697 183.362 249.223 183.082C251.52 181.877 253.735 180.521 255.853 179.023C256.041 178.89 256.243 178.731 256.243 178.532C256.212 178.357 256.116 178.2 255.973 178.094L253.422 175.529C251.417 176.179 246.019 177.642 243.835 177.775C242.151 177.876 241.517 175.637 241.235 175.741C240.952 175.845 240.851 176.524 240.767 176.738L239.886 179.013C239.55 179.88 239.213 180.745 238.875 181.607Z" fill="white"/>
<path d="M238.592 219.859C243.501 212.526 249.763 206.195 257.043 201.207L257.429 200.938L252.964 197.844C252.964 197.844 267.914 191.899 257.189 181.168C263.815 190.616 258.297 194.425 251.274 197.535L256.171 200.934C244.335 208.975 238.592 219.859 238.592 219.859ZM232.7 219.843C232.7 219.843 227.857 205.777 227.5 198.591L231.64 197.398L229.752 197.246C229.304 197.184 228.885 196.992 228.545 196.694C228.205 196.396 227.961 196.005 227.841 195.569C227.591 194.681 227.802 193.729 228.072 192.835C229.33 188.63 234.842 181.269 234.842 181.269C231.295 184.261 228.681 188.209 227.311 192.644C227.016 193.619 226.785 194.678 227.078 195.715C227.305 196.493 227.823 197.154 228.524 197.561L226.688 198.091V198.347C227.073 205.87 229.127 213.212 232.7 219.843Z" fill="#0B4870"/>
<path d="M196.124 227.23C195.439 228.101 194.711 229.18 195.045 230.233C195.328 231.127 196.319 231.644 197.255 231.66C197.541 231.66 200.421 230.181 203.521 228.41L199.849 223.509C198.531 224.67 197.287 225.913 196.124 227.23Z" fill="white"/>
<path d="M199.849 223.506L203.564 229.528C210.681 225.449 222.541 217.409 224.016 214.152C225.082 211.803 221.582 208.676 219.525 207.617C217.295 206.466 206.291 217.578 199.849 223.506Z" fill="#0B4870"/>
<path d="M193.83 234.553C192.745 234.384 191.747 233.859 190.993 233.06C190.239 232.262 189.773 231.235 189.667 230.142C189.667 228.498 190.105 227.162 194.321 226.831C195.712 226.72 197.203 226.782 198.364 227.562C202.228 230.162 196.95 234.956 193.83 234.553Z" fill="#EFB68F"/>
<path d="M262.483 249.025C262.083 252.32 263.354 255.151 265.307 255.424C266.932 255.619 267.257 252.974 269.581 249.899C271.57 247.241 268.716 243.724 266.757 243.5C264.797 243.276 262.883 245.726 262.483 249.025Z" fill="#FFE3CA"/>
<path d="M264.319 245.027C264.914 246.071 267.485 245.593 268.599 245.138C268.924 245.008 269.35 242.583 270.38 239.795L265.141 238.82C264.963 241.589 264.199 244.813 264.319 245.027Z" fill="white"/>
<path d="M275.766 214.364C274.878 213.636 273.578 213.749 272.47 214.039C270.605 214.536 268.918 216.964 267.566 218.39C266.633 219.365 265.31 234.891 264.93 240.815L271.193 242.671C273.721 235.82 276.614 220.929 276.741 217.929C276.796 216.661 276.76 215.179 275.766 214.364Z" fill="#0E538C"/>
<path d="M275.064 199.121C276.933 206.388 277.969 214.129 275.941 221.357C275.506 222.917 274.693 224.653 273.114 225.001C272.647 225.079 272.168 225.053 271.712 224.925C271.257 224.796 270.835 224.568 270.478 224.256C269.769 223.626 269.185 222.866 268.759 222.017C265.148 215.517 264.904 207.717 264.765 200.291C264.706 197.223 264.222 191.925 266.546 189.488C268.967 186.946 272.071 191.266 272.981 193.138C273.88 195.055 274.578 197.06 275.064 199.121Z" fill="#0E538C"/>
</svg>
