<svg width="311" height="242" viewBox="0 0 311 242" fill="none" xmlns="http://www.w3.org/2000/svg">
<g clip-path="url(#clip0_224_220)">
<path d="M251.196 0H211.479V51.7015H251.196V0Z" fill="#F4F4F4"/>
<path d="M251.196 51.7015H252.485V3.8147e-06H251.196V51.7015Z" fill="#F4F4F4"/>
<path opacity="0.05" d="M251.196 51.7015H252.485V3.8147e-06H251.196V51.7015Z" fill="#292A2E"/>
<path opacity="0.05" d="M243.962 9.41806H218.715V42.2834H243.962V9.41806Z" fill="#292A2E"/>
<path opacity="0.03" d="M243.961 9.41806H242.646V42.2834H243.961V9.41806Z" fill="#292A2E"/>
<path d="M283.678 64.4156H251.197V97.199H283.678V64.4156Z" fill="#F4F4F4"/>
<path opacity="0.05" d="M277.761 70.3876H257.114V91.2273H277.761V70.3876Z" fill="#292A2E"/>
<path d="M283.678 97.1989H284.967V64.4156H283.678V97.1989Z" fill="#F4F4F4"/>
<path opacity="0.05" d="M283.678 97.1989H284.967V64.4156H283.678V97.1989Z" fill="#292A2E"/>
<path opacity="0.03" d="M277.761 70.3876H276.445V91.2273H277.761V70.3876Z" fill="#292A2E"/>
<path d="M176.654 5.38165H59.7925V122.255H176.654V5.38165Z" fill="#F4F4F4"/>
<path d="M177.993 5.38165H176.654V122.255H177.993V5.38165Z" fill="#F4F4F4"/>
<path opacity="0.05" d="M177.993 5.38165H176.654V122.255H177.993V5.38165Z" fill="#292A2E"/>
<path opacity="0.05" d="M148.344 85.9168V55.3389H123.298V73.1041H84.5032V104.559H68.0146V122.255H84.5032H87.6797H171.032V85.9168H148.344Z" fill="#292A2E"/>
<path opacity="0.34" d="M144.751 58.6588H126.513V61.9787H144.751V58.6588Z" fill="#FFFFFA"/>
<path opacity="0.34" d="M144.751 65.5389H126.513V68.8589H144.751V65.5389Z" fill="#FFFFFA"/>
<path opacity="0.34" d="M144.751 72.4188H126.513V75.7387H144.751V72.4188Z" fill="#FFFFFA"/>
<path opacity="0.34" d="M167.798 89.1395H164.437V92.4594H167.798V89.1395Z" fill="#FFFFFA"/>
<path opacity="0.34" d="M167.798 96.0193H164.437V99.3392H167.798V96.0193Z" fill="#FFFFFA"/>
<path opacity="0.34" d="M167.798 102.899H164.437V106.219H167.798V102.899Z" fill="#FFFFFA"/>
<path opacity="0.34" d="M161.579 89.1395H158.218V92.4594H161.579V89.1395Z" fill="#FFFFFA"/>
<path opacity="0.34" d="M161.579 96.0193H158.218V99.3392H161.579V96.0193Z" fill="#FFFFFA"/>
<path opacity="0.34" d="M161.579 102.899H158.218V106.219H161.579V102.899Z" fill="#FFFFFA"/>
<path opacity="0.34" d="M155.529 89.1395H152.167V92.4594H155.529V89.1395Z" fill="#FFFFFA"/>
<path opacity="0.34" d="M155.529 96.0193H152.167V99.3392H155.529V96.0193Z" fill="#FFFFFA"/>
<path opacity="0.34" d="M155.529 102.899H152.167V106.219H155.529V102.899Z" fill="#FFFFFA"/>
<path d="M176.654 63.1625H153.139V5.38165H151.195V63.1625H87.6799V5.38165H85.735V63.1625H59.7925V65.1076H85.735V122.255H87.6799V65.1076H151.195V122.255H153.139V65.1076H176.654V63.1625Z" fill="white"/>
<path d="M181.309 122.114H55.137V126.001H181.309V122.114Z" fill="#F4F4F4"/>
<path opacity="0.1" d="M181.309 122.114H55.137V126.001H181.309V122.114Z" fill="#292A2E"/>
<path opacity="0.1" d="M183.131 122.114H181.309V126.001H183.131V122.114Z" fill="#292A2E"/>
<path opacity="0.1" d="M183.131 122.114H181.309V126.001H183.131V122.114Z" fill="#292A2E"/>
<path opacity="0.05" d="M237.573 236.916H230.897V241.374H237.573V236.916Z" fill="#292A2E"/>
<path opacity="0.05" d="M279.48 236.916H272.805V241.374H279.48V236.916Z" fill="#292A2E"/>
<path d="M285.6 168.983H224.778V236.916H285.6V168.983Z" fill="#F4F4F4"/>
<path opacity="0.03" d="M285.6 168.983H224.778V236.916H285.6V168.983Z" fill="#292A2E"/>
<path d="M269.446 168.983H208.625V236.916H269.446V168.983Z" fill="#F4F4F4"/>
<path opacity="0.05" d="M221.42 236.916H214.744V241.374H221.42V236.916Z" fill="#292A2E"/>
<path opacity="0.05" d="M263.327 236.916H256.651V241.374H263.327V236.916Z" fill="#292A2E"/>
<path opacity="0.7" d="M266.174 173.183H211.897V190.413H266.174V173.183Z" fill="white"/>
<path opacity="0.7" d="M266.174 194.63H211.897V211.86H266.174V194.63Z" fill="white"/>
<path opacity="0.7" d="M266.174 216.076H211.897V233.306H266.174V216.076Z" fill="white"/>
<path opacity="0.05" d="M239.035 184.209C240.367 184.209 241.446 183.13 241.446 181.798C241.446 180.467 240.367 179.387 239.035 179.387C237.704 179.387 236.625 180.467 236.625 181.798C236.625 183.13 237.704 184.209 239.035 184.209Z" fill="#292A2E"/>
<path opacity="0.05" d="M239.035 205.656C240.367 205.656 241.446 204.577 241.446 203.245C241.446 201.914 240.367 200.834 239.035 200.834C237.704 200.834 236.625 201.914 236.625 203.245C236.625 204.577 237.704 205.656 239.035 205.656Z" fill="#292A2E"/>
<path opacity="0.05" d="M239.035 227.102C240.367 227.102 241.446 226.023 241.446 224.692C241.446 223.36 240.367 222.281 239.035 222.281C237.704 222.281 236.625 223.36 236.625 224.692C236.625 226.023 237.704 227.102 239.035 227.102Z" fill="#292A2E"/>
<path d="M224.544 25.6317H145.242C138.682 25.6317 133.364 30.9504 133.364 37.5114V223.95C133.364 230.511 138.682 235.83 145.242 235.83H224.544C231.104 235.83 236.422 230.511 236.422 223.95V37.5114C236.422 30.9504 231.104 25.6317 224.544 25.6317Z" fill="#292A2E"/>
<path d="M224.506 29.3413H145.279C140.775 29.3413 137.123 32.9935 137.123 37.4987V223.685C137.123 228.191 140.775 231.843 145.279 231.843H224.506C229.011 231.843 232.663 228.191 232.663 223.685V37.4987C232.663 32.9935 229.011 29.3413 224.506 29.3413Z" fill="white"/>
<path d="M165.326 27.8073H204.46V31.857C204.461 32.4323 204.347 33.0019 204.127 33.5334C203.907 34.0649 203.585 34.5479 203.178 34.9547C202.772 35.3616 202.289 35.6843 201.757 35.9045C201.226 36.1247 200.657 36.238 200.081 36.238H169.705C168.543 36.238 167.429 35.7766 166.608 34.9553C165.787 34.134 165.326 33.0201 165.326 31.8586V27.8073Z" fill="#292A2E"/>
<path opacity="0.8" d="M207.554 158.188H162.232C159.562 158.188 157.397 160.353 157.397 163.023V176.009C157.397 178.679 159.562 180.845 162.232 180.845H207.554C210.225 180.845 212.39 178.679 212.39 176.009V163.023C212.39 160.353 210.225 158.188 207.554 158.188Z" fill="#4F008B"/>
<path d="M212.388 176.009V178.234C212.388 178.869 212.263 179.498 212.02 180.084C211.777 180.671 211.421 181.204 210.972 181.653C210.523 182.102 209.99 182.458 209.403 182.701C208.816 182.944 208.188 183.069 207.553 183.069H162.232C161.597 183.069 160.968 182.944 160.381 182.701C159.795 182.458 159.262 182.102 158.813 181.653C158.364 181.204 158.008 180.671 157.765 180.084C157.522 179.498 157.397 178.869 157.397 178.234V176.009C157.397 177.291 157.906 178.521 158.813 179.427C159.719 180.334 160.949 180.844 162.231 180.844H207.553C208.188 180.844 208.816 180.719 209.403 180.476C209.989 180.233 210.523 179.877 210.972 179.428C211.42 178.979 211.777 178.446 212.02 177.859C212.263 177.272 212.388 176.644 212.388 176.009Z" fill="#4F008B"/>
<path d="M181.871 176.209C181.681 176.209 181.498 176.142 181.354 176.019L176.166 171.572C176.006 171.435 175.907 171.24 175.891 171.03C175.875 170.82 175.942 170.611 176.08 170.451C176.217 170.291 176.412 170.192 176.622 170.176C176.832 170.159 177.04 170.227 177.201 170.364L181.804 174.31L192.515 162.589C192.657 162.434 192.855 162.341 193.066 162.332C193.276 162.322 193.482 162.397 193.638 162.539C193.793 162.681 193.886 162.879 193.895 163.09C193.905 163.3 193.83 163.506 193.688 163.662L182.458 175.95C182.384 176.032 182.293 176.097 182.192 176.142C182.091 176.186 181.981 176.209 181.871 176.209Z" fill="white"/>
<g opacity="0.5">
<path d="M219.774 99.3395C219.774 102.941 216.275 105.945 215.22 109.194C214.127 112.563 215.154 117.042 213.114 119.845C211.054 122.677 206.462 123.074 203.631 125.135C200.828 127.175 199.042 131.431 195.674 132.525C192.425 133.58 188.494 131.222 184.893 131.222C181.292 131.222 177.36 133.581 174.112 132.525C170.742 131.431 168.958 127.175 166.155 125.135C163.324 123.074 158.732 122.677 156.672 119.845C154.632 117.042 155.659 112.562 154.566 109.194C153.511 105.944 150.011 102.94 150.011 99.3395C150.011 95.7392 153.511 92.7337 154.566 89.4853C155.659 86.1174 154.632 81.6369 156.672 78.8336C158.732 76.0022 163.324 75.6049 166.155 73.5444C168.958 71.5043 170.744 67.2476 174.111 66.1541C177.361 65.099 181.292 67.4574 184.893 67.4574C188.494 67.4574 192.426 65.0981 195.674 66.1541C199.044 67.2476 200.828 71.504 203.631 73.5444C206.462 75.6049 211.054 76.0022 213.114 78.8336C215.154 81.6369 214.127 86.1171 215.22 89.485C216.275 92.7337 219.774 95.7383 219.774 99.3395Z" fill="#4F008B"/>
</g>
<path d="M195.402 120.348H204.357V80.8072H195.402V120.348Z" fill="#4F008B"/>
<path d="M188.248 89.6163C186.501 89.6163 184.792 89.098 183.339 88.127C181.886 87.156 180.754 85.7758 180.085 84.1611C179.416 82.5463 179.241 80.7695 179.582 79.0553C179.923 77.3411 180.764 75.7665 182 74.5306C183.236 73.2947 184.81 72.4531 186.524 72.1121C188.238 71.7711 190.015 71.9462 191.63 72.615C193.244 73.2839 194.624 74.4165 195.595 75.8697C196.566 77.323 197.084 79.0315 197.084 80.7793C197.082 83.1222 196.15 85.3684 194.493 87.0251C192.837 88.6818 190.591 89.6137 188.248 89.6163ZM188.248 72.896C186.689 72.896 185.165 73.3583 183.869 74.2245C182.573 75.0908 181.562 76.322 180.966 77.7625C180.369 79.203 180.213 80.7881 180.517 82.3173C180.821 83.8465 181.572 85.2512 182.674 86.3537C183.777 87.4562 185.181 88.207 186.71 88.5112C188.239 88.8154 189.824 88.6593 191.265 88.0626C192.705 87.4659 193.936 86.4555 194.802 85.1591C195.668 83.8627 196.131 82.3385 196.131 80.7793C196.128 78.6892 195.297 76.6854 193.819 75.2074C192.342 73.7295 190.338 72.8981 188.248 72.8956V72.896Z" fill="#4F008B"/>
<path d="M189.251 80.8073C189.251 80.7977 189.251 80.7885 189.251 80.7793C189.251 78.4356 188.32 76.1879 186.663 74.5306C185.006 72.8734 182.758 71.9423 180.415 71.9423C178.071 71.9423 175.824 72.8734 174.167 74.5306C172.51 76.1879 171.579 78.4356 171.579 80.7793C171.579 80.7885 171.579 80.7977 171.579 80.8073H165.428V120.348H195.401V80.8073H189.251ZM172.532 80.7793C172.532 78.6885 173.363 76.6834 174.841 75.2049C176.319 73.7265 178.324 72.896 180.415 72.896C182.506 72.896 184.51 73.7265 185.989 75.2049C187.467 76.6834 188.297 78.6885 188.297 80.7793C188.297 80.7885 188.297 80.7977 188.297 80.8073H172.532C172.533 80.7977 172.533 80.7885 172.533 80.7793H172.532Z" fill="white"/>
<path d="M25.565 235.489L24.8778 239.844C24.8034 240.316 24.5642 240.746 24.2027 241.058C23.8412 241.37 23.3808 241.543 22.9034 241.548L5.39934 241.718C5.14796 241.72 4.90326 241.637 4.70545 241.482C4.50764 241.327 4.36847 241.109 4.3108 240.864C4.25313 240.619 4.28038 240.362 4.38809 240.135C4.4958 239.908 4.67755 239.724 4.90351 239.614L15.4121 234.494L25.565 235.489Z" fill="#E98862"/>
<path d="M283.329 200.313C283.245 200.313 283.164 200.28 283.104 200.22C282.656 199.773 281.926 191.555 279.96 167.09C279.156 157.079 278.396 147.624 277.841 141.878C277.802 141.467 277.642 141.419 277.59 141.404C276.832 141.178 274.522 142.995 273.234 144.59C273.18 144.655 273.104 144.697 273.02 144.706C272.936 144.715 272.852 144.69 272.786 144.637C272.721 144.584 272.679 144.507 272.67 144.423C272.661 144.339 272.686 144.255 272.739 144.19C273.591 143.136 276.368 140.375 277.773 140.795C278.056 140.88 278.409 141.126 278.474 141.817C279.029 147.568 279.789 157.026 280.594 167.039C281.789 181.906 283.142 198.749 283.587 199.81C283.621 199.857 283.642 199.913 283.646 199.972C283.65 200.03 283.638 200.088 283.612 200.14C283.585 200.192 283.545 200.236 283.495 200.267C283.445 200.297 283.387 200.313 283.329 200.313Z" fill="#494949"/>
<path d="M277.024 152.422C282.299 148.194 284.047 141.612 280.929 137.722C277.811 133.832 271.008 134.107 265.734 138.335C260.459 142.563 258.711 149.144 261.829 153.034C264.947 156.924 271.75 156.65 277.024 152.422Z" fill="#0E538C"/>
<path opacity="0.2" d="M277.024 152.422C282.299 148.194 284.047 141.612 280.929 137.722C277.811 133.832 271.008 134.107 265.734 138.335C260.459 142.563 258.711 149.144 261.829 153.034C264.947 156.924 271.75 156.65 277.024 152.422Z" fill="white"/>
<path d="M263.308 154.024C263.278 154.024 263.248 154.015 263.222 153.999C263.197 153.983 263.177 153.96 263.164 153.932C263.151 153.905 263.146 153.874 263.15 153.844C263.154 153.815 263.166 153.786 263.185 153.763L278.217 135.635C278.23 135.619 278.246 135.606 278.265 135.596C278.283 135.586 278.304 135.58 278.324 135.578C278.345 135.576 278.366 135.579 278.386 135.585C278.406 135.591 278.425 135.601 278.441 135.614C278.457 135.628 278.47 135.644 278.48 135.662C278.489 135.681 278.495 135.701 278.497 135.722C278.499 135.743 278.497 135.764 278.491 135.784C278.485 135.804 278.475 135.822 278.461 135.838L263.43 153.966C263.415 153.984 263.396 153.998 263.375 154.008C263.354 154.018 263.331 154.024 263.308 154.024Z" fill="white"/>
<path d="M286.607 196.427C286.572 196.427 286.536 196.421 286.503 196.409C286.423 196.381 286.358 196.323 286.321 196.247C286.285 196.172 286.279 196.084 286.307 196.005L291.953 179.765C292.12 179.288 292.403 178.86 292.777 178.521C293.152 178.182 293.605 177.942 294.096 177.823C294.587 177.705 295.1 177.711 295.588 177.843C296.076 177.974 296.524 178.225 296.889 178.574L299.874 181.426C299.905 181.455 299.93 181.489 299.948 181.528C299.966 181.566 299.976 181.608 299.977 181.65C299.979 181.692 299.972 181.734 299.956 181.774C299.941 181.814 299.919 181.85 299.889 181.88C299.86 181.911 299.825 181.935 299.786 181.952C299.747 181.969 299.705 181.978 299.663 181.978C299.621 181.979 299.579 181.971 299.539 181.955C299.5 181.939 299.465 181.915 299.435 181.885L296.45 179.033C296.161 178.758 295.808 178.56 295.423 178.456C295.038 178.353 294.633 178.347 294.245 178.441C293.857 178.534 293.499 178.724 293.204 178.992C292.908 179.26 292.685 179.597 292.553 179.974L286.908 196.213C286.886 196.276 286.845 196.33 286.791 196.368C286.738 196.406 286.673 196.427 286.607 196.427Z" fill="#494949"/>
<path d="M308.214 190.417C312.123 187.323 311.891 180.517 307.695 175.216C303.5 169.916 296.931 168.127 293.022 171.221C289.113 174.316 289.346 181.121 293.541 186.422C297.736 191.722 304.306 193.511 308.214 190.417Z" fill="#0E538C"/>
<path d="M280.764 199.277C280.693 199.277 280.623 199.253 280.567 199.209C280.511 199.165 280.472 199.103 280.455 199.033L270.98 159.412C270.915 159.142 270.777 158.895 270.581 158.698C270.385 158.501 270.139 158.363 269.869 158.297C269.599 158.231 269.316 158.241 269.052 158.326C268.787 158.41 268.551 158.566 268.37 158.776L265.449 162.149C265.422 162.181 265.388 162.207 265.351 162.225C265.314 162.244 265.273 162.255 265.232 162.258C265.19 162.261 265.148 162.256 265.108 162.243C265.069 162.23 265.032 162.209 265.001 162.182C264.969 162.154 264.943 162.121 264.924 162.084C264.906 162.046 264.894 162.006 264.891 161.964C264.888 161.922 264.894 161.881 264.907 161.841C264.92 161.801 264.941 161.765 264.968 161.733L267.889 158.358C268.147 158.059 268.483 157.838 268.859 157.718C269.235 157.598 269.637 157.584 270.02 157.677C270.403 157.771 270.754 157.968 271.032 158.248C271.311 158.528 271.507 158.879 271.598 159.263L281.073 198.885C281.093 198.967 281.079 199.053 281.035 199.125C280.991 199.197 280.92 199.248 280.838 199.268C280.814 199.274 280.789 199.277 280.764 199.277Z" fill="#494949"/>
<path d="M277.269 170.954C278.421 164.292 275.373 158.204 270.461 157.354C265.549 156.505 260.633 161.216 259.481 167.877C258.329 174.539 261.378 180.628 266.29 181.477C271.202 182.327 276.118 177.615 277.269 170.954Z" fill="#0E538C"/>
<path d="M283.329 200.313C283.316 200.313 283.303 200.313 283.29 200.311C283.207 200.3 283.13 200.257 283.078 200.191C283.027 200.125 283.003 200.04 283.013 199.957L289.064 150.826C289.13 150.291 289.349 149.786 289.695 149.372C290.041 148.959 290.499 148.654 291.014 148.494C291.529 148.335 292.079 148.327 292.598 148.473C293.117 148.619 293.583 148.911 293.94 149.316L300.856 157.149C300.912 157.212 300.94 157.295 300.935 157.379C300.93 157.463 300.891 157.542 300.828 157.598C300.797 157.625 300.76 157.647 300.721 157.66C300.681 157.674 300.639 157.679 300.598 157.677C300.514 157.672 300.435 157.633 300.379 157.57L293.463 149.736C293.188 149.424 292.827 149.198 292.426 149.085C292.025 148.973 291.6 148.978 291.202 149.102C290.804 149.225 290.45 149.461 290.182 149.78C289.915 150.1 289.746 150.49 289.695 150.904L283.645 200.034C283.635 200.111 283.598 200.182 283.54 200.233C283.482 200.285 283.407 200.313 283.329 200.313Z" fill="#494949"/>
<path d="M307.949 161.502C310.362 157.139 307.523 150.95 301.608 147.678C295.693 144.406 288.942 145.29 286.529 149.652C284.116 154.015 286.955 160.204 292.87 163.476C298.785 166.748 305.536 165.864 307.949 161.502Z" fill="#0E538C"/>
<path opacity="0.2" d="M308.214 190.417C312.123 187.323 311.891 180.517 307.695 175.216C303.5 169.916 296.931 168.127 293.022 171.221C289.113 174.316 289.346 181.121 293.541 186.422C297.736 191.722 304.306 193.511 308.214 190.417Z" fill="white"/>
<path opacity="0.5" d="M277.269 170.954C278.421 164.292 275.373 158.204 270.461 157.354C265.549 156.505 260.633 161.216 259.481 167.877C258.329 174.539 261.378 180.628 266.29 181.477C271.202 182.327 276.118 177.615 277.269 170.954Z" fill="white"/>
<path opacity="0.5" d="M307.949 161.502C310.362 157.139 307.523 150.95 301.608 147.678C295.693 144.406 288.942 145.29 286.529 149.652C284.116 154.015 286.955 160.204 292.87 163.476C298.785 166.748 305.536 165.864 307.949 161.502Z" fill="white"/>
<path d="M291.068 242H275.59L273.025 192.473H293.633L291.068 242Z" fill="#292A2E"/>
<path opacity="0.3" d="M291.068 242H275.59L273.025 192.473H293.633L291.068 242Z" fill="white"/>
<path d="M308.214 190.574C308.19 190.574 308.166 190.568 308.145 190.558C308.123 190.548 308.104 190.532 308.089 190.514L292.896 171.318C292.883 171.302 292.874 171.283 292.868 171.263C292.862 171.243 292.861 171.222 292.863 171.201C292.866 171.18 292.872 171.16 292.882 171.142C292.892 171.124 292.906 171.108 292.922 171.095C292.939 171.082 292.957 171.072 292.978 171.066C292.998 171.061 293.019 171.059 293.039 171.061C293.06 171.064 293.08 171.07 293.098 171.08C293.117 171.091 293.133 171.104 293.146 171.121L308.339 190.316C308.357 190.34 308.369 190.368 308.372 190.398C308.375 190.427 308.37 190.457 308.357 190.484C308.344 190.511 308.324 190.534 308.298 190.55C308.273 190.565 308.244 190.574 308.214 190.574Z" fill="white"/>
<path d="M306.938 163.039C306.905 163.039 306.872 163.028 306.845 163.007L287.403 148.811C287.387 148.798 287.372 148.783 287.361 148.765C287.351 148.747 287.343 148.727 287.34 148.707C287.337 148.686 287.338 148.665 287.343 148.645C287.348 148.625 287.356 148.605 287.369 148.589C287.381 148.572 287.397 148.557 287.414 148.547C287.432 148.536 287.452 148.528 287.473 148.525C287.493 148.522 287.514 148.523 287.535 148.528C287.555 148.533 287.574 148.542 287.591 148.554L307.032 162.753C307.059 162.773 307.078 162.801 307.088 162.833C307.098 162.864 307.098 162.898 307.088 162.93C307.078 162.961 307.058 162.989 307.031 163.009C307.004 163.028 306.972 163.039 306.938 163.039Z" fill="white"/>
<path d="M265.499 181.27C265.486 181.27 265.472 181.268 265.458 181.265C265.418 181.254 265.383 181.227 265.362 181.191C265.341 181.154 265.335 181.111 265.346 181.07L271.535 157.88C271.546 157.839 271.573 157.805 271.609 157.784C271.645 157.763 271.688 157.757 271.729 157.767C271.77 157.778 271.804 157.804 271.825 157.841C271.847 157.877 271.852 157.921 271.841 157.962L265.655 181.152C265.646 181.186 265.625 181.216 265.597 181.237C265.569 181.259 265.535 181.27 265.499 181.27Z" fill="white"/>
<path d="M46.0401 213.291C46.0401 213.291 45.9218 238.981 64.511 241.359L82.0118 225.34L92.8621 203.696L52.2495 208.178L46.0401 213.291Z" fill="#262626"/>
<path d="M45.5397 211.891L45.4841 211.906C45.4841 211.906 45.3032 210.816 45.5397 211.891Z" fill="#333333"/>
<path d="M117.205 137.305C117.203 137.294 117.193 137.286 117.187 137.277L117.41 136.95C117.565 136.732 117.639 136.468 117.621 136.202C117.603 135.935 117.494 135.683 117.312 135.488C117.195 135.368 117.053 135.275 116.896 135.217C116.739 135.158 116.571 135.135 116.404 135.15C116.237 135.164 116.075 135.215 115.93 135.3C115.786 135.384 115.661 135.5 115.567 135.638L115.051 136.391C115.048 136.387 115.048 136.382 115.044 136.379C115.039 136.376 115.031 136.379 115.026 136.375C115.121 136.137 115.132 135.873 115.057 135.628C114.982 135.383 114.826 135.17 114.615 135.025C114.094 134.615 113.373 135 113.04 135.486L109.967 139.809L110.253 138.308C110.314 138.017 110.263 137.714 110.109 137.459C109.955 137.204 109.71 137.017 109.424 136.936C109.275 136.899 109.12 136.893 108.968 136.918C108.816 136.944 108.672 137 108.542 137.083C108.413 137.166 108.302 137.274 108.216 137.402C108.13 137.529 108.071 137.673 108.042 137.824L106.487 146.019C106.305 146.981 106.505 147.976 107.044 148.792C107.583 149.609 108.42 150.183 109.375 150.393C110.484 150.636 111.64 150.543 112.695 150.125C113.75 149.707 114.656 148.983 115.298 148.047C115.298 148.047 117.618 136.926 117.205 137.305Z" fill="#E98862"/>
<path d="M114.528 124.902L115.463 124.993C115.559 124.997 115.653 125.021 115.74 125.063C115.827 125.104 115.904 125.163 115.968 125.236C116.032 125.308 116.08 125.393 116.11 125.484C116.14 125.576 116.151 125.673 116.142 125.769L113.763 145.013C113.727 145.213 113.618 145.392 113.456 145.514C113.294 145.636 113.092 145.692 112.89 145.671L111.82 145.592L114.528 124.902Z" fill="#292A2E"/>
<path d="M111.991 145.612L110.009 145.462C109.92 145.46 109.833 145.44 109.752 145.403C109.672 145.366 109.6 145.313 109.541 145.248C109.481 145.182 109.436 145.104 109.408 145.02C109.38 144.936 109.369 144.847 109.377 144.759L111.755 125.348C111.787 125.167 111.887 125.004 112.033 124.894C112.18 124.783 112.364 124.733 112.546 124.752L114.529 124.902C114.617 124.904 114.704 124.924 114.785 124.961C114.865 124.998 114.937 125.051 114.997 125.117C115.056 125.183 115.101 125.26 115.129 125.344C115.157 125.428 115.168 125.517 115.161 125.605L112.782 145.016C112.75 145.197 112.651 145.359 112.504 145.47C112.357 145.581 112.173 145.631 111.991 145.612Z" fill="#292A2E"/>
<path d="M111.788 145.212L110.033 145.068C109.972 145.066 109.912 145.053 109.857 145.027C109.802 145.002 109.752 144.966 109.711 144.92C109.671 144.875 109.64 144.822 109.62 144.764C109.601 144.707 109.594 144.646 109.599 144.585L111.958 125.523C111.98 125.399 112.048 125.287 112.149 125.212C112.25 125.136 112.376 125.101 112.501 125.114L114.233 125.26C114.294 125.261 114.354 125.275 114.409 125.301C114.465 125.326 114.514 125.362 114.555 125.408C114.595 125.453 114.626 125.506 114.646 125.564C114.665 125.621 114.672 125.682 114.667 125.743L112.332 144.803C112.31 144.928 112.242 145.039 112.141 145.115C112.04 145.191 111.914 145.225 111.788 145.212Z" fill="white"/>
<path d="M113.794 125.901L113.025 125.843C112.992 125.842 112.96 125.835 112.931 125.821C112.901 125.808 112.874 125.788 112.852 125.764C112.831 125.74 112.814 125.711 112.804 125.68C112.793 125.649 112.789 125.616 112.792 125.584L112.865 124.993L114.158 125.09L114.085 125.681C114.074 125.748 114.037 125.808 113.983 125.849C113.929 125.89 113.861 125.908 113.794 125.901Z" fill="#292A2E"/>
<path d="M110.521 139.369C110.643 139.17 110.824 139.014 111.039 138.922C111.254 138.831 111.492 138.808 111.721 138.858C111.721 138.837 111.727 138.817 111.739 138.8C111.751 138.787 111.766 138.777 111.782 138.772C111.799 138.767 111.817 138.766 111.834 138.77L111.103 138.146C110.883 137.966 110.736 137.714 110.688 137.434C110.64 137.154 110.695 136.867 110.843 136.625C110.996 136.391 111.232 136.222 111.503 136.151C111.774 136.08 112.061 136.112 112.31 136.242C112.31 136.23 112.317 136.22 112.32 136.21L112.019 135.953C111.813 135.783 111.672 135.547 111.62 135.285C111.567 135.023 111.607 134.751 111.733 134.515C111.814 134.369 111.927 134.243 112.063 134.145C112.2 134.048 112.356 133.982 112.521 133.952C112.686 133.922 112.855 133.929 113.017 133.973C113.179 134.017 113.329 134.096 113.456 134.204L114.151 134.796C114.153 134.792 114.151 134.787 114.155 134.783C114.158 134.779 114.166 134.779 114.171 134.775C114.017 134.569 113.938 134.318 113.946 134.062C113.954 133.806 114.049 133.56 114.215 133.364C114.611 132.833 115.407 133.015 115.856 133.398L117.176 134.714C117.38 134.918 117.53 135.168 117.613 135.443C117.697 135.718 117.711 136.01 117.655 136.292C117.169 138.734 115.748 145.081 114.315 143.858L110.787 140.849C110.582 140.669 110.445 140.424 110.396 140.155C110.348 139.887 110.392 139.61 110.521 139.369Z" fill="#E98862"/>
<path d="M103.567 145.344L98.3826 173.4L85.1307 152.974L75.0063 164.869L96.1217 193.714L96.3007 193.882C97.3878 194.871 98.7088 195.566 100.139 195.903C101.57 196.24 103.062 196.208 104.476 195.808C105.891 195.409 107.18 194.656 108.223 193.621C109.266 192.585 110.028 191.301 110.437 189.89L119.134 147.842L103.567 145.344Z" fill="#4F008B"/>
<path d="M97.6635 176.16C97.6492 176.16 97.635 176.158 97.6212 176.154C97.5807 176.143 97.5462 176.116 97.5254 176.079C97.5046 176.043 97.4992 175.999 97.5103 175.959L98.2292 173.358C98.2405 173.317 98.2674 173.283 98.304 173.262C98.3407 173.241 98.3841 173.236 98.4247 173.247C98.4654 173.258 98.4999 173.285 98.5207 173.322C98.5415 173.358 98.5469 173.402 98.5356 173.442L97.8167 176.043C97.8074 176.077 97.7874 176.106 97.7598 176.127C97.7321 176.148 97.6983 176.16 97.6635 176.16Z" fill="#0C0C0C"/>
<path d="M41.7934 127.838C41.7934 127.838 40.9594 135.306 39.1531 137.947C33.9525 145.553 32.1535 154.291 36.8051 159.106C41.4568 163.921 72.4368 165.372 75.257 154.902C77.6314 146.087 73.4336 144.94 72.7305 137.549C72.4127 134.205 71.4394 127.179 71.4394 127.179" fill="#0A0A0A"/>
<path d="M69.7735 149.628C69.7198 149.632 71.1167 159.409 59.7258 160.866C51.84 161.876 47.3826 154.202 47.2046 154.239C48.0052 153.889 49.3252 153.289 49.6936 153.067C51.0874 152.224 52.155 151.165 52.0625 148.709C52.0091 147.294 50.1872 140.369 50.0236 138.96L62.4901 139.178C62.923 142.137 63.1467 149.157 67.4802 149.52C68.1995 149.579 68.9693 149.612 69.7735 149.628Z" fill="#E98862"/>
<path opacity="0.52" d="M64.3245 147.279C64.0144 146.715 63.767 146.12 63.5868 145.502C63.162 144.096 62.8923 142.647 62.7826 141.182C60.2927 141.352 57.8051 140.819 55.6025 139.645C55.5485 140.508 55.0622 144.33 55.5596 145.039C56.4976 146.377 59.9843 148.168 64.3245 147.279Z" fill="#0C0C0C"/>
<path d="M61.1618 146.245C56.3481 146.494 50.2321 144.299 49.2331 137.858L48.3317 132.046C47.3324 125.605 49.9051 119.859 55.9689 118.918C62.0327 117.977 67.3751 122.495 68.3744 128.936L68.7736 131.509C69.1569 133.981 69.7503 145.8 61.1618 146.245Z" fill="#E98862"/>
<path opacity="0.52" d="M63.362 137.433H63.3738C63.6194 137.393 63.8628 137.34 64.1026 137.274C64.4608 137.171 64.9312 136.998 64.8813 136.676C64.8244 136.309 63.205 132.506 63.0203 132.073C63.0124 132.054 63.0008 132.037 62.9862 132.023C62.9717 132.009 62.9544 131.997 62.9355 131.99C62.9166 131.982 62.8964 131.978 62.876 131.978C62.8555 131.978 62.8354 131.983 62.8166 131.991C62.7978 131.999 62.7808 132.01 62.7665 132.025C62.7522 132.039 62.7409 132.057 62.7332 132.075C62.7256 132.094 62.7218 132.115 62.7219 132.135C62.7221 132.155 62.7263 132.176 62.7343 132.194C63.4253 133.816 64.5355 136.477 64.574 136.724C64.5301 136.836 63.9348 137.033 63.3251 137.128C63.2854 137.134 63.2496 137.155 63.2251 137.187C63.2007 137.219 63.1897 137.259 63.1943 137.299C63.1989 137.339 63.2189 137.375 63.2499 137.401C63.281 137.426 63.3207 137.439 63.3607 137.435L63.362 137.433Z" fill="#0C0C0C"/>
<path opacity="0.52" d="M62.3779 140.167C63.3652 140.072 64.3163 139.746 65.1546 139.216C65.1736 139.206 65.1904 139.193 65.2039 139.176C65.2174 139.16 65.2275 139.141 65.2334 139.12C65.2392 139.1 65.2408 139.079 65.2381 139.058C65.2353 139.036 65.2283 139.016 65.2173 138.998C65.2064 138.98 65.1918 138.964 65.1745 138.952C65.1572 138.939 65.1375 138.931 65.1168 138.926C65.096 138.922 65.0745 138.922 65.0537 138.926C65.0328 138.93 65.0131 138.939 64.9957 138.951C63.184 140.048 61.4146 140.177 59.8803 139.323C59.8495 139.304 59.8177 139.288 59.785 139.273C59.7468 139.258 59.7042 139.259 59.6665 139.275C59.6287 139.291 59.599 139.322 59.5838 139.36C59.5686 139.398 59.5691 139.44 59.5853 139.478C59.6015 139.516 59.6321 139.546 59.6702 139.561C59.6823 139.566 59.702 139.578 59.73 139.593C60.536 140.043 61.4579 140.243 62.3779 140.167Z" fill="#0C0C0C"/>
<path d="M43.444 133.899L48.8791 133.088C53.0251 131.568 54.497 124.526 54.497 124.526C54.497 124.526 59.306 129.534 71.4397 127.179C71.4397 127.179 69.5816 110.302 51.6288 114.597C45.8399 115.981 41.5312 121.627 41.788 129.37C41.9676 134.797 43.444 133.899 43.444 133.899Z" fill="#0A0A0A"/>
<path d="M49.9145 139.762C48.071 140.048 46.272 138.308 45.9859 136.465C45.6998 134.622 47.0364 133.374 48.8783 133.088L50.0193 134.175L51.498 139.516L49.9145 139.762Z" fill="#E98862"/>
<path d="M64.2254 129.046C64.7711 128.719 65.3948 128.544 66.0311 128.541C66.3442 128.537 66.6561 128.581 66.9563 128.67C67.2538 128.757 67.5392 128.881 67.8056 129.039C67.841 129.061 67.8669 129.095 67.878 129.134C67.8891 129.174 67.8846 129.217 67.8655 129.253C67.8463 129.29 67.8139 129.318 67.7749 129.331C67.7359 129.345 67.6932 129.343 67.6556 129.326L67.6444 129.32C67.3976 129.189 67.1353 129.088 66.8635 129.022C66.5949 128.955 66.3178 128.929 66.0416 128.945C65.4936 128.973 64.9627 129.145 64.5029 129.444L64.4879 129.454C64.4345 129.49 64.369 129.504 64.3057 129.491C64.2425 129.479 64.1867 129.442 64.1507 129.389C64.1147 129.335 64.1013 129.27 64.1136 129.207C64.1259 129.143 64.1628 129.088 64.2162 129.052L64.2254 129.046Z" fill="#0C0C0C"/>
<path d="M59.3703 130.021C58.842 129.872 58.2839 129.867 57.7527 130.004C57.4839 130.071 57.2267 130.178 56.9899 130.322C56.7504 130.466 56.53 130.64 56.3339 130.84L56.325 130.848C56.31 130.863 56.2922 130.875 56.2725 130.883C56.2529 130.891 56.2319 130.896 56.2106 130.896C56.1894 130.896 56.1683 130.892 56.1487 130.883C56.129 130.875 56.1112 130.863 56.0961 130.848C56.0811 130.833 56.0691 130.816 56.061 130.796C56.0528 130.776 56.0486 130.755 56.0486 130.734C56.0486 130.713 56.0527 130.692 56.0608 130.672C56.0689 130.653 56.0808 130.635 56.0958 130.62C56.3026 130.389 56.5375 130.185 56.7951 130.013C57.0551 129.839 57.3399 129.704 57.6399 129.614C58.2479 129.427 58.8952 129.407 59.5136 129.556C59.5761 129.572 59.6299 129.612 59.663 129.667C59.6962 129.722 59.7061 129.788 59.6905 129.851C59.6749 129.913 59.6351 129.967 59.5799 130C59.5247 130.033 59.4585 130.043 59.396 130.028L59.3861 130.025L59.3703 130.021Z" fill="#0C0C0C"/>
<path opacity="0.52" d="M62.5389 141.627C62.7177 141.612 62.8949 141.583 63.0687 141.538C63.1074 141.527 63.1403 141.502 63.1604 141.467C63.1805 141.432 63.1862 141.391 63.1764 141.352C63.1666 141.313 63.1419 141.279 63.1077 141.258C63.0735 141.237 63.0324 141.23 62.9931 141.238C61.9474 141.502 61.3721 141.088 61.3473 141.07C61.331 141.058 61.3126 141.049 61.2929 141.044C61.2732 141.039 61.2527 141.037 61.2326 141.04C61.2125 141.043 61.1931 141.05 61.1756 141.06C61.1581 141.07 61.1427 141.084 61.1305 141.1C61.1058 141.133 61.0952 141.174 61.1009 141.215C61.1066 141.256 61.1282 141.292 61.161 141.317C61.5708 141.576 62.0576 141.686 62.5389 141.627Z" fill="#0C0C0C"/>
<path d="M48.8929 133.02L48.8442 132.869C55.7733 130.637 54.3191 123.866 54.3035 123.798L54.4586 123.762C54.4742 123.832 55.9592 130.745 48.8929 133.02Z" fill="#0C0C0C"/>
<path opacity="0.1" d="M58.4892 137.743C59.2822 137.685 59.8901 137.165 59.8469 136.583C59.8037 136.002 59.1259 135.578 58.3329 135.637C57.5398 135.695 56.932 136.215 56.9751 136.797C57.0183 137.378 57.6961 137.802 58.4892 137.743Z" fill="#0C0C0C"/>
<path opacity="0.1" d="M66.9274 135.803C66.9722 136.384 67.6499 136.807 68.4429 136.749C68.5799 136.739 68.7155 136.715 68.8475 136.676C68.9149 135.989 68.947 135.326 68.954 134.712C68.7377 134.648 68.5114 134.624 68.2865 134.643C67.4925 134.701 66.8848 135.22 66.9274 135.803Z" fill="#0C0C0C"/>
<path d="M66.925 131.976C67.3425 131.976 67.6809 131.638 67.6809 131.22C67.6809 130.803 67.3425 130.464 66.925 130.464C66.5076 130.464 66.1692 130.803 66.1692 131.22C66.1692 131.638 66.5076 131.976 66.925 131.976Z" fill="#0C0C0C"/>
<path d="M59.4431 132.732C59.8605 132.732 60.1989 132.394 60.1989 131.976C60.1989 131.559 59.8605 131.22 59.4431 131.22C59.0257 131.22 58.6873 131.559 58.6873 131.976C58.6873 132.394 59.0257 132.732 59.4431 132.732Z" fill="#0C0C0C"/>
<path d="M88.0684 168.033C88.5658 172.257 92.1539 198.512 92.8621 203.695L46.0401 213.291C44.8307 208.733 39.5106 188.808 36.6595 179.994C33.9385 171.584 31.3671 167.305 32.0263 163.223C32.7955 158.458 39.0866 156.55 43.1626 155.124C45.6517 154.253 49.4509 153.216 49.4509 153.216C49.4509 153.216 51.1285 159.745 58.9773 158.519C69.662 156.85 67.4263 149.532 67.4787 149.522C69.1928 149.172 77.7451 148.589 80.4318 149.518C87.7531 152.046 87.0157 159.081 88.0684 168.033Z" fill="#4F008B"/>
<path d="M88.5554 170.872L88.2407 170.918L90.6131 187.23L90.9278 187.184L88.5554 170.872Z" fill="#0C0C0C"/>
<path d="M28.0266 238.243L12.7163 233.981C19.7995 208.528 31.2985 166.661 32.0006 162.685C31.9422 163.061 31.917 163.442 31.9253 163.823L47.8159 163.598C47.8382 165.163 47.8515 166.109 37.7968 202.84C32.9697 220.476 28.0755 238.067 28.0266 238.243Z" fill="#4F008B"/>
<path d="M43.6389 178.898L40.4294 193.356L40.7397 193.424L43.9491 178.967L43.6389 178.898Z" fill="#0C0C0C"/>
<path d="M77.7509 207.979C77.7509 207.979 119.5 186.408 131.065 182.419C134.061 181.385 139.534 180.434 144.226 183.177C158.223 191.362 195.184 224.688 195.184 224.688L186.205 238.106L137.378 203.135C137.378 203.135 113.983 219.827 92.8622 227.169L71.5437 224.65L77.7509 207.979Z" fill="#262626"/>
<path d="M200.673 228.57C200.673 228.57 208.151 227.354 208.77 220.404C209.39 213.453 214.891 215.127 214.891 215.127L214.107 241.733L200.814 241.342L200.673 228.57Z" fill="#4F008B"/>
<path d="M64.511 241.358C64.511 241.358 62.2781 241.208 67.348 241.375C86.2598 241.999 205.007 241.687 205.007 241.687L205.067 223.872L64.551 213.9L64.511 241.358Z" fill="#262626"/>
<path d="M115.023 217.582C115.016 217.582 115.01 217.582 115.003 217.582L101.153 215.836C101.111 215.831 101.073 215.809 101.047 215.776C101.021 215.742 101.01 215.7 101.015 215.658C101.017 215.638 101.024 215.617 101.034 215.599C101.044 215.581 101.058 215.565 101.075 215.552C101.091 215.539 101.11 215.53 101.13 215.524C101.151 215.519 101.172 215.518 101.193 215.521L115.043 217.267C115.085 217.269 115.124 217.288 115.152 217.32C115.18 217.352 115.194 217.393 115.192 217.435C115.189 217.478 115.17 217.517 115.138 217.545C115.107 217.573 115.065 217.587 115.023 217.584V217.582Z" fill="white"/>
<path d="M193.97 223.122H193.958L160.68 220.764C160.638 220.761 160.599 220.741 160.571 220.709C160.543 220.677 160.53 220.636 160.533 220.594C160.536 220.552 160.555 220.513 160.587 220.485C160.619 220.457 160.66 220.443 160.702 220.446L193.98 222.804C194.001 222.805 194.022 222.81 194.041 222.819C194.06 222.827 194.077 222.84 194.091 222.855C194.105 222.87 194.116 222.888 194.124 222.908C194.131 222.927 194.134 222.948 194.134 222.969C194.133 222.99 194.128 223.01 194.12 223.029C194.111 223.048 194.099 223.065 194.083 223.08C194.068 223.094 194.05 223.105 194.03 223.112C194.011 223.12 193.99 223.123 193.969 223.122L193.97 223.122Z" fill="white"/>
<path d="M302.99 242H0.234334C0.202867 242.001 0.171489 241.996 0.142075 241.985C0.112662 241.973 0.0858167 241.956 0.0631446 241.935C0.0404725 241.913 0.0224387 241.887 0.0101212 241.858C-0.00219641 241.829 -0.00854492 241.797 -0.00854492 241.766C-0.00854492 241.734 -0.00219641 241.703 0.0101212 241.674C0.0224387 241.645 0.0404725 241.619 0.0631446 241.597C0.0858167 241.575 0.112662 241.558 0.142075 241.547C0.171489 241.536 0.202867 241.531 0.234334 241.532H302.99C303.021 241.531 303.053 241.536 303.082 241.547C303.111 241.558 303.138 241.575 303.161 241.597C303.184 241.619 303.202 241.645 303.214 241.674C303.226 241.703 303.233 241.734 303.233 241.766C303.233 241.797 303.226 241.829 303.214 241.858C303.202 241.887 303.184 241.913 303.161 241.935C303.138 241.956 303.111 241.973 303.082 241.985C303.053 241.996 303.021 242.001 302.99 242Z" fill="#292A2E"/>
</g>
<defs>
<clipPath id="clip0_224_220">
<rect width="311" height="242" fill="white"/>
</clipPath>
</defs>
</svg>
