<svg width="378" height="236" viewBox="0 0 378 236" fill="none" xmlns="http://www.w3.org/2000/svg">
<g clip-path="url(#clip0_252_939)">
<path opacity="0.18" d="M56.356 96.1193C64.8472 87.1379 77.4855 82.9451 85.9079 73.8995C97.3351 61.628 98.7938 43.0649 107.877 28.9926C114.299 19.0672 124.258 11.8133 135.08 7.05687C154.015 -1.17463 175.303 -2.2351 194.964 4.07376C204.037 7.02937 212.712 11.5476 222.181 12.7115C238.617 14.7277 256.953 6.69486 271.004 15.4609C280.638 21.4638 284.262 33.387 287.922 44.128C292.817 58.4845 300.235 65.7246 307.442 86.7439C310.786 96.5043 321.938 103.208 321.548 113.514C321.442 116.355 320.552 119.297 318.456 121.212C316.772 122.752 314.515 123.467 312.336 124.131C236.939 147.021 158.35 157.669 79.5727 155.667C64.0215 155.268 54.6724 152.711 50.2502 137.773C45.9656 123.306 45.1766 107.937 56.356 96.1193Z" fill="#4C24B1"/>
<path d="M239.31 63.8779C239.649 62.7552 240.493 61.8433 240.86 60.7298C241.163 59.8133 241.126 58.8235 241.37 57.8933C241.811 56.4096 242.813 55.1556 244.163 54.397C245.51 53.6545 247.008 53.2282 248.544 53.1506C251.827 52.8889 255.102 53.7467 257.834 55.5838C260.558 57.445 262.46 60.2821 263.146 63.5067C263.278 64.5247 263.488 65.5312 263.774 66.5173C264.128 67.4796 264.839 68.3915 265.834 68.6389L265.738 69.7845C266.643 69.9667 267.474 70.4118 268.127 71.0639C268.78 71.7161 269.225 72.5463 269.408 73.4504C269.692 74.9763 269.187 76.6076 269.674 78.0831C270.132 79.4578 271.334 80.4935 271.509 81.9048C271.551 82.7751 271.378 83.6423 271.004 84.4297C270.291 86.281 269.518 88.1047 268.683 89.901C267.403 88.5263 266.068 87.1516 264.343 86.4093C263.306 85.951 262.178 85.7952 261.132 85.4332C255.444 83.4903 252.769 76.7543 247.439 73.9774C246.241 73.3496 244.714 73.1434 243.585 72.4331C242.737 71.897 242.714 71.1638 242.209 70.3756C240.837 68.2678 238.434 66.806 239.31 63.8779Z" fill="#0C0C0C"/>
<path d="M242.544 76.9789C242.874 78.514 243.971 79.7649 245.122 80.8372C245.718 81.3917 246.374 81.9645 246.572 82.7572C246.606 83.0187 246.683 83.2727 246.801 83.5087C247.127 83.967 247.856 83.9028 248.374 83.6553C248.991 83.3353 249.529 82.8809 249.946 82.3257C250.364 81.7705 250.651 81.1287 250.787 80.4477C251.05 79.0822 250.89 77.6692 250.329 76.3969C249.844 75.2216 249.115 74.1623 248.191 73.2887C247.267 72.4151 246.168 71.7472 244.966 71.3288C242.149 70.4903 242.177 75.2605 242.544 76.9789Z" fill="#0C0C0C"/>
<path opacity="0.18" d="M377.963 144.843C378.592 138.969 371.032 135.954 365.119 135.757C352.769 135.349 340.627 138.506 328.443 140.541C296.501 145.925 263.761 143.858 231.553 147.185C206.57 149.765 182.059 155.566 157.448 160.565C128.548 166.431 99.4544 171.192 70.2879 175.545C56.0211 177.676 41.5938 180.476 27.2216 181.699C20.5928 182.267 2.33504 181.314 0.0505241 190.804C-0.495374 193.063 2.31669 194.544 4.55992 195.148C23.0838 200.161 41.6305 205.175 60.5259 208.607C72.788 210.838 85.229 212.41 97.0965 216.209C107.478 219.536 117.281 224.517 127.63 227.912C145.158 233.663 163.829 234.731 182.252 235.748C186.839 236.005 191.427 236.252 195.945 235.496C201.762 234.52 207.157 231.917 212.46 229.342L369.922 152.895" fill="#1D2741"/>
<path d="M111.015 83.6003L118.047 67.8507C118.047 67.8507 125.667 64.1849 130.938 67.3513C136.209 70.5177 131.745 81.1762 130.938 84.5442C130.13 87.9123 124.933 89.2274 122.956 87.6877C120.978 86.148 118.391 90.7075 118.391 90.7075L111.015 83.6003Z" fill="url(#paint0_linear_252_939)"/>
<path d="M365.678 147.359L155.118 222.175C146.212 225.341 136.492 225.379 127.561 222.285L22.4781 185.846C21.6882 185.574 20.9511 185.168 20.2991 184.646C18.9307 183.54 18.0498 181.943 17.8449 180.196C17.808 179.9 17.7896 179.601 17.7898 179.303C17.7592 177.7 18.2939 176.138 19.3004 174.89C20.3068 173.641 21.7208 172.787 23.2947 172.475L33.1713 170.399L139.626 147.996L255.613 123.581L304.056 131.623L339.416 137.507L365.678 147.359Z" fill="url(#paint1_linear_252_939)"/>
<path d="M375.706 132.54C375.706 135.79 374.699 138.961 372.823 141.616C370.947 144.272 368.294 146.283 365.229 147.373L154.668 222.189C145.762 225.354 136.042 225.393 127.112 222.299L22.0195 185.846C21.2295 185.574 20.4924 185.168 19.8405 184.646L17.3954 180.196L17.3403 180.095V160.107L139.195 147.991L303.607 131.623L367.674 125.254C369.101 125.11 370.539 125.39 371.808 126.058C373.077 126.727 374.12 127.754 374.807 129.011" fill="#4C24B1"/>
<path d="M375.706 132.54C375.706 135.79 374.699 138.961 372.823 141.616C370.947 144.272 368.294 146.283 365.229 147.373L154.668 222.189C145.762 225.354 136.042 225.393 127.112 222.299L22.0195 185.846C21.2295 185.574 20.4924 185.168 19.8405 184.646L17.3954 180.196L17.3403 180.095V160.107L139.195 147.991L303.607 131.623L367.674 125.254C369.101 125.11 370.539 125.39 371.808 126.058C373.077 126.727 374.12 127.754 374.807 129.011" fill="url(#paint2_linear_252_939)"/>
<path d="M375.248 129.025C374.469 131.238 373.205 133.248 371.548 134.909C369.89 136.571 367.882 137.84 365.669 138.625L155.108 213.446C146.202 216.61 136.482 216.647 127.552 213.551L22.4782 177.112C21.6885 176.841 20.9514 176.437 20.2992 175.916L17.8541 171.462L17.7991 171.361V160.107L139.654 147.991L304.056 131.623L368.123 125.254C369.551 125.11 370.988 125.39 372.257 126.058C373.526 126.727 374.569 127.754 375.257 129.011" fill="url(#paint3_linear_252_939)"/>
<path d="M371.66 125.795L155.136 203.007C146.23 206.173 136.509 206.211 127.58 203.113L22.4781 166.674C15.8172 164.383 16.4228 154.76 23.3268 153.302L245.406 104.226C248.188 103.609 251.065 103.559 253.866 104.079L365.976 123.879C366.839 124.03 372.491 125.497 371.66 125.795Z" fill="#4C24B1"/>
<path d="M244.264 85.1537C244.264 85.1537 234.819 96.3392 231.351 100.005C226.639 104.986 213.386 100.005 213.386 100.005L218.767 110.957L224.084 111.695L242.608 98.4058L244.264 85.1537Z" fill="url(#paint4_linear_252_939)"/>
<path d="M210.809 96.9716L210.331 95.6794H212.565V94.7492H214.433V93.8419L217.589 94.818L222.286 95.9544L223.534 95.4091L238.218 98.9191L237.993 99.7761L223.057 106.15L216.667 105.101L210.809 96.9716ZM154.09 87.7245C154.09 87.7245 156.338 74.9993 156.925 70.8248C157.994 63.1723 160.962 60.5374 164.063 60.1204C176.821 58.4158 180.192 58.0492 193.881 59.983C200.62 60.9361 202.042 86.8859 202.313 94.1993C202.356 95.4216 202.007 96.6258 201.317 97.6361L196.542 101.041L195.129 113.014L160.627 114.824L160.301 101.417L146.672 101.105L147.081 90.7213L154.09 87.7245Z" fill="#4C24B1"/>
<path d="M160.306 101.416L162.306 72.6897C162.306 72.6897 175.949 72.2865 175.889 74.3989C175.83 76.5114 165.944 95.968 165.944 95.968L160.306 101.416Z" fill="url(#paint5_linear_252_939)"/>
<path d="M183.862 58.6266C184.66 58.5039 185.476 58.6472 186.183 59.0344C186.183 59.0344 184.486 66.4395 178.174 69.2943C171.862 72.1491 170.747 62.1 170.747 62.1L183.862 58.6266Z" fill="url(#paint6_linear_252_939)"/>
<path d="M143.484 89.7361C143.301 89.7204 143.116 89.7503 142.947 89.8232C142.562 90.0385 142.603 90.6434 142.892 90.9779C143.22 91.2746 143.599 91.509 144.012 91.6699C144.097 91.7045 144.174 91.7561 144.239 91.8214C144.303 91.8868 144.354 91.9647 144.388 92.0502C144.411 92.1781 144.391 92.3099 144.333 92.4259C143.938 93.3791 142.787 93.7136 141.796 93.9977C140.294 94.431 138.838 95.0128 137.452 95.7344C137.28 95.7985 137.14 95.9244 137.057 96.0873C136.919 96.4997 137.516 96.7563 137.938 96.7838C138.99 96.8617 140.046 96.8617 141.099 96.7838C140.823 96.9762 140.507 97.242 140.58 97.5857C140.654 97.9294 140.975 98.021 141.268 98.0439C141.565 98.0318 141.862 98.0642 142.149 98.1401C142.608 98.328 142.819 98.8962 143.241 99.1803C143.662 99.4072 144.151 99.4739 144.617 99.3682C145.508 99.2629 146.387 99.0711 147.241 98.7954C147.743 98.6605 148.211 98.4233 148.617 98.0989C149.07 97.6243 149.387 97.0373 149.535 96.3988C149.966 95.0241 150.521 92.2747 149.319 91.0971C148.117 89.9194 145.044 89.7774 143.484 89.7361Z" fill="url(#paint7_linear_252_939)"/>
<path d="M118.387 90.7075L128.626 107.264C128.626 107.264 131.915 113.179 135.786 112.377C139.658 111.576 143.282 106.732 143.282 106.732L148.425 112.011C148.425 112.011 140.328 125.666 131.483 124.47C126.561 123.806 116.01 113.578 116.01 113.578L118.387 90.7075Z" fill="#4C24B1"/>
<path d="M118.387 90.7075L128.626 107.264C128.626 107.264 131.915 113.179 135.786 112.377C139.658 111.576 143.282 106.732 143.282 106.732L148.425 112.011C148.425 112.011 140.328 125.666 131.483 124.47C126.561 123.806 116.01 113.578 116.01 113.578L118.387 90.7075Z" fill="url(#paint8_linear_252_939)"/>
<path d="M31.0657 151.561L233.131 110.577L346.925 132.132L165.834 195.29L31.0657 151.561Z" fill="url(#paint9_linear_252_939)"/>
<path opacity="0.18" d="M140.456 163.901C142.548 170.885 150.273 175.678 157.466 174.441C162.283 173.62 166.361 170.559 170.577 168.085C180.978 162.016 192.965 159.208 204.982 160.025C212.153 160.533 219.781 162.256 226.24 159.108C230.718 156.922 233.851 152.693 237.993 149.944C241.498 147.607 245.604 146.374 249.397 144.555C255.306 141.723 262.017 134.286 271.513 127.366C277.119 123.283 286.858 119.508 289.441 116.634C284.124 115.191 279.316 121.299 271.513 122.133C255.196 123.833 233.658 122.784 222.231 124.255C208.602 126.005 194.959 127.76 181.495 130.491C152.737 136.32 124.671 143.941 95.7111 148.857C89.9585 149.838 75.1046 150.69 71.5219 156.405C66.1822 164.951 83.105 168.951 88.5732 169.62C92.9541 170.142 141.672 167.957 140.456 163.901Z" fill="#1D2741"/>
<path d="M202.051 141.608C202.051 141.608 195.899 141.828 194.766 143.368C193.633 144.907 195.918 146.177 195.918 146.177L208.207 141.173L202.051 141.608ZM198.12 113.578C198.12 113.578 201.358 113.404 202.895 115.929C204.432 118.454 204.432 124.466 204.432 124.466C204.432 124.466 201.845 127.696 198.968 126.583C196.092 125.469 197.294 119.159 197.294 119.159L198.12 113.578Z" fill="#25233A"/>
<path d="M166.696 135.72L177.073 130.006L176.743 119.393C176.743 119.393 164.623 123.934 164.421 124.544C164.219 125.153 166.696 135.72 166.696 135.72Z" fill="url(#paint10_linear_252_939)"/>
<path d="M160.1 106.475C160.1 106.475 151.351 126.748 154.049 132.54C155.599 135.867 159.503 136.879 162.54 137.122C163.625 137.216 164.709 136.939 165.615 136.336C166.522 135.733 167.196 134.841 167.527 133.804C169.687 127.018 174.967 113.917 177.839 136.508C178.298 140.22 191.046 138.433 193.124 136.618C195.202 134.803 199.959 123.572 199.959 123.572C199.959 123.572 198.955 120.067 196.959 119.159C196.959 119.159 199.624 109.193 195.436 107.621C195.422 107.626 165.43 115.787 160.1 106.475Z" fill="#4C24B1"/>
<path d="M160.1 106.475C160.1 106.475 151.351 126.748 154.049 132.54C155.599 135.867 159.503 136.879 162.54 137.122C163.625 137.216 164.709 136.939 165.615 136.336C166.522 135.733 167.196 134.841 167.527 133.804C169.687 127.018 174.967 113.917 177.839 136.508C178.298 140.22 191.046 138.433 193.124 136.618C195.202 134.803 199.959 123.572 199.959 123.572C199.959 123.572 198.955 120.067 196.959 119.159C196.959 119.159 199.624 109.193 195.436 107.621C195.422 107.626 165.43 115.787 160.1 106.475Z" fill="url(#paint11_linear_252_939)"/>
<path d="M114.895 124.466C114.895 124.466 152.906 134.913 159.939 138.263C166.971 141.613 168.531 141.929 168.531 141.929L165.834 149.751L92.7017 142.236L114.895 124.466Z" fill="#4C24B1"/>
<path d="M114.895 124.466C114.895 124.466 152.906 134.913 159.939 138.263C166.971 141.613 168.531 141.929 168.531 141.929L165.834 149.751L92.7017 142.236L114.895 124.466Z" fill="url(#paint12_linear_252_939)"/>
<path d="M166.893 146.653L152.636 143.065L144.897 133.122L113.551 143.065L114.946 145.155L165.834 149.728L166.893 146.653Z" fill="url(#paint13_linear_252_939)"/>
<path d="M67.2465 167.957L94.445 176.704C94.6425 176.774 94.8577 176.774 95.0552 176.704L95.2708 176.622C95.4478 176.554 95.5992 176.432 95.7042 176.274C95.8093 176.116 95.8627 175.93 95.8572 175.74C95.8516 175.551 95.7874 175.368 95.6733 175.216C95.5593 175.065 95.401 174.952 95.2203 174.894L67.8061 166.234C67.6133 166.165 67.4026 166.165 67.2098 166.234C67.0339 166.302 66.8833 166.422 66.7783 166.578C66.6734 166.735 66.6192 166.92 66.6233 167.108C66.6273 167.296 66.6892 167.479 66.8007 167.631C66.9123 167.783 67.0679 167.896 67.2465 167.957Z" fill="#25233A"/>
<path d="M277.477 115.425L311.735 122.032C312.62 122.206 313.536 122.12 314.373 121.785L317.125 120.699C317.344 120.615 317.528 120.463 317.651 120.264C317.774 120.066 317.829 119.832 317.807 119.6C317.784 119.368 317.686 119.149 317.527 118.977C317.369 118.806 317.158 118.691 316.928 118.651L283.959 112.497C282.966 112.309 281.941 112.377 280.981 112.694L277.39 113.867C277.22 113.921 277.073 114.031 276.972 114.178C276.871 114.325 276.821 114.501 276.831 114.679C276.841 114.857 276.91 115.027 277.027 115.162C277.143 115.297 277.302 115.389 277.477 115.425Z" fill="#4C24B1"/>
<path d="M277.477 115.425L311.735 122.032C312.62 122.206 313.536 122.12 314.373 121.785L317.125 120.699C317.344 120.615 317.528 120.463 317.651 120.264C317.774 120.066 317.829 119.832 317.807 119.6C317.784 119.368 317.686 119.149 317.527 118.977C317.369 118.806 317.158 118.691 316.928 118.651L283.959 112.497C282.966 112.309 281.941 112.377 280.981 112.694L277.39 113.867C277.22 113.921 277.073 114.031 276.972 114.178C276.871 114.325 276.821 114.501 276.831 114.679C276.841 114.857 276.91 115.027 277.027 115.162C277.143 115.297 277.302 115.389 277.477 115.425Z" fill="url(#paint14_linear_252_939)"/>
<path d="M277.477 113.94L311.735 120.552C312.62 120.721 313.535 120.636 314.373 120.305L317.125 119.219C317.344 119.135 317.528 118.983 317.651 118.784C317.774 118.586 317.829 118.352 317.807 118.12C317.784 117.887 317.686 117.669 317.527 117.497C317.369 117.326 317.158 117.211 316.928 117.171L283.959 111.003C282.966 110.816 281.942 110.883 280.981 111.195L277.38 112.377C277.208 112.432 277.059 112.542 276.957 112.69C276.855 112.838 276.806 113.017 276.817 113.196C276.828 113.376 276.899 113.547 277.018 113.682C277.138 113.817 277.299 113.908 277.477 113.94ZM153.87 83.5362C153.87 83.5362 154.718 82.2073 157.026 82.3356C159.333 82.4639 163.572 83.5729 163.572 83.5729L148.893 114.788H141.75C141.458 114.788 141.172 114.714 140.916 114.574C140.661 114.434 140.445 114.231 140.289 113.985C140.133 113.739 140.041 113.458 140.023 113.167C140.005 112.876 140.061 112.586 140.186 112.323L153.87 83.5362Z" fill="#4C24B1"/>
<path d="M153.87 83.5362C153.87 83.5362 154.718 82.2073 157.026 82.3356C159.333 82.4639 163.572 83.5729 163.572 83.5729L148.893 114.788H141.75C141.458 114.788 141.172 114.714 140.916 114.574C140.661 114.434 140.445 114.231 140.289 113.985C140.133 113.739 140.041 113.458 140.023 113.167C140.005 112.876 140.061 112.586 140.186 112.323L153.87 83.5362Z" fill="url(#paint15_linear_252_939)"/>
<path d="M155.407 83.5362C155.407 83.5362 156.26 82.2073 158.567 82.3356C160.113 82.4809 161.646 82.7382 163.155 83.1055C163.389 83.1586 163.609 83.2636 163.797 83.4129C163.986 83.5621 164.138 83.7517 164.243 83.9677C164.349 84.1836 164.404 84.4205 164.405 84.6606C164.407 84.9008 164.354 85.1383 164.251 85.3554L151.017 113.551C150.843 113.921 150.567 114.234 150.222 114.453C149.877 114.672 149.476 114.788 149.067 114.788H143.282C142.991 114.788 142.704 114.715 142.448 114.575C142.192 114.434 141.977 114.232 141.821 113.985C141.665 113.739 141.574 113.457 141.557 113.167C141.54 112.876 141.597 112.585 141.723 112.323L155.407 83.5362Z" fill="#4C24B1"/>
<path d="M155.407 83.5362C155.407 83.5362 156.26 82.2073 158.567 82.3356C160.113 82.4809 161.646 82.7382 163.155 83.1055C163.389 83.1586 163.609 83.2636 163.797 83.4128C163.986 83.5621 164.138 83.7517 164.243 83.9677C164.349 84.1836 164.404 84.4205 164.405 84.6606C164.407 84.9008 164.354 85.1383 164.251 85.3554L151.017 113.551C150.843 113.921 150.567 114.234 150.222 114.453C149.877 114.672 149.476 114.788 149.067 114.788H143.282C142.991 114.788 142.704 114.715 142.448 114.575C142.192 114.434 141.977 114.232 141.821 113.985C141.665 113.739 141.574 113.457 141.557 113.167C141.54 112.876 141.597 112.585 141.723 112.323L155.407 83.5362Z" fill="url(#paint16_linear_252_939)"/>
<path d="M82.4444 142.012C82.4444 142.012 75.9487 122.706 93.9128 98.8916C100.684 89.9102 106.097 85.3783 110.212 83.2154C114.721 80.8464 120.056 84.5214 119.529 89.5849C118.318 101.21 116.038 123.164 116.038 123.343C116.038 123.522 88.8575 145.732 82.4444 142.012Z" fill="#4C24B1"/>
<path d="M103.711 95.9681C103.711 95.9681 89.518 119.755 92.7705 135.376C92.7705 135.376 117.363 125.675 116.019 123.329C114.675 120.983 114.914 95.9543 114.914 95.9543L103.711 95.9681Z" fill="url(#paint17_linear_252_939)"/>
<path d="M156.925 153.06C154.614 154.246 152.141 155.088 149.585 155.557C148.792 155.704 147.993 155.814 147.195 155.887C140.915 151.079 135.029 145.779 129.593 140.037C118.207 148.046 104.89 155.062 91.0594 153.504C89.3438 153.386 87.6726 152.906 86.1555 152.097C85.1569 151.46 84.2729 150.659 83.5407 149.728C82.3617 148.276 81.4305 146.521 81.3295 145.008C81.1139 141.801 83.8021 140.738 86.4353 139.29C99.0767 132.342 112.319 126.547 126.001 121.973C129.011 120.965 132.332 120.021 135.3 121.153C138.268 122.285 140.094 125.162 141.722 127.87L156.925 153.06Z" fill="#4C24B1"/>
<path d="M156.925 153.06C154.614 154.246 152.141 155.088 149.585 155.557C148.792 155.704 147.993 155.814 147.195 155.887C140.915 151.079 135.029 145.779 129.593 140.037C118.207 148.046 104.89 155.062 91.0594 153.504C89.3438 153.386 87.6726 152.906 86.1555 152.097C85.1569 151.46 84.2729 150.659 83.5407 149.728C82.3617 148.276 81.4305 146.521 81.3295 145.008C81.1139 141.801 83.8021 140.738 86.4353 139.29C99.0767 132.342 112.319 126.547 126.001 121.973C129.011 120.965 132.332 120.021 135.3 121.153C138.268 122.284 140.094 125.162 141.722 127.87L156.925 153.06Z" fill="url(#paint18_linear_252_939)"/>
<path d="M103.711 95.9681C103.711 95.9681 111.015 118.009 114.684 120.997C118.354 123.985 138.998 105.046 138.998 105.046V97.714L121.354 105.38C121.354 105.38 120.414 87.0509 118.653 85.9144C116.891 84.778 105.909 83.5087 103.711 95.9681Z" fill="#4C24B1"/>
<path d="M103.711 95.9681C103.711 95.9681 111.015 118.009 114.684 120.997C118.354 123.985 138.998 105.046 138.998 105.046V97.714L121.354 105.38C121.354 105.38 120.414 87.0509 118.653 85.9144C116.891 84.778 105.909 83.5087 103.711 95.9681Z" fill="url(#paint19_linear_252_939)"/>
<path d="M141.158 96.2476C141.82 96.0051 142.511 95.8511 143.213 95.7893C144.723 95.5969 145.319 95.1982 146.837 95.2532C148.512 95.2532 147.255 96.4584 146.773 96.6279C146.273 96.7527 145.8 96.9653 145.374 97.2557C144.663 97.8606 144.741 98.942 144.631 99.8676C144.468 101.218 143.787 102.454 142.732 103.313C141.676 104.173 140.328 104.59 138.97 104.477C138.788 104.481 138.607 104.445 138.441 104.371C138.275 104.298 138.126 104.188 138.007 104.051C137.884 103.829 137.825 103.577 137.837 103.323C137.777 102.049 137.305 100.156 137.984 99.0153C138.447 98.2134 140.149 96.2476 141.158 96.2476Z" fill="url(#paint20_linear_252_939)"/>
<path d="M113.721 64.6065C112.757 65.3522 112.104 66.4279 111.886 67.6263C111.676 68.811 111.564 70.0111 111.551 71.2143C111.444 72.9685 111.177 74.7094 110.753 76.4152C110.88 76.3055 111.044 76.2495 111.212 76.2594C111.281 76.7372 111.303 77.2208 111.276 77.7029L112.033 77.5791C112.033 78.7614 111.987 79.9436 111.895 81.1259C113.781 80.1544 115.208 78.5048 116.588 76.8964C116.672 76.8081 116.741 76.7077 116.795 76.5985C116.847 76.42 116.858 76.232 116.827 76.0486C116.69 75.2044 116.833 74.3385 117.235 73.5833C117.694 72.8685 118.694 72.4469 119.428 72.8639C120.368 73.4 120.29 74.7427 120.561 75.7874C121.024 74.8624 121.359 73.8789 121.556 72.8639C121.598 72.4836 121.717 72.1157 121.905 71.7825C122.119 71.5175 122.39 71.3045 122.699 71.1593C124.526 70.1873 126.638 69.8904 128.662 70.3207C129.786 70.5682 130.919 71.0401 132.052 70.8248C132.303 70.7454 132.567 70.722 132.828 70.756C133.286 70.866 133.626 71.4342 134.085 71.3242C134.206 71.2747 134.316 71.1995 134.406 71.1038C134.497 71.0082 134.565 70.8942 134.608 70.7698C135.086 69.7263 135.28 68.5751 135.171 67.4326C135.061 66.29 134.652 65.1966 133.984 64.2628C134.751 64.4643 135.539 64.5795 136.332 64.6065C133.149 60.1937 127.41 57.7009 122.043 58.6174C120.846 58.7709 119.708 59.2215 118.731 59.9279C118.202 60.363 117.767 60.9002 117.452 61.5073C117.137 62.1144 116.948 62.7789 116.896 63.4609C116.795 64.4553 116.616 64.162 115.763 64.075C115.041 64.0076 114.318 64.1958 113.721 64.6065Z" fill="#0C0C0C"/>
<path d="M117.96 74.7289C117.96 75.0542 118.042 75.375 118.061 75.7004C118.093 76.2731 117.941 76.9101 118.267 77.3867C118.475 77.6382 118.744 77.8336 119.047 77.9549C119.135 78.0128 119.24 78.0387 119.345 78.0282C119.411 78.0055 119.471 77.9662 119.517 77.914C119.564 77.8618 119.596 77.7986 119.611 77.7303C119.741 77.2813 119.741 76.8047 119.611 76.3556C119.487 75.9214 119.395 75.4788 119.336 75.0313C119.308 74.706 119.391 74.234 119.162 73.9545C118.62 73.3038 117.955 74.1561 117.96 74.7289Z" fill="url(#paint21_linear_252_939)"/>
<path d="M156.43 96.2842C156.113 95.9314 155.631 95.5556 155.223 95.7893C154.815 96.023 154.92 96.7058 155.113 97.164C155.306 97.6222 155.54 98.195 155.755 98.7083C155.524 98.2874 155.232 97.9029 154.888 97.5673C154.785 97.4474 154.644 97.3652 154.489 97.3336C154.368 97.3368 154.252 97.3813 154.16 97.4597C154.069 97.5381 154.006 97.6456 153.984 97.7643C153.95 98.0047 153.974 98.2497 154.053 98.4792L154.576 100.495C154.285 100.063 153.893 99.7071 153.434 99.4598C153.37 99.4101 153.293 99.3785 153.213 99.368C153.132 99.3575 153.05 99.3686 152.975 99.4002C152.796 99.5102 152.81 99.7714 152.856 99.9776C153.073 100.95 153.401 101.894 153.833 102.791C153.581 102.53 153.214 102.246 152.916 102.42C152.617 102.594 152.677 103.167 152.851 103.543L153.861 105.742C153.937 105.987 154.1 106.195 154.319 106.329C154.778 106.507 155.191 106.026 155.429 105.609C156.2 104.253 156.87 102.843 157.434 101.389C157.755 100.573 158.182 99.5056 157.962 98.6395C157.742 97.7735 156.998 96.9303 156.43 96.2842Z" fill="url(#paint22_linear_252_939)"/>
<path d="M166.292 148.404H169.972L171.875 143.065L168.531 141.906L166.292 148.404Z" fill="url(#paint23_linear_252_939)"/>
<path d="M177.449 133.346C177.82 132.745 178.311 132.226 178.889 131.82C179.181 131.622 179.522 131.51 179.874 131.496C180.226 131.483 180.574 131.568 180.88 131.742C181.123 131.946 181.323 132.196 181.468 132.478C181.613 132.759 181.7 133.067 181.724 133.383C182.004 135.138 181.637 136.925 181.243 138.657C180.405 142.363 179.451 146.039 178.38 149.687C178.368 149.831 178.324 149.97 178.251 150.094C178.178 150.219 178.078 150.325 177.958 150.406C177.838 150.486 177.702 150.539 177.559 150.559C177.416 150.58 177.27 150.569 177.132 150.525C174.987 150.392 172.868 149.981 170.829 149.302C170.525 149.237 170.253 149.067 170.063 148.821C169.989 148.631 169.958 148.428 169.973 148.225C169.987 148.022 170.046 147.825 170.146 147.648C172.132 142.561 174.242 137.828 177.449 133.346Z" fill="#25233A"/>
<path d="M150.145 155.447L152.989 157.958L158.618 155.887L156.921 153.06L150.145 155.447Z" fill="url(#paint24_linear_252_939)"/>
<path d="M152.989 157.963L156.095 164.158L172.485 159.498C172.485 159.498 173.343 156.666 169.531 156.373C165.719 156.079 158.618 155.91 158.618 155.91L152.989 157.963Z" fill="#25233A"/>
<path d="M151.792 154.567L149.594 155.557C148.801 155.704 148.002 155.813 147.204 155.887C140.924 151.079 135.038 145.779 129.602 140.036C118.217 148.046 104.899 155.062 91.0685 153.504C89.3529 153.385 87.6817 152.906 86.1646 152.097C85.166 151.46 84.282 150.659 83.5498 149.728C86.4123 151.41 91.1603 149.728 91.1603 149.728C91.1603 149.728 128.442 130.482 130.612 130.107C132.782 129.731 151.792 154.567 151.792 154.567Z" fill="url(#paint25_linear_252_939)"/>
<path d="M171.366 59.1948C171.366 59.1948 171.036 65.665 175.32 67.2047C179.605 68.7444 184.986 59.1948 184.986 59.1948C184.986 59.1948 182.853 58.7136 182.279 56.01C179.495 42.987 174.586 58.2233 171.366 59.1948Z" fill="url(#paint26_linear_252_939)"/>
<path d="M163.664 52.8986C163.664 52.8986 164.834 64.8127 171.004 66.3616C177.174 67.9104 181.096 56.2392 181.096 56.2392C181.096 56.2392 185.504 44.1692 178.734 44.1418C171.963 44.1143 161.563 40.4988 163.664 52.8986Z" fill="url(#paint27_linear_252_939)"/>
<path d="M196.546 101.041L185.592 104.78C185.248 104.897 184.884 104.945 184.522 104.918C184.159 104.892 183.806 104.793 183.483 104.627C183.16 104.461 182.874 104.231 182.642 103.952C182.41 103.673 182.237 103.35 182.133 103.002L180.711 98.2363C180.567 97.7512 180.598 97.2311 180.798 96.7664C180.998 96.3018 181.355 95.922 181.807 95.6931L191.752 90.7075L190.023 72.6897L160.324 101.416L160.448 106.457C160.448 106.457 162.044 110.04 170.724 110.581C179.403 111.122 195.789 107.626 195.789 107.626L196.546 101.041Z" fill="url(#paint28_linear_252_939)"/>
<path d="M181.821 97.7506C181.821 97.7506 179.068 96.6142 177.444 97.0907C175.821 97.5673 174.499 98.0805 174.499 98.0805C174.523 98.2447 174.582 98.4017 174.673 98.5404C174.765 98.679 174.885 98.7958 175.027 98.8824C175.376 99.1299 172.908 99.7989 171.279 100.175C170.916 100.262 170.602 100.488 170.405 100.804C170.208 101.121 170.143 101.502 170.224 101.866C170.388 102.61 170.779 103.285 171.345 103.797C171.911 104.309 172.622 104.631 173.38 104.72C175.052 104.944 176.739 105.047 178.426 105.027C180.72 104.881 183.303 101.664 183.303 101.664C183.303 101.664 183.004 98.1722 181.821 97.7506Z" fill="url(#paint29_linear_252_939)"/>
<path d="M156.095 46.937C156.242 47.0614 156.416 47.1495 156.603 47.1941C156.79 47.2386 156.986 47.2385 157.173 47.1936C156.358 45.7743 155.996 44.1405 156.136 42.5104C156.526 42.9412 157.246 42.8266 157.732 42.5104C158.219 42.1943 158.581 41.7131 159.109 41.429C159.542 41.2144 160.006 41.0705 160.485 41.0029C162.887 40.5069 165.205 39.6657 167.366 38.5055C168.669 37.8044 169.926 36.9841 171.343 36.5442C174.637 35.5315 178.403 36.8925 180.651 39.5044C181.061 40.0304 181.497 40.5351 181.958 41.0166C182.362 41.3425 182.743 41.6946 183.101 42.0705C183.903 43.042 183.945 44.4259 183.839 45.6814C183.566 48.8706 182.609 51.9636 181.032 54.7499L181.197 50.6258C181.224 49.8972 181.091 48.9395 180.371 48.7928C179.784 48.6737 179.284 49.2511 179.036 49.7872C178.66 50.6225 178.528 51.5471 178.655 52.4541C177.655 51.8859 177.045 50.8457 176.33 49.943C175.614 49.0403 174.623 48.188 173.476 48.2705C172.196 48.3667 171.329 49.5489 170.32 50.3463C169.128 51.2724 167.626 51.707 166.123 51.5606C165.799 51.4826 165.461 51.4826 165.136 51.5606C164.283 51.8813 164.251 52.6741 163.26 52.6145C162.682 52.5824 161.2 51.556 160.655 51.2398C158.791 50.2191 157.221 48.7376 156.095 46.937Z" fill="#0C0C0C"/>
<path d="M255.632 126.816C255.632 126.816 248.709 131.733 237.993 129.053C227.277 126.372 221.905 124.47 221.905 124.47L210.139 138.854L210.079 138.923L208.652 138.378L204.033 136.623C204.033 136.623 209.161 118.128 212.198 114.834C213.116 113.848 216.593 109.509 222.043 110.916C228.355 112.547 240.943 114.366 249.608 116.286C257.352 117.995 255.632 126.816 255.632 126.816Z" fill="#4C24B1"/>
<path d="M255.632 126.816C255.632 126.816 248.709 131.733 237.993 129.053C227.277 126.372 221.905 124.47 221.905 124.47L210.139 138.854L210.079 138.923L208.652 138.378L204.033 136.623C204.033 136.623 209.161 118.128 212.198 114.834C213.116 113.848 216.593 109.509 222.043 110.916C228.355 112.547 240.943 114.366 249.608 116.286C257.352 117.995 255.632 126.816 255.632 126.816Z" fill="url(#paint30_linear_252_939)"/>
<path d="M239.122 121.854L237.993 129.053C227.277 126.372 221.905 124.47 221.905 124.47L210.139 138.854L208.652 138.396L220.731 118.234L239.122 121.854Z" fill="url(#paint31_linear_252_939)"/>
<path d="M249.608 116.282L197.23 144.536C197.23 144.536 200.514 147.153 201.248 148.404C201.982 149.655 205.308 150.535 205.308 150.535C205.308 150.535 236.36 140.912 239.603 138.048C239.603 138.048 247.402 137.131 251.072 136.513C254.742 135.894 258.834 132.072 260.884 126.816C262.935 121.56 262.091 115.475 262.091 115.475L249.627 116.282H249.608Z" fill="#4C24B1"/>
<path d="M249.608 116.282L197.23 144.536C197.23 144.536 200.514 147.153 201.248 148.404C201.982 149.655 205.308 150.535 205.308 150.535C205.308 150.535 236.36 140.912 239.603 138.048C239.603 138.048 247.402 137.131 251.072 136.513C254.742 135.894 258.834 132.072 260.884 126.816C262.935 121.56 262.091 115.475 262.091 115.475L249.627 116.282H249.608Z" fill="url(#paint32_linear_252_939)"/>
<path d="M197.987 145.155L193.775 147.231L198.968 152.363L203.638 149.971L197.987 145.155Z" fill="url(#paint33_linear_252_939)"/>
<path d="M194.748 147.231C194.748 147.231 188.945 139.335 187.037 140.105C185.128 140.875 184.546 144.229 184.692 144.688C184.803 145.017 189.885 152.093 192.399 155.58C192.773 156.099 193.33 156.457 193.958 156.581C194.585 156.705 195.237 156.586 195.78 156.249L198.496 154.572L199.712 151.992L194.748 147.231Z" fill="#25233A"/>
<path d="M204.505 136.797L203.088 141.375L208.652 138.373L204.505 136.797Z" fill="url(#paint34_linear_252_939)"/>
<path d="M246.081 117.418L239.92 114.357C239.92 114.357 247.645 106.475 242.425 100.014C242.425 100.014 239.012 97.3473 239.617 94.1993C240.003 92.2059 242.503 87.981 244.278 85.1537C244.829 84.2768 245.555 83.5227 246.41 82.9385C247.266 82.3543 248.233 81.9525 249.251 81.7582L260.104 79.6824C260.104 79.6824 264.522 80.2185 266.279 85.7815C268.036 91.3444 262.063 115.475 262.063 115.475L246.081 117.418Z" fill="#4C24B1"/>
<path d="M246.081 117.418L239.92 114.357C239.92 114.357 247.645 106.475 242.425 100.014C242.425 100.014 239.012 97.3473 239.617 94.1992C240.003 92.2059 242.503 87.981 244.278 85.1537C244.829 84.2768 245.555 83.5227 246.41 82.9385C247.266 82.3543 248.233 81.9525 249.251 81.7582L260.104 79.6824C260.104 79.6824 264.522 80.2185 266.279 85.7815C268.036 91.3444 262.063 115.475 262.063 115.475L246.081 117.418Z" fill="url(#paint35_linear_252_939)"/>
<path d="M260.127 79.6962C260.127 79.6962 252.09 88.3614 249.251 86.6614C248.878 86.4748 248.563 86.1902 248.34 85.8382C248.117 85.4861 247.994 85.08 247.985 84.6635C247.985 83.2063 249.251 81.772 249.251 81.772C249.251 81.772 251.333 77.5837 247.709 78.184H247.645C243.934 78.8393 242.682 69.8396 244.218 64.1987C245.755 58.5578 255.535 62.9294 255.801 64.8677C256.068 66.8061 260.127 79.6962 260.127 79.6962Z" fill="url(#paint36_linear_252_939)"/>
<path d="M247.044 59.818C248.104 60.2075 248.654 61.3348 249.241 62.297C250.731 64.7509 252.972 66.6611 255.632 67.7455C256.829 68.2312 258.224 68.529 259.38 67.9517C258.667 66.6619 258.215 65.2452 258.049 63.7817C258.008 62.9343 257.908 62.0907 257.751 61.2569C257.127 58.8053 254.806 57.174 252.485 56.175C251.201 55.5691 249.804 55.2382 248.384 55.2036C247.674 55.1907 246.97 55.3301 246.318 55.6123C245.667 55.8945 245.084 56.313 244.608 56.8395C244.068 57.5325 243.717 58.3535 243.59 59.2223C243.434 60.1388 243.182 62.2008 244.264 61.266C245.168 60.4779 245.425 59.2223 247.044 59.818Z" fill="#0C0C0C"/>
<path d="M254.677 70.6781C255.1 70.1649 255.545 69.6746 256.008 69.198C256.182 69.0193 256.434 68.8314 256.655 68.946C256.743 69.0039 256.811 69.0869 256.852 69.1843C257.015 69.5012 257.104 69.8513 257.112 70.2077C257.119 70.5642 257.044 70.9176 256.894 71.2409C256.743 71.5642 256.521 71.8488 256.243 72.073C255.966 72.2971 255.64 72.4548 255.292 72.534C256.338 72.7264 253.668 77.6662 257.907 80.938C261.871 83.9944 264.21 81.2817 265.017 81.3412C265.146 79.4121 259.912 71.8512 259.838 69.9174C259.862 69.3185 259.736 68.7231 259.471 68.1853C258.939 67.2688 257.086 66.1095 256.081 66.8977C255.182 67.5896 254.976 69.6654 254.677 70.6781Z" fill="#0C0C0C"/>
<path d="M266.375 84.2464C266.114 83.7916 265.74 83.4118 265.289 83.144C264.837 82.8762 264.324 82.7294 263.8 82.7179C263.275 82.7064 262.756 82.8305 262.293 83.0782C261.831 83.326 261.44 83.6889 261.159 84.1319C260.608 84.9279 260.229 85.8304 260.047 86.7813C259.866 87.7322 259.885 88.7106 260.104 89.6536C261.297 94.4926 271.573 105.311 271.573 105.311L279.371 119.393C279.371 119.393 277.445 124.136 280.518 120.456C282.037 118.646 285.628 118.357 287.606 118.344C288.071 118.345 288.519 118.169 288.86 117.853C289.2 117.536 289.408 117.103 289.441 116.639C289.441 116.364 289.386 116.181 289.175 116.181C288.463 116.254 284.193 115.755 284.193 115.755L280.381 116.644C280.381 116.644 275.371 102.672 275.133 102.415C274.894 102.159 270.352 91.1245 266.375 84.2464Z" fill="url(#paint37_linear_252_939)"/>
<path d="M210.331 96.9716L216.946 106.136L226.002 107.245C226.002 107.245 233.204 102.851 234.658 102.099C236.112 101.348 239.122 99.9959 239.122 99.9959L224.726 96.9532L218.093 104.459L216.666 105.082L210.804 96.9532L210.331 96.9716Z" fill="#4C24B1"/>
<path d="M210.331 96.9716L216.946 106.136L226.002 107.245C226.002 107.245 233.204 102.851 234.658 102.099C236.112 101.348 239.122 99.9959 239.122 99.9959L224.726 96.9532L218.093 104.459L216.666 105.082L210.804 96.9532L210.331 96.9716Z" fill="url(#paint38_linear_252_939)"/>
<path d="M212.565 94.7491L217.18 103.676L217.469 104.331L218.093 104.473L214.432 94.7491H212.565ZM210.331 95.6793L216.946 104.734H217.396L212.565 95.6793H210.331ZM214.432 93.8418L218.093 103.162L222.286 95.9543L214.432 93.8418Z" fill="#4C24B1"/>
<path d="M212.565 94.7491L217.18 103.676L217.469 104.331L218.093 104.473L214.432 94.7491H212.565Z" fill="url(#paint39_linear_252_939)"/>
<path d="M210.331 95.6794L216.946 104.734H217.396L212.565 95.6794H210.331Z" fill="url(#paint40_linear_252_939)"/>
<path d="M214.432 93.8418L218.093 103.162L222.286 95.9543L214.432 93.8418Z" fill="url(#paint41_linear_252_939)"/>
<path d="M201.248 148.404C201.248 148.404 228.199 138.781 239.149 134.061C241.228 133.158 243.407 132.504 245.64 132.114C248.333 131.655 252.141 130.739 254.677 129.016C258.962 126.102 262.072 120.199 262.072 120.199C262.072 120.199 262.187 133.461 251.063 136.513L239.594 138.048C239.594 138.048 235.594 140.376 228.305 142.91C221.015 145.444 205.299 150.535 205.299 150.535C205.299 150.535 202.189 149.513 201.973 149.293C201.757 149.073 201.248 148.404 201.248 148.404Z" fill="url(#paint42_linear_252_939)"/>
<path d="M247.984 84.6634C247.984 83.2063 249.251 81.772 249.251 81.772C249.251 81.772 251.333 77.5837 247.709 78.184C253.604 77.2171 252.888 73.3496 254.278 76.8643C256.609 82.7572 248.264 84.6268 247.984 84.6634Z" fill="url(#paint43_linear_252_939)"/>
</g>
<defs>
<linearGradient id="paint0_linear_252_939" x1="111.01" y1="78.3901" x2="133.465" y2="78.3901" gradientUnits="userSpaceOnUse">
<stop stop-color="#ECC4D7"/>
<stop offset="0.42" stop-color="#EFD4D1"/>
<stop offset="1" stop-color="#F2EAC9"/>
</linearGradient>
<linearGradient id="paint1_linear_252_939" x1="17.7898" y1="174.079" x2="365.678" y2="174.079" gradientUnits="userSpaceOnUse">
<stop stop-color="#68E1FD"/>
<stop offset="1" stop-color="#69B9EB"/>
</linearGradient>
<linearGradient id="paint2_linear_252_939" x1="199.331" y1="161.354" x2="246.588" y2="260.102" gradientUnits="userSpaceOnUse">
<stop offset="0.01" stop-color="#3C3A52" stop-opacity="0"/>
<stop offset="0.86"/>
</linearGradient>
<linearGradient id="paint3_linear_252_939" x1="191.5" y1="124.644" x2="208.932" y2="213.544" gradientUnits="userSpaceOnUse">
<stop offset="0.01" stop-color="white" stop-opacity="0"/>
<stop offset="0.99" stop-color="white"/>
</linearGradient>
<linearGradient id="paint4_linear_252_939" x1="229.103" y1="96.5546" x2="222.436" y2="112.699" gradientUnits="userSpaceOnUse">
<stop stop-color="#ECC4D7"/>
<stop offset="0.42" stop-color="#EFD4D1"/>
<stop offset="1" stop-color="#F2EAC9"/>
</linearGradient>
<linearGradient id="paint5_linear_252_939" x1="164.783" y1="86.6338" x2="155.251" y2="87.7865" gradientUnits="userSpaceOnUse">
<stop offset="0.01" stop-color="white" stop-opacity="0"/>
<stop offset="0.33" stop-color="white" stop-opacity="0.36"/>
<stop offset="0.99" stop-color="white"/>
</linearGradient>
<linearGradient id="paint6_linear_252_939" x1="174.664" y1="62.6132" x2="208.449" y2="72.2557" gradientUnits="userSpaceOnUse">
<stop offset="0.01" stop-color="#3C3A52" stop-opacity="0"/>
<stop offset="1"/>
</linearGradient>
<linearGradient id="paint7_linear_252_939" x1="143.814" y1="98.7038" x2="143.306" y2="90.8725" gradientUnits="userSpaceOnUse">
<stop stop-color="#ECC4D7"/>
<stop offset="0.42" stop-color="#EFD4D1"/>
<stop offset="1" stop-color="#F2EAC9"/>
</linearGradient>
<linearGradient id="paint8_linear_252_939" x1="123.167" y1="105.816" x2="178.081" y2="146.592" gradientUnits="userSpaceOnUse">
<stop offset="0.01" stop-color="#3C3A52" stop-opacity="0"/>
<stop offset="1"/>
</linearGradient>
<linearGradient id="paint9_linear_252_939" x1="31.0657" y1="152.936" x2="346.925" y2="152.936" gradientUnits="userSpaceOnUse">
<stop offset="0.01" stop-color="#3C3A52" stop-opacity="0"/>
<stop offset="0.86"/>
</linearGradient>
<linearGradient id="paint10_linear_252_939" x1="170.683" y1="124.113" x2="171.269" y2="135.967" gradientUnits="userSpaceOnUse">
<stop offset="0.01" stop-color="white" stop-opacity="0"/>
<stop offset="0.99" stop-color="white"/>
</linearGradient>
<linearGradient id="paint11_linear_252_939" x1="176.555" y1="102.8" x2="176.825" y2="136.219" gradientUnits="userSpaceOnUse">
<stop offset="0.01" stop-color="white" stop-opacity="0"/>
<stop offset="0.33" stop-color="white" stop-opacity="0.36"/>
<stop offset="0.99" stop-color="white"/>
</linearGradient>
<linearGradient id="paint12_linear_252_939" x1="92.7017" y1="137.099" x2="168.531" y2="137.099" gradientUnits="userSpaceOnUse">
<stop offset="0.01" stop-color="white" stop-opacity="0"/>
<stop offset="0.99" stop-color="white"/>
</linearGradient>
<linearGradient id="paint13_linear_252_939" x1="145.64" y1="130.469" x2="128.553" y2="176.313" gradientUnits="userSpaceOnUse">
<stop offset="0.01" stop-color="#3C3A52" stop-opacity="0"/>
<stop offset="0.86"/>
</linearGradient>
<linearGradient id="paint14_linear_252_939" x1="276.821" y1="117.258" x2="317.786" y2="117.258" gradientUnits="userSpaceOnUse">
<stop offset="0.01" stop-color="#3C3A52" stop-opacity="0"/>
<stop offset="0.86"/>
</linearGradient>
<linearGradient id="paint15_linear_252_939" x1="146.98" y1="98.5571" x2="170.54" y2="98.5571" gradientUnits="userSpaceOnUse">
<stop offset="0.01" stop-color="#3C3A52" stop-opacity="0"/>
<stop offset="1"/>
</linearGradient>
<linearGradient id="paint16_linear_252_939" x1="147.64" y1="93.2829" x2="164.498" y2="110.994" gradientUnits="userSpaceOnUse">
<stop offset="0.01" stop-color="#3C3A52" stop-opacity="0"/>
<stop offset="1"/>
</linearGradient>
<linearGradient id="paint17_linear_252_939" x1="90.5777" y1="102.924" x2="137.906" y2="148.525" gradientUnits="userSpaceOnUse">
<stop offset="0.01" stop-color="#3C3A52" stop-opacity="0"/>
<stop offset="1"/>
</linearGradient>
<linearGradient id="paint18_linear_252_939" x1="81.3158" y1="138.263" x2="156.925" y2="138.263" gradientUnits="userSpaceOnUse">
<stop offset="0.01" stop-color="white" stop-opacity="0"/>
<stop offset="0.99" stop-color="white"/>
</linearGradient>
<linearGradient id="paint19_linear_252_939" x1="110.661" y1="104.061" x2="161.692" y2="94.6881" gradientUnits="userSpaceOnUse">
<stop offset="0.01" stop-color="#3C3A52" stop-opacity="0"/>
<stop offset="1"/>
</linearGradient>
<linearGradient id="paint20_linear_252_939" x1="134.497" y1="99.8585" x2="144.558" y2="99.8585" gradientUnits="userSpaceOnUse">
<stop stop-color="#ECC4D7"/>
<stop offset="0.42" stop-color="#EFD4D1"/>
<stop offset="1" stop-color="#F2EAC9"/>
</linearGradient>
<linearGradient id="paint21_linear_252_939" x1="119.198" y1="76.6535" x2="125.705" y2="89.9021" gradientUnits="userSpaceOnUse">
<stop stop-color="#ECC4D7"/>
<stop offset="0.42" stop-color="#EFD4D1"/>
<stop offset="1" stop-color="#F2EAC9"/>
</linearGradient>
<linearGradient id="paint22_linear_252_939" x1="152.636" y1="101.041" x2="157.994" y2="101.041" gradientUnits="userSpaceOnUse">
<stop stop-color="#ECC4D7"/>
<stop offset="0.42" stop-color="#EFD4D1"/>
<stop offset="1" stop-color="#F2EAC9"/>
</linearGradient>
<linearGradient id="paint23_linear_252_939" x1="166.292" y1="145.155" x2="171.875" y2="145.155" gradientUnits="userSpaceOnUse">
<stop stop-color="#ECC4D7"/>
<stop offset="0.42" stop-color="#EFD4D1"/>
<stop offset="1" stop-color="#F2EAC9"/>
</linearGradient>
<linearGradient id="paint24_linear_252_939" x1="150.145" y1="155.511" x2="158.618" y2="155.511" gradientUnits="userSpaceOnUse">
<stop stop-color="#ECC4D7"/>
<stop offset="0.42" stop-color="#EFD4D1"/>
<stop offset="1" stop-color="#F2EAC9"/>
</linearGradient>
<linearGradient id="paint25_linear_252_939" x1="114.193" y1="154.97" x2="137.857" y2="135.699" gradientUnits="userSpaceOnUse">
<stop offset="0.01" stop-color="white" stop-opacity="0"/>
<stop offset="0.99" stop-color="white"/>
</linearGradient>
<linearGradient id="paint26_linear_252_939" x1="178.66" y1="54.9561" x2="177.584" y2="64.3868" gradientUnits="userSpaceOnUse">
<stop stop-color="#ECC4D7"/>
<stop offset="0.42" stop-color="#EFD4D1"/>
<stop offset="0.59" stop-color="#F0DACE"/>
<stop offset="1" stop-color="#F2EAC9"/>
</linearGradient>
<linearGradient id="paint27_linear_252_939" x1="164.279" y1="56.3665" x2="183.46" y2="52.6271" gradientUnits="userSpaceOnUse">
<stop stop-color="#ECC4D7"/>
<stop offset="0.42" stop-color="#EFD4D1"/>
<stop offset="1" stop-color="#F2EAC9"/>
</linearGradient>
<linearGradient id="paint28_linear_252_939" x1="170.086" y1="81.6161" x2="223.982" y2="165.596" gradientUnits="userSpaceOnUse">
<stop offset="0.01" stop-color="#3C3A52" stop-opacity="0"/>
<stop offset="1"/>
</linearGradient>
<linearGradient id="paint29_linear_252_939" x1="170.187" y1="101.009" x2="183.303" y2="101.009" gradientUnits="userSpaceOnUse">
<stop stop-color="#ECC4D7"/>
<stop offset="0.42" stop-color="#EFD4D1"/>
<stop offset="1" stop-color="#F2EAC9"/>
</linearGradient>
<linearGradient id="paint30_linear_252_939" x1="214.891" y1="106.297" x2="240.491" y2="145.222" gradientUnits="userSpaceOnUse">
<stop offset="0.01" stop-color="#3C3A52" stop-opacity="0"/>
<stop offset="1"/>
</linearGradient>
<linearGradient id="paint31_linear_252_939" x1="208.652" y1="128.526" x2="239.122" y2="128.526" gradientUnits="userSpaceOnUse">
<stop offset="0.01" stop-color="#3C3A52" stop-opacity="0"/>
<stop offset="1"/>
</linearGradient>
<linearGradient id="paint32_linear_252_939" x1="224.419" y1="121.606" x2="243.495" y2="152.308" gradientUnits="userSpaceOnUse">
<stop offset="0.01" stop-color="#3C3A52" stop-opacity="0"/>
<stop offset="1"/>
</linearGradient>
<linearGradient id="paint33_linear_252_939" x1="193.775" y1="148.761" x2="203.638" y2="148.761" gradientUnits="userSpaceOnUse">
<stop stop-color="#ECC4D7"/>
<stop offset="0.42" stop-color="#EFD4D1"/>
<stop offset="1" stop-color="#F2EAC9"/>
</linearGradient>
<linearGradient id="paint34_linear_252_939" x1="203.088" y1="139.088" x2="208.652" y2="139.088" gradientUnits="userSpaceOnUse">
<stop stop-color="#ECC4D7"/>
<stop offset="0.42" stop-color="#EFD4D1"/>
<stop offset="1" stop-color="#F2EAC9"/>
</linearGradient>
<linearGradient id="paint35_linear_252_939" x1="234.851" y1="91.4636" x2="333.268" y2="129.469" gradientUnits="userSpaceOnUse">
<stop offset="0.01" stop-color="white" stop-opacity="0"/>
<stop offset="0.99" stop-color="white"/>
</linearGradient>
<linearGradient id="paint36_linear_252_939" x1="243.576" y1="74.1561" x2="260.127" y2="74.1561" gradientUnits="userSpaceOnUse">
<stop stop-color="#ECC4D7"/>
<stop offset="0.42" stop-color="#EFD4D1"/>
<stop offset="1" stop-color="#F2EAC9"/>
</linearGradient>
<linearGradient id="paint37_linear_252_939" x1="259.916" y1="102.287" x2="289.445" y2="102.287" gradientUnits="userSpaceOnUse">
<stop stop-color="#ECC4D7"/>
<stop offset="0.42" stop-color="#EFD4D1"/>
<stop offset="1" stop-color="#F2EAC9"/>
</linearGradient>
<linearGradient id="paint38_linear_252_939" x1="218.547" y1="101.242" x2="255.231" y2="106.413" gradientUnits="userSpaceOnUse">
<stop offset="0.01" stop-color="#3C3A52" stop-opacity="0"/>
<stop offset="1"/>
</linearGradient>
<linearGradient id="paint39_linear_252_939" x1="212.565" y1="99.611" x2="218.093" y2="99.611" gradientUnits="userSpaceOnUse">
<stop offset="0.01" stop-color="white" stop-opacity="0"/>
<stop offset="0.99" stop-color="white"/>
</linearGradient>
<linearGradient id="paint40_linear_252_939" x1="210.331" y1="100.207" x2="217.396" y2="100.207" gradientUnits="userSpaceOnUse">
<stop offset="0.01" stop-color="white" stop-opacity="0"/>
<stop offset="0.99" stop-color="white"/>
</linearGradient>
<linearGradient id="paint41_linear_252_939" x1="214.432" y1="98.502" x2="222.286" y2="98.502" gradientUnits="userSpaceOnUse">
<stop offset="0.01" stop-color="white" stop-opacity="0"/>
<stop offset="0.99" stop-color="white"/>
</linearGradient>
<linearGradient id="paint42_linear_252_939" x1="201.248" y1="135.367" x2="262.072" y2="135.367" gradientUnits="userSpaceOnUse">
<stop offset="0.01" stop-color="#3C3A52" stop-opacity="0"/>
<stop offset="1"/>
</linearGradient>
<linearGradient id="paint43_linear_252_939" x1="254.774" y1="77.6387" x2="255.824" y2="77.0053" gradientUnits="userSpaceOnUse">
<stop stop-color="#ECC4D7"/>
<stop offset="0.42" stop-color="#EFD4D1"/>
<stop offset="1" stop-color="#F2EAC9"/>
</linearGradient>
<clipPath id="clip0_252_939">
<rect width="378" height="236" fill="white"/>
</clipPath>
</defs>
</svg>
