<svg width="274" height="288" viewBox="0 0 274 288" fill="none" xmlns="http://www.w3.org/2000/svg">
<g clip-path="url(#clip0_252_885)">
<path opacity="0.18" d="M151.556 0.139778C121.437 2.62312 102.86 34.1832 75.7613 47.5836C63.5873 53.6063 49.8716 55.8148 37.3844 61.1528C16.1437 70.2278 -1.77771 91.2278 0.139688 114.263C2.62556 144.12 34.7974 162.661 44.9095 190.856C47.6989 198.638 48.7202 206.971 51.5963 214.715C58.7745 234.046 78.2279 248.151 98.8086 248.951C115.338 249.593 131.11 242.48 147.466 239.973C167.488 236.896 187.9 240.788 208.168 240.098C228.435 239.408 250.562 232.513 260.501 214.845C268.546 200.538 266.581 182.716 262.129 166.914C257.678 151.112 250.919 135.692 250.018 119.297C248.977 100.206 255.168 78.2131 242.575 63.8435C233.229 53.1531 215.967 50.6312 209.3 38.0939C202.102 24.5922 199.578 22.7936 187.476 14.7891C175.509 6.85685 167.334 -1.16217 151.556 0.139778Z" fill="#4C24B1"/>
<path d="M229.384 27.8616H156.586C150.703 27.8616 145.934 32.6349 145.934 38.5231V196.401C145.934 202.289 150.703 207.062 156.586 207.062H229.384C235.267 207.062 240.036 202.289 240.036 196.401V38.5231C240.036 32.6349 235.267 27.8616 229.384 27.8616Z" fill="#4C24B1"/>
<path d="M236.168 41.3054V191.984C236.166 194.627 235.117 197.16 233.249 199.029C231.382 200.897 228.85 201.946 226.21 201.946H159.761C157.122 201.944 154.593 200.893 152.727 199.025C150.862 197.157 149.814 194.625 149.812 191.984V41.3103C149.814 38.668 150.863 36.1343 152.729 34.2656C154.595 32.3968 157.126 31.3457 159.766 31.3431H169.883V32.1291C169.883 32.8656 170.027 33.5948 170.309 34.2752C170.591 34.9556 171.003 35.5738 171.524 36.0946C172.044 36.6153 172.662 37.0284 173.341 37.3103C174.021 37.5921 174.75 37.7371 175.485 37.7371H209.97C210.706 37.7378 211.434 37.5931 212.115 37.3115C212.795 37.0299 213.412 36.6169 213.933 36.096C214.453 35.5751 214.866 34.9567 215.147 34.276C215.429 33.5953 215.573 32.8658 215.573 32.1291V31.3431H226.215C228.854 31.3457 231.384 32.3961 233.25 34.2638C235.116 36.1316 236.165 38.6641 236.168 41.3054Z" fill="#4C24B1"/>
<path opacity="0.81" d="M236.168 41.3054V191.984C236.166 194.627 235.117 197.16 233.249 199.029C231.382 200.897 228.85 201.946 226.21 201.946H159.761C157.122 201.944 154.593 200.893 152.727 199.025C150.862 197.157 149.814 194.625 149.812 191.984V41.3103C149.814 38.668 150.863 36.1343 152.729 34.2656C154.595 32.3968 157.126 31.3457 159.766 31.3431H169.883V32.1291C169.883 32.8656 170.027 33.5948 170.309 34.2752C170.591 34.9556 171.003 35.5738 171.524 36.0946C172.044 36.6153 172.662 37.0284 173.341 37.3103C174.021 37.5921 174.75 37.7371 175.485 37.7371H209.97C210.706 37.7378 211.434 37.5931 212.115 37.3115C212.795 37.0299 213.412 36.6169 213.933 36.096C214.453 35.5751 214.866 34.9567 215.147 34.276C215.429 33.5953 215.573 32.8658 215.573 32.1291V31.3431H226.215C228.854 31.3457 231.384 32.3961 233.25 34.2638C235.116 36.1316 236.165 38.6641 236.168 41.3054Z" fill="url(#paint0_linear_252_885)"/>
<path opacity="0.17" d="M222.683 127.673H169.035C166.321 127.673 164.121 129.875 164.121 132.591V145.765C164.121 148.481 166.321 150.683 169.035 150.683H222.683C225.397 150.683 227.597 148.481 227.597 145.765V132.591C227.597 129.875 225.397 127.673 222.683 127.673Z" fill="white"/>
<path opacity="0.17" d="M222.683 160.048H169.035C166.321 160.048 164.121 162.25 164.121 164.966V178.14C164.121 180.856 166.321 183.058 169.035 183.058H222.683C225.397 183.058 227.597 180.856 227.597 178.14V164.966C227.597 162.25 225.397 160.048 222.683 160.048Z" fill="white"/>
<path d="M252.514 140.774L229.751 118.94C229.751 118.94 221.464 125.508 225 137.394C228.537 149.28 240.036 163.587 240.036 163.587V196.377C240.036 196.377 240.166 207.043 229.38 207.043H156.586C156.586 207.043 162.936 223.775 175.856 237.981C188.777 252.187 211.959 269.734 210.967 288H274C274 288 257.852 230.468 263.401 207.062C268.951 183.656 266.88 154.541 252.514 140.774Z" fill="url(#paint1_linear_252_885)"/>
<path d="M156.162 95.9051C153.859 95.341 148.088 91.358 143.386 87.1001C140.399 84.3998 137.841 81.5885 136.872 79.4669C134.377 74.0083 133.938 62.0545 143.386 62.9707C143.386 62.9707 147.24 62.0931 156.162 75.4067C165.084 88.7203 159.929 96.831 156.162 95.9051Z" fill="url(#paint2_linear_252_885)"/>
<path d="M158.002 118.101C155.593 117.956 148.849 114.904 143.371 111.437C140.153 109.402 137.349 107.222 136.077 105.4C132.638 100.481 130.06 88.8024 139.522 88.0067C139.522 88.0067 140.591 87.5245 143.376 88.9711C145.703 90.1718 149.225 92.6937 154.326 97.9353C165.508 109.426 161.885 118.332 158.002 118.101Z" fill="url(#paint3_linear_252_885)"/>
<path d="M152.135 146.985C150.535 146.551 146.879 143.778 143.386 140.441C140.013 137.235 136.829 133.507 135.745 130.841C133.529 125.392 132.855 113.351 140.688 114.07C140.688 114.07 141.521 113.814 143.386 115.362C145.144 116.809 147.823 119.895 151.576 126.318C159.318 139.544 155.266 147.829 152.135 146.985Z" fill="url(#paint4_linear_252_885)"/>
<path d="M155.728 170.926C153.7 170.772 147.803 167.801 143.386 164.629C141.305 163.134 139.532 161.596 138.679 160.289C135.981 156.214 133.861 146.594 141.179 146.03C141.179 146.03 141.801 145.75 143.386 146.469C145.144 147.264 148.097 149.299 152.698 154.329C161.428 163.872 158.715 171.153 155.728 170.926Z" fill="url(#paint5_linear_252_885)"/>
<path opacity="0.17" d="M222.683 62.9226H169.035C166.321 62.9226 164.121 65.1247 164.121 67.8411V81.0148C164.121 83.7312 166.321 85.9333 169.035 85.9333H222.683C225.397 85.9333 227.597 83.7312 227.597 81.0148V67.8411C227.597 65.1247 225.397 62.9226 222.683 62.9226Z" fill="white"/>
<path opacity="0.17" d="M222.683 95.2976H169.035C166.321 95.2976 164.121 97.4997 164.121 100.216V113.39C164.121 116.106 166.321 118.308 169.035 118.308H222.683C225.397 118.308 227.597 116.106 227.597 113.39V100.216C227.597 97.4997 225.397 95.2976 222.683 95.2976Z" fill="white"/>
<path opacity="0.81" d="M143.386 62.9707V87.0808C140.399 84.3805 137.841 81.5693 136.872 79.4476C134.396 74.0083 133.938 62.0545 143.386 62.9707Z" fill="url(#paint6_linear_252_885)"/>
<path opacity="0.81" d="M143.386 88.9662V111.437C140.168 109.402 137.364 107.222 136.092 105.4C132.652 100.481 130.075 88.8023 139.537 88.0066C139.537 88.0066 140.606 87.5437 143.386 88.9662Z" fill="url(#paint7_linear_252_885)"/>
<path opacity="0.81" d="M143.386 115.362V140.436C140.013 137.23 136.829 133.502 135.745 130.836C133.529 125.387 132.855 113.346 140.688 114.065C140.688 114.07 141.521 113.8 143.386 115.362Z" fill="url(#paint8_linear_252_885)"/>
<path opacity="0.81" d="M143.386 146.469V164.629C141.305 163.134 139.532 161.596 138.679 160.289C135.981 156.214 133.861 146.594 141.179 146.03C141.179 146.03 141.801 145.75 143.386 146.469Z" fill="url(#paint9_linear_252_885)"/>
<path d="M136.179 18.3237V205.095C136.179 206.494 135.904 207.88 135.37 209.173C134.835 210.466 134.052 211.64 133.063 212.63C132.075 213.62 130.902 214.405 129.61 214.94C128.319 215.476 126.934 215.752 125.536 215.752H36.9797C35.5817 215.752 34.1975 215.476 32.906 214.94C31.6146 214.405 30.4412 213.62 29.4529 212.63C28.4647 211.64 27.6809 210.466 27.1463 209.173C26.6118 207.88 26.337 206.494 26.3376 205.095V18.3237C26.337 16.9244 26.6118 15.5388 27.1463 14.2459C27.6809 12.953 28.4647 11.7782 29.4529 10.7885C30.4412 9.79892 31.6146 9.01388 32.906 8.47828C34.1975 7.94267 35.5817 7.66699 36.9797 7.66699H125.536C126.934 7.66699 128.319 7.94267 129.61 8.47828C130.902 9.01388 132.075 9.79892 133.063 10.7885C134.052 11.7782 134.835 12.953 135.37 14.2459C135.904 15.5388 136.179 16.9244 136.179 18.3237Z" fill="#4C24B1"/>
<path opacity="0.17" d="M53.4992 7.66699V215.752H36.9797C35.5817 215.752 34.1975 215.476 32.906 214.94C31.6146 214.405 30.4412 213.62 29.4529 212.63C28.4647 211.64 27.6809 210.466 27.1463 209.173C26.6118 207.88 26.337 206.494 26.3376 205.095V18.3237C26.337 16.9244 26.6118 15.5388 27.1463 14.2459C27.6809 12.953 28.4647 11.7782 29.4529 10.7885C30.4412 9.79892 31.6146 9.01388 32.906 8.47828C34.1975 7.94267 35.5817 7.66699 36.9797 7.66699H53.4992Z" fill="white"/>
<path opacity="0.19" d="M119.601 105.896V139.564C119.601 140.997 119.032 142.372 118.019 143.386C117.007 144.4 115.633 144.969 114.201 144.969H26.3376V100.496H114.201C114.91 100.495 115.612 100.634 116.267 100.905C116.922 101.177 117.518 101.574 118.019 102.076C118.521 102.577 118.919 103.173 119.19 103.829C119.462 104.484 119.601 105.187 119.601 105.896Z" fill="#0C0C0C"/>
<path d="M108.357 92.3899H6.52307C3.54045 92.3899 1.12256 94.81 1.12256 97.7954V131.463C1.12256 134.448 3.54045 136.868 6.52307 136.868H108.357C111.34 136.868 113.758 134.448 113.758 131.463V97.7954C113.758 94.81 111.34 92.3899 108.357 92.3899Z" fill="#4C24B1"/>
<path opacity="0.19" d="M114.784 51.1135H44.6784C43.9982 51.1135 43.3458 50.8434 42.8644 50.3624C42.383 49.8815 42.1119 49.229 42.1106 48.5482C42.1106 47.8665 42.3811 47.2128 42.8627 46.7308C43.3442 46.2488 43.9974 45.978 44.6784 45.978H114.784C115.465 45.978 116.118 46.2488 116.6 46.7308C117.081 47.2128 117.352 47.8665 117.352 48.5482C117.352 48.8855 117.285 49.2194 117.156 49.531C117.027 49.8425 116.838 50.1256 116.599 50.3638C116.361 50.6021 116.078 50.791 115.766 50.9196C115.455 51.0482 115.121 51.1141 114.784 51.1135Z" fill="#0C0C0C"/>
<path opacity="0.19" d="M114.784 66.9007H44.6784C43.9974 66.9007 43.3442 66.6299 42.8627 66.1479C42.3811 65.6659 42.1106 65.0122 42.1106 64.3306C42.1119 63.6498 42.383 62.9973 42.8644 62.5163C43.3458 62.0354 43.9982 61.7653 44.6784 61.7653H114.784C115.121 61.7646 115.455 61.8305 115.766 61.9591C116.078 62.0878 116.361 62.2766 116.599 62.5149C116.838 62.7532 117.027 63.0362 117.156 63.3478C117.285 63.6593 117.352 63.9933 117.352 64.3306C117.352 65.0122 117.081 65.6659 116.6 66.1479C116.118 66.6299 115.465 66.9007 114.784 66.9007Z" fill="#0C0C0C"/>
<path opacity="0.19" d="M114.784 82.6784H44.6784C43.9982 82.6784 43.3458 82.4083 42.8644 81.9274C42.383 81.4464 42.1119 80.7939 42.1106 80.1131C42.1106 79.4315 42.3811 78.7777 42.8627 78.2957C43.3442 77.8138 43.9974 77.543 44.6784 77.543H114.784C115.465 77.543 116.118 77.8138 116.6 78.2957C117.081 78.7777 117.352 79.4315 117.352 80.1131C117.352 80.4504 117.285 80.7844 117.156 81.0959C117.027 81.4075 116.838 81.6905 116.599 81.9288C116.361 82.167 116.078 82.3559 115.766 82.4845C115.455 82.6132 115.121 82.6791 114.784 82.6784Z" fill="#0C0C0C"/>
<path opacity="0.19" d="M34.9419 103.673V124.153C34.9416 125.176 34.5465 126.159 33.8392 126.898C33.1318 127.636 32.1668 128.073 31.1456 128.116C31.0879 128.121 31.0299 128.121 30.9722 128.116H10.5119C9.4591 128.116 8.44939 127.698 7.70493 126.953C6.96047 126.207 6.54224 125.197 6.54224 124.143V103.673C6.54224 103.152 6.64495 102.635 6.8445 102.154C7.04406 101.672 7.33654 101.234 7.70522 100.866C8.07391 100.497 8.51156 100.205 8.99316 100.006C9.47475 99.8065 9.99085 99.7043 10.5119 99.705H30.9722C31.4933 99.7043 32.0094 99.8065 32.491 100.006C32.9726 100.205 33.4102 100.497 33.7789 100.866C34.1476 101.234 34.4401 101.672 34.6396 102.154C34.8392 102.635 34.9419 103.152 34.9419 103.673Z" fill="url(#paint10_linear_252_885)"/>
<path opacity="0.17" d="M31.5985 125.006C31.5992 126.053 31.4466 127.094 31.1457 128.097C31.088 128.102 31.03 128.102 30.9722 128.097H10.6469C9.8493 125.439 10.1112 122.575 11.3777 120.106C12.6442 117.638 14.8168 115.756 17.4397 114.856C16.3395 114.233 15.4722 113.268 14.9692 112.108C14.4662 110.947 14.3551 109.654 14.6525 108.425C14.95 107.195 15.6399 106.096 16.6176 105.295C17.5953 104.493 18.8075 104.033 20.0704 103.983C21.3333 103.933 22.5779 104.297 23.6157 105.019C24.6534 105.741 25.4276 106.782 25.8209 107.984C26.2142 109.186 26.2051 110.484 25.795 111.681C25.3848 112.877 24.5961 113.907 23.5484 114.615C25.853 115.205 27.8956 116.547 29.3533 118.429C30.8111 120.311 31.6011 122.625 31.5985 125.006Z" fill="#0C0C0C"/>
</g>
<defs>
<linearGradient id="paint0_linear_252_885" x1="194.009" y1="-91.7775" x2="192.421" y2="230.579" gradientUnits="userSpaceOnUse">
<stop/>
<stop offset="0.97" stop-opacity="0.1"/>
</linearGradient>
<linearGradient id="paint1_linear_252_885" x1="156.586" y1="203.47" x2="274" y2="203.47" gradientUnits="userSpaceOnUse">
<stop stop-color="#ECC4D7"/>
<stop offset="0.42" stop-color="#EFD4D1"/>
<stop offset="1" stop-color="#F2EAC9"/>
</linearGradient>
<linearGradient id="paint2_linear_252_885" x1="135.34" y1="79.4476" x2="161.1" y2="79.4476" gradientUnits="userSpaceOnUse">
<stop stop-color="#ECC4D7"/>
<stop offset="0.42" stop-color="#EFD4D1"/>
<stop offset="1" stop-color="#F2EAC9"/>
</linearGradient>
<linearGradient id="paint3_linear_252_885" x1="132.97" y1="103.018" x2="161.813" y2="103.018" gradientUnits="userSpaceOnUse">
<stop stop-color="#ECC4D7"/>
<stop offset="0.42" stop-color="#EFD4D1"/>
<stop offset="1" stop-color="#F2EAC9"/>
</linearGradient>
<linearGradient id="paint4_linear_252_885" x1="134.266" y1="130.542" x2="156.032" y2="130.542" gradientUnits="userSpaceOnUse">
<stop stop-color="#ECC4D7"/>
<stop offset="0.42" stop-color="#EFD4D1"/>
<stop offset="1" stop-color="#F2EAC9"/>
</linearGradient>
<linearGradient id="paint5_linear_252_885" x1="136.179" y1="158.452" x2="158.609" y2="158.452" gradientUnits="userSpaceOnUse">
<stop stop-color="#ECC4D7"/>
<stop offset="0.42" stop-color="#EFD4D1"/>
<stop offset="1" stop-color="#F2EAC9"/>
</linearGradient>
<linearGradient id="paint6_linear_252_885" x1="116.985" y1="76.0432" x2="139.787" y2="75.1335" gradientUnits="userSpaceOnUse">
<stop/>
<stop offset="0.97" stop-opacity="0.1"/>
</linearGradient>
<linearGradient id="paint7_linear_252_885" x1="117.968" y1="100.636" x2="140.77" y2="99.7258" gradientUnits="userSpaceOnUse">
<stop/>
<stop offset="0.97" stop-opacity="0.1"/>
</linearGradient>
<linearGradient id="paint8_linear_252_885" x1="119.071" y1="128.145" x2="141.868" y2="127.235" gradientUnits="userSpaceOnUse">
<stop/>
<stop offset="0.97" stop-opacity="0.1"/>
</linearGradient>
<linearGradient id="paint9_linear_252_885" x1="120.189" y1="156.195" x2="142.991" y2="155.28" gradientUnits="userSpaceOnUse">
<stop/>
<stop offset="0.97" stop-opacity="0.1"/>
</linearGradient>
<linearGradient id="paint10_linear_252_885" x1="-25.8512" y1="113.896" x2="-25.6826" y2="113.896" gradientUnits="userSpaceOnUse">
<stop stop-color="#183866"/>
<stop offset="1" stop-color="#1A7FC1"/>
</linearGradient>
<clipPath id="clip0_252_885">
<rect width="274" height="288" fill="white"/>
</clipPath>
</defs>
</svg>
