<svg width="313" height="286" viewBox="0 0 313 286" fill="none" xmlns="http://www.w3.org/2000/svg">
<path d="M7.30927 16.5527C8.01939 54.8194 8.29252 93.086 8.07402 131.353C7.82821 176.808 6.9269 222.263 5.34277 267.719L189.047 267.145C187.79 235.739 187.326 202.775 187.818 168.389C188.255 140.263 189.32 113.121 190.877 87.0454C188.774 84.6127 186.67 82.18 184.567 79.72H101.128V16.1427C85.9693 17.81 69.0628 18.9034 50.6269 18.8214C35.0041 18.794 20.5012 17.9194 7.30927 16.5527Z" fill="#4F008B"/>
<path d="M100.691 30.274C93.6713 31.2854 81.8996 33.9094 69.4724 41.6174C63.0813 45.5807 50.7633 53.152 43.4709 67.9394C39.6472 75.6747 38.2542 83.246 37.5441 87.1274C36.7793 91.3094 35.4957 98.1154 36.1785 105.386C36.9978 114.133 40.6031 117.522 48.2233 133.293C58.0831 153.739 60.5412 157.155 62.4804 165.328C65.1843 176.617 64.4469 186.484 63.4363 192.935C71.3296 196.187 72.8045 197.937 72.6406 198.975C72.4768 199.932 70.8653 199.905 70.1006 201.517C69.1993 203.403 70.046 206.246 71.6847 207.859C73.2962 209.417 74.7437 208.925 75.4812 210.401C76.2459 211.877 74.9349 212.697 75.4812 214.528C76.1913 216.879 78.704 216.66 79.6053 219.284C80.0696 220.596 79.4688 220.76 79.9331 222.455C80.5613 224.86 82.2273 226.391 82.7736 226.91C85.2863 229.179 86.9524 228.386 87.8537 230.081C88.837 231.939 87.1709 233.579 88.1815 235.165C88.5092 235.684 89.4378 236.723 92.9338 236.75C95.2554 236.777 105.388 236.832 110.359 229.78C114.811 223.493 109.513 219.503 114.156 210.756C118.171 203.185 123.66 199.659 123.66 199.659C126.282 197.991 128.959 197.007 130.625 193.946C131.936 191.568 131.909 189.272 131.881 187.605C131.881 186.047 131.881 173.446 133.793 166.039C134.968 161.447 136.88 158.768 139.829 154.313C148.132 141.63 156.681 126.597 159.795 119.408C163.373 111.181 166.377 98.5801 162.881 80.048C142.206 79.8841 121.53 79.7474 100.882 79.5834C100.854 63.1014 100.773 46.7014 100.691 30.274Z" fill="#FFFAF8"/>
<path d="M116.778 1.90198C116.313 3.43264 116.313 63.484 116.313 63.484L176.319 65.4793H190.959L192.188 1.90198H116.778Z" fill="#4F008B"/>
<path d="M117.488 7.96995C122.295 7.88795 130.461 8.35262 139.529 12.2066C143.653 13.956 158.511 20.5706 166.186 37.2986C171.485 48.8606 170.72 59.548 170.01 64.632C160.532 63.7573 150.618 63.074 140.321 62.664C132.264 62.336 124.425 62.172 116.832 62.1446C116.75 53.4253 116.668 44.706 116.559 36.014C116.887 26.6113 117.187 17.2906 117.488 7.96995Z" fill="#FFFAF8"/>
<path d="M164.984 49.38C165.612 50.2 166.596 51.4846 167.989 52.8786C171.84 56.8693 174.298 57.5253 176.974 60.7233C178.477 62.5273 178.804 63.6206 180.388 66.8186C182.054 70.1806 184.595 74.8546 188.446 80.3486C190.139 78.7633 191.805 77.178 193.498 75.5926C193.007 74.8546 192.187 73.6793 191.122 72.2853C187.462 67.4746 185.851 66.4906 183.912 63.402C183.202 62.2813 181.617 59.712 180.825 56.0766C179.979 52.25 180.498 49.3526 178.558 45.034C178.176 44.1866 177.493 42.656 176.92 42.7653C176.182 42.902 176.018 45.69 175.991 48.1226C176.1 47.6853 176.21 47.2206 176.292 46.7833C173.178 44.214 170.856 42.1366 169.272 40.688C168.262 39.7586 167.169 38.72 166.377 39.048C165.476 39.4306 165.53 41.3986 165.558 42.656C165.585 43.6673 165.776 46.674 167.825 49.9813C168.371 50.856 168.89 51.512 169.272 51.9493C167.797 51.102 166.377 50.2273 164.984 49.38ZM201.993 59.6846C201.419 59.794 201.665 63.6206 202.293 67.1193C202.894 70.372 203.522 71.7933 204.26 72.8866C204.615 73.4333 206.117 75.7566 207.045 75.456C208.247 75.0733 208.001 70.7273 207.564 68.1306C207.127 65.534 206.281 63.5113 205.598 62.1446C205.024 62.0626 204.259 61.844 203.522 61.3246C202.457 60.5593 202.293 59.63 201.993 59.6846ZM192.624 44.624C194.973 46.0726 197.022 47.3846 198.824 48.5326C199.453 48.9426 200.436 49.5986 200.682 50.692C200.845 51.3753 200.545 51.5666 200.463 52.5506C200.327 54.3546 201.146 54.956 201.173 56.678C201.173 57.3066 201.091 58.236 200.545 59.3566C199.371 58.2906 198.142 57.2246 196.831 56.1586C195.192 54.792 193.553 53.5346 191.996 52.332C192.215 49.79 192.406 47.1933 192.624 44.624ZM239.875 202.611C239.684 204.825 239.547 208.077 240.012 211.959C240.64 217.371 241.923 219.803 243.398 225.106C245.72 233.361 244.218 233.142 246.512 243.064C248.233 250.553 249.161 250.936 250.745 258.917C251.647 263.4 252.111 267.117 251.865 271.518C251.701 274.443 251.264 276.875 250.882 278.597C251.1 278.597 252.958 278.57 254.132 277.039C255.061 275.809 255.17 274.087 254.405 272.666C254.542 269.96 255.033 266.735 256.235 263.318C256.508 262.58 256.781 261.869 257.082 261.186C256.344 259.765 255.361 257.66 254.542 254.954C252.93 249.651 253.449 246.973 253.122 238.554C252.739 229.151 252.575 224.423 251.155 220.022C250.254 217.207 249.271 215.321 249.025 211.822C248.806 208.897 249.271 207.257 249.161 202.911C249.107 200.479 248.888 198.483 248.724 197.253C245.802 199.03 242.852 200.807 239.875 202.611ZM261.37 185.637C262.299 187.058 263.61 189.053 265.194 191.431C268.198 195.941 270.52 199.467 273.114 203.185C276.61 208.214 279.451 211.931 281.308 214.364C287.808 222.892 288.546 223.056 291.769 227.949C294.391 231.885 296.002 234.317 297.859 238.007C298.515 239.319 300.645 243.638 304.36 248.476C305.425 249.87 306.326 250.909 306.627 250.745C307.146 250.471 305.452 246.918 304.36 243.091C303.54 240.249 302.721 235.93 303.076 230.217C301.792 229.425 299.935 228.167 297.996 226.254C293.653 222.017 292.342 217.999 290.075 213.243C285.596 203.759 279.833 196.379 278.194 194.274C275.9 191.349 272.896 187.905 270.41 182.111C269.482 179.951 268.908 178.12 268.58 176.863L261.37 185.637Z" fill="#DBA98A"/>
<path d="M230.452 145.129C229.414 145.648 228.622 146.167 228.131 146.495C228.158 150.65 228.24 154.832 228.322 159.069C228.568 169.346 228.95 174.922 229.469 187.878C229.633 191.65 229.824 197.171 230.043 203.923C231.162 203.677 232.856 203.239 234.877 202.556C241.268 200.397 245.747 197.39 250.909 193.864C254.078 191.705 255.88 190.475 258.256 188.452C263.282 184.188 266.696 179.924 268.881 176.863C269.263 176.207 269.646 175.578 270.028 174.922C268.28 169.565 266.177 163.852 263.664 157.921C261.671 153.192 259.595 148.764 257.519 144.664C256.208 142.641 254.87 140.482 253.559 138.159C252.739 136.737 252.002 135.316 251.292 133.949C250.527 133.621 249.735 133.293 248.97 132.993C248.069 133.949 246.758 135.371 245.119 137.065C242.224 140.017 240.804 141.493 240.094 141.903C236.898 143.762 235.068 142.751 230.452 145.129ZM193.799 75.784C193.007 75.866 192.106 76.276 192.051 76.7406C191.996 77.4513 194.017 77.67 194.263 78.7906C194.509 79.884 192.816 80.5946 191.723 82.754C191.068 84.066 190.931 85.3233 190.931 86.2253C197.978 92.02 202.266 95.874 204.833 98.2246C204.833 98.2246 208.083 101.231 207.674 101.696C207.428 101.997 206.008 101.559 204.997 101.067C204.287 100.712 203.932 100.384 203.686 100.521C203.358 100.712 203.55 101.614 203.741 102.325C203.686 103.063 203.659 103.801 203.604 104.511C204.942 104.375 207.51 103.91 209.913 101.997C212.754 99.728 213.655 96.7486 214.174 95.054C214.666 93.4413 215.048 92.1293 214.802 90.462C214.256 86.772 211.06 84.64 210.214 84.148C209.149 84.0386 208.111 83.9293 207.046 83.82C203.823 82.754 201.638 81.3053 200.245 80.1846C197.541 77.9706 196.093 75.538 193.799 75.784ZM247.168 284.091C247.413 283.681 247.823 283.107 248.424 282.506C250.527 280.483 252.302 281.085 253.805 279.827C254.733 279.035 254.733 278.242 255.689 271.299C256.345 266.653 256.563 265.423 257.437 265.122C258.448 264.767 259.977 265.778 260.441 267.008C260.769 267.855 260.496 268.566 259.977 270.179C259.212 272.447 258.475 274.689 258.093 276.493C257.355 279.773 258.093 279.964 257.301 281.221C255.771 283.627 252.33 284.064 251.128 284.228C249.489 284.474 248.096 284.283 247.168 284.091ZM303.568 230.053C304.578 230.354 306.026 230.955 307.2 232.267C309.058 234.345 308.156 236.012 309.413 242.845C310.533 248.995 311.297 251.701 311.297 251.701C311.625 252.877 311.953 253.833 311.762 253.915C311.407 254.079 309.14 250.171 307.501 246.645C306.272 243.993 304.961 241.151 304.196 237.16C303.623 234.235 303.541 231.775 303.568 230.053Z" fill="#4F008B"/>
<path d="M203.44 60.3407C203.112 59.712 200.982 55.448 202.921 51.02C204.287 47.904 206.909 46.51 208.001 45.936C212.644 43.4487 217.37 44.706 218.844 45.0887C219.8 45.3347 225.017 46.8107 228.322 51.5393C231.791 56.4867 229.387 59.6847 230.698 70.3447C231.736 78.7633 234.494 87.1 235.942 91.528C238.4 98.9627 240.339 102.735 238.318 105.769C236.734 108.119 233.457 108.967 231.026 108.83C227.748 108.639 225.263 106.589 222.04 102.899C216.359 96.366 211.06 90.298 209.012 80.868C207.1 72.176 205.489 64.7687 205.625 62.91C205.625 62.746 205.707 62.008 205.297 61.3793C204.86 60.696 204.096 60.45 203.44 60.3407Z" fill="black"/>
<path d="M239.793 105.195C239.657 105.167 239.821 104.347 239.93 103.063C239.93 102.899 239.957 102.735 239.984 102.543C240.012 102.379 240.012 102.188 240.012 101.997C240.039 101.614 240.012 101.204 240.039 100.794C240.012 99.9467 239.93 99.0173 239.793 98.0333C239.629 97.0767 239.384 96.1747 239.138 95.3547C239.001 94.9447 238.865 94.562 238.728 94.2067C238.646 94.0427 238.591 93.8513 238.537 93.6873C238.455 93.5233 238.4 93.3593 238.318 93.2227C237.799 92.0473 237.39 91.3367 237.499 91.2547C237.581 91.2 238.182 91.774 238.892 92.922C238.974 93.0587 239.056 93.2227 239.165 93.3867C239.247 93.5507 239.329 93.7147 239.411 93.906C239.602 94.2613 239.739 94.644 239.93 95.0813C240.23 95.9287 240.503 96.858 240.695 97.8967C240.858 98.908 240.913 99.9193 240.886 100.794C240.858 101.231 240.858 101.669 240.776 102.051L240.695 102.625C240.667 102.817 240.613 102.981 240.585 103.145C240.285 104.484 239.902 105.222 239.793 105.195Z" fill="black" stroke="black" stroke-miterlimit="10"/>
<path d="M225.782 102.106C225.7 102.188 224.99 101.778 223.952 100.876C223.433 100.439 222.832 99.892 222.231 99.236C221.63 98.58 220.975 97.8147 220.347 96.9947C219.719 96.1473 219.2 95.3273 218.763 94.5347C218.326 93.742 217.97 93.0313 217.697 92.4027C217.178 91.1453 216.96 90.3253 217.069 90.2707C217.315 90.1613 218.653 93.2227 221.057 96.448C223.433 99.728 225.946 101.915 225.782 102.106ZM229.469 103.035C229.332 103.227 227.584 102.188 225.891 100.357C224.198 98.5253 223.324 96.694 223.515 96.5847C223.733 96.448 224.908 98.006 226.547 99.7553C228.158 101.532 229.606 102.844 229.469 103.035Z" fill="#FCFCFC" stroke="#FCFCFC" stroke-miterlimit="10"/>
<path d="M129.178 195.477C116.942 198.893 101.92 201.463 84.8494 200.916C81.0803 200.807 77.4204 200.533 73.9517 200.151C73.3782 201.244 72.0399 204.169 73.187 206.929C73.9517 208.761 75.5085 209.717 76.1914 210.127C77.557 210.947 79.223 211.412 81.1349 211.603C80.0424 212.396 79.0045 213.489 78.8407 215.02C78.5402 217.562 80.8891 219.585 81.2715 219.913L83.3472 221.225C82.6371 223.22 82.1455 225.707 83.3472 227.429C84.467 229.015 86.8159 229.698 88.5366 229.917C88.4547 231.065 89.3014 233.525 90.667 236.641C95.037 237.269 100.663 237.57 107.027 236.586C109.403 236.203 111.588 235.711 113.582 235.137C113.828 234.017 114.074 232.869 114.347 231.748C112.927 228.605 113.227 227.183 113.773 226.473C114.128 226.035 114.538 225.899 115.03 225.707C115.33 225.707 115.658 225.571 115.931 225.27C115.986 225.215 116.04 225.161 116.068 225.106C116.177 225.024 116.286 224.915 116.395 224.805C116.559 224.614 117.406 223.739 117.679 222.4C118.198 221.006 118.362 219.503 118.171 218.027C119.236 217.316 120.574 216.113 121.257 214.282C121.448 213.79 121.749 212.97 121.749 211.986C121.803 211.795 121.858 211.603 121.912 211.385C122.158 210.237 122.213 208.843 121.831 207.695C123.715 207.257 125.49 206.465 126.883 204.879C129.478 201.955 129.423 197.882 129.178 195.477ZM103.094 209.499C107.109 208.952 111.424 208.487 116.04 208.269C116.996 208.214 118.007 208.187 119.017 208.105C119.045 208.132 119.072 208.132 119.072 208.159C119.209 208.378 119.29 208.597 119.372 208.843C112.872 209.69 107.41 209.745 103.094 209.499Z" fill="black"/>
<path d="M207.209 75.1826C207.182 75.2373 206.882 75.1827 206.39 74.9913C205.898 74.8 205.188 74.4446 204.423 73.8433C203.659 73.242 202.839 72.3946 202.266 71.2193C201.965 70.6453 201.747 70.0167 201.528 69.3607C201.337 68.7047 201.146 68.0487 200.982 67.338C200.682 65.9167 200.545 64.5226 200.518 63.2926C200.49 62.0353 200.6 60.9146 200.682 59.9853C200.873 58.0993 201.201 56.9786 201.31 57.006C201.446 57.0333 201.337 58.1813 201.31 60.0126C201.282 61.8713 201.228 64.4133 201.856 67.1466C201.993 67.83 202.184 68.486 202.375 69.1147C202.566 69.7433 202.757 70.3447 203.003 70.864C203.495 71.93 204.205 72.75 204.833 73.3513C205.489 73.98 206.117 74.39 206.526 74.6633C206.991 74.964 207.237 75.128 207.209 75.1826Z" fill="white" stroke="white" stroke-miterlimit="10"/>
<path d="M228.049 107.709C228.021 107.737 227.83 107.627 227.475 107.436C227.311 107.327 227.093 107.19 226.82 107.053L226.41 106.807C226.273 106.698 226.11 106.616 225.946 106.507C225.618 106.288 225.263 106.042 224.881 105.769C224.498 105.495 224.116 105.167 223.679 104.812C223.242 104.484 222.805 104.074 222.34 103.664C221.849 103.254 221.412 102.789 220.893 102.297C220.756 102.188 220.647 102.051 220.511 101.915C220.401 101.778 220.265 101.641 220.128 101.532C219.882 101.259 219.637 100.985 219.363 100.712C219.09 100.439 218.872 100.138 218.599 99.8374C218.353 99.5367 218.08 99.236 217.834 98.908C217.342 98.252 216.796 97.596 216.304 96.8853C216.059 96.53 215.785 96.1747 215.54 95.792L214.802 94.644C213.819 93.086 212.836 91.3914 211.989 89.5874C211.115 87.7834 210.296 85.87 209.558 83.8747C208.138 79.8567 207.155 75.9207 206.527 72.2853C205.871 68.65 205.516 65.37 205.297 62.6094C205.079 59.8487 204.997 57.6074 204.97 56.0494C204.942 54.4914 204.97 53.644 205.024 53.644C205.079 53.644 205.188 54.4914 205.325 56.0494C205.461 57.58 205.653 59.8213 205.953 62.582C206.253 65.3427 206.69 68.5954 207.373 72.176C208.056 75.7567 209.039 79.638 210.46 83.6014C211.17 85.5694 211.962 87.4554 212.836 89.2593C213.682 91.036 214.638 92.7034 215.567 94.2614C215.813 94.644 216.059 95.0267 216.277 95.4094C216.523 95.792 216.769 96.1474 217.015 96.5027C217.479 97.2134 217.998 97.8694 218.489 98.5253C218.735 98.8534 218.981 99.154 219.227 99.4547C219.473 99.7554 219.718 100.056 219.964 100.329L220.702 101.149C220.811 101.286 220.948 101.423 221.057 101.559C221.166 101.696 221.303 101.805 221.412 101.942C221.903 102.434 222.34 102.926 222.777 103.336C223.242 103.746 223.624 104.183 224.061 104.539C224.471 104.894 224.853 105.222 225.208 105.55C225.563 105.851 225.918 106.124 226.219 106.343C226.355 106.452 226.519 106.589 226.656 106.698C226.792 106.807 226.929 106.889 227.038 106.971C227.284 107.163 227.475 107.299 227.639 107.436C227.912 107.545 228.076 107.682 228.049 107.709ZM208.029 44.952C208.029 45.0887 207.209 45.1707 206.008 45.608C205.407 45.8267 204.697 46.1274 204.014 46.592C203.304 47.0567 202.621 47.658 202.047 48.396C201.501 49.1614 201.119 49.9814 200.955 50.8014C200.873 51.2114 200.818 51.594 200.818 51.9494C200.818 52.3047 200.818 52.66 200.846 52.988C200.982 54.2454 201.31 55.038 201.173 55.0927C201.119 55.12 200.982 54.956 200.791 54.628C200.6 54.3 200.381 53.7807 200.217 53.0974C200.135 52.7694 200.081 52.3867 200.053 51.9767C200.026 51.5667 200.053 51.1294 200.135 50.6647C200.272 49.7354 200.682 48.7514 201.31 47.8767C201.965 47.002 202.757 46.346 203.549 45.8814C204.342 45.4167 205.134 45.1434 205.816 45.0067C207.155 44.706 208.029 44.8427 208.029 44.952ZM236.953 108.639C236.925 108.611 237.089 108.365 237.335 107.901C237.581 107.436 237.909 106.698 238.154 105.714C238.4 104.73 238.564 103.5 238.482 102.051C238.4 100.603 238.072 98.99 237.526 97.268C236.98 95.5187 236.27 93.6327 235.478 91.6374C234.713 89.6147 233.839 87.4553 233.102 85.132C232.337 82.8087 231.763 80.2667 231.354 77.6427C230.944 74.9914 230.725 72.258 230.562 69.4427C230.37 66.6273 230.234 63.894 229.988 61.27C229.851 59.958 229.715 58.6734 229.524 57.416C229.332 56.1587 229.141 54.956 228.814 53.808C228.65 53.234 228.486 52.6874 228.267 52.1407C228.158 51.8674 228.021 51.6214 227.912 51.3754C227.803 51.1294 227.639 50.8834 227.503 50.6374C226.929 49.6807 226.192 48.8607 225.427 48.15C223.87 46.7287 222.067 45.8267 220.374 45.2527C218.653 44.706 217.015 44.5147 215.567 44.46C214.119 44.4327 212.863 44.542 211.852 44.6787C209.831 44.952 208.739 45.28 208.712 45.198C208.712 45.1707 208.957 45.0614 209.476 44.8974C209.995 44.7334 210.76 44.5147 211.798 44.3234C212.808 44.132 214.092 43.968 215.567 43.968C217.042 43.968 218.735 44.1047 220.538 44.6514C222.34 45.198 224.225 46.1274 225.918 47.6034C226.738 48.3414 227.53 49.216 228.185 50.2274C228.349 50.4734 228.513 50.7467 228.65 51.02L229.059 51.84C229.305 52.414 229.496 52.988 229.66 53.5894C230.889 58.4 231.135 63.7847 231.49 69.388C231.681 72.176 231.9 74.9094 232.255 77.506C232.637 80.1027 233.184 82.59 233.921 84.886C234.631 87.182 235.478 89.3414 236.215 91.3914C236.953 93.414 237.635 95.3274 238.154 97.104C238.673 98.8807 238.974 100.575 239.001 102.051C239.056 103.555 238.837 104.812 238.509 105.823C238.209 106.835 237.799 107.545 237.499 108.01C237.171 108.447 236.953 108.666 236.953 108.639ZM211.497 119.572C211.47 119.627 211.17 119.517 210.678 119.244C210.186 118.971 209.531 118.506 208.793 117.823C208.056 117.139 207.291 116.237 206.554 115.117C205.844 113.996 205.188 112.684 204.697 111.263C204.178 109.841 203.85 108.42 203.604 107.135C203.358 105.851 203.194 104.703 203.14 103.691C203.085 102.68 203.222 101.86 203.386 101.313C203.549 100.767 203.713 100.521 203.768 100.521C203.905 100.575 203.495 101.723 203.768 103.609C203.877 104.566 204.123 105.687 204.396 106.944C204.697 108.201 205.052 109.541 205.543 110.935C206.035 112.301 206.636 113.586 207.264 114.652C207.919 115.745 208.602 116.647 209.23 117.358C210.541 118.807 211.579 119.463 211.497 119.572ZM223.706 140.783C223.624 140.865 222.559 140.072 221.057 138.569C220.866 138.377 220.674 138.186 220.483 137.967C220.292 137.749 220.074 137.53 219.882 137.284C219.445 136.819 219.036 136.3 218.571 135.753C217.697 134.633 216.769 133.375 215.895 132.009C215.021 130.615 214.311 129.248 213.682 127.963C213.382 127.307 213.109 126.706 212.89 126.132C212.781 125.831 212.645 125.558 212.563 125.285C212.453 125.011 212.371 124.738 212.289 124.492C211.579 122.469 211.361 121.157 211.443 121.13C211.579 121.103 212.016 122.333 212.863 124.273C212.972 124.519 213.082 124.765 213.191 125.039C213.3 125.312 213.437 125.558 213.573 125.859C213.819 126.433 214.119 127.007 214.447 127.635C215.075 128.865 215.813 130.205 216.659 131.571C217.506 132.938 218.38 134.168 219.227 135.289C219.664 135.835 220.046 136.382 220.456 136.847C220.647 137.093 220.838 137.311 221.029 137.53C221.221 137.749 221.385 137.967 221.576 138.159C222.887 139.717 223.788 140.673 223.706 140.783ZM245.802 129.193C245.72 129.248 244.819 128.346 243.617 126.651C243.48 126.433 243.316 126.214 243.153 125.968C242.989 125.722 242.852 125.476 242.688 125.203C242.361 124.683 242.06 124.109 241.705 123.508C241.077 122.278 240.449 120.911 239.875 119.408C239.329 117.905 238.946 116.429 238.646 115.089C238.509 114.406 238.373 113.777 238.291 113.149C238.236 112.848 238.209 112.547 238.182 112.274L238.1 111.454C237.936 109.377 238.045 108.092 238.154 108.092C238.291 108.092 238.4 109.349 238.728 111.372C238.783 111.618 238.81 111.891 238.865 112.165C238.919 112.438 238.974 112.711 239.028 113.012C239.138 113.613 239.302 114.215 239.438 114.871C239.766 116.183 240.176 117.604 240.722 119.08C241.268 120.529 241.842 121.895 242.442 123.125C242.743 123.727 243.016 124.301 243.316 124.82C243.453 125.093 243.59 125.339 243.726 125.585C243.863 125.831 243.999 126.05 244.136 126.269C245.174 128.045 245.911 129.084 245.802 129.193ZM228.295 204.059C228.267 204.059 228.158 203.868 228.021 203.513C227.94 203.321 227.858 203.075 227.748 202.802C227.639 202.529 227.53 202.201 227.421 201.818C226.956 200.342 226.41 198.128 226.11 195.367C225.782 192.607 225.7 189.299 225.727 185.637C225.727 183.805 225.755 181.892 225.7 179.924C225.645 177.956 225.591 175.906 225.454 173.801C225.181 169.619 224.799 165.601 224.471 161.966C224.143 158.331 223.897 155.051 223.788 152.263C223.651 149.502 223.679 147.261 223.733 145.703C223.788 144.145 223.87 143.297 223.925 143.297C223.979 143.297 224.034 144.145 224.061 145.703C224.116 147.233 224.198 149.475 224.416 152.235C224.607 154.996 224.935 158.249 225.29 161.884C225.645 165.519 226.082 169.51 226.355 173.719C226.492 175.824 226.574 177.901 226.601 179.897C226.629 181.892 226.601 183.805 226.574 185.637C226.519 189.272 226.547 192.552 226.765 195.285C226.984 198.019 227.421 200.205 227.776 201.709C227.885 202.091 227.94 202.419 228.021 202.693C228.103 202.966 228.158 203.212 228.213 203.403C228.267 203.813 228.322 204.032 228.295 204.059ZM247.277 134.988C247.359 135.043 246.567 136.273 244.901 137.967C244.081 138.815 243.016 139.744 241.76 140.673C240.503 141.603 239.001 142.477 237.335 143.188C235.669 143.899 233.976 144.309 232.391 144.527C230.835 144.719 229.414 144.719 228.213 144.555C227.038 144.391 226.11 144.145 225.481 143.926C224.853 143.707 224.553 143.516 224.553 143.461C224.607 143.325 225.973 143.789 228.267 143.926C229.414 144.008 230.78 143.953 232.255 143.707C233.757 143.461 235.341 143.024 236.953 142.368C240.176 141.001 242.716 139.033 244.436 137.503C246.212 135.972 247.168 134.879 247.277 134.988ZM248.123 133.922C248.014 133.84 248.123 133.539 248.287 133.102C248.451 132.692 248.67 132.063 248.479 131.626C248.315 131.161 247.714 130.861 247.331 130.587C246.922 130.287 246.703 130.013 246.785 129.904C246.867 129.822 247.14 129.877 247.605 130.013C247.823 130.095 248.123 130.177 248.424 130.341C248.724 130.505 249.107 130.806 249.298 131.298C249.38 131.517 249.434 131.763 249.407 132.009C249.407 132.227 249.353 132.446 249.298 132.61C249.161 132.965 248.997 133.239 248.834 133.43C248.506 133.813 248.233 133.977 248.123 133.922ZM269.7 175.004C269.564 175.031 268.799 172.653 267.461 168.881C267.133 167.925 266.751 166.886 266.341 165.793C265.931 164.672 265.467 163.497 265.003 162.267C264.019 159.779 262.9 157.101 261.67 154.285C260.414 151.47 259.158 148.846 257.956 146.468C257.355 145.293 256.782 144.145 256.235 143.106C255.689 142.067 255.17 141.083 254.678 140.209C252.767 136.655 251.51 134.496 251.619 134.441C251.674 134.414 252.056 134.906 252.685 135.835C253.012 136.3 253.395 136.874 253.804 137.557C254.241 138.241 254.733 139.006 255.225 139.881C255.744 140.755 256.29 141.712 256.863 142.751C257.464 143.789 258.038 144.91 258.666 146.085C259.895 148.463 261.179 151.115 262.463 153.93C263.719 156.745 264.811 159.479 265.767 161.993C266.232 163.251 266.669 164.453 267.051 165.574C267.433 166.695 267.788 167.761 268.089 168.717C268.389 169.674 268.635 170.549 268.881 171.341C269.099 172.107 269.291 172.79 269.427 173.337C269.618 174.375 269.755 174.977 269.7 175.004ZM269.646 175.414C269.7 175.441 269.318 176.097 268.581 177.218C268.389 177.491 268.198 177.819 267.952 178.147C267.707 178.475 267.461 178.831 267.188 179.241C266.614 180.006 265.986 180.908 265.221 181.837C264.839 182.302 264.456 182.794 264.047 183.313C263.637 183.833 263.173 184.325 262.708 184.871C262.49 185.145 262.244 185.418 261.998 185.691C261.889 185.828 261.752 185.965 261.643 186.101C261.507 186.238 261.397 186.375 261.261 186.511C260.742 187.058 260.223 187.632 259.677 188.206C257.464 190.502 254.897 192.907 252.029 195.203C249.134 197.499 246.212 199.44 243.48 201.08C242.087 201.845 240.776 202.611 239.465 203.185C238.837 203.485 238.209 203.786 237.608 204.059C237.007 204.305 236.406 204.551 235.86 204.77C234.768 205.262 233.702 205.563 232.801 205.891C232.337 206.055 231.927 206.191 231.545 206.301C231.135 206.41 230.78 206.492 230.452 206.574C229.141 206.902 228.431 207.066 228.404 207.011C228.377 206.957 229.087 206.683 230.343 206.246L231.408 205.891C231.791 205.754 232.2 205.59 232.637 205.399C233.511 205.043 234.549 204.688 235.614 204.169C236.161 203.923 236.734 203.677 237.335 203.403C237.936 203.13 238.509 202.802 239.138 202.501C240.394 201.9 241.678 201.107 243.071 200.342C245.775 198.702 248.642 196.761 251.483 194.493C254.323 192.224 256.863 189.846 259.103 187.605C259.649 187.031 260.196 186.484 260.715 185.937C260.851 185.801 260.96 185.664 261.097 185.527C261.233 185.391 261.343 185.254 261.452 185.117C261.698 184.844 261.944 184.571 262.162 184.325C262.626 183.805 263.091 183.313 263.528 182.821C263.937 182.329 264.347 181.837 264.729 181.4C265.522 180.498 266.177 179.651 266.778 178.913C267.078 178.53 267.351 178.202 267.597 177.874C267.843 177.546 268.062 177.245 268.28 176.999C269.099 175.961 269.591 175.387 269.646 175.414ZM243.18 185.691C243.071 185.664 243.262 183.915 243.863 181.127C244.027 180.416 244.19 179.678 244.409 178.858C244.6 178.038 244.846 177.191 245.119 176.261C245.665 174.457 246.321 172.489 247.113 170.439C247.905 168.417 248.752 166.503 249.571 164.809C249.981 163.961 250.39 163.169 250.8 162.431C251.182 161.693 251.592 161.009 251.947 160.381C253.395 157.921 254.433 156.499 254.542 156.554C254.651 156.636 253.804 158.167 252.521 160.681C252.193 161.31 251.838 161.993 251.483 162.759C251.101 163.497 250.745 164.317 250.336 165.164C249.571 166.859 248.752 168.745 247.96 170.767C247.195 172.79 246.512 174.731 245.911 176.507C245.638 177.409 245.365 178.257 245.119 179.049C244.873 179.842 244.682 180.58 244.491 181.263C243.726 183.997 243.316 185.719 243.18 185.691Z" fill="black" stroke="black" stroke-miterlimit="10"/>
<path d="M256.044 258.781C255.989 258.808 255.662 257.988 255.225 256.485C254.76 254.981 254.187 252.767 253.695 250.007C253.176 247.246 252.794 243.884 252.657 240.167C252.575 238.308 252.548 236.367 252.466 234.345C252.384 232.322 252.22 230.272 251.947 228.167C251.401 223.931 250.554 219.967 249.789 216.332C249.407 214.501 249.107 212.751 248.97 211.084C248.806 209.417 248.834 207.859 248.915 206.437C248.997 205.016 249.079 203.759 249.134 202.665C249.189 201.545 249.161 200.615 249.107 199.823C248.997 198.265 248.752 197.417 248.833 197.417C248.861 197.417 248.943 197.609 249.079 198.019C249.134 198.21 249.189 198.456 249.27 198.757C249.325 199.057 249.407 199.413 249.462 199.795C249.571 200.588 249.653 201.545 249.653 202.665C249.653 203.786 249.598 205.071 249.571 206.465C249.544 207.859 249.544 209.389 249.735 211.002C249.926 212.615 250.254 214.337 250.636 216.141C251.428 219.749 252.33 223.767 252.876 228.031C253.149 230.163 253.313 232.267 253.395 234.29C253.477 236.313 253.477 238.253 253.531 240.112C253.613 243.802 253.968 247.109 254.378 249.87C254.788 252.631 255.279 254.845 255.634 256.375C255.907 257.933 256.099 258.753 256.044 258.781ZM250.527 277.914C250.5 277.914 250.472 277.668 250.418 277.149C250.39 276.903 250.39 276.602 250.363 276.247C250.336 275.891 250.308 275.481 250.254 275.017C250.09 273.158 249.817 270.452 249.243 267.145C248.67 263.837 247.796 259.956 246.758 255.637C245.693 251.319 244.518 246.563 243.398 241.561C241.159 231.529 239.52 222.373 238.482 215.731C237.963 212.396 237.581 209.717 237.362 207.831C237.144 205.973 237.034 204.934 237.089 204.907C237.144 204.907 237.362 205.918 237.69 207.777C238.018 209.635 238.509 212.314 239.083 215.621C240.285 222.236 242.033 231.338 244.245 241.342C245.365 246.344 246.512 251.1 247.523 255.419C248.533 259.737 249.352 263.673 249.844 267.008C250.336 270.343 250.527 273.076 250.581 274.962C250.581 275.427 250.609 275.864 250.609 276.219C250.609 276.575 250.581 276.903 250.581 277.149C250.581 277.668 250.554 277.914 250.527 277.914ZM257.382 281.331C257.273 281.331 257.191 280.046 257.41 278.023C257.628 276.001 258.202 273.185 259.349 270.261C259.622 269.523 259.977 268.839 260.168 268.183C260.277 267.855 260.332 267.555 260.359 267.227C260.387 266.926 260.359 266.625 260.277 266.325C260.141 265.723 259.895 265.177 259.595 264.685C259.294 264.193 258.994 263.728 258.693 263.345C258.092 262.553 257.573 261.951 257.191 261.514C256.809 261.104 256.618 260.858 256.645 260.803C256.672 260.749 256.973 260.913 257.437 261.268C257.901 261.623 258.529 262.17 259.185 262.963C259.513 263.345 259.868 263.81 260.223 264.329C260.551 264.849 260.878 265.45 261.07 266.161C261.151 266.516 261.206 266.899 261.179 267.309C261.151 267.691 261.069 268.101 260.96 268.457C260.742 269.195 260.414 269.878 260.141 270.589C259.021 273.431 258.366 276.137 257.983 278.105C257.655 280.073 257.519 281.331 257.382 281.331Z" fill="black" stroke="black" stroke-miterlimit="10"/>
<path d="M254.487 275.345C254.378 275.345 254.187 274.607 254.132 273.377C254.105 272.775 254.105 272.037 254.132 271.217C254.187 270.397 254.269 269.523 254.433 268.593C254.597 267.664 254.815 266.817 255.034 266.024C255.279 265.259 255.525 264.575 255.771 264.001C256.263 262.881 256.672 262.252 256.782 262.279C257.027 262.389 255.935 265.149 255.307 268.73C254.679 272.338 254.761 275.317 254.487 275.345ZM253.477 278.679C253.504 278.925 252.576 279.281 251.401 279.609C250.227 279.937 249.243 280.128 249.161 279.909C249.08 279.691 249.954 279.089 251.155 278.761C252.384 278.406 253.45 278.433 253.477 278.679ZM242.333 283.244C242.224 283.189 242.306 282.779 242.716 282.287C242.907 282.041 243.18 281.795 243.48 281.522C243.781 281.276 244.109 281.003 244.518 280.729C245.283 280.21 246.13 279.855 246.785 279.827C247.441 279.773 247.823 279.964 247.796 280.073C247.796 280.21 247.413 280.265 246.922 280.456C246.403 280.647 245.747 281.003 245.037 281.495C244.3 281.987 243.644 282.424 243.18 282.752C242.688 283.053 242.443 283.299 242.333 283.244ZM257.601 280.729C257.628 280.729 257.628 280.811 257.601 280.921C257.574 281.03 257.519 281.194 257.437 281.385C257.246 281.768 256.891 282.287 256.29 282.752C255.689 283.217 254.897 283.654 253.968 283.982C253.04 284.31 252.002 284.529 250.909 284.72C248.697 285.075 246.676 285.103 245.228 284.966C243.781 284.829 242.907 284.583 242.907 284.474C242.934 284.201 246.485 284.583 250.746 283.845C251.811 283.654 252.821 283.463 253.695 283.189C254.569 282.916 255.334 282.588 255.908 282.233C257.082 281.467 257.464 280.647 257.601 280.729ZM297.095 237.789C297.04 237.816 296.631 237.051 295.893 235.657C295.101 234.29 293.927 232.349 292.233 230.108C290.54 227.867 288.3 225.379 285.733 222.701C283.166 219.995 280.243 217.125 277.403 213.845C277.211 213.653 277.048 213.435 276.884 213.243C276.72 213.025 276.529 212.833 276.365 212.615C276.037 212.205 275.682 211.795 275.354 211.385C274.726 210.537 274.07 209.717 273.497 208.87C272.322 207.203 271.312 205.508 270.411 203.841C269.537 202.173 268.772 200.588 267.98 199.139C267.188 197.691 266.396 196.406 265.549 195.285C263.856 193.071 262.162 191.541 260.96 190.529C259.759 189.545 259.021 189.053 259.049 188.999C259.076 188.944 259.868 189.327 261.179 190.256C262.463 191.185 264.265 192.661 266.068 194.903C266.969 196.023 267.843 197.335 268.663 198.784C269.482 200.233 270.274 201.818 271.175 203.458C272.077 205.071 273.087 206.738 274.262 208.378C274.835 209.198 275.491 209.991 276.119 210.838C276.447 211.248 276.774 211.658 277.129 212.041C277.293 212.232 277.457 212.451 277.648 212.642C277.812 212.833 278.003 213.052 278.167 213.243C280.981 216.469 283.876 219.366 286.416 222.127C288.983 224.86 291.168 227.429 292.834 229.725C294.5 232.021 295.593 234.044 296.303 235.465C296.849 236.941 297.15 237.761 297.095 237.789ZM303.076 228.987C303.076 229.015 302.858 228.96 302.475 228.823C302.093 228.687 301.52 228.413 300.837 228.031C300.154 227.621 299.362 227.074 298.515 226.336C297.668 225.598 296.794 224.669 295.893 223.575C294.118 221.389 292.397 218.491 290.595 215.266C288.792 212.041 286.989 208.405 284.914 204.715C283.876 202.857 282.81 201.08 281.718 199.44C280.625 197.773 279.478 196.242 278.359 194.766C277.266 193.29 276.174 191.896 275.218 190.557C274.262 189.217 273.388 187.96 272.65 186.757C271.175 184.379 270.219 182.275 269.728 180.799C269.591 180.416 269.482 180.088 269.4 179.815C269.318 179.514 269.263 179.268 269.209 179.077C269.127 178.667 269.072 178.448 269.1 178.448C269.127 178.448 269.209 178.639 269.373 179.022C269.455 179.213 269.537 179.459 269.646 179.733C269.755 180.006 269.892 180.334 270.056 180.689C270.656 182.111 271.667 184.133 273.196 186.429C273.961 187.577 274.863 188.807 275.818 190.119C276.802 191.431 277.894 192.798 279.014 194.247C280.134 195.695 281.308 197.253 282.428 198.948C283.548 200.615 284.64 202.419 285.678 204.278C287.754 207.995 289.557 211.658 291.305 214.883C293.053 218.109 294.691 221.006 296.357 223.193C297.204 224.286 298.024 225.215 298.816 225.981C299.608 226.746 300.345 227.32 300.973 227.757C302.312 228.577 303.104 228.905 303.076 228.987ZM312.226 254.107C312.117 254.134 311.461 252.713 310.669 250.307C309.904 247.875 309.058 244.458 308.648 240.577C308.539 239.62 308.457 238.663 308.43 237.761C308.375 236.859 308.32 235.985 308.184 235.192C308.047 234.399 307.829 233.661 307.528 233.033C307.228 232.404 306.845 231.857 306.436 231.393C305.644 230.491 304.77 229.944 304.169 229.616C303.568 229.288 303.186 229.151 303.213 229.097C303.213 229.042 303.623 229.069 304.305 229.315C304.988 229.561 305.944 230.053 306.873 230.983C307.337 231.447 307.801 232.021 308.156 232.705C308.539 233.388 308.812 234.208 308.976 235.055C309.14 235.903 309.222 236.805 309.304 237.707C309.358 238.609 309.44 239.538 309.549 240.495C309.959 244.294 310.697 247.711 311.297 250.143C311.898 252.576 312.363 254.052 312.226 254.107ZM310.068 254.708C310.014 254.763 309.741 254.517 309.249 254.052C308.785 253.56 308.129 252.849 307.446 251.838C306.764 250.827 306.081 249.569 305.48 248.093C304.879 246.617 304.36 244.95 303.95 243.146C303.158 239.565 302.912 236.258 302.858 233.88C302.803 231.502 302.967 230.026 303.076 230.026C303.213 230.026 303.268 231.502 303.486 233.853C303.705 236.203 304.06 239.456 304.824 242.955C305.207 244.704 305.698 246.344 306.245 247.793C306.791 249.241 307.392 250.499 307.993 251.51C308.566 252.521 309.14 253.287 309.522 253.833C309.904 254.353 310.096 254.653 310.068 254.708Z" fill="black" stroke="black" stroke-miterlimit="10"/>
<path d="M309.276 253.97C309.194 254.052 308.375 253.423 307.173 252.221C306.572 251.619 305.89 250.909 305.179 250.061C304.469 249.214 303.705 248.257 302.967 247.219C302.23 246.18 301.574 245.141 301.001 244.185C300.454 243.228 299.99 242.353 299.608 241.588C298.898 240.085 298.57 239.073 298.679 239.046C298.925 238.937 300.755 242.599 303.677 246.727C306.6 250.827 309.44 253.779 309.276 253.97ZM207.346 101.915C207.319 101.969 206.609 101.778 205.434 101.231C204.26 100.657 202.594 99.6733 200.818 98.17C199.016 96.6667 197.049 94.6713 195.001 92.3753C192.952 90.0793 190.795 87.428 188.774 84.5033C186.752 81.5787 185.004 78.654 183.557 75.9207C182.137 73.1873 180.989 70.6453 180.115 68.486C179.897 67.9393 179.706 67.42 179.515 66.928C179.323 66.436 179.16 65.9713 179.023 65.534C178.723 64.6593 178.477 63.894 178.286 63.2653C177.93 62.008 177.767 61.2973 177.821 61.2973C177.876 61.27 178.149 61.9533 178.613 63.156C178.832 63.7573 179.16 64.4953 179.487 65.3427C179.651 65.78 179.842 66.2173 180.061 66.7093C180.252 67.2013 180.471 67.6933 180.716 68.24C181.645 70.372 182.819 72.8593 184.294 75.538C185.742 78.2167 187.49 81.114 189.511 84.0113C191.532 86.9087 193.608 89.56 195.629 91.856C197.65 94.152 199.535 96.1747 201.255 97.7053C202.976 99.2633 204.506 100.302 205.625 100.958C206.718 101.559 207.373 101.833 207.346 101.915ZM208.712 83.9567C208.684 84.0113 208.193 83.9293 207.291 83.6833C206.39 83.4373 205.134 83 203.632 82.3167C202.129 81.6333 200.381 80.6767 198.551 79.4467C196.721 78.2167 194.837 76.7133 193.007 74.964C189.347 71.4653 186.589 67.7753 184.731 65.0693C182.874 62.336 181.918 60.532 182 60.4773C182.109 60.3953 183.284 62.0627 185.25 64.6867C187.217 67.3107 190.003 70.864 193.608 74.308C195.41 76.0027 197.24 77.506 199.016 78.7633C200.764 79.9933 202.457 81.0047 203.905 81.7427C206.8 83.2187 208.766 83.7927 208.712 83.9567ZM163.564 47.1113C163.701 47.084 163.946 48.2047 164.766 49.8173C165.176 50.61 165.722 51.5393 166.459 52.4687C167.169 53.398 168.071 54.382 169.081 55.284C171.13 57.1153 173.287 58.4547 174.817 59.466C176.346 60.45 177.302 61.106 177.248 61.2153C177.193 61.3247 176.128 60.86 174.516 60.0127C172.905 59.138 170.665 57.8533 168.508 55.94C167.442 54.9833 166.541 53.9447 165.804 52.9333C165.094 51.922 164.547 50.9107 164.192 50.036C163.482 48.314 163.482 47.1113 163.564 47.1113Z" fill="black" stroke="black" stroke-miterlimit="10"/>
<path d="M169.546 52.5507C169.436 52.7693 167.77 52.004 166.131 50.5007C164.493 48.9973 163.619 47.3847 163.81 47.248C164.028 47.1113 165.176 48.396 166.732 49.8447C168.289 51.266 169.655 52.332 169.546 52.5507ZM165.257 40.0593C165.394 40.0593 165.449 40.77 165.585 41.8907C165.613 42.164 165.667 42.4647 165.722 42.7927C165.776 43.1207 165.858 43.476 165.913 43.8313C166.077 44.5693 166.295 45.3347 166.568 46.1547C166.842 46.9747 167.169 47.7127 167.497 48.396C167.661 48.724 167.825 49.052 167.989 49.3253C168.153 49.626 168.289 49.872 168.453 50.118C169.027 51.102 169.436 51.676 169.327 51.758C169.245 51.84 168.672 51.3753 167.934 50.4733C167.743 50.2547 167.552 49.9813 167.361 49.708C167.169 49.4347 166.978 49.1067 166.787 48.7787C166.405 48.0953 166.05 47.3027 165.749 46.4553C165.449 45.608 165.257 44.7607 165.148 43.9953C165.094 43.6127 165.039 43.23 165.012 42.902C164.984 42.5467 164.984 42.246 164.984 41.9453C164.984 40.77 165.148 40.0593 165.257 40.0593Z" fill="black" stroke="black" stroke-miterlimit="10"/>
<path d="M172.987 51.9493C172.905 52.0313 172.249 51.5666 171.348 50.6646C170.419 49.7626 169.272 48.4233 168.18 46.7833C167.087 45.1433 166.295 43.558 165.831 42.3553C165.367 41.1526 165.175 40.3873 165.285 40.3326C165.53 40.2233 166.787 43.0933 168.917 46.264C171.02 49.4893 173.178 51.7579 172.987 51.9493Z" fill="black" stroke="black" stroke-miterlimit="10"/>
<path d="M174.981 51.43C174.762 51.5667 172.522 47.822 169.354 43.5033C168.562 42.41 167.797 41.3987 167.087 40.4967C166.896 40.278 166.732 40.032 166.568 39.8407L166.514 39.7587L166.486 39.7313V39.704L166.459 39.6493C166.432 39.5947 166.404 39.5673 166.377 39.54C166.35 39.4853 166.323 39.458 166.295 39.4033L166.241 39.3213C166.213 39.3213 166.213 39.3487 166.213 39.376L166.131 39.622C166.077 39.7313 166.022 40.2233 166.022 40.524C165.995 40.852 166.022 41.1527 166.022 41.3987C166.049 41.8907 166.077 42.164 166.022 42.164C165.967 42.1913 165.831 41.9453 165.694 41.4533C165.64 41.2073 165.558 40.9067 165.53 40.5513C165.503 40.36 165.503 40.1687 165.503 39.9773V39.5947C165.53 39.4307 165.53 39.2667 165.558 39.1027C165.612 38.7747 165.694 38.4467 165.776 38.0913L165.804 37.9547L165.831 37.8727V37.8453C165.831 37.8453 165.858 37.8453 165.858 37.8727C165.913 37.9273 165.967 38.0093 166.049 38.064C166.186 38.2007 166.295 38.3373 166.432 38.474C166.568 38.6107 166.705 38.7747 166.841 38.9113C166.978 39.048 167.087 39.212 167.224 39.3487C167.415 39.5673 167.579 39.786 167.77 40.0047C168.535 40.9067 169.327 41.918 170.119 43.0113C173.287 47.3573 175.199 51.348 174.981 51.43Z" fill="black" stroke="black" stroke-miterlimit="10"/>
<path d="M175.991 48.0407C175.882 48.0953 175.445 47.5213 174.762 46.592C174.079 45.6627 173.123 44.4053 171.894 43.1753C171.048 42.328 170.146 41.6173 169.354 41.098C168.562 40.5787 167.852 40.2507 167.36 40.0047L167.579 39.6767C167.825 40.0593 167.934 40.3053 167.879 40.36C167.825 40.4147 167.606 40.2507 167.278 39.9227L166.76 39.4307L167.497 39.5947C168.043 39.704 168.835 39.95 169.737 40.4147C170.638 40.8793 171.621 41.6173 172.522 42.5193C173.806 43.804 174.707 45.198 175.281 46.2367C175.855 47.2753 176.1 47.986 175.991 48.0407ZM176.892 42.1913C177.111 42.3007 176.756 43.4213 176.619 44.788C176.483 46.1547 176.619 47.33 176.374 47.3847C176.264 47.412 176.073 47.166 175.909 46.674C175.745 46.182 175.663 45.4713 175.718 44.706C175.8 43.9407 176.018 43.2573 176.264 42.7927C176.537 42.3553 176.783 42.1367 176.892 42.1913ZM182.464 60.7507C182.382 60.8053 181.781 59.9033 181.153 58.2907C181.071 58.0993 180.989 57.8807 180.907 57.662C180.825 57.4433 180.771 57.1973 180.689 56.9787C180.525 56.4867 180.388 55.9673 180.252 55.4207C179.979 54.3273 179.733 53.1247 179.487 51.84C179.241 50.5827 179.023 49.38 178.804 48.2867C178.695 47.74 178.586 47.2207 178.477 46.756C178.422 46.51 178.367 46.2913 178.313 46.0727C178.258 45.854 178.203 45.6353 178.149 45.444C177.712 43.8313 177.357 42.8473 177.466 42.7927C177.575 42.738 178.149 43.64 178.75 45.2527C178.832 45.444 178.886 45.6627 178.968 45.8813C179.05 46.1 179.105 46.346 179.187 46.5647C179.351 47.0567 179.46 47.576 179.624 48.1227C179.897 49.216 180.143 50.4187 180.388 51.7033C180.634 52.9607 180.853 54.1633 181.071 55.2567C181.181 55.8033 181.29 56.3227 181.426 56.7873C181.481 57.0333 181.536 57.252 181.59 57.4707C181.645 57.6893 181.699 57.908 181.754 58.0993C182.191 59.712 182.573 60.6687 182.464 60.7507ZM199.589 60.7233C199.398 60.8873 197.732 59.22 195.629 57.2793C193.526 55.3113 191.75 53.7807 191.914 53.562C192.051 53.3707 194.099 54.6007 196.23 56.6233C198.415 58.6187 199.78 60.5593 199.589 60.7233ZM200.545 50.3913C200.409 50.5827 198.415 49.3253 196.12 47.5487C194.536 46.3187 193.198 45.1707 192.597 44.542L192.87 44.2413C193.116 44.542 193.198 44.7607 193.171 44.8153C193.116 44.87 192.925 44.7607 192.597 44.542L192.87 44.2413C193.662 44.6513 195.083 45.6627 196.694 46.8927C198.961 48.6147 200.709 50.2 200.545 50.3913Z" fill="black" stroke="black" stroke-miterlimit="10"/>
<path d="M191.778 63.6207C192.276 63.6207 192.679 50.5999 192.679 34.538C192.679 18.4761 192.276 5.45532 191.778 5.45532C191.28 5.45532 190.876 18.4761 190.876 34.538C190.876 50.5999 191.28 63.6207 191.778 63.6207Z" fill="black" stroke="black" stroke-width="2" stroke-miterlimit="10"/>
<path d="M116.313 63.4566C116.811 63.4566 117.215 50.032 117.215 33.472C117.215 16.9119 116.811 3.4873 116.313 3.4873C115.816 3.4873 115.412 16.9119 115.412 33.472C115.412 50.032 115.816 63.4566 116.313 63.4566Z" fill="black" stroke="black" stroke-width="2" stroke-miterlimit="10"/>
<path d="M146.931 66.3814C163.146 66.3814 176.292 65.9776 176.292 65.4794C176.292 64.9812 163.146 64.5774 146.931 64.5774C130.715 64.5774 117.57 64.9812 117.57 65.4794C117.57 65.9776 130.715 66.3814 146.931 66.3814Z" fill="black" stroke="black" stroke-width="2" stroke-miterlimit="10"/>
<path d="M152.912 2.804C172.838 2.804 188.992 2.40016 188.992 1.902C188.992 1.40384 172.838 1 152.912 1C132.986 1 116.832 1.40384 116.832 1.902C116.832 2.40016 132.986 2.804 152.912 2.804Z" fill="black" stroke="black" stroke-width="2" stroke-miterlimit="10"/>
<path d="M166.104 37.0253C165.831 37.162 164.356 34.1826 161.188 29.9733C159.604 27.8686 157.583 25.4633 155.07 23.058C154.769 22.7573 154.442 22.4566 154.114 22.156C153.786 21.8553 153.431 21.582 153.103 21.2813C152.748 20.9806 152.421 20.68 152.065 20.3793C151.71 20.0786 151.328 19.8053 150.973 19.5046C150.782 19.368 150.618 19.204 150.427 19.0673L149.853 18.6573C149.471 18.384 149.061 18.0833 148.679 17.81C148.269 17.5366 147.859 17.2633 147.45 17.0173C147.04 16.744 146.63 16.4706 146.193 16.2246C142.779 14.1746 139.256 12.6713 135.951 11.66C132.619 10.6486 129.533 10.02 126.938 9.47329C125.627 9.19995 124.453 8.95396 123.415 8.73529C122.377 8.51662 121.503 8.37995 120.765 8.29795C119.318 8.13395 118.498 8.16129 118.471 8.02462C118.444 7.91529 119.263 7.64195 120.793 7.58729C121.557 7.55995 122.486 7.61462 123.551 7.72395C124.616 7.83329 125.818 8.02462 127.129 8.21596C129.778 8.62596 132.919 9.11795 136.388 10.0746C139.83 11.0313 143.544 12.562 147.095 14.694C147.559 14.94 147.969 15.2406 148.406 15.514C148.843 15.7873 149.252 16.0606 149.689 16.3613C150.099 16.662 150.509 16.9626 150.891 17.2633C151.082 17.4 151.301 17.564 151.492 17.7006C151.683 17.8646 151.874 18.0013 152.065 18.1653C152.448 18.466 152.83 18.794 153.185 19.0946C153.568 19.3953 153.895 19.7233 154.25 20.0513C154.606 20.3793 154.933 20.68 155.288 20.9806L156.244 21.9373C158.757 24.4793 160.751 27.0486 162.226 29.29C165.203 33.7453 166.268 36.9433 166.104 37.0253Z" fill="black" stroke="black" stroke-width="2" stroke-miterlimit="10"/>
<path d="M169.737 65.0146C169.491 65.0146 169.382 63.2106 169.218 61.0513C169.054 58.8646 168.917 57.088 169.163 57.0606C169.409 57.006 169.928 58.7553 170.092 60.9966C170.256 63.238 169.983 65.042 169.737 65.0146ZM161.789 5.4553C161.925 5.64663 159.959 7.39596 157.446 9.41863C154.933 11.4413 152.803 12.9993 152.639 12.808C152.475 12.6166 154.36 10.758 156.9 8.70796C159.413 6.6853 161.625 5.26396 161.789 5.4553ZM186.862 3.43263C186.916 3.54196 185.633 4.44396 183.502 5.89263C181.372 7.31396 178.422 9.28196 175.172 11.4413C171.922 13.628 168.999 15.596 166.869 17.0446C164.739 18.466 163.4 19.3406 163.318 19.2313C163.236 19.122 164.465 18.1106 166.486 16.5253C168.535 14.9673 171.403 12.89 174.653 10.7033C177.903 8.51663 180.935 6.65796 183.147 5.34596C185.359 4.03396 186.78 3.3233 186.862 3.43263ZM177.985 25.0533C178.122 25.272 176.155 26.748 173.56 28.3606C170.993 29.9733 168.808 31.1213 168.671 30.9026C168.535 30.684 170.529 29.208 173.096 27.5953C175.664 25.9826 177.849 24.8346 177.985 25.0533Z" fill="black" stroke="black" stroke-miterlimit="10"/>
<path d="M101.128 78.7633C101.625 78.7633 102.029 64.7635 102.029 47.4939C102.029 30.2244 101.625 16.2246 101.128 16.2246C100.63 16.2246 100.226 30.2244 100.226 47.4939C100.226 64.7635 100.63 78.7633 101.128 78.7633Z" fill="black" stroke="black" stroke-width="2" stroke-miterlimit="10"/>
<path d="M143.244 80.6767C166.051 80.6767 184.54 80.2728 184.54 79.7747C184.54 79.2765 166.051 78.8727 143.244 78.8727C120.436 78.8727 101.947 79.2765 101.947 79.7747C101.947 80.2728 120.436 80.6767 143.244 80.6767Z" fill="black" stroke="black" stroke-width="2" stroke-miterlimit="10"/>
<path d="M190.904 265.915C191.145 265.915 191.341 225.91 191.341 176.562C191.341 127.214 191.145 87.2094 190.904 87.2094C190.662 87.2094 190.467 127.214 190.467 176.562C190.467 225.91 190.662 265.915 190.904 265.915Z" fill="black" stroke="black" stroke-miterlimit="10"/>
<path d="M3.54003 268.812C3.78138 268.812 3.97703 268.751 3.97703 268.675C3.97703 268.6 3.78138 268.539 3.54003 268.539C3.29868 268.539 3.10303 268.6 3.10303 268.675C3.10303 268.751 3.29868 268.812 3.54003 268.812Z" fill="black" stroke="black" stroke-miterlimit="10"/>
<path d="M95.3373 269.195C146.533 269.195 188.036 268.791 188.036 268.293C188.036 267.794 146.533 267.391 95.3373 267.391C44.1412 267.391 2.63867 267.794 2.63867 268.293C2.63867 268.791 44.1412 269.195 95.3373 269.195Z" fill="black" stroke="black" stroke-width="2" stroke-miterlimit="10"/>
<path d="M1.90131 266.161C2.39909 266.161 2.80262 210.725 2.80262 142.341C2.80262 73.9567 2.39909 18.5206 1.90131 18.5206C1.40353 18.5206 1 73.9567 1 142.341C1 210.725 1.40353 266.161 1.90131 266.161Z" fill="black" stroke="black" stroke-width="2" stroke-miterlimit="10"/>
<path d="M52.1017 16.6073C78.3182 16.6073 99.5708 16.2035 99.5708 15.7053C99.5708 15.2072 78.3182 14.8033 52.1017 14.8033C25.8852 14.8033 4.63257 15.2072 4.63257 15.7053C4.63257 16.2035 25.8852 16.6073 52.1017 16.6073Z" fill="black" stroke="black" stroke-width="2" stroke-miterlimit="10"/>
<path d="M64.3104 185.937C64.1738 185.937 64.0646 184.407 63.8734 181.673C63.6822 178.94 63.3818 174.977 62.5624 170.166C62.1527 167.761 61.5792 165.164 60.7871 162.403C60.4047 161.037 59.8858 159.643 59.3942 158.194C59.3395 158.003 59.2576 157.839 59.203 157.647C59.121 157.456 59.0664 157.292 58.9845 157.101C58.8479 156.745 58.684 156.39 58.5475 156.007C58.247 155.297 57.9739 154.531 57.6188 153.821C57.2911 153.083 56.936 152.345 56.6083 151.607C56.2532 150.869 55.8708 150.103 55.5158 149.365L54.9422 148.217C54.751 147.835 54.5325 147.452 54.3413 147.069C53.9317 146.304 53.5493 145.539 53.1123 144.773C51.4189 141.685 49.589 138.514 47.759 135.234C45.9018 131.981 44.1538 128.729 42.597 125.531C42.4058 125.121 42.2146 124.738 42.0234 124.328C41.9142 124.137 41.8322 123.918 41.723 123.727C41.641 123.535 41.5591 123.317 41.4498 123.125C41.0948 122.333 40.7397 121.54 40.412 120.747C40.0842 119.955 39.7838 119.162 39.4833 118.369C39.3468 117.987 39.1829 117.577 39.0463 117.194C38.9098 116.811 38.8005 116.401 38.664 116.019C38.4182 115.226 38.145 114.461 37.9265 113.695C37.7353 112.93 37.5168 112.137 37.3257 111.399C36.916 109.896 36.6702 108.393 36.4243 106.944C35.9873 104.047 35.8508 101.313 35.8781 98.826C35.9054 96.3386 36.1239 94.0973 36.4243 92.1566C36.7248 90.216 37.0798 88.5486 37.4349 87.2093C38.145 84.5306 38.7732 83.1366 38.8825 83.164C39.019 83.2186 38.6093 84.6673 38.1177 87.3733C37.8719 88.7126 37.5988 90.38 37.4076 92.2933C37.2164 94.2066 37.0798 96.4206 37.1345 98.8533C37.1891 101.286 37.4076 103.937 37.8719 106.753C38.1177 108.147 38.3908 109.595 38.8278 111.071C39.019 111.809 39.2375 112.547 39.456 113.285C39.6745 114.023 39.9477 114.789 40.2208 115.527C40.3573 115.909 40.4666 116.292 40.6032 116.675C40.7397 117.057 40.9036 117.44 41.0675 117.823C41.3679 118.588 41.6683 119.353 41.9961 120.146C42.3512 120.911 42.6789 121.704 43.034 122.469C43.1159 122.661 43.1978 122.852 43.3071 123.071C43.389 123.262 43.4983 123.453 43.6075 123.645C43.7987 124.027 43.9899 124.437 44.1811 124.82C45.7379 127.963 47.4859 131.161 49.3432 134.414C51.1731 137.667 53.003 140.865 54.6964 143.981C55.1334 144.746 55.5158 145.539 55.9255 146.331C56.1167 146.714 56.3352 147.097 56.5263 147.479C56.7175 147.862 56.9087 148.245 57.0999 148.655C57.4823 149.42 57.8373 150.185 58.1924 150.951C58.5202 151.716 58.8752 152.481 59.203 153.219C59.558 153.957 59.8038 154.723 60.1043 155.488C60.2408 155.871 60.4047 156.226 60.5413 156.609C60.6232 156.8 60.6778 156.964 60.7598 157.155C60.8144 157.347 60.8963 157.538 60.951 157.702C61.4426 159.178 61.9342 160.627 62.2893 162.021C63.0267 164.863 63.5457 167.515 63.8734 169.975C64.5289 174.895 64.6382 178.885 64.6382 181.646C64.5562 184.407 64.4197 185.937 64.3104 185.937Z" fill="black" stroke="black" stroke-width="2" stroke-miterlimit="10"/>
<path d="M98.7515 30.4107C98.7788 30.5474 97.5498 30.7934 95.3921 31.3127C93.2344 31.832 90.0935 32.5974 86.3516 33.8821C82.5825 35.1667 78.1852 36.8887 73.5694 39.3487C71.2751 40.5787 68.899 42.0001 66.5501 43.5854C64.2012 45.1981 61.8796 47.0021 59.64 48.9974C59.0938 49.5167 58.5202 50.0087 58.0013 50.528L56.4445 52.086L55.6797 52.8514L54.9423 53.6714C54.4506 54.2181 53.9863 54.7374 53.4947 55.2567C53.0304 55.8034 52.5934 56.35 52.1564 56.8967C51.7194 57.4434 51.2824 57.9627 50.8727 58.5367C50.463 59.0834 50.0806 59.6301 49.6709 60.1767L49.3705 60.5867L49.0974 60.9967C48.9062 61.2701 48.7423 61.5434 48.5511 61.8167C48.1961 62.3634 47.8137 62.8827 47.4859 63.4294C47.1582 63.976 46.8304 64.5227 46.5027 65.042C46.3388 65.3154 46.175 65.5614 46.0384 65.8347C45.9018 66.1081 45.7379 66.3541 45.6014 66.6274C45.3009 67.1467 45.0278 67.666 44.7547 68.1854C44.4816 68.7047 44.2358 69.224 43.99 69.716C43.7441 70.208 43.471 70.7 43.2525 71.192C42.8155 72.176 42.3512 73.1054 41.9961 74.0347C40.4393 77.6974 39.4561 80.7587 38.8006 82.8907C38.1451 85.0227 37.8173 86.2254 37.6808 86.1981C37.5715 86.1707 37.6808 84.9407 38.1178 82.7267C38.5821 80.5127 39.4014 77.3694 40.8217 73.57C41.1494 72.6134 41.5864 71.6567 41.9961 70.6181C42.1873 70.0987 42.4604 69.6067 42.6789 69.0874C42.9248 68.5681 43.1706 68.0487 43.4164 67.502C43.6895 66.9827 43.9626 66.4361 44.2631 65.8894C44.3996 65.616 44.5362 65.3427 44.7001 65.0694C44.8366 64.796 45.0005 64.5227 45.1644 64.2494C45.4921 63.7027 45.7926 63.156 46.1203 62.582C46.4481 62.008 46.8304 61.4614 47.1855 60.9147C47.3767 60.6414 47.5406 60.3407 47.7318 60.0674L48.0049 59.6301L48.3053 59.2201C48.715 58.6734 49.0974 58.0994 49.5071 57.5254C49.8894 56.9514 50.3538 56.4047 50.7908 55.8307C51.2278 55.2841 51.6648 54.71 52.1564 54.136L53.6313 52.496C53.8771 52.2227 54.1229 51.9494 54.3687 51.6487L55.1608 50.856C55.6797 50.3094 56.2259 49.7901 56.7722 49.2434C57.3184 48.7241 57.892 48.2047 58.4656 47.6854C60.7871 45.6354 63.1633 43.7767 65.5668 42.1367C67.9976 40.524 70.4284 39.1027 72.8046 37.8727C77.557 35.44 82.1182 33.8001 85.9693 32.6521C89.8476 31.5041 93.0432 30.9027 95.2828 30.6021C97.4951 30.3287 98.7242 30.3014 98.7515 30.4107ZM132.564 188.78C132.51 188.78 132.373 188.425 132.209 187.687C132.155 187.495 132.127 187.304 132.073 187.058C132.018 186.839 131.964 186.566 131.936 186.293C131.854 185.746 131.772 185.117 131.663 184.379C131.608 183.669 131.554 182.849 131.499 181.974V179.842C131.499 179.596 131.526 179.35 131.526 179.077C131.554 178.557 131.581 178.038 131.608 177.491C131.663 176.945 131.745 176.371 131.8 175.797C131.854 175.223 131.964 174.621 132.073 174.02C132.127 173.719 132.182 173.419 132.237 173.091C132.291 172.79 132.373 172.462 132.428 172.161C133.466 167.077 135.569 161.201 138.71 155.133C140.267 152.099 142.069 148.983 144.008 145.839C145.948 142.696 147.941 139.443 149.99 136.109C152.011 132.774 153.895 129.467 155.562 126.214C157.228 122.961 158.593 119.709 159.686 116.538C160.778 113.367 161.598 110.279 162.226 107.354C162.827 104.429 163.209 101.669 163.482 99.1267C164.001 94.07 163.892 89.9154 163.755 87.0727C163.728 86.362 163.701 85.7334 163.646 85.1867C163.619 84.64 163.564 84.1754 163.564 83.7927C163.537 83.0274 163.537 82.6447 163.591 82.6174C163.646 82.6174 163.755 83.0001 163.919 83.7381C164.001 84.1207 164.083 84.558 164.192 85.132C164.274 85.6787 164.356 86.3074 164.465 87.0181C164.793 89.8881 165.094 94.07 164.739 99.236C164.575 101.805 164.247 104.648 163.701 107.627C163.127 110.634 162.362 113.777 161.27 117.057C160.205 120.31 158.812 123.672 157.146 126.979C155.48 130.314 153.595 133.676 151.547 137.011C149.498 140.373 147.45 143.598 145.51 146.714C143.571 149.857 141.769 152.891 140.185 155.871C137.016 161.802 134.831 167.487 133.684 172.435C133.602 172.735 133.52 173.036 133.466 173.337C133.411 173.637 133.356 173.938 133.275 174.239C133.165 174.84 133.029 175.414 132.947 175.961C132.865 176.535 132.783 177.081 132.701 177.601C132.646 178.147 132.592 178.667 132.537 179.159L132.455 179.897C132.455 180.143 132.428 180.389 132.428 180.607C132.401 181.072 132.373 181.537 132.373 181.947V184.297C132.401 185.008 132.455 185.637 132.482 186.183C132.482 186.457 132.51 186.703 132.537 186.949C132.564 187.167 132.592 187.386 132.592 187.577C132.619 188.37 132.619 188.78 132.564 188.78Z" fill="black" stroke="black" stroke-width="2" stroke-miterlimit="10"/>
<path d="M90.6942 197.199C90.4484 197.199 90.2845 195.668 90.2299 192.935C90.148 190.201 90.1753 186.238 90.148 181.373C90.1206 176.507 90.0933 170.713 89.711 164.317C89.6837 163.907 89.6563 163.524 89.6563 163.114L89.5744 161.884C89.5198 161.064 89.4378 160.244 89.3832 159.397C89.3013 158.577 89.2193 157.729 89.1374 156.882C89.0555 156.035 88.9462 155.187 88.837 154.313C88.4 150.869 87.881 147.315 87.089 143.735C85.5868 136.546 83.3745 129.904 80.9163 124.027C80.2882 122.551 79.66 121.157 79.0045 119.791C78.349 118.424 77.7208 117.112 77.038 115.909C76.3551 114.679 75.6723 113.531 74.9622 112.465C74.2521 111.399 73.4873 110.388 72.7499 109.404C71.275 107.463 69.9367 105.659 68.8988 103.965C67.8337 102.27 67.0962 100.685 66.6592 99.3181C66.4134 98.6347 66.3042 98.006 66.1949 97.4867C66.1403 96.94 66.0857 96.4754 66.0583 96.12C66.0857 95.3547 66.1403 94.972 66.2768 94.972C66.3861 94.972 66.5773 95.3274 66.7685 96.0107C66.8777 96.3387 67.0416 96.7487 67.2055 97.2407C67.424 97.7054 67.6152 98.252 67.9429 98.826C68.5165 100.001 69.3905 101.368 70.5376 102.871C71.6847 104.375 73.105 106.015 74.7164 107.873C75.5085 108.803 76.3552 109.787 77.2018 110.907C78.0485 112.001 78.8406 113.203 79.6053 114.461C80.3701 115.718 81.1075 117.057 81.8176 118.451C82.5278 119.818 83.2379 121.267 83.9207 122.77C86.652 128.756 89.0282 135.617 90.585 143.051C91.377 146.769 91.9233 150.431 92.3057 153.985C92.3876 154.859 92.4968 155.761 92.5515 156.609C92.6061 157.483 92.688 158.331 92.7426 159.205C92.7973 160.053 92.8246 160.9 92.8792 161.747C92.9065 162.157 92.9065 162.567 92.9338 163.005C92.9338 163.415 92.9612 163.825 92.9612 164.235C93.1523 170.767 92.9338 176.617 92.6334 181.509C92.333 186.402 91.9233 190.365 91.5682 193.071C91.2405 195.695 90.94 197.199 90.6942 197.199Z" fill="black" stroke="black" stroke-width="4" stroke-miterlimit="10"/>
<path d="M107.082 192.798C106.836 192.798 106.809 188.971 107 182.083C107.191 175.168 107.628 165.164 108.42 152.782C108.639 149.693 108.775 146.441 109.239 142.969C109.458 141.247 109.786 139.498 110.223 137.721C110.687 135.945 111.288 134.195 111.971 132.446C112.654 130.697 113.418 128.975 114.238 127.253C115.03 125.531 115.876 123.781 116.723 122.005C117.57 120.228 118.471 118.451 119.4 116.647C120.328 114.843 121.312 113.067 122.076 111.263C122.459 110.361 122.786 109.459 123.032 108.557C123.251 107.655 123.387 106.753 123.415 105.823C123.442 104.867 123.333 103.801 123.36 102.598C123.387 101.395 123.579 100.193 123.879 99.0173C124.179 97.842 124.616 96.694 125.217 95.628C125.299 95.4913 125.354 95.3546 125.436 95.218L125.49 95.1086L125.518 95.054L125.545 94.9993C125.6 94.9173 125.654 94.8353 125.709 94.726C125.955 94.398 126.228 94.07 126.61 93.742C126.801 93.578 127.047 93.4413 127.348 93.3046C127.648 93.168 128.03 93.086 128.44 93.086C128.549 93.086 128.659 93.086 128.768 93.1133C128.904 93.1406 129.041 93.168 129.178 93.2226C129.26 93.25 129.314 93.2773 129.314 93.2773L129.369 93.3046L129.423 93.332C129.669 93.4413 129.56 93.414 129.669 93.4413C130.024 93.66 130.352 93.9606 130.543 94.2613C130.926 94.89 131.008 95.4093 131.035 95.8466C131.062 96.0653 131.062 96.2566 131.062 96.448L131.035 96.9126C131.035 97.2133 131.008 97.514 130.98 97.8146C130.953 98.1153 130.926 98.416 130.871 98.7166C130.707 99.9193 130.407 101.149 129.97 102.325C129.533 103.527 128.904 104.703 128.085 105.769C127.266 106.835 126.201 107.791 124.944 108.447C123.66 109.103 122.24 109.459 120.847 109.486C120.137 109.513 119.427 109.431 118.744 109.295L118.225 109.185L117.979 109.131L117.734 109.049L117.242 108.885L116.75 108.693C115.439 108.147 114.238 107.245 113.282 106.097C112.817 105.523 112.408 104.894 112.135 104.211C111.971 103.883 111.861 103.527 111.725 103.199C111.67 103.035 111.616 102.844 111.588 102.68C111.534 102.516 111.479 102.325 111.452 102.161L111.37 101.614C111.343 101.423 111.343 101.259 111.315 101.067C111.261 100.712 111.288 100.357 111.261 99.974C111.288 99.2633 111.37 98.5253 111.534 97.8146C111.861 96.3933 112.572 95.0266 113.555 93.8786L116.259 90.7626L116.668 94.89C116.86 96.8033 116.668 98.7713 116.122 100.63C115.849 101.559 115.494 102.461 115.03 103.336C114.92 103.555 114.784 103.773 114.675 103.992C114.538 104.211 114.429 104.402 114.292 104.621C114.019 105.058 113.691 105.468 113.336 105.851C112.626 106.643 111.78 107.381 110.632 107.873C110.059 108.119 109.431 108.283 108.775 108.311C108.12 108.338 107.437 108.256 106.809 108.037C106.18 107.819 105.634 107.491 105.143 107.135C104.651 106.753 104.269 106.343 103.941 105.905C103.586 105.468 103.313 105.003 103.067 104.566C102.821 104.101 102.63 103.637 102.439 103.172C102.357 102.926 102.275 102.707 102.193 102.461L102.002 101.778C101.892 101.313 101.783 100.849 101.701 100.357C101.537 99.4 101.483 98.416 101.51 97.4046C101.565 96.3933 101.729 95.382 102.084 94.398C102.439 93.414 102.985 92.43 103.722 91.6373L104.378 90.8993L105.279 91.0633C105.416 91.0906 105.58 91.118 105.716 91.1726C105.853 91.2273 106.017 91.282 106.153 91.364C106.29 91.446 106.426 91.528 106.536 91.6373L106.863 91.9653C107.246 92.4026 107.382 92.84 107.464 93.1953C107.628 93.906 107.601 94.4526 107.546 94.9993L107.519 95.218L107.491 95.3546L107.437 95.628L107.328 96.202C107.273 96.5846 107.191 96.94 107.136 97.3226C106.863 98.826 106.59 100.302 106.317 101.805C106.18 102.571 105.989 103.391 105.716 104.211C105.443 105.031 105.033 105.878 104.46 106.671C103.886 107.436 103.149 108.119 102.22 108.611C101.756 108.857 101.237 109.049 100.691 109.131C100.144 109.24 99.5708 109.24 99.0519 109.185C97.9867 109.049 97.0854 108.611 96.3207 108.147C95.9383 107.901 95.5832 107.627 95.2555 107.354L94.7912 106.917C94.6273 106.78 94.4907 106.643 94.3542 106.479C93.207 105.277 92.2784 103.855 91.6775 102.352C91.0767 100.849 90.7216 99.236 90.667 97.6233C90.6123 96.0106 90.8582 94.398 91.4044 92.8673L91.896 91.446L93.289 91.8013L93.8625 91.9653C94.0537 92.0473 94.2449 92.1566 94.4088 92.266C94.7638 92.512 95.037 92.8126 95.2555 93.1406C95.6652 93.7693 95.8017 94.3706 95.8563 94.9173C95.911 95.464 95.911 95.9286 95.8563 96.3933C95.8017 96.858 95.7198 97.2953 95.5832 97.76C95.1462 99.2086 94.7365 100.712 94.0264 102.188C93.6713 102.926 93.2617 103.664 92.7154 104.32C92.1965 104.976 91.541 105.659 90.8035 106.151C90.0661 106.643 89.274 107.026 88.4 107.272C87.526 107.518 86.5974 107.6 85.6415 107.436C85.1772 107.354 84.7128 107.217 84.2485 107.026C84.03 106.917 83.8115 106.807 83.593 106.671L83.0195 106.261C82.282 105.659 81.7631 104.949 81.3534 104.265C80.9437 103.582 80.6433 102.899 80.3428 102.27C80.0697 101.614 79.7966 100.958 79.5508 100.275C79.0865 98.908 78.7314 97.4593 78.7314 95.9013C78.7314 95.136 78.8407 94.316 79.1138 93.5233C79.3869 92.7306 79.8239 91.9926 80.3702 91.364L81.8723 89.642L82.719 91.7466C83.593 93.9333 83.7569 96.2566 83.3199 98.416C83.1014 99.5093 82.719 100.548 82.2274 101.505C81.9543 101.969 81.6812 102.461 81.3261 102.899C80.971 103.336 80.5613 103.773 80.0424 104.129C79.7966 104.32 79.4962 104.484 79.1957 104.593C78.8953 104.73 78.5675 104.812 78.2671 104.867C77.6116 105.003 76.9561 104.949 76.3825 104.812C75.7817 104.675 75.2627 104.429 74.7984 104.156C74.3341 103.883 73.9244 103.555 73.542 103.199C73.1597 102.844 72.8319 102.489 72.5042 102.106C72.2037 101.723 71.9033 101.313 71.6848 100.931C71.1932 100.165 70.7835 99.4546 70.3465 98.7986C69.9095 98.1426 69.4725 97.5686 68.9535 97.1586C68.7077 96.94 68.4346 96.776 68.1888 96.612C68.0795 96.5573 67.9976 96.53 67.9703 96.53V96.2566C67.9703 96.202 67.943 96.1746 67.943 96.1746C68.298 96.8033 67.9703 96.3933 68.0522 96.5026H68.0249C67.8337 96.612 67.8064 96.858 67.8064 97.0493C67.8064 97.268 67.8883 97.4593 67.943 97.6506C68.0522 98.0333 68.1888 98.4433 68.3527 98.826C68.6804 99.5913 69.0901 100.384 69.7183 100.985C70.0187 101.286 70.4011 101.532 70.8108 101.696C71.002 101.778 71.2205 101.833 71.439 101.887C71.439 101.723 71.4117 101.532 71.4117 101.368C71.3024 100.329 71.0566 99.318 70.7015 98.334C70.5104 97.842 70.3192 97.3773 70.0733 96.9126C70.046 96.858 70.0187 96.8033 69.9914 96.7213L69.8548 96.5026C69.7729 96.366 69.691 96.202 69.609 96.0653C69.4452 95.7646 69.2813 95.4913 69.0901 95.218C68.9262 94.9446 68.735 94.6986 68.5712 94.4526C68.4073 94.2066 68.2161 93.988 68.0522 93.824C67.8883 93.6326 67.6972 93.496 67.5333 93.414C67.4787 93.3866 67.4513 93.3866 67.3967 93.3593C67.3694 93.3593 67.3694 93.3593 67.3421 93.332H67.1782H67.2055H67.0144C66.6593 93.3593 66.3315 93.578 66.0857 93.8786C65.8399 94.1793 65.7034 94.5073 65.6487 94.808C65.5941 95.218 65.6214 95.6006 65.676 95.956C65.7307 96.284 65.8126 96.5846 65.8672 96.8033C65.9765 97.268 66.0311 97.514 65.9765 97.5413C65.9218 97.5686 65.758 97.3773 65.5395 96.94C65.4302 96.7213 65.2937 96.448 65.1571 96.0926C65.0478 95.7373 64.9386 95.3 64.9659 94.7533C64.9932 94.316 65.1298 93.824 65.4302 93.3866C65.5668 93.168 65.758 92.9493 66.0038 92.758C66.2496 92.5666 66.55 92.43 66.9051 92.3753C67.069 92.348 67.2602 92.348 67.424 92.3753H67.5606C67.6152 92.3753 67.6699 92.4026 67.6972 92.4026L67.943 92.4846C68.2707 92.6213 68.5712 92.8126 68.817 93.0586C69.0628 93.2773 69.3086 93.5233 69.4998 93.7966C69.691 94.0426 69.9095 94.316 70.1007 94.5893C70.3192 94.8626 70.5104 95.136 70.7015 95.4366C70.8108 95.5733 70.8927 95.7373 71.002 95.9013L71.1385 96.1473C71.1932 96.2293 71.2478 96.3386 71.3024 96.448C71.7667 97.2406 72.2037 98.1426 72.5861 99.072C72.9685 100.001 73.2689 100.985 73.5147 101.969C73.7605 102.953 73.9517 103.965 74.1156 105.085C74.0337 105.277 73.9517 105.468 73.8698 105.632C73.5147 105.577 73.1323 105.523 72.8046 105.441C72.1218 105.277 71.5209 105.058 70.9747 104.73C70.4284 104.402 69.9368 103.992 69.4452 103.473C69.3359 103.336 69.1993 103.227 69.0901 103.063C68.9535 102.899 68.8443 102.789 68.7077 102.625C68.5712 102.461 68.4619 102.27 68.3253 102.106C68.1888 101.887 68.0522 101.696 67.9157 101.477C67.861 101.395 67.7791 101.231 67.6972 101.122L67.4787 100.739C67.3421 100.493 67.2055 100.165 67.069 99.8646L66.8505 99.4L66.6593 98.8806C66.5227 98.5253 66.3862 98.1973 66.3315 97.842L66.195 97.3226C66.1677 97.2406 66.1403 97.1586 66.1403 97.0493C66.1403 96.9673 66.113 96.8853 66.113 96.8033C66.0857 96.4753 66.113 96.202 66.1677 95.9286C66.2223 95.6553 66.3042 95.4093 66.4408 95.1906C66.5773 94.972 66.7685 94.7533 67.0417 94.6166L67.0963 94.5893C67.1236 94.562 67.0417 94.6166 67.069 94.6166L67.1236 94.5893L67.2875 94.5073C67.3967 94.4526 67.506 94.4253 67.6425 94.4253C67.861 94.398 68.0795 94.398 68.2707 94.4253C68.6531 94.48 68.9262 94.5893 69.172 94.6986C69.609 94.9173 70.046 95.1906 70.4011 95.4913C71.1658 96.0926 71.7394 96.8306 72.2583 97.5686C72.7773 98.3066 73.2143 99.0446 73.6786 99.728C73.9244 100.083 74.1156 100.384 74.3614 100.657C74.6072 100.931 74.8803 101.204 75.1535 101.45C75.4266 101.696 75.727 101.915 76.0275 102.079C76.3279 102.243 76.6283 102.379 76.9288 102.434C77.5297 102.571 78.0213 102.461 78.5129 102.106C79.0045 101.751 79.4689 101.095 79.8512 100.357C80.2336 99.6186 80.4794 98.826 80.6433 97.9786C80.8072 97.1586 80.8345 96.284 80.7525 95.4093C80.6706 94.562 80.4521 93.7146 80.097 92.922L82.4732 93.3046C81.8997 93.988 81.5992 94.8626 81.6265 95.956C81.6265 97.022 81.927 98.1973 82.3367 99.3726C82.5552 99.9466 82.801 100.548 83.0468 101.122C83.3199 101.723 83.593 102.297 83.8935 102.789C84.1939 103.281 84.5217 103.691 84.8767 103.965C85.2318 104.238 85.6142 104.402 86.0512 104.457C86.9251 104.593 88.045 104.265 88.919 103.637C89.3833 103.309 89.7384 102.953 90.0934 102.461C90.4485 101.997 90.7489 101.45 91.022 100.876C91.5683 99.728 91.9507 98.3613 92.3603 96.9673C92.4969 96.4206 92.5788 95.8193 92.5242 95.382C92.5242 95.3273 92.5242 95.2726 92.4969 95.2453V95.1906L92.4696 95.136V95.0813C92.4696 95.0813 92.4696 95.054 92.4423 95.054V95.0266C92.4423 95.0266 92.4696 94.9993 92.4969 94.9993C92.5242 94.972 92.5242 94.972 92.5515 94.972C92.5789 94.9446 92.6062 94.9446 92.6335 94.9173L92.6608 94.89L92.6881 94.8626V94.89C92.6881 94.9173 92.6881 94.9173 92.6608 94.9173C92.6335 94.972 92.6061 95.1086 92.6061 95.136L94.4907 94.07C94.1083 95.1633 93.9445 96.366 93.9991 97.5686C94.0537 98.7713 94.3268 100.001 94.7912 101.122C95.2555 102.27 95.9656 103.309 96.785 104.183C97.6317 105.058 98.6968 105.769 99.4889 105.851C99.6801 105.878 99.8713 105.878 100.035 105.823C100.226 105.796 100.39 105.714 100.581 105.632C100.964 105.441 101.346 105.085 101.647 104.675C101.947 104.265 102.193 103.746 102.384 103.172C102.575 102.598 102.739 101.942 102.848 101.231C103.121 99.7553 103.367 98.2793 103.64 96.8033C103.777 96.0926 103.886 95.3546 104.023 94.6166C104.05 94.4253 104.023 94.1793 104.023 94.152C104.023 94.1246 104.023 94.152 104.05 94.152C104.105 94.1246 104.159 94.1246 104.214 94.0973C104.323 94.07 104.378 94.0426 104.487 93.988C104.569 93.9606 104.624 93.9333 104.706 93.8786C104.76 93.8513 104.815 93.824 104.842 93.7693L104.924 93.6873C104.924 93.6873 104.924 93.66 104.951 93.66C104.951 93.6873 104.951 93.6873 104.924 93.7146C104.897 93.7693 104.897 93.7966 104.897 93.824L106.344 94.0973C105.552 94.9993 105.115 96.2566 105.061 97.678C105.033 98.3886 105.088 99.1266 105.197 99.8646C105.252 100.247 105.334 100.603 105.443 100.958L105.607 101.505C105.662 101.669 105.716 101.86 105.771 102.024C106.017 102.707 106.344 103.336 106.727 103.828C106.918 104.074 107.109 104.293 107.328 104.457C107.546 104.621 107.737 104.73 107.928 104.785C108.338 104.921 108.721 104.894 109.212 104.703C109.676 104.511 110.195 104.101 110.66 103.582C110.878 103.336 111.097 103.063 111.288 102.762C111.397 102.598 111.479 102.461 111.588 102.297C111.67 102.133 111.78 101.969 111.861 101.805C112.189 101.149 112.49 100.439 112.681 99.728C113.091 98.3066 113.227 96.8033 113.091 95.3273L116.177 96.3386C115.002 97.6506 114.511 99.7006 114.893 101.505L114.975 101.833L115.057 102.161C115.139 102.379 115.194 102.598 115.303 102.789C115.467 103.199 115.74 103.582 115.986 103.91C116.532 104.566 117.269 105.14 118.116 105.495L118.444 105.632L118.772 105.741L118.935 105.796L119.099 105.823L119.427 105.905C119.891 105.987 120.328 106.042 120.793 106.015C121.694 106.015 122.568 105.796 123.333 105.386C124.917 104.566 126.064 102.981 126.774 101.149C127.129 100.22 127.348 99.236 127.512 98.252C127.539 98.006 127.593 97.76 127.593 97.4866C127.621 97.2406 127.648 96.9946 127.648 96.7213L127.675 96.366V96.0106H127.73C127.757 96.0106 127.812 95.9833 127.839 95.9833C127.921 95.956 127.976 95.9286 128.03 95.9013L128.304 95.7646C128.44 95.6826 128.467 95.628 128.44 95.6553C128.467 95.6826 128.386 95.6006 128.467 95.71L128.44 95.6553L128.413 95.6006C128.386 95.5733 128.413 95.5733 128.413 95.5733H128.467V95.6006C128.467 95.6553 128.495 95.8193 128.577 96.0106C128.631 96.12 128.686 96.202 128.741 96.3386C128.741 96.366 128.795 96.4206 128.768 96.3933C128.741 96.4206 128.631 96.53 128.549 96.6393C128.522 96.6666 128.522 96.694 128.495 96.7213L128.467 96.7486L128.44 96.776L128.386 96.858L128.222 97.186C127.757 98.0333 127.402 98.9353 127.156 99.8646C126.911 100.794 126.747 101.723 126.719 102.68C126.692 103.637 126.747 104.675 126.747 105.851C126.719 107.026 126.528 108.229 126.228 109.349C125.927 110.47 125.518 111.509 125.081 112.52C124.179 114.515 123.169 116.292 122.24 118.069C121.312 119.845 120.41 121.595 119.509 123.317C118.635 125.039 117.788 126.761 116.969 128.455C116.15 130.15 115.385 131.817 114.702 133.457C114.019 135.097 113.418 136.737 112.981 138.377C112.517 140.017 112.189 141.657 111.943 143.297C111.452 146.577 111.206 149.803 110.933 152.919C109.868 165.273 108.994 175.25 108.42 182.111C107.737 189.026 107.328 192.825 107.082 192.798Z" fill="black" stroke="black" stroke-width="4" stroke-miterlimit="10"/>
<path d="M130.68 194.329C130.762 194.52 127.211 196.242 121.148 198.101C118.116 199.03 114.456 199.987 110.332 200.779C106.208 201.572 101.619 202.173 96.7851 202.474C94.3542 202.638 91.9781 202.693 89.6838 202.611C87.3896 202.556 85.1772 202.392 83.0742 202.091C82.8011 202.064 82.5552 202.037 82.2821 201.982C82.0363 201.927 81.7632 201.9 81.5174 201.845C80.9984 201.763 80.5068 201.681 80.0152 201.572C79.0319 201.353 78.076 201.162 77.1747 200.889C76.9562 200.834 76.7104 200.752 76.4919 200.697L76.1641 200.615C76.0549 200.588 75.9456 200.533 75.8364 200.506C75.3994 200.369 74.9897 200.205 74.5527 200.069C74.143 199.932 73.7333 199.768 73.3509 199.604C72.9685 199.44 72.5862 199.303 72.2038 199.139C69.2541 197.827 67.0964 196.351 65.7581 195.149L65.2664 194.739C65.1299 194.602 64.9933 194.465 64.8567 194.356C64.6109 194.11 64.4197 193.891 64.2559 193.727C63.9281 193.372 63.7916 193.181 63.8462 193.126C63.9008 193.071 64.1193 193.208 64.5017 193.454C64.6929 193.591 64.9387 193.755 65.2118 193.946C65.3484 194.055 65.4849 194.165 65.6488 194.274C65.8127 194.383 65.9766 194.493 66.1677 194.602C67.6153 195.586 69.8003 196.843 72.6681 197.964C73.0232 198.101 73.4056 198.21 73.7879 198.347C74.1703 198.483 74.5527 198.62 74.9624 198.729C75.3721 198.839 75.7817 198.975 76.1914 199.085L76.5192 199.167L76.8469 199.249L77.5024 199.413C78.3764 199.631 79.3051 199.795 80.261 199.987C80.7253 200.069 81.2169 200.123 81.7359 200.205C81.9817 200.233 82.2275 200.287 82.4733 200.315C82.7191 200.342 82.9922 200.369 83.2381 200.397C85.2865 200.643 87.4442 200.752 89.6838 200.807C91.9234 200.834 94.245 200.779 96.6212 200.643C106.153 200.096 114.702 198.401 120.765 196.843C126.883 195.34 130.598 194.055 130.68 194.329Z" fill="black" stroke="black" stroke-width="2" stroke-miterlimit="10"/>
<path d="M127.402 200.479C127.43 200.479 127.484 200.506 127.539 200.615C127.566 200.67 127.621 200.725 127.648 200.807C127.675 200.889 127.703 200.998 127.757 201.107C127.894 201.572 127.976 202.31 127.757 203.185C127.539 204.087 127.02 205.125 126.064 206.027C125.081 206.957 123.742 207.613 122.186 208.023C120.629 208.433 118.935 208.624 117.16 208.87C115.357 209.116 113.446 209.307 111.424 209.526C107.382 209.936 102.903 210.264 98.2326 210.51C93.5348 210.756 89.0829 210.893 85.0133 211.002C82.9922 211.029 81.053 211.084 79.2504 211.111C77.4477 211.139 75.6451 211.166 74.0337 210.565C73.2416 210.264 72.5315 209.827 71.9852 209.28C71.439 208.733 71.0566 208.105 70.7835 207.503C70.2646 206.273 70.1826 205.18 70.128 204.305C70.1007 203.431 70.1826 202.747 70.2372 202.283C70.3192 201.818 70.4011 201.599 70.4557 201.599C70.5104 201.599 70.565 201.845 70.5923 202.283C70.6469 202.72 70.6742 203.403 70.8108 204.223C70.9474 205.043 71.1386 206.055 71.6575 207.066C71.9306 207.558 72.2584 208.05 72.7227 208.46C73.187 208.87 73.7332 209.171 74.416 209.389C75.0715 209.581 75.809 209.69 76.601 209.717C77.3931 209.745 78.2398 209.69 79.1411 209.635C80.9437 209.553 82.8556 209.444 84.9041 209.362C88.9463 209.171 93.3982 208.979 98.0687 208.733C102.739 208.487 107.191 208.214 111.206 207.886C113.227 207.722 115.139 207.558 116.942 207.394C118.744 207.23 120.41 207.093 121.831 206.793C122.541 206.629 123.223 206.437 123.797 206.164C124.398 205.891 124.917 205.59 125.354 205.262C126.228 204.551 126.774 203.704 127.047 202.966C127.348 202.228 127.375 201.572 127.348 201.135V200.834C127.348 200.752 127.32 200.67 127.32 200.615C127.375 200.561 127.375 200.506 127.402 200.479Z" fill="black" stroke="black" stroke-width="2" stroke-miterlimit="10"/>
<path d="M121.448 210.346C121.475 210.346 121.53 210.373 121.585 210.455C121.639 210.537 121.721 210.674 121.776 210.865C121.912 211.248 122.022 211.849 121.912 212.642C121.803 213.407 121.503 214.337 120.902 215.266C120.601 215.731 120.219 216.195 119.727 216.605C119.263 217.015 118.717 217.398 118.116 217.753C116.914 218.437 115.494 218.929 113.992 219.311C112.49 219.694 110.878 220.049 109.185 220.405C105.771 221.088 102.002 221.635 97.9866 221.935C93.9717 222.236 90.1479 222.209 86.6792 221.963C84.9312 221.826 83.2379 221.58 81.7084 221.088C80.1789 220.596 78.8132 219.885 77.7481 218.929C76.7102 217.972 76.0274 216.851 75.645 215.84C75.2626 214.801 75.1534 213.817 75.2353 213.052C75.3172 212.287 75.5357 211.713 75.7269 211.357C75.9454 211.002 76.082 210.865 76.1366 210.893C76.1912 210.92 76.1639 211.139 76.0547 211.494C76 211.849 75.8908 212.396 75.9181 213.079C75.9454 213.763 76.1366 214.583 76.5463 215.457C76.956 216.332 77.6115 217.234 78.5401 217.999C79.4687 218.737 80.6978 219.339 82.0907 219.694C83.4837 220.077 85.0678 220.268 86.7612 220.35C90.1479 220.514 93.917 220.487 97.85 220.186C101.783 219.913 105.498 219.421 108.884 218.819C110.578 218.519 112.162 218.218 113.637 217.917C115.112 217.589 116.423 217.234 117.515 216.687C118.061 216.414 118.553 216.113 118.99 215.785C119.427 215.457 119.782 215.102 120.082 214.719C120.683 213.981 121.038 213.189 121.23 212.56C121.421 211.904 121.421 211.357 121.421 211.002V210.565C121.393 210.401 121.421 210.346 121.448 210.346Z" fill="black" stroke="black" stroke-width="2" stroke-miterlimit="10"/>
<path d="M118.061 220.596C118.116 220.596 118.198 220.76 118.225 221.088C118.253 221.416 118.253 221.935 118.116 222.564C117.952 223.193 117.652 223.931 117.106 224.669C116.559 225.434 115.795 226.172 114.839 226.773C113.883 227.402 112.736 227.921 111.506 228.359C110.277 228.796 108.939 229.179 107.519 229.479C104.651 230.108 101.455 230.381 98.1233 230.381C96.4573 230.381 94.8185 230.354 93.2617 230.272C91.7049 230.19 90.2027 230.135 88.7278 229.944C87.253 229.78 85.86 229.479 84.5763 228.933C83.9482 228.659 83.3746 228.331 82.8557 227.949C82.3367 227.566 81.8724 227.129 81.5173 226.664C80.7799 225.735 80.3429 224.751 80.0971 223.876C79.8786 222.974 79.824 222.181 79.8786 221.553C79.9878 220.268 80.3702 219.667 80.4521 219.694C80.5887 219.721 80.4522 220.405 80.5614 221.553C80.616 222.127 80.7526 222.81 81.053 223.575C81.3535 224.313 81.7905 225.133 82.4733 225.844C83.1288 226.555 84.0574 227.156 85.1499 227.566C86.2424 227.976 87.5261 228.195 88.8917 228.331C90.2573 228.441 91.7868 228.495 93.3163 228.55C94.8732 228.605 96.4573 228.632 98.096 228.632C101.346 228.605 104.433 228.386 107.191 227.894C109.922 227.375 112.408 226.691 114.183 225.735C115.084 225.243 115.795 224.669 116.313 224.067C116.86 223.466 117.215 222.865 117.433 222.345C117.925 221.307 117.925 220.623 118.061 220.596Z" fill="black" stroke="black" stroke-width="2" stroke-miterlimit="10"/>
<path d="M113.527 235.165C113.582 235.274 113.227 235.629 112.462 236.039C111.67 236.449 110.441 236.887 108.912 237.133C108.147 237.269 107.3 237.379 106.399 237.461C105.498 237.57 104.569 237.652 103.558 237.734C101.565 237.925 99.3522 238.117 97.0307 238.281C95.8835 238.363 94.7364 238.445 93.6166 238.472C92.4695 238.472 91.3497 238.417 90.2572 238.117C89.7109 237.98 89.192 237.761 88.7277 237.515C88.4819 237.379 88.2634 237.269 87.9902 237.051C87.6898 236.805 87.4713 236.477 87.3893 236.121C87.3074 235.793 87.2801 235.547 87.2801 235.329C87.2528 235.11 87.2528 234.891 87.2255 234.7C87.1982 234.29 87.1708 233.88 87.1435 233.497C86.9523 230.463 86.9797 228.55 87.2255 228.523C87.4713 228.495 87.9083 230.354 88.3999 233.361C88.4545 233.743 88.5365 234.126 88.5911 234.536C88.6184 234.755 88.6457 234.946 88.7003 235.165C88.7277 235.383 88.755 235.547 88.8096 235.657C88.8369 235.739 88.8915 235.793 88.9735 235.848C89.0554 235.903 89.2739 236.012 89.4651 236.094C89.8475 236.258 90.2572 236.395 90.6942 236.504C92.4695 236.914 94.6272 236.641 96.9487 236.477C99.2703 236.313 101.483 236.176 103.476 236.067C105.498 235.957 107.3 235.93 108.802 235.848C110.277 235.766 111.452 235.547 112.271 235.356C113.008 235.219 113.473 235.055 113.527 235.165Z" fill="black" stroke="black" stroke-width="2" stroke-miterlimit="10"/>
<path d="M114.21 235.957C113.719 236.012 113.118 233.935 113.036 231.311C112.954 228.687 113.446 226.582 113.937 226.609C114.429 226.637 114.729 228.714 114.811 231.283C114.893 233.825 114.702 235.93 114.21 235.957Z" fill="black" stroke="black" stroke-width="2" stroke-miterlimit="10"/>
<path d="M21.2991 66.6611C26.5274 70.079 30.8727 72.6858 31.0047 72.4836C31.1367 72.2814 27.0054 69.3467 21.7771 65.9289C16.5489 62.511 12.2035 59.9042 12.0716 60.1064C11.9396 60.3086 16.0709 63.2433 21.2991 66.6611Z" fill="black" stroke="black" stroke-miterlimit="10"/>
<path d="M41.0947 49.3254C41.0401 49.38 40.5758 48.97 39.7564 48.232C38.937 47.4667 37.7626 46.3734 36.3423 45.0067C33.4745 42.246 29.5142 38.4467 25.1442 34.2374C18.1522 27.5407 12.1708 21.91 10.1223 19.8327L10.3408 19.6414C10.7505 20.27 10.9417 20.598 10.9144 20.6527C10.8871 20.68 10.5866 20.3794 10.1223 19.8327L10.3408 19.6414C12.6351 21.4727 18.8077 26.912 25.7997 33.636C30.197 37.8454 34.0754 41.7267 36.8339 44.5967C38.2269 46.018 39.3194 47.1934 40.0568 48.0407C40.7669 48.7787 41.1493 49.2707 41.0947 49.3254Z" fill="black" stroke="black" stroke-miterlimit="10"/>
<path d="M49.7253 33.7938C52.7951 37.3638 55.432 40.1301 55.615 39.9726C55.7979 39.815 53.4576 36.7933 50.3878 33.2233C47.3179 29.6533 44.681 26.887 44.4981 27.0445C44.3152 27.2021 46.6555 30.2238 49.7253 33.7938Z" fill="black" stroke="black" stroke-miterlimit="10"/>
<path d="M69.8547 32.2967C69.6089 32.406 68.1887 29.618 66.1402 26.3927C64.0918 23.14 62.2072 20.6527 62.3984 20.4887C62.5623 20.3247 64.8019 22.5934 66.8777 25.9007C68.9807 29.208 70.0732 32.2147 69.8547 32.2967ZM180.525 177.956C180.443 178.065 178.613 176.863 175.691 174.84C172.768 172.817 168.781 169.975 164.411 166.804C160.041 163.633 156.108 160.709 153.294 158.549C150.481 156.39 148.761 155.023 148.842 154.914C148.924 154.805 150.754 156.007 153.677 158.03C156.599 160.053 160.587 162.895 164.957 166.066C169.327 169.237 173.26 172.161 176.073 174.321C178.886 176.48 180.607 177.847 180.525 177.956Z" fill="black" stroke="black" stroke-miterlimit="10"/>
<path d="M176 114.939C180.838 116.4 184.816 117.397 184.886 117.166C184.956 116.934 181.091 115.563 176.253 114.102C171.415 112.641 167.437 111.644 167.367 111.875C167.297 112.107 171.162 113.478 176 114.939Z" fill="black" stroke="black" stroke-miterlimit="10"/>
<path d="M181.426 93.7693C181.399 94.0153 179.159 93.9059 176.428 93.8786C173.697 93.8239 171.485 93.8786 171.457 93.6326C171.43 93.3866 173.67 92.9493 176.456 93.0039C179.241 93.0313 181.481 93.5506 181.426 93.7693ZM47.8683 147.889C47.8956 147.944 47.4859 148.381 46.7212 149.119C45.9564 149.857 44.782 150.923 43.3617 152.235C40.4939 154.832 36.5063 158.385 32.0543 162.267C25.1443 168.28 19.1901 173.337 16.7866 175.195L16.5955 174.949C17.3602 174.512 17.7699 174.293 17.8245 174.321C17.8518 174.375 17.4968 174.676 16.7866 175.195L16.5955 174.949C18.7805 172.817 24.5707 167.597 31.4808 161.583C35.9327 157.702 39.975 154.231 42.952 151.743C44.4269 150.513 45.656 149.502 46.5026 148.846C47.3493 148.19 47.8136 147.835 47.8683 147.889Z" fill="black" stroke="black" stroke-miterlimit="10"/>
<path d="M5.82172 200.872C5.75992 226.928 5.90548 248.05 6.14683 248.051C6.38818 248.051 6.63392 226.93 6.69572 200.874C6.75752 174.819 6.61197 153.697 6.37063 153.696C6.12928 153.696 5.88352 174.817 5.82172 200.872Z" fill="black" stroke="black" stroke-miterlimit="10"/>
<path d="M12.5533 238.089C12.444 238.089 12.2528 236.149 12.1163 233.005C11.9797 229.862 11.8432 225.516 11.8158 220.705C11.7885 215.895 11.8705 211.549 11.9797 208.405C12.089 205.262 12.2255 203.321 12.3621 203.321C12.4987 203.321 12.5533 205.262 12.6079 208.405C12.6625 211.549 12.6898 215.895 12.7172 220.705C12.7445 225.516 12.7718 229.862 12.7445 233.005C12.7445 236.149 12.6898 238.089 12.5533 238.089ZM205.653 61.2153C205.68 61.27 205.625 61.3793 205.434 61.4886C205.243 61.6253 204.943 61.7346 204.533 61.762C203.741 61.8166 202.621 61.352 201.938 60.3133C201.61 59.8213 201.447 59.2746 201.365 58.7826C201.283 58.2906 201.255 57.8533 201.255 57.498C201.283 56.7873 201.392 56.35 201.501 56.35C201.638 56.35 201.747 56.7873 201.856 57.4433C201.993 58.0993 202.157 59.0286 202.676 59.8213C202.921 60.204 203.249 60.5046 203.577 60.7233C203.905 60.942 204.26 61.0786 204.56 61.1333C205.188 61.27 205.598 61.106 205.653 61.2153Z" fill="black" stroke="black" stroke-miterlimit="10"/>
<path d="M73.5419 108.502C73.0776 108.639 72.3948 107.983 71.6574 106.807C70.92 105.632 70.1006 103.937 69.3358 102.051C68.5711 100.138 67.9975 98.3887 67.6971 97.022C67.3966 95.6554 67.4239 94.6987 67.8609 94.48C68.2979 94.2614 69.09 94.808 69.964 95.9287C70.838 97.0494 71.8213 98.7167 72.6406 100.712C73.4327 102.68 73.897 104.593 74.0336 105.987C74.1974 107.409 74.0063 108.365 73.5419 108.502Z" fill="black" stroke="black" stroke-width="4" stroke-miterlimit="10"/>
<path d="M245.747 124.629C245.665 124.711 245.064 124.137 244.327 123.043C243.945 122.524 243.535 121.841 243.125 121.075C242.716 120.31 242.333 119.435 242.005 118.479C241.323 116.593 240.995 114.789 240.913 113.477C240.858 112.821 240.858 112.301 240.886 111.919C240.886 111.837 240.886 111.727 240.94 111.645C240.968 111.563 241.05 111.509 241.104 111.563C241.159 111.618 241.159 111.673 241.186 111.7C241.186 111.727 241.186 111.727 241.213 111.727H241.268C241.295 111.7 241.295 111.673 241.268 111.645C241.241 111.618 241.186 111.673 241.213 111.7C241.213 111.755 241.241 111.809 241.241 111.891C241.323 112.247 241.405 112.766 241.541 113.395C241.787 114.652 242.197 116.347 242.852 118.178C244.108 121.868 245.966 124.465 245.747 124.629ZM192.187 76.686C192.242 76.7954 191.914 77.0687 191.423 77.506C190.931 77.9434 190.303 78.572 189.729 79.3647C189.156 80.1574 188.801 80.9774 188.555 81.5787C188.5 81.7154 188.446 81.852 188.391 81.9614C188.364 82.016 188.364 82.1254 188.418 82.1527C188.473 82.18 188.5 82.1527 188.5 82.1254C188.5 82.098 188.473 82.0707 188.446 82.0707C188.418 82.0707 188.418 82.098 188.418 82.098L188.364 82.1527C188.364 82.18 188.336 82.18 188.336 82.2074C188.309 82.2894 188.227 82.344 188.091 82.3167C187.954 82.2894 187.872 82.1254 187.872 81.934C187.872 81.7427 187.899 81.606 187.899 81.4147C187.981 80.704 188.309 79.7474 188.965 78.8454C189.593 77.9434 190.385 77.3147 191.013 76.9867C191.696 76.6587 192.133 76.5767 192.187 76.686ZM195.11 78.2714C195.192 78.3807 194.809 78.736 194.291 79.2827C194.017 79.556 193.717 79.9114 193.417 80.294C193.116 80.704 192.788 81.1414 192.488 81.6334C192.187 82.1254 191.942 82.6174 191.75 83.082C191.559 83.5467 191.395 83.984 191.286 84.3394C191.04 85.0774 190.931 85.542 190.794 85.542C190.685 85.542 190.576 85.0227 190.685 84.2027C190.74 83.7927 190.849 83.3007 191.013 82.7814C191.177 82.262 191.423 81.7154 191.75 81.1687C192.078 80.622 192.461 80.1574 192.816 79.7474C193.198 79.3374 193.58 79.0367 193.908 78.7907C194.564 78.326 195.055 78.1894 195.11 78.2714ZM240.421 135.207C240.503 135.316 240.012 135.781 239.165 136.464C238.318 137.12 237.089 137.995 235.56 138.733C234.838 139.069 234.089 139.343 233.32 139.553C232.965 139.635 232.637 139.717 232.309 139.744C232.146 139.771 231.982 139.799 231.845 139.799C231.681 139.799 231.545 139.826 231.408 139.826C230.288 139.853 229.633 139.662 229.633 139.553C229.633 139.416 230.316 139.389 231.326 139.197L231.736 139.115C231.873 139.088 232.009 139.033 232.173 139.006C232.473 138.951 232.774 138.842 233.102 138.733C233.757 138.514 234.467 138.241 235.177 137.885C236.625 137.202 237.881 136.437 238.81 135.917C239.766 135.398 240.367 135.097 240.421 135.207ZM309.932 233.47C309.795 233.47 309.686 233.033 309.467 232.377C309.358 232.049 309.221 231.666 309.03 231.229C308.839 230.819 308.621 230.381 308.32 229.944C308.047 229.507 307.719 229.124 307.446 228.769C307.146 228.441 306.845 228.14 306.599 227.894C306.081 227.429 305.725 227.129 305.78 227.019C305.835 226.91 306.299 226.992 306.955 227.375C307.282 227.566 307.637 227.839 308.02 228.167C308.375 228.523 308.757 228.933 309.058 229.425C309.358 229.917 309.604 230.436 309.768 230.901C309.932 231.393 310.014 231.83 310.041 232.213C310.177 233.005 310.041 233.47 309.932 233.47Z" fill="black" stroke="black" stroke-miterlimit="10"/>
<path d="M177.493 60.86C177.439 60.9693 176.51 60.5593 175.09 59.712C174.38 59.302 173.588 58.7553 172.714 58.0993C171.84 57.4433 170.911 56.7053 169.982 55.858C169.054 55.0107 168.234 54.1633 167.497 53.3433C166.787 52.5233 166.159 51.758 165.694 51.102C164.738 49.7627 164.247 48.888 164.356 48.806C164.575 48.642 166.951 51.8947 170.583 55.202C174.216 58.5367 177.63 60.6413 177.493 60.86Z" fill="white" stroke="white" stroke-miterlimit="10"/>
</svg>
