<svg width="535" height="301" viewBox="0 0 535 301" fill="none" xmlns="http://www.w3.org/2000/svg">
<g clip-path="url(#clip0_310_4997)">
<path opacity="0.11" d="M255.359 307.241C321.683 307.241 375.45 299.92 375.45 290.889C375.45 281.858 321.683 274.537 255.359 274.537C189.035 274.537 135.268 281.858 135.268 290.889C135.268 299.92 189.035 307.241 255.359 307.241Z" fill="#2A94F4"/>
<path opacity="0.11" d="M394.76 196.817C396.194 232.051 361.708 311.55 261.01 306.796C166.128 302.316 72.2382 226.773 125.438 107.547C176.849 -7.66793 269.351 1.89969 301.959 11.0242C338.014 21.113 441.015 61.9826 382.09 130.004C287.543 239.147 391.836 124.98 394.76 196.817Z" fill="#2A94F4"/>
<path d="M217.309 78.8108L196.295 58.5992L159.544 96.826L180.557 117.036C188.863 101.021 201.672 87.7201 217.309 78.8108ZM170.125 159.941C170.125 150.729 171.467 141.831 173.953 133.425H144.805V186.458H173.953C171.467 178.052 170.125 169.154 170.125 159.941ZM263.414 66.6331C272.625 66.6331 281.521 67.9748 289.925 70.462V41.3076H236.903V70.462C245.308 67.9748 254.204 66.6331 263.414 66.6331ZM346.272 117.036L367.285 96.826L330.533 58.5992L309.519 78.8108C325.157 87.7201 337.966 101.021 346.272 117.036ZM352.875 133.425C355.362 141.831 356.703 150.729 356.703 159.941C356.703 169.154 355.362 178.052 352.875 186.458H382.024V133.425H352.875ZM309.519 241.072L330.533 261.284L367.285 223.057L346.272 202.848C337.966 218.863 325.157 232.163 309.519 241.072ZM180.557 202.847L159.544 223.057L196.295 261.284L217.31 241.072C201.672 232.163 188.863 218.863 180.557 202.847ZM263.414 253.25C254.204 253.25 245.308 251.908 236.903 249.421V278.575H289.925V249.421C281.521 251.908 272.625 253.25 263.414 253.25Z" fill="#4F008B"/>
<path d="M364.695 157.6C363.472 101.661 317.784 56.6826 261.564 56.6826C249.725 56.6826 238.364 58.7029 227.774 62.3732C220.073 65.0423 212.805 68.6214 206.06 72.945C198.787 77.6071 192.124 83.1377 186.246 89.4197C179.852 96.2546 174.36 103.945 169.997 112.324C162.584 126.559 158.374 142.73 158.374 159.894C158.374 163.142 158.536 166.351 158.829 169.522C162.877 213.275 194.219 249.115 235.675 259.827C243.948 261.965 252.622 263.106 261.564 263.106C318.553 263.106 364.754 216.896 364.754 159.894C364.754 159.125 364.713 158.366 364.695 157.6ZM261.564 227.094C255.727 227.094 250.064 226.347 244.665 224.948C217.158 217.821 196.534 193.694 194.571 164.451C194.47 162.941 194.377 161.429 194.377 159.894C194.377 148.468 197.25 137.724 202.281 128.306C205.431 122.41 209.453 117.06 214.141 112.376C217.455 109.065 221.123 106.115 225.062 103.547C229.831 100.436 235.003 97.894 240.516 96.0763C247.307 93.8336 254.412 92.6915 261.564 92.6934C297.9 92.6934 327.481 121.55 328.692 157.6C328.718 158.363 328.75 159.125 328.75 159.894C328.75 197.008 298.669 227.094 261.564 227.094Z" fill="#4F008B"/>
<path fill-rule="evenodd" clip-rule="evenodd" d="M211.758 206.977C211.758 206.977 208.308 209.552 206.544 210.869C206.247 211.091 205.889 211.215 205.519 211.225C205.149 211.235 204.785 211.13 204.477 210.925C204.128 210.694 203.831 210.393 203.603 210.042C203.375 209.691 203.221 209.297 203.15 208.884C203.08 208.472 203.095 208.049 203.194 207.642C203.293 207.236 203.475 206.854 203.727 206.519L206.789 202.462L211.758 206.977Z" fill="#FCD2B1"/>
<path fill-rule="evenodd" clip-rule="evenodd" d="M272.567 184.98C275.138 186.872 279.752 188.829 281.43 190.979C292.206 204.784 280.831 215.39 265.31 204.788C240.363 187.747 243.035 181.376 211.54 209.121L204.405 203.535C227.536 165.08 236.533 158.469 272.567 184.98Z" fill="#3E60C1"/>
<path fill-rule="evenodd" clip-rule="evenodd" d="M243.358 249.859L241.319 257.41C241.209 257.817 240.956 258.17 240.606 258.405C240.256 258.639 239.832 258.739 239.414 258.685C238.845 258.612 238.328 258.317 237.978 257.863C237.627 257.409 237.47 256.834 237.543 256.265L238.668 247.469L243.358 249.859Z" fill="#FCD2B1"/>
<path fill-rule="evenodd" clip-rule="evenodd" d="M243.056 256.652C243.044 256.296 236.124 255.693 236.042 255.965C236.019 255.999 236.008 256.038 235.996 256.077C234.886 259.814 231.249 262.21 227.378 261.754C227.155 261.727 226.929 261.743 226.713 261.8C224.318 262.44 222.988 263.798 222.747 265.895C229.508 266.787 236.375 266.624 243.357 265.322L243.056 256.652ZM208.002 211.036C208.167 210.72 202.446 206.78 202.241 206.977C202.205 206.997 202.173 207.022 202.146 207.052C199.337 209.754 194.991 210.043 191.849 207.736C191.668 207.603 191.464 207.506 191.247 207.448C188.849 206.823 187.022 207.348 185.778 209.052C191.218 213.165 197.272 216.413 203.987 218.726L208.002 211.036Z" fill="#0B4870"/>
<path d="M197.337 212.884C197.337 212.884 197.364 212.894 197.337 212.884V212.884Z" fill="#0B4870"/>
<path fill-rule="evenodd" clip-rule="evenodd" d="M282.034 199.418C285.225 199.543 290.142 198.579 292.736 199.418C309.397 204.81 303.753 224.89 284.958 224.809C254.749 224.679 254.388 219.964 244.397 251.685L237.076 250.987C234.687 206.173 237.336 197.661 282.034 199.418Z" fill="#3E60C1"/>
<path fill-rule="evenodd" clip-rule="evenodd" d="M286.409 182.752C286.409 182.752 291.092 185.927 293.193 183.674C295.293 181.42 293.837 188.301 293.837 188.301L291.449 190.817L287.124 186.671L282.747 182.002L286.409 182.752ZM310.714 161.19C307.674 157.769 302.202 151.763 302.202 151.763C302.202 151.763 292.769 154.806 293.837 160.697C294.905 166.588 295.524 171.39 295.524 171.39L307.624 168.061C307.624 168.061 313.755 164.611 310.714 161.19Z" fill="#DF9481"/>
<path fill-rule="evenodd" clip-rule="evenodd" d="M293.811 160.697C293.811 160.697 296.97 191.412 285.651 193.782L284.958 199.418C284.958 199.418 295.391 196.678 297.672 192.027C299.953 187.375 302.716 164.06 302.716 164.06C298.475 164.38 295.393 163.389 293.811 160.697Z" fill="#0B4870"/>
<path fill-rule="evenodd" clip-rule="evenodd" d="M282.531 134.994C278.384 137.995 276.805 143.378 278.009 148.666C278.224 149.607 279.202 154.071 280.391 155.787C286.392 164.451 296.447 162.18 300.22 159.451C306.039 155.24 306.801 146.342 301.919 139.593C297.038 132.844 288.35 130.783 282.531 134.994Z" fill="#DF9481"/>
<path fill-rule="evenodd" clip-rule="evenodd" d="M269.676 142.719C270.189 153.519 286.781 142.977 287.38 140.515C287.291 143.95 288.95 146.616 292.202 148.584C292.202 148.584 291.494 152.053 294.559 153.625C297.624 155.198 302.517 158.714 305.135 155.722C306.924 153.678 307.369 149.293 307.762 145.643C309.458 129.903 296.049 131.882 293.129 130.526C293.129 130.526 268.792 124.115 269.676 142.719Z" fill="#0B4870"/>
<path fill-rule="evenodd" clip-rule="evenodd" d="M291.835 149.167C291.835 147.221 293.412 145.643 295.358 145.643C297.304 145.643 298.882 147.221 298.882 149.167V149.508C298.882 151.643 297.152 153.373 295.018 153.373H291.835V149.167Z" fill="#DF9481"/>
<path d="M276.889 147.777C276.889 147.777 276.889 147.75 276.889 147.777V147.777ZM304.617 134.887C304.601 134.814 304.617 134.887 304.617 134.887V134.887Z" fill="#602600"/>
<path d="M262.042 167.393L288.89 188.818L289.706 187.784L263.238 166.876C262.784 166.722 262.314 167.049 262.042 167.393Z" fill="#D3D3D3"/>
<path fill-rule="evenodd" clip-rule="evenodd" d="M262.767 167.393L289.298 188.301L284.966 199.284L258.435 178.376L262.767 167.393Z" fill="#F7F7F7"/>
<path d="M284.345 199.178C284.121 200.25 284.464 200.574 285.598 199.854L290.122 188.301C289.923 187.69 289.444 187.61 288.685 188.062L284.345 199.178Z" fill="#D3D3D3"/>
<path d="M257.689 178.132C257.557 178.534 257.593 178.621 257.889 178.891L284.411 200.138L285.234 199.11L259.093 178.168L262.95 167.393H262.042L257.689 178.132Z" fill="#D3D3D3"/>
<path fill-rule="evenodd" clip-rule="evenodd" d="M287.687 198.261C292.622 200.219 295.221 210.62 296.454 222.472C343.306 209.417 327.708 170.78 308.435 158.645C307.619 162.571 304.877 163.465 300.319 164.061C300.189 176.896 299.425 184.188 287.687 198.261Z" fill="#0B4870"/>
<path fill-rule="evenodd" clip-rule="evenodd" d="M291.643 199.966C290.448 199.477 289.226 199.054 287.984 198.699C287.468 198.565 286.987 198.318 286.578 197.975C286.168 197.633 285.84 197.203 285.616 196.718C284.729 194.776 283.282 193.102 281.243 191.713C280.859 191.453 280.542 191.106 280.318 190.7C279.967 190.071 279.484 189.198 279.484 189.198C279.132 188.57 278.668 188.296 278.183 188.301C277.981 188.3 277.782 188.354 277.609 188.458C277.436 188.563 277.294 188.713 277.201 188.892C277.107 189.071 277.065 189.273 277.078 189.474C277.092 189.676 277.16 189.87 277.277 190.035C277.899 190.981 278.944 192.464 279.631 193.439C279.663 193.485 279.679 193.539 279.678 193.595C279.677 193.651 279.659 193.706 279.625 193.75C279.591 193.795 279.544 193.828 279.49 193.844C279.436 193.86 279.379 193.859 279.326 193.84C278.939 193.697 278.522 193.683 278.089 193.772C277.686 193.852 277.271 193.836 276.875 193.727C276.48 193.618 276.115 193.418 275.811 193.143C274.964 192.387 273.983 191.671 272.846 190.996C272.035 190.515 271.284 191.473 271.336 192.485L277.561 197.219C282.53 197.765 286.407 200.439 290.069 203.534C290.069 203.534 294.817 201.262 291.643 199.966Z" fill="#DF9481"/>
<path fill-rule="evenodd" clip-rule="evenodd" d="M302.304 199.854C298.354 201.095 293.718 200.689 291.755 200.033C290.431 199.59 288.333 202.417 289.795 203.266C293.026 205.143 299.306 208.205 304.669 209.81C305.616 206.427 303.725 202.712 302.304 199.854Z" fill="#DF9481"/>
<path fill-rule="evenodd" clip-rule="evenodd" d="M304.245 209.679C314.558 212.672 334.961 206.143 321.72 171.861C321.057 170.145 316.42 164.801 310.245 167.014C307.796 167.892 302.55 171.898 305.885 179.031C313.196 194.666 306.916 198.423 301.137 200.239C303.696 203.025 305.189 206.3 304.245 209.679Z" fill="#3E60C1"/>
<path d="M280.487 179.874C279.782 179.884 279.008 180.049 278.805 180.694C278.578 181.418 279.296 182.193 280.117 182.043C281.789 181.758 283.477 182.847 285.069 183.941C285.069 183.941 286.462 184.354 286.71 183.308C286.937 182.351 285.573 181.655 284.404 181.029C283.186 180.377 281.874 179.856 280.487 179.874Z" fill="#DF9481"/>
</g>
<defs>
<clipPath id="clip0_310_4997">
<rect width="535" height="301" fill="white"/>
</clipPath>
</defs>
</svg>
